<svg xmlns="http://www.w3.org/2000/svg" id="_Слой_1" data-name="Слой_1" version="1.1" viewBox="0 0 250 64"><defs><style>.st0{fill:#f9f8f9}.st1{fill:#dc0a06}</style></defs><path d="M29.43 26.9c-1.35-1.43-2.69-2.71-4.37-3.75 1.58-.61 2.41-1.02 3.68-2.2.27-2.87.31-5.75.13-8.62-2.49-2.72-3.79-4.56-7.65-4.55-5.92 0-11.87.06-17.78.05.26 1.92.81 3.34 1.85 4.96.05 8.89 1.01 19.11-1.94 27.26 4.2-.07 17.96.26 21.19-.66 1.37-.39 2.51-1.23 3.5-2.24.87-.75 1.22-1.1 1.35-2.26.31-2.6.1-5.36.05-7.98Zm-7.95 7.04c-2.37.44-7.23.28-8.51.63.21.88.89 3.39.09 4.01-.5-2.08-.78-6.36-.36-8.47.05-1.24 0-2.81.01-4.08-.11-1.43-.1-3.51-.13-4.99-.03-2.6-.04-5.2-.04-7.79 2.28.39 6.3.42 8.73.51.1 2.23.1 4.46 0 6.68l-8.29.65c.27 1.58.35 3.19.25 4.79 1.48.47 5.95.52 8.23.98.05 2.36.06 4.72.02 7.08M240.28 27.97c-.32-.37-2.02-1.35-2.5-1.64 1.36.16 2.76.34 4.12.45.88-1.06 2.39-3 3.31-3.92-.14-3.46-.1-7.01-.25-10.38-1.72-2.05-2.73-3.07-4.93-4.59-5.76-.08-15.26-.42-20.77-.06.55 2.2.75 3.17 2.26 4.95-.15 6.53 0 13.06-.1 19.58-.04 2.98-1.02 3.75-.92 7.39 3.07.07 6.26.19 9.32.04-.39-4.89-1.47-6.56-.92-12.04-.08-1.54.03-3.97.05-5.57 0-2.94.02-5.97-.04-8.91 1.31.1 1.99.12 3.3.03l.45-2.82c.26.8.28 1.91.33 2.78 1.59.11 3.11.24 4.71.24.04 2.66.13 5.87-.22 8.48-2.62.06-5.25.18-7.87.34.17 1.84.21 3.48.05 5.33 1.22.06 2.29.12 3.52.04 1.55 4.12 3.79 8.47 5.21 12.38q4.41-.105 8.82 0c-3.5-4.33-3.53-8.11-6.91-12.1ZM213.45 25.27c1.77-1.35 3.5-3.24 5.07-4.85-1.97.11-4.56.49-6.23-.47-.96-1.45-3.84-10.27-4.25-12.16-2.48.03-4.97.02-7.45-.04-.54 3.59-2.35 8.01-3.68 11.42-.87 2.23-6.44.81-7.77 1.49.19 1.02 1.57.43 2.17.82 1.29.85 2.71 2.34 3.82 3.41-2.05 4.66-2.94 10.3-5.13 14.76l7.6.05c1.23-4.05 2.26-5.26 6.37-6.77.58.22 1.95.7 2.45.95 2.81 2.03 3.36 2.49 4.28 5.85l8.24-.02c-2.71-4.64-3.32-10.65-5.48-14.45Zm-3.64 9.11c-2.18-1.97-2.98-3.46-5.76-5-1.67 1.07-4.34 3.74-5.93 5.2 1-2.91 1.62-5.54 2.35-8.52-2.58-2.14-3.74-3.06-6.8-4.37 2.86-.13 5.37.42 8.37.17 1.07-2.82 1.51-4.82 2.04-7.77.13.1.28.22.46.36.48 2.48 1.05 5.24 2.02 7.52 2.11.12 5.62-.15 7.89-.22-2.61 1.53-4.25 2.2-6.2 4.57.34 3.04.85 5.12 1.56 8.06M66.97 7.86c3.12 0 6.24-.02 9.35-.07.39 2.85 2.98 10.43 3.95 13.37 1.66 5.07 3.99 13.82 6.43 18.45-3.14.13-6.29.11-9.43-.05-.18-.59-.34-1.18-.51-1.78-.51-1.58.18-3.25-.34-4.86-1.63-5.02-2.99-9.66-3.97-14.86-.08-1.21-.02-3.24 0-4.5-2.66 5.54-3.29 11.86-4.79 17.75-.12.49-1.39 2.44-1.72 2.98.22.61.25.49.82.97.02.39-1.19 3.45-1.38 4.46-2.7.02-5.5-.03-8.2-.05 2.97-8.32 5.72-16.72 8.24-25.19.27-.92.59-2.12.64-3.07.07-1.37-.73-2.09-.03-3.36l.96-.18Z" class="st0"/><path d="m168.28 7.81 24.69-.03c0 2.93-.02 5.4-.2 8.33-1.91-.09-2.92.37-3.32-1.59-.18-.88-4.54-1.16-5.5-1.32.73 3.67.54 16.79.55 21.11-.25 1.25 1.28 1.06 1.17 1.48-.15.53.01 3.43-.12 3.77-1.36.31-8.16.06-9.9 0 .36-3.24 1.07-5.46 1.28-9 .27-4.47-.48-13.03.37-16.98-3 .02-4.27-.57-5.93 2.12-.67.55-1.9.55-2.8.63-.29-3.05-.29-5.47-.3-8.53ZM51.29 30.52v.2c-.02 2.6-.17 4.06-3.36 4-1.51-.03-3.1-.08-4.62-.11-.2-5.88-.04-12 0-17.9.01-2.72.73-5.96 1.04-8.74-3.43-.18-6.6-.14-10.03-.1.33 1.93 1.07 4.23 1.19 6.68.3 6.23.3 13.22.12 19.48 0-.06-.9 1.09-.91 1.23-.03 1.43-.2 3.11-.33 4.49 3.23 0 6.91.06 10.09-.16.12-1.13.08-2.84.84-3.54l-.03-.19c.45.94.11 2.72-.02 3.82 3.33.1 7.01.03 10.37.04.14-1.81.46-3.84.69-5.66.53-4.3-1.9-3.85-5.04-3.55ZM147.5 7.77c2.2-.07 4.54-.02 6.75-.02.09 2.02.04 3.7-.03 5.72l-3.88.03.2 5.8c2.39.22 2.71-.01 4.2 1.64.48-.15.71-.32 1.12-.6 5.2.02 7.38 1.85 10.86 5.29.04 3.31 0 6.61-.09 9.92-1.51 1.56-3.18 2.83-4.94 4.09-.96.2-4.92.07-6.13.05-.06-1.79.01-3.66.05-5.46l3.63-.31c.07-1.91.01-3.86-.02-5.77-.76-.21-2.94-.73-3.57-1.23-.14-.11-.4-1.12-1.05-1.4-.09.17-.43.83-.56.88-1.41.5-4.58-.23-5.9-.66-2.49-.8-3.62-2.11-5.11-3.92-.28-3.02-.14-6.73-.1-9.81 1.57-2.04 2.4-2.86 4.57-4.25ZM130.92 7.87c3.56.1 7.13.13 10.67-.13-3.26 4.36-6.37 8.85-9.53 13.28-.23.32-.47.68-.45 1.08.02.28.17.54.31.78 1.61 2.67 3.15 5.38 4.69 8.1.79 1.4 1.59 2.8 2.39 4.19.36.63 2.56 3.46 2.36 4.09-.26.8-9.22.94-9.37.52-1.16-3.23-4.41-10.08-5.01-12.89l-2.41 2.56c-.08-1.15-.19-2.31-.25-3.46-.07-1.45-.56-3.05-.05-4.47.13-.38.33-.73.54-1.08 1.23-2.02 2.78-3.83 3.96-5.88s1.76-4.34 2.13-6.68ZM93.01 7.79q3.015 0 6.03.09l-.27 5.6c-1.2 0-2.59.2-3.8.34-.21 1.73-.08 5.25-.07 7.11v12.9c1.3.26 2.71.41 4.02.57.06 1.12.32 4.21-.09 5.08l-.56.19c-5.91.26-6.22.24-10.84-3.57.42-6.63.04-16.69.14-23.73 1.49-1.89 3.34-3.45 5.45-4.59Z" class="st0"/><path d="M113.49 7.81h10.49c-1.89 9.19-.81 17.75-1.05 26.99 0 0 .74.62.75.74.17 1.38.25 2.79.4 4.19-3.22.06-6.68-.02-9.92-.04.16-.95.15-1.82.12-2.78-.03-1.25.25-.93.96-1.71.62-.68.39-20.83.29-23.2-1.06-1.36-1.5-2.61-2.04-4.19" class="st0"/><path d="M89.24 45.78c-2.18-.07-4.35-.06-6.53.03-3.21 1.23-3.48 2.66-3.3 6.01.43 8.32 2.19 7.99 9.29 7.71.87-.29 2.4-.79 2.62-1.72.95-3.98 1.72-9.56-2.08-12.03m-.32 11.38c-2.08.37-4.06.33-6.16.24-.21-2.96-.3-6.1-.09-9.06 2.17-.11 4.37-.1 6.54-.11.02 2.85.13 6.16-.29 8.94ZM174.56 49.16c-.3-1.44-.76-1.98-1.86-2.89-.21-.18-.43-.35-.65-.52-3.64-.12-6.5-.62-9.33 2.04-.07.07-.14.13-.2.2-.1 3.11-1.01 8.76 1.62 10.78 2.33 1.72 7.35 1.05 9.63-.74 1.58-1.9 1.28-6.5.79-8.86Zm-9.27 8.12c.01-2.94.06-5.88.14-8.83 2.03-.08 4.07-.17 6.1-.27.21 2.71.48 5.68.09 8.37-1.02 1.15-4.96 1.14-6.33.72ZM73.23 53.74c.85-.18 1.86-.29 2.45-.89 1.27-2.09 1.44-6.15-1.58-6.84-2.96-.67-6.28-.11-9.36-.3.2 2.55.38 11.25.11 13.79l3.31.07c-.32-2.08-.36-2.96-.32-5.06 1.15 0 2.88-.03 3.98.07.88 1.29 1.63 4.37 2.25 4.87.74.02 2.2.15 2.79-.18-.48-1.25-2.69-4.58-3.62-5.54Zm-5.38-1.51c-.11-1.63-.14-2.49-.02-4.13 1.94-.21 4.72-.58 5.71 1.38.08.92-.22 1.42-.59 2.26-1.68.79-3.27.57-5.1.49M188.39 46.63c-1.42-1.44-8.16-.81-10.19-.9.07 4.33.21 9.49-.04 13.81l3.06.14c-.28-1.98-.35-3.09-.29-5.11l3.08-.06c1.66.12 2.95.45 4.35-.62 1.89-1.44 1.44-5.82.02-7.26Zm-2.29 5.61c-.86.22-4.09.44-5.16.53.04-1.56.09-3.13.15-4.69 3.84-.26 6.31-.73 5.01 4.16M121.9 45.68c.46.13.72.35.48.7-1.23 1.82-2.96 3.41-4.42 5.04-.1.12-.21.24-.22.4 0 .13.06.25.13.36 1.46 2.44 3.57 4.67 4.88 7.14-.33-.62-3.34.83-4.07.09-.15-.15-.22-.36-.29-.56-.51-1.5-1.75-4.63-3.58-4.97-2.28-.42-1.53 4.42-1.5 5.57-1.05.19-2.29.03-3.38.01l.36-11.83c.02-.75.13-1.65.79-2 .56-.3 1.3-.03 1.71.46.65.77 1.71 5.12.79 5.93 2.33-2.05 3.48-3.82 5.24-6.34.11-.16 2.07-.3 3.07-.02ZM134.63 45.81c2.43-.21 5.32-.76 7.49.68.4.26.76.6.97 1.03.52 1.08-.33 2.25-1.52 2.15-.76-.07-1.41-.65-1.69-1.35-.07-.16-.12-.35-.26-.46s-.33-.13-.51-.13a9.4 9.4 0 0 0-1.98.15c-.48.09-.96.21-1.36.48s-.72.7-.75 1.19c-.03.51.26.99.66 1.3s.89.48 1.38.61c1.47.38 3.01.44 4.46.89 3.81 1.19 2.04 6.7-1.29 7.27-1.22.21-2.48.03-3.72-.03-.87-.05-1.77-.04-2.6-.32-1.03-.34-2.04-1.29-1.75-2.49.16-.65.82-1.17 1.48-1.05.7.12 1.12.83 1.68 1.28.68.55 1.61.71 2.47.6.89-.11 2.79-.51 2.67-1.74-.05-.48-.44-.84-.84-1.11-1.57-1.06-3.5-1.41-5.37-1.78-.52-.1-1.06-.22-1.46-.57-.75-.63-.68-2.98-.52-3.9.19-1.09 1.11-2.6 2.37-2.71ZM5.53 47.52c2.17-.4 10.2.04 13.04.05h24.18c2.18-.02 10.86-.17 12.33.13.48.62.31.77.29 1.72-5.04.33-46.4.55-49.15-.79-.5-.24-.52-.61-.69-1.1Z" class="st1"/><path d="M100.62 7.82c2.5 0 4.6.03 7.11.16 1.25 1.17 2.52 2.25 3.82 3.36.05 2.19-.02 4.45-.06 6.65-2.32-.02-4.63-.02-6.95-.01 0-1.42-.1-2.81-.18-4.23l-3.77-.26c-.08-2-.04-3.68.04-5.68Z" class="st0"/><path d="M200.88 47.6c6.93-.24 15.45.1 22.6.06l14.38-.11c1.66-.01 8.15-.4 8.86.71-.34.63-1.06.76-1.75.97-4.94.42-11.89.22-16.99.21l-24.41.1c-1.18 0-3.84.02-4.65-.78v-.51c.82-.72.7-.52 1.95-.66Z" class="st1"/><path d="M104.52 29.51q3.495.045 6.99.03c0 2.15-.13 4.29-.25 6.44-1.44 1.47-2.37 2.38-3.96 3.67-2.16-.08-4.62 0-6.81 0l.04-5.33c4.34-.04 3.8-.69 3.98-4.82ZM145.05 30.11c1.23-.07 3.28 0 4.57 0 .08 1.31.18 2.62.29 3.93 1.15.17 2.71.18 3.9.22-.04 1.63.52 4.29-.3 5.37l-.94.03c-5.06.08-5.83.3-9.77-2.77 0-2.3-.61-4.59.13-6.3.8-.58 1.01-.41 2.13-.48ZM155.81 7.77c2.04 0 4.08 0 6.12.06 1.2.62 3.27 2.36 4.37 3.26.01 1.81.3 4.45.14 6.15-2.3.06-4.61.12-6.91.2.01-1.2-.05-2.57-.08-3.77-1.06-.14-2.56-.18-3.66-.25-.04-1.85 0-3.79.02-5.65" class="st0"/><path d="M97.68 45.75c3.21-.04 7.62-1.05 9.35 2.21.05.8.12.52-.32 1.2-.78.46-.96.53-1.87.53-.86-.57-.52-.82-1.05-2-.83-.21-4.13.37-5.18.52-.51 2.95-.4 6.19.07 9.14 1.11.14 2.73.14 3.88.17 1.13-.04 1.53-.99 2.34-1.86 1.41-.32 1.88.11 2.14 1.48-.94 3.24-6.6 2.45-9.16 2.34-3.64-2.47-2.57-6.63-2.39-10.59.07-1.52 1-2.32 2.19-3.15ZM204.63 52.11q10.56-.135 21.12-.12c5.12-.04 12.05-.26 17.02.15-2.7 1.02-4.93 1.34-7.78 1.47l-20.13.25c-2.04.03-15.2.42-16.1-.82 1.17-1.03 4.35-.91 5.87-.93M16.58 52c4.97-.08 35.22-.42 37.98.92l-.03.31c-2.87 1.23-35.61.74-39.61-.19.37-.46 1.11-.77 1.66-1.04M203.69 56.13c3.29-.12 23.34-.57 24.6.76l-.26.44c-1.09.64-5.09.59-6.45.61-7.79.08-15.7-.02-23.49-.13-.32 0-.49-.2-.73-.38l.12-.5c1.24-1 4.45-.77 6.21-.81ZM155.7 45.85l3.57-.22c-.22 4.47-.61 9.58-.19 13.97l-3.13-.16c.06-1.89.18-3.96.19-5.84-1.72.11-4.04.32-5.71 0-.73-.26-.83-.39-.98-1.1.54-.7.36-.5 1.24-.84 1.89-.27 3.49-.2 5.39-.16-.08-1.72-.14-3.99-.38-5.64ZM25.93 56.08c3.18-.05 28.09-.17 29.57.58.26.62.22.39-.04 1.15-3.03.27-27.77.42-29.46-.41-.36-.69-.3-.42-.07-1.31Z" class="st1"/><path d="M146.72 45.82c.96-.07 2.23-.03 3.22-.03.03 1.72-.08 3.82.19 5.47.02.1.44.32.56.4-.88.35-.69.14-1.24.84.15.71.25.84.98 1.1l-.31.2c-.74.95-.21 4.67-.09 5.9l-3.3-.12c.39-2.65.05-10.7-.02-13.77Z" class="st1"/><path d="M69.57 27.45c1.58.2 1.99.28 3.5.8.68 1.25 1.6 2.6 1.4 3.99-.5.71-.47.51-1.53.71l-4.92.05c.31-1.48.9-4.26 1.55-5.55" class="st0"/><path d="M11.08 52.14c1.4-.2 3.99-.14 5.5-.14-.55.27-1.29.58-1.66 1.04-1.26-.24-2.59-.59-3.84-.9" class="st1"/></svg>