<?xml version="1.0" encoding="utf-8"?>
<!-- Generator: Adobe Illustrator 19.2.1, SVG Export Plug-In . SVG Version: 6.00 Build 0)  -->
<svg version="1.1" id="Layer_1" xmlns="http://www.w3.org/2000/svg" xmlns:xlink="http://www.w3.org/1999/xlink" x="0px" y="0px"
	 viewBox="0 0 220 150" style="enable-background:new 0 0 220 150;" xml:space="preserve">
<style type="text/css">
	.st0{fill:#FFFFFF;}
	.st1{fill:#C4C4C4;}
</style>
<path id="Layer_2" class="st0" d="M0,0h220v149H0V0z"/>
<path class="st1" d="M38.2,88.2c-2.8,0-5.3-0.6-7.5-1.8c-2.3-1.3-3.9-2.9-5.2-4.9c-1.3-2.1-1.9-4.5-1.9-7.2c0-2.6,0.6-5,1.9-7.2
	s3-3.8,5.2-4.9c2.3-1.3,4.8-1.8,7.5-1.8c2.4,0,4.7,0.4,6.5,1.3c2,0.9,3.5,2.1,4.9,3.8L44.9,70c-1.8-2.1-3.8-3.1-6.3-3.1
	c-1.4,0-2.8,0.4-3.9,1c-1.1,0.6-2,1.5-2.6,2.8c-0.6,1.1-0.9,2.5-0.9,4s0.3,2.9,0.9,4c0.6,1.1,1.5,2,2.6,2.6c1.1,0.6,2.4,1,3.9,1
	c2.5,0,4.5-1,6.3-3.1l4.8,4.4c-1.3,1.6-2.9,2.9-4.9,3.8C42.7,88.2,40.6,88.2,38.2,88.2L38.2,88.2z M70.4,82.5H59.1l-2.1,5.2h-7.7
	l11.8-26.7h7.4l11.8,26.7h-7.9L70.4,82.5z M68.1,76.9l-3.4-8.6l-3.4,8.6C61.3,76.9,68.1,76.9,68.1,76.9z M91.8,88.2
	c-2.1,0-4.3-0.3-6.3-0.8c-2-0.5-3.6-1.3-4.9-2.1l2.5-5.5c1.1,0.8,2.5,1.4,4.2,1.9c1.6,0.5,3.1,0.8,4.7,0.8c2.9,0,4.3-0.8,4.3-2.1
	c0-0.8-0.4-1.4-1.3-1.6c-0.8-0.4-2.1-0.8-3.9-1.1c-2-0.4-3.6-0.9-5-1.4c-1.4-0.5-2.5-1.3-3.5-2.4s-1.4-2.5-1.4-4.4
	c0-1.6,0.5-3.1,1.4-4.4c0.9-1.4,2.3-2.4,3.9-3.1c1.8-0.8,3.9-1.1,6.5-1.1c1.8,0,3.5,0.3,5.2,0.6c1.8,0.4,3.1,1,4.5,1.8l-2.3,5.7
	c-2.5-1.4-5-2-7.4-2c-1.5,0-2.6,0.3-3.3,0.6c-0.6,0.4-1,1-1,1.8c0,0.8,0.4,1.3,1.3,1.6c0.8,0.4,2.1,0.8,3.9,1.1c2,0.4,3.6,0.9,5,1.4
	c1.4,0.5,2.5,1.3,3.5,2.4c1,1,1.5,2.5,1.5,4.4c0,1.6-0.5,3-1.4,4.4c-0.9,1.3-2.3,2.4-4,3.1C96.4,87.9,94.3,88.2,91.8,88.2L91.8,88.2
	z M127,60.9v4.8l-9.4,22h-8.2l8.9-20.8h-6.9v4.2H105V61.1h22V60.9z M171.4,60.9v26.7h-6.2l-11.7-14.2v14.2h-7.4V60.9h6.2L164,75.2
	V60.9H171.4z M190.3,88.2c-2.8,0-5.4-0.6-7.7-1.8c-2.3-1.3-4-2.9-5.3-4.9c-1.3-2.1-1.9-4.5-1.9-7.2c0-2.6,0.6-5,1.9-7.2
	c1.3-2.1,3-3.8,5.3-4.9c2.3-1.3,4.8-1.8,7.7-1.8c2.9,0,5.3,0.6,7.5,1.8c2.3,1.3,4,2.9,5.3,4.9c1.3,2.1,1.9,4.5,1.9,7.2
	c0,2.6-0.6,5-1.9,7.2c-1.3,2.1-3,3.8-5.3,4.9C195.6,87.6,193,88.2,190.3,88.2z M190.3,81.9c1.4,0,2.5-0.4,3.6-1s2-1.5,2.6-2.6
	c0.6-1.1,1-2.5,1-4c0-1.5-0.4-2.8-1-4c-0.6-1.1-1.5-2-2.6-2.8c-1.1-0.6-2.3-1-3.6-1s-2.5,0.4-3.6,1s-2,1.5-2.6,2.8
	c-0.6,1.1-1,2.5-1,4c0,1.5,0.4,2.9,1,4s1.5,2,2.6,2.6S188.9,81.9,190.3,81.9z M132.5,66.9h7.2v20.8h-7.2V66.9z M136.2,64.5
	c-1.3,0-2.4-0.4-3.1-1.1c-0.8-0.8-1.3-1.6-1.3-2.8s0.4-2,1.3-2.8c0.8-0.8,1.9-1.1,3.1-1.1c1.3,0,2.4,0.4,3.1,1.1
	c0.8,0.6,1.3,1.6,1.3,2.6c0,1.1-0.4,2.1-1.3,2.9C138.5,64.1,137.4,64.5,136.2,64.5z"/>
</svg>
