<svg version="1.1" id="signature" xmlns="http://www.w3.org/2000/svg" xmlns:xlink="http://www.w3.org/1999/xlink" x="0px" y="0px"
	 viewBox="0 0 86 49.3" style="enable-background:new 0 0 86 49.3;" xml:space="preserve">
<g id="Andry">
	<path d="M19.6,25.8c-0.5,0-1,0.4-1.4,0.5c-0.1,0-0.1,0.1-0.2,0.1c-0.2-0.7,0-1.6,0.1-2.3c0.1-1,0.2-2,0.3-3c1-0.8,2-1.6,3.1-2.4
		c0.1-0.1,0.2-0.3,0.3-0.4c0.1-0.2,0.2-0.4,0.3-0.6c-1.2,0.9-2.4,1.8-3.6,2.7c0.1-0.5,0.1-1.1,0.2-1.6c0.5-3.6,1-7.2,1.7-10.7
		c0-0.2-0.3-0.4-0.4-0.2c-3.7,5.5-6.2,11.6-8,18c-3.6,3.2-7,6.6-10.1,10.2c-0.2,0.2,0.1,0.5,0.3,0.3c2.7-2.2,5.6-4.1,8.6-5.9
		c-0.6,2.3-1,4.7-1.5,7c-0.1,0-0.1,0.1-0.1,0.2c0,0.2,0,0.4,0,0.6c0,0.2,0.4,0.3,0.4,0.1c0.5-2.7,1-5.5,1.7-8.2
		c2.1-1.2,4.3-2.3,6.5-3.2c0.1,0.2,0.2,0.4,0.4,0.5C19.5,28.6,21.3,25.7,19.6,25.8z M19.8,9.2c-0.6,3.3-1.1,6.6-1.6,9.9
		c-0.1,0.6-0.1,1.2-0.2,1.8c-1.9,1.5-3.7,3-5.4,4.5C14.3,19.7,16.6,14.2,19.8,9.2z M10.9,30c-2.4,1.4-4.8,2.9-7,4.6
		c2.5-2.7,5.1-5.3,7.9-7.8C11.5,27.8,11.2,28.9,10.9,30z M17.6,24.7c-0.1,0.5-0.1,1.3,0,1.9c-0.6,0.3-1.3,0.6-1.9,0.8
		c-1.4,0.7-2.9,1.4-4.3,2.2c0.3-1.2,0.6-2.3,0.9-3.5c1.8-1.6,3.7-3.2,5.6-4.7C17.8,22.6,17.7,23.7,17.6,24.7z M19.7,26.7
		c-0.8,0.4-1.3,0.4-1.5,0.1c0.2-0.1,0.4-0.2,0.5-0.2c0.4-0.2,0.6-0.3,1.1-0.2C19.8,26.5,19.7,26.6,19.7,26.7z"/>
	<path d="M31.3,28.2c-1.1-2.6-1.3-5.4-1.8-8.1c0-0.1,0-0.2,0-0.3c0.5-0.1,0.9,0.1,1.2,0.8c0.1,0.3,0.5,0.2,0.4-0.1
		c-0.3-0.8-0.9-1.1-1.7-1.1c-0.4-2.6-0.9-5.2-1.6-7.7c-0.1-0.3-0.5-0.2-0.4,0.1c0.6,2.5,1.1,5.1,1.5,7.6c-0.1,0-0.3,0.1-0.4,0.1
		c-1.4,0.7-1.8,2.4-1.8,3.9c0,1,0.1,2.5,0.6,3.6c0,0-0.1,0.1-0.1,0.1c-0.6,0.5-1.3,1-1.9,1.4c-0.3,0.2-1.5,1.2-1.9,1.1
		c-0.2-0.3-0.4-0.5-0.6-0.8c0.1-0.2,0.1-0.5,0.2-0.7c0.1-0.4,0.3-0.7,0.5-1.1c0.9-1.7,2.7-4.1,1.2-6c-1.3-1.6-2.7,0.1-3.2,1.4
		c0,0.1-0.1,0.2-0.1,0.3c0-0.3,0-0.7-0.1-1c0-0.3-0.5-0.3-0.4,0c0.1,0.9,0.1,1.8,0,2.8c-0.4,1.6-0.5,3.2-0.5,4.8
		c0,0.6,0,1.3,0.1,1.9c0,0,0,0,0,0c0,0,0,0,0,0c0,0,0,0,0,0.1c0,0.2,0.5,0.2,0.4-0.1c-0.1-0.8-0.1-1.6-0.1-2.5
		c0.1-1.4,0.3-2.7,0.5-4.1c0.1-0.5,0.2-0.9,0.4-1.4c0.2-0.6,0.4-1.7,0.9-2.1c0.5,0,1-0.1,1.6-0.1c0.2,0.2,0.3,0.4,0.4,0.7
		c0.2,0.4,0.2,0.8,0.2,1.2c0,1.3-0.8,2.4-1.5,3.5c-0.4,0.7-1.9,3.2-0.4,3.5c0.7,0.2,1.6-0.5,2.1-0.9c0.1-0.1,1.7-1.2,2.5-1.8
		c0.1,0.2,0.3,0.4,0.4,0.5c1.1,0.9,1.8-0.4,2.2-1.2c0.2,0.6,0.4,1.2,0.6,1.8C31.1,28.7,31.4,28.5,31.3,28.2z M30.1,26.2
		c-0.2,0.3-0.3,0.8-0.5,1c-0.7,0.7-1.2,0.5-1.5,0.1c0,0,0,0,0,0c0,0,0.1-0.1,0.1-0.1c-0.1-0.1-0.2-0.2-0.3-0.4c0,0-0.1,0-0.1,0
		c0-0.1-0.1-0.2-0.1-0.3c-0.3-0.8-0.4-1.7-0.4-2.6c0-0.9,0-1.9,0.4-2.7c0.2-0.4,0.8-1,1.4-1.2c0,0.2,0.1,0.4,0.1,0.7
		C29.5,22.5,29.7,24.3,30.1,26.2C30.1,26.1,30.1,26.2,30.1,26.2z"/>
	<path d="M51.9,2.4c-5.8,2.9-11.3,6.3-16.5,10.1c-0.2,0.2,0,0.6,0.2,0.4c5-3.6,10.3-6.9,15.8-9.7C49.7,5.6,48,8,46.4,10.5
		c-1.5,2.2-2.9,4.5-3.3,7.1c0,0.3,0.4,0.4,0.4,0.1c0.4-2.8,1.9-5.1,3.4-7.3c1.7-2.5,3.5-5.1,5.2-7.6C52.3,2.5,52,2.3,51.9,2.4z"/>
	<path d="M60.8,14.1c1.3-1,3.5-2.7,2.7-4.6c-0.8-1.8-3-1.1-4.2-0.3c-1.1,0.8-2.3,1.6-3.4,2.4c-0.8,0.6-1.4,1.2-1.7,2.2
		c-0.1,0.3,0.3,0.4,0.4,0.1c0.4-1.1,1.3-1.8,2.2-2.5c-0.2,1.7-0.4,3.4-0.7,5.2c-1,0.6-2.1,1.4-2.4,2.5c-0.1,0.3,0.4,0.4,0.4,0.1
		c0.2-0.8,1-1.5,1.9-2.1c-0.3,2-0.6,4-0.8,6.1c-1.1,0.3-2.3,0.6-3.4,0.9c0.5-4,0.9-8.1,1.2-12.1c0-0.3-0.4-0.3-0.4,0
		c-0.3,4.1-0.7,8.2-1.2,12.3c-2,0.6-4,1.2-6,1.8c-0.1-0.2-0.2-0.3-0.2-0.5c-0.5-1.2-1-2.3-1.5-3.5c-0.9-2.2-1.6-4.5-2.1-6.8
		c-0.1-0.2-0.5-0.2-0.4,0.1c0.4,3.5,0.2,7-0.6,10.4c-1.3-0.7-1.6-2.4-1.8-3.7c-0.4-1.8-0.7-3.7-0.8-5.5c0-0.3-0.5-0.3-0.4,0
		c0.2,2.2,0.5,4.3,1,6.4c0.3,1.3,0.8,2.7,2.1,3.3c0.1,0.1,0.3,0,0.3-0.1c0.7-2.8,1-5.6,0.8-8.4c0.9,2.9,1.9,5.8,3.3,8.6c0,0,0,0,0,0
		c-1.7,0.5-3.4,1.1-5,1.7c-1.3-0.8-2.6-1.5-3.9-2.3c-0.6-0.4-1.5-0.8-2.3-1.3c0-0.3-0.1-0.5-0.1-0.8c1.2,0.2,2.4,0,2.9-1.3
		c0.7-1.8-1.6-3.8-2.9-4.6c-0.5-0.3-1.2-0.7-1.6-0.1c0,0,0,0,0,0c0.1,0.2,0.1,0.3,0.1,0.5c0.3,0.9,0.5,1.7,0.6,2.6
		c0,0.2,0.1,0.4,0.1,0.6c0,0,0,0,0,0.1c0,0.1,0,0.3,0.1,0.4c0,0.1,0,0.3,0.1,0.4c0,0.2,0.1,0.4,0.1,0.6c0,0,0,0.1,0,0.1c0,0,0,0,0,0
		c0.1,0.5,0.1,0.9,0.2,1.3c0.2,1.4,0.4,2.9,0.6,4.3c0.1,0.1,0.3,0,0.3-0.2c0-0.9-0.2-1.7-0.4-2.5c0-0.3-0.1-0.6-0.1-1
		c0.4,0.2,0.9,0.5,1.3,0.7c1.4,0.8,2.9,1.7,4.3,2.5c-8.9,3.2-17.5,7-25.8,11.4c-4,2.1-7.9,4.4-11.8,6.8c-0.2,0.2,0,0.5,0.2,0.4
		c7.2-4.5,14.9-8.1,22.6-11.6c3.9-1.8,7.8-3.6,12-4.5c2-0.4,4.1-0.6,6.1-1c1-0.2,3.1-0.3,3.2-1.6c0.1-0.5-0.2-1.1-0.4-1.6
		c1.9-0.6,3.8-1.2,5.8-1.7c-0.3,2.4-0.7,4.9-1.1,7.3c-1.5,0.7-3,1.4-4.5,2.2c-2.6,1.4-5.1,3-7.5,4.6c-2.3,1.6-4.5,3.7-7.1,5
		c-0.2-1,1-2.6,1.5-3.5c0.6-1.1,1.3-2.2,2-3.3c1.3-2.1,2.7-4.2,4.2-6.3c0.2-0.2-0.2-0.5-0.4-0.2c-1.8,2.4-3.4,4.9-5,7.5
		c-0.8,1.3-1.5,2.6-2.2,3.9c-0.4,0.8-0.8,1.5-0.4,2.3c0.1,0.1,0.2,0.1,0.3,0.1c2.6-1.3,4.8-3.4,7.1-5c2.4-1.7,4.8-3.2,7.4-4.6
		c1.5-0.8,3-1.6,4.5-2.3c-0.1,0.8-0.3,1.6-0.4,2.4c-0.1,0.3,0.4,0.4,0.4,0.1c0.2-0.9,0.3-1.8,0.5-2.8c3.7-1.7,7.6-3,11.5-4.1
		c0.3-0.1,0.2-0.5-0.1-0.4c-3.9,1-7.7,2.4-11.3,4c0.4-2.4,0.7-4.8,1.1-7.2c1.1-0.3,2.3-0.6,3.4-0.9c-0.1,0.4-0.1,0.7-0.2,1.1
		c0,0.3,0.4,0.4,0.4,0.1c0.1-0.4,0.1-0.9,0.2-1.3c0.8-0.2,1.6-0.4,2.4-0.6c0.3-0.1,0.2-0.5-0.1-0.4c-0.8,0.2-1.5,0.4-2.2,0.6
		c0.3-2.1,0.6-4.2,0.9-6.3c0.2-0.1,0.3-0.2,0.5-0.3c0.7,0.4,0.9,1.2,1.3,1.9c0.4,0.7,0.8,1.4,1.3,2c1,1.5,1.5,3.1,1.7,4.9
		c0,0.3,0.5,0.2,0.4-0.1c-0.2-1.1-0.3-2.1-0.7-3.1c-0.4-0.9-0.9-1.7-1.5-2.4c-0.7-1-1.1-2.5-2.1-3.3c0,0,0.1,0,0.1-0.1
		C58.7,15.5,59.8,14.8,60.8,14.1z M32.5,18.6c0-0.1-0.1-0.1-0.2-0.1c0-0.2,0.1-0.3,0.4-0.4c0.5-0.2,0.8,0.1,1.2,0.4
		c0.6,0.5,1.2,1.1,1.7,1.7c0.8,1.1,0.7,2.6-0.8,2.9c-0.4,0.1-0.8,0.1-1.2,0C33.4,21.6,33.1,20.1,32.5,18.6z M45.4,28
		c-0.2,0.6-0.2,0.5-0.7,0.7c-0.3,0.1-0.5,0.2-0.8,0.2C43,29.2,42,29.4,41,29.5c-2,0.3-3.9,0.5-5.9,1c-3.7,0.9-7.1,2.5-10.5,4.1
		c-1.9,0.9-3.8,1.8-5.7,2.7c6.8-3.4,13.8-6.3,20.9-8.9c0,0,0.1,0,0.1,0.1c0.1,0,0.2-0.1,0.2-0.1c0,0,0,0,0.1,0c0,0,0,0,0,0
		c0-0.1,0.1-0.1,0.2-0.1c1.6-0.5,3.1-1.1,4.7-1.6C45.4,27.1,45.6,27.5,45.4,28z M57.1,16c-0.1-0.1-0.2-0.1-0.4-0.1
		c0.2-1.6,0.4-3.2,0.6-4.8c0.7-0.5,1.3-1,2-1.4c0.8-0.6,2.6-1.6,3.5-0.5c1,1.3-0.2,2.7-1.2,3.6C60.3,14,58.7,15,57.1,16z"/>
	<path d="M57.5,4.7c-0.9,1.8-2.3,3.5-4.2,4.3c-0.8,0.3-1.6,0.1-1.6-0.9c0-0.5,0.5-1.2,0.8-1.6c0.8-1,2-1.4,3.2-1.4
		c0,0.1,0.1,0.1,0.2,0.1c0.3,0,0.3-0.4,0.1-0.4c0-0.1-0.1-0.1-0.2-0.1c-1.5,0-2.9,0.6-3.8,1.8c-0.5,0.6-1.4,2.3-0.6,3.1
		c0.9,0.8,2.6-0.3,3.3-0.8c1.4-1,2.4-2.3,3.2-3.8C58,4.6,57.6,4.4,57.5,4.7z"/>
	<path d="M70.6,22c-0.8-1-2.1-1.6-3.4-2c0-0.1,0-0.2,0-0.3c1.4-2,2.5-4.1,3.2-6.4c0.4-1.2,0.6-2.5,0.7-3.8c0-0.8,0.2-1.9-0.5-2.3
		c-0.2-0.1-0.5,0.2-0.2,0.4c0.8,0.5,0.2,3.1,0.1,3.8c-0.2,1.1-0.5,2.1-0.9,3.1c-0.6,1.6-1.4,3.1-2.3,4.5c-0.1-5.2-1.5-10.4-3.1-15.4
		c0-0.1-0.2-0.2-0.3-0.1c0,0.1-0.1,0.2-0.2,0.2c0,0,0,0,0,0c1.7,5.1,3.1,10.5,3.1,15.9c-0.1,0.1-0.1,0.2-0.2,0.2
		c-0.5-0.1-1-0.3-1.4-0.4c-0.3-0.1-0.4,0.3-0.1,0.4c0.4,0.1,0.8,0.2,1.3,0.3c0,0.1-0.1,0.1-0.1,0.2c-0.2,0.2,0.2,0.5,0.4,0.2
		c0.1-0.1,0.1-0.2,0.2-0.3c-0.1,2.5-0.4,5-1.3,7.4c-0.1,0.3,0.3,0.4,0.4,0.1c0.8-2.4,1.2-4.9,1.3-7.4c1,0.3,2.1,0.7,2.7,1.4
		c1.5,1.4,1.2,3.7,0.9,5.6c0,0.3,0.4,0.4,0.4,0.1C71.5,25.7,71.8,23.6,70.6,22z"/>
	<path d="M82.1,25.9c-2.3-5.1-3.3-10.7-2.9-16.2c0-0.3-0.4-0.3-0.4,0c-0.2,2.5-0.1,5,0.3,7.4c-0.1-0.2-0.4-0.1-0.4,0.1
		c0,1.9-0.3,3.9-1.2,5.7c-0.5,0.9-1.1,1.8-2.2,1.8c-1.3,0-2.1-1.1-2.4-2.3c-0.5-1.6-0.2-3.4,0.5-4.8c0.7-1.3,2.9-4.2,4.6-2.6
		c0.2,0.2,0.5-0.1,0.3-0.3c-1.6-1.6-3.7,0.3-4.7,1.7c-1.3,1.8-1.8,4.3-1,6.5c0.6,1.7,2.5,3,4.1,1.8c2-1.5,2.4-5,2.4-7.3
		c0.5,3,1.4,6,2.7,8.8C81.8,26.4,82.2,26.2,82.1,25.9z"/>
</g>
</svg>
