<?xml version="1.0" encoding="UTF-8"?>
<svg id="_Слой_1" data-name="Слой_1" xmlns="http://www.w3.org/2000/svg" version="1.1" viewBox="0 0 103 86">
  <!-- Generator: Adobe Illustrator 29.5.1, SVG Export Plug-In . SVG Version: 2.1.0 Build 141)  -->
  <defs>
    <style>
      .st0 {
        fill: #050000;
      }

      .st1 {
        fill: #db1305;
      }

      .st2 {
        fill: #d81504;
      }

      .st3 {
        fill: #680d02;
      }

      .st4, .st5 {
        fill: #b80f01;
      }

      .st5 {
        fill-opacity: .99;
      }

      .st6 {
        fill: #340601;
      }
    </style>
  </defs>
  <path class="st0" d="M97.81,62.52c.13.86.18,1.87.79,2.47l.29-.19c.3-1.01-.13-2.08-.42-3.1l-.67.83Z"/>
  <path class="st1" d="M0,14.06c1.19.71,1.07,1.16.73,2.49-.06,3.11.99,10.35,1.43,13.44,1.04,7.07,2,14.15,2.9,21.24l-.18,1.59-.31.24c-.48-.22-.87-.4-1.33-.68-.84-3.83-1.98-16.24-3.23-18.18V14.06Z"/>
  <path class="st1" d="M47.68,4.23c1.74-.95,12.03-2.16,14.36-2.21l.49.36.1.78c-1.06,1.19-13.19,3.17-14.58,2.72-.41-.46-.35-1.04-.37-1.66Z"/>
  <g>
    <path class="st2" d="M8.83,11.4c5.16-.68,10.53-1.41,15.68-2.26,1.2.1,21.3-2.84,21.58-3.12,0-.82.12-.56-.42-1.13-1.07-.41-3.66-.14-4.96-.08-10.36,1.53-21.9,3.17-32.24,4.43-4.39-.1-5.71,1.21-8.46,4.5v.33c1.19.71,1.07,1.16.73,2.49,3.18-3.81,2.5-4.41,8.09-5.15Z"/>
    <path class="st2" d="M8.15,73.42c-.98-7.33-2.26-14.88-3.09-22.2l-.18,1.59-.31.24c-.48-.22-.87-.4-1.33-.68.35,1.47.7,3.58.75,5.07.29,8.2,2.85,17.09,3.41,25.09,1.05,1.39,1.98,2.26,3.22,3.46h3.51c-.91-.96-3.28-2.53-4.51-3.57-.38-1.02-1.24-7.39-1.46-9.01Z"/>
    <path class="st2" d="M102.1,59.95c-.25-4.28-1.37-11-2.01-15.39l-2.81-20.35c-.78-5.63-1.3-14.55-2.46-19.74-1.57-1.69-3.77-2.96-5.68-4.47h-16.65c-1.83,1.03-2.88.98-4.98,1.13-.61.59-2.13,1.02-3.18,1.66l.07.28c1.99.67,18.42-2,21.25-2.44,1.97-.01,1.41.22,2.87,1.05,6.36,3.61,4.61,6.52,5.57,13.06l5,36.06,1.38,9.81c.1.73.4,3.47.53,3.95.08,1.4.45,2.81.77,4.17-.91,1.43-3.31,4.34-3.87,5.52-1.95.49-5.28.87-7.37,1.19l-15.32,2.22-10.85,1.58c-.71.11-4.52.8-4.95.81-1.66-.04-6.22.71-8.05.97-5.05.68-10.08,1.43-15.11,2.23-3.21.67-15.96,1.54-17.56,2.74h15.52c2.31-1.96,5.02-.31,8.66-1.79.9-.2,2.26-.22,3.27-.39,4.52-.78,8.77-1.1,13.27-2.06,5.33-.06,13.64-1.87,19.13-2.48,5.84-.65,11.51-1.26,17.29-2.33,2.76-.51,3.25-.87,4.85-3.17.09-.05,2.08-2.76,2.35-3.12v-8.06c-.71-.93-.73-1.5-.9-2.65Z"/>
  </g>
  <path class="st2" d="M21.2,59.36l-.15-.61c1.04-1.72,3.49-.66,4.75-1.57.09-1.03-.22-1.74.19-2.19.78.32,1.33,1.18,1.87,1.92,1.68.04,4.35-.59,4.89-.35-.08,1.34-.44,3.82.3,4.78.63.03,1.08.04,1.72.01.32.53.24.36.08,1.08-1.18,1.06-1.5.47-1.89,1.6.33,1.46.78,2.95.88,4.42l-.9.21c-.15-.7-.87-2.44-1.03-3.3-.19-1.05-1.42-.9-2.78-1.55l-.5.23c-.35.71-.44.88-.44,1.68.86.84,1-.03,2.07.55.26,1.49-3.5,4.99-4.78,5.6-1.8-.13-.98-4.9-.99-6.58l-.52.26c-.87.95-.33,5.94-2.6,6.97-1.03-1.2,1.24-9.44-.14-13.08l-.02-.06Z"/>
  <path class="st4" d="M21.2,59.36h.78c.42.4.99.98,1.46,1.3.09.46.53,4.44.52,4.87-.87.95-.33,5.94-2.6,6.97-1.03-1.2,1.24-9.44-.14-13.08l-.02-.06Z"/>
  <path class="st0" d="M24.59,60.5c.02-.89,0-1.27-.7-1.81-.76-.08-1.25.28-1.91.65.42.41.99.99,1.46,1.31.09.46.53,4.44.52,4.87l.52-.26c-.07-1.38.27-2.8.11-4.77Z"/>
  <path class="st6" d="M31.17,61.04c-.28-.83.17-1.52-.43-2.24-.7-.45-3.68-1.3-4.39-1.25-.11,1.68-.96,7.86-.03,8.91l.48-.09c.29-1.3-.24-2.27.09-3.7l.35-.15.3.13c1.44.81,2.79.37,4.61.24-.3-.48-.81-1.32-.98-1.84Z"/>
  <path class="st0" d="M27.45,66.65c.35.2.26.18.46.6-.21.98-1.1,2.18-1.67,3.05-.59-.59-.6-.43-.77-1.17.17-.92,1.27-1.8,1.98-2.49Z"/>
  <path class="st1" d="M75.08,57.77c-.58-2.44-1.34-3.39.91-4.86.24-.67.16-.51-.04-1.28-.78-.35-1.62.04-2.59.28l-.21-.25c.35-2.56,4.23-1.5,5.66-1.57.57-.51.57-1.22.78-2.09l.39-.23c.96.34.6.43,1.25,1.01,1.02.9,2.09-.84,3.31.34l-.03.49c-.69.8-2.77,1.05-3.85,1.27,1.22.52,2.68.98,3.95,1.42-1.22.81-1.83,1.01-2.12,2.36l.56.07c.68-.31,1.07-.56,1.79-.41l.22.34c-.47,1.32-.93,1.49-1.7,2.58-.16.22-.19,1.06-.29,1.2.04.94.32,3.03-.08,3.69-.96.65-1.58-.08-3.51.88l-1.15.22c-.3.58-.45.71-.92,1.16l-.44-.02c-.94-1.38.15-3.84-.12-5.1v-.06c-1.97.05-1.2,4.87-2.28,6.1l-.46-.09c-1.05-1.14.37-4.14.76-5.27.13-.36.17-1.72.19-2.17Z"/>
  <path class="st2" d="M81.71,57.7l1.14.18.23.54c.04.94.32,3.03-.08,3.69-.96.65-1.58-.08-3.51.88l-1.15.22c-.3.58-.45.71-.92,1.16l-.44-.02c-.94-1.38.15-3.84-.12-5.1v-.06c.53-1.32,2.21-.99,3.33-.62.51.53.37.32.54,1.06.18-.04.74-.18.89-.18-.37-.2-.47-.6-.63-1l.71-.76Z"/>
  <path class="st2" d="M81.71,57.7l1.14.18.23.54c.04.94.32,3.03-.08,3.69-.96.65-1.58-.08-3.51.88-.45-.34-.64-.81-.68-1.33,1.02-1.11,1.93-.06,2.89-1.12l-.07-1.09c-.37-.2-.47-.6-.63-1l.71-.76Z"/>
  <path class="st0" d="M80.74,59.63c.18-.04.74-.18.89-.18l.07,1.09c-.96,1.06-1.87,0-2.89,1.12.05.53.24,1,.68,1.33l-1.15.22c-.29-.94-.51-1.59-.65-2.58.71-1.06,1.22.4,3.04-1Z"/>
  <path class="st6" d="M80.26,57.27l.23-.55c-.2-.73-.62-4.65-.65-5.64,0-.17.28-.34.45-.48.85-.04.65-.16,1.22.32-.15.61-.29,1.21-.42,1.82-.19.93-.28,1.81.25,2.6.6-.07.62-.24,1.16-.69l.56.07c.68-.31,1.07-.56,1.79-.41l.22.34c-.47,1.32-.93,1.49-1.7,2.58-.16.22-.19,1.06-.29,1.2l-.23-.54-1.14-.18-.71.76-.69-.37-.05-.81Z"/>
  <path class="st1" d="M83.06,54.72c.68-.31,1.07-.56,1.79-.41l.22.34c-.47,1.32-.93,1.49-1.7,2.58-.16.22-.19,1.06-.29,1.2l-.23-.54-1.14-.18c-.37-.51-.44-.63-.6-1.24.55-1.04.91-.39,1.95-1.74Z"/>
  <path class="st3" d="M75.08,57.77c.28.41.22.75.27,1.31l.28.11c1.75-1.67,1.8-2.66,2.98-4.12l.54-.02c.38.84-.54,1.52-.06,2.6.53.08.73-.1,1.18-.38l.05.81.69.37c.16.39.27.8.63,1-.14,0-.71.14-.89.18-.17-.73-.03-.53-.54-1.06-1.13-.37-2.81-.69-3.35.62-1.95.05-1.19,4.87-2.26,6.1l-.46-.09c-1.05-1.14.37-4.14.76-5.27.13-.36.17-1.72.19-2.17Z"/>
  <path class="st2" d="M54.6,33.68c-5.39,1.44-4.4,9.09-1.09,11.01.74.44,1.63.55,2.45.32.34-.1,1.32-.58,1.6-.79.05-.04.11-.09.16-.13,2.75-2.36,1.6-10.11-3.13-10.41ZM56.27,43.4c-4.17,1.44-3.78-6.29-2.45-8.59.89.13,1.64.19,2.18.99,1.32,1.97,1.95,5.45.58,7.49-.1.04-.21.08-.31.12Z"/>
  <path class="st1" d="M81.67,30.19c-.35,0-.7.05-1.05.11l-2.86.54c.77,3.81,1.37,6.92,1.55,10.8,1.22-.1,3.15-.19,4.26-.51,1.29-.95,1.77-1.35,2.68-2.69-.06-3.12-.24-8.38-4.58-8.24ZM83.81,39.23c-.83.56-1.22.77-2.15.68-1.65-1.1-1.6-6.89-1.3-8.68.64-.04,1.63-.13,2.12.26,2,1.59,2.65,5.77,1.33,7.75Z"/>
  <path class="st2" d="M47.49,40.79v-.06c2.78-2.25.45-5.16-2.53-5.6l.34.91c1.4,1.33,2.11,1.69,1.42,3.71l-1.8,1.01-1.23-1.19c-.85.34-.71.14-1.08.85.1,1.15.19,5.19.6,5.93.73.37.47.29,1.34.19,1.42-1.58-.94-3.21.37-5.17,1.96,1.47,2.38,4.76,4.97,4.5.23-1.47-2.54-3.27-2.41-5.09Z"/>
  <path class="st1" d="M41.42,36.14c.96-.35,2.52-.73,3.54-1.01l.34.91c-.72.24-1.28.35-1.71.98-.23.93-.05,1.62.11,2.55-.85.34-.71.14-1.08.85-.49-1.29-.85-2.93-1.2-4.3Z"/>
  <path class="st2" d="M27.43,44.71c-.84,1.73,1.1,3.53-.51,4.47-.92-.02-.83.13-1.42-.35-.13-3.14-.57-6.95-1.41-10.01-.05-.17.07-.4.13-.58.98.06,1.25-.1,1.96.44-.05.68-.23,1.78.29,2.31l.72,2.68.24,1.05Z"/>
  <path class="st1" d="M30.17,38.43c-1.66-1.31-4.02-.64-5.95-.18-.06.18-.18.41-.13.58.84,3.06,1.28,6.86,1.41,10.01.58.48.5.33,1.42.35,1.62-.94-.32-2.74.51-4.47,2.64-.92,6.5-3.31,2.74-6.28ZM27.19,43.66l-.72-2.68c.1-1.19-.1-1.4.59-2.15.32-.04.88-.18,1.11-.03,3.14,1.98.64,3.96-.97,4.85Z"/>
  <path class="st2" d="M36.06,42.9c-.17,1.7.55,3.1.04,4.27-.46.54-.61.57-1.31.71l-.44-.34c-.31-.9-.27-1.57-.23-2.51.1-2.59-.83-5.06-.98-7.63.4-.57,1.16-.64,1.85-.79l.13.62c-.16,1.75-.18,3.24.66,4.86l.27.81Z"/>
  <path class="st1" d="M39.28,41.58c.51-.58.77-1.35.71-2.12-.21-2.83-2.86-3.06-5.01-2.84-.69.15-1.45.22-1.85.79.15,2.57,1.08,5.04.98,7.63-.03.94-.08,1.61.23,2.51l.44.34c.7-.14.85-.17,1.31-.71.51-1.17-.2-2.57-.04-4.27,1.18-.15,2.39-.39,3.23-1.33ZM35.78,42.09c-.85-1.61-.82-3.11-.66-4.86,4.19.5,4.19,2.88.66,4.86Z"/>
  <path class="st0" d="M18.54,42.82c.77.26.94.63,1.24,1.29,0,.96-.12,1.14-.67,1.94-.85-.27-.94-.44-1.3-1.17-.03-.79.36-1.37.73-2.06Z"/>
  <path class="st1" d="M64.56,55.64l.6.99c.07-.1.3-.39.33-.48l.6.81c1.81.24,1.73-1.08,2.81-.19.43,2-2.67.74-2.43,2.96l.53.76c1.05,0,.6-.79,1.94-.66l.32.43c-.15.83-.02.56-.67,1.17-.8,0-.59-.01-1.35-.53-.35.44-.41.94-.53,1.49.67,2.04,3.58-1.17,4.44.64-.1.43-.07.73-.44.91-1.5.74-4.52.61-6.27.72l-.1-.62c1.65-1.33.38-6.06.21-8.4Z"/>
  <path class="st1" d="M42.73,61.56c.58,1.25-.67,3.28.88,3.9,3.06-1.9-.69-5.48-.1-6.95,1.07-.64,1.91-.25,2.9-.58,1.41-.47.99-.54,2.49-.29-.12,1.06.04.78-.55,1.52-.48.17-.6.23-1.11.12l-.47-.39c-.58.41-.84,1.61-.65,2.24.75,2.47-1.46,6.7-4.32,4.74-.58-.82-.72-3.21-.32-4.12l1.24-.19Z"/>
  <path class="st2" d="M42.88,24.18c-1.36,2.65.53,3.29.23,5.12-.66.56-1.47.6-2.22.2-.29-.48-.28-3.16-.28-3.9,0-1.7-1.46-6.03-.39-7.15,2.95.07.93,2.74,2.52,4.97l.15.75Z"/>
  <path class="st2" d="M31.9,20.76c.42.44.42.62.74,1.01-.2,1.86-.03,5.88,1.07,7.43,1.65,1.04,3.01-.8,4.23-1.93l.54.06c.07.7-.29,1.48-.77,1.98-5.17,5.46-9-4.5-5.81-8.55Z"/>
  <path class="st2" d="M69.32,32.19l2.44-.51.47.46c-.45,1.02-.95,2.17-.54,3.27,1.44,1.26,2.65.07,3.77.72-.32,2.5-4.03-.8-3.26,4.47l.02,1.86c-.56.04-.73.07-1.25-.19-.6-2.86-1-6.8-1.64-10.07Z"/>
  <path class="st1" d="M42.73,23.43c1.03-.34,1.88-.52,2.59-1.34.57-1.52-.75-1.61-.46-3.44.42-.62,1.16-.71,1.88-.58.68.88.47,1.97.39,3.05-.15,2.06,1.18,5.87.8,7.74-.88.16-.6.22-1.36-.12-.88-1.56.24-3.54-1.53-4.69-.88-.18-1.3-.05-2.17.13l-.15-.75Z"/>
  <path class="st1" d="M40.79,53.11c1.44,1.01-.2,1.61,3.14,3.06-.04.04-3.79.96-4.4,1.22-.06.57.76,8.56.87,8.77.33.28.23.2.36.71-.23.69-.28.85-.89,1.25l-.46-.13c-.44-.72-.92-8.02-1.22-9.46-.3-1.41,1.25-2.2,2.26-2.98.51-.84.4-1.47.35-2.43Z"/>
  <path class="st1" d="M53.38,27.99c-.79.12-1.12.21-1.89.01-.89-1.66-.1-7.44-1.58-9.99l.12-.39,2.26-.5.47.92c-.54,1.4-.6,2.71.18,4.06l-.1.74c-.16,1.58-.15,2.77.46,4.27l.09.88Z"/>
  <path class="st2" d="M61.99,22c-.61,1.44.93,4.04-.39,5.16l-.38-.21c-1.44-2.2-1.5-7.26-2.36-9.97-.13-.41.04-.49.31-.87,1,.13,1.74-.03,2.12,1.08-.19,1.24-.23,2.41.26,3.6.47.59.34.41.44,1.19Z"/>
  <path class="st1" d="M57.45,55.82c3.81-.61,2.82,2.79,1.96,5.14-.91.79-2.62,2.13-3.77,2.41-.62-3.06,1.68-1.78,2.6-4.14-.5-2.05-2.08-1.43-2.83-2.61.51-.54,1.32-.63,2.05-.8Z"/>
  <path class="st2" d="M65.62,41.35c-.04.69-.03,1.07-.27,1.71l-.44.19c-.86-.42-5.22-8.65-5.36-9.5l.34-.42c.45-.15.96-.36,1.43-.23.49.14,2.62,6.06,3.3,7.25.22.6.38.56,1.01,1Z"/>
  <path class="st2" d="M48.9,57.64l.64.06.12.78c-1.95,1.75.62,7.77-.24,10.92l-.34.29c-1.28-.91-1.88-8.6-1.83-10.41.5.11.63.06,1.11-.12.58-.75.42-.47.55-1.52Z"/>
  <path class="st1" d="M61.47,58.64c.12-1.62.13-3.09.79-4.58l.26-.19c.83,1.11,1.11,7.21,1.32,9.1l-1.19-.24c-.2-1.69-.3-2.58-1.19-4.08Z"/>
  <path class="st1" d="M64.61,40.34l.03-.06c.74-1.59.63-6.77,1.21-7.94.65-.04,1.32-.21,1.78.1-1.03,1.71-1.21,6.14-2.01,8.91-.62-.45-.78-.4-1.01-1Z"/>
  <path class="st2" d="M83.75,58.02c1.21,0,1.12-.18,2.08.4,1.31,1.94.33,4.4-.99,6.05-.39-.26-.76-.63-1.11-.95-.24-.97.15-.5.94-1.79.11-1.24-.5-2.5-.92-3.72Z"/>
  <path class="st2" d="M49.54,57.7c.67-.12,1.53-.41,2.06-.17.24,1.43.95,5.31-.18,6.33-.72-.08-.48.02-1-.55-.06-1.67.23-3.55-.76-4.83l-.12-.78Z"/>
  <path class="st1" d="M64.56,55.64c-.05-1.22-.08-3.72.68-4.64,1.51.38-.03,2.05.71,3.15,1.26.38,2.12-.74,3.2-.29l.11.4c-1.38,1.75-2.26-.06-3.77,1.9-.03.09-.26.38-.33.48l-.6-.99Z"/>
  <path class="st2" d="M50.51,53.76c.16.08.33.35.45.5-.46,1.21-2.31,1.83-3.42,2.39-.49.25-1.45-.01-1.99-.15-.35-.02-.42-.09-.69-.31l.14-.39c1.19-.7,4.09-1.58,5.51-2.05Z"/>
  <path class="st2" d="M31.9,20.76c1.84-1.87,5.63-2.17,5.98.55l-.33.75-.37.1c-.9-.84-1.43-1.53-2.64-1.61-.97.27-1.2.53-1.9,1.22-.31-.4-.32-.58-.74-1.01Z"/>
  <path class="st1" d="M59.35,61.89c1.14.55.98,4.39.39,5.39-.04.06-.65.18-.77.21-1.78-1.69-.93-3.86.38-5.6Z"/>
  <path class="st2" d="M72.19,40.59c3.1,1.04,2.44-.47,4.84-.31.22.61.25.74.05,1.36-.82.58-3.82.82-4.87.81l-.02-1.86Z"/>
  <path class="st4" d="M59.16,16.12c2.21-.2,4.01-1.32,5.52-.52.52.61.66,1.66.18,2.32-.9-.38-1.44-2.18-3.58-.73-.38-1.11-1.12-.95-2.12-1.08Z"/>
  <path class="st4" d="M52.28,17.13c1.53-.46,3.25-.99,4.46.44l.07.69c-1.28,1.07-1.94-.62-4.06-.22l-.47-.92Z"/>
  <path class="st2" d="M62.66,62.72l1.19.24.51,1.08.1.62c-.31,1.07-.62,2.51-.9,3.62-.57-2.1-.89-3.38-.9-5.56Z"/>
  <path class="st1" d="M22,46.45c-.46-1.47-1.57-3.72-2.22-5.23-.37-.99-.55-1.81-1.71-1.91-.73.77-.54.8-.73,1.99-.26,1.14-1.23,5.9-1.56,6.64-.27,1.17-.5,1.28-.17,2.3l.54.32c.76-.3.53-.15,1.03-.83.05-.36.14-.86.16-1.21-.03-.73-.06-.49.28-1.14,1.12-.74,2.34-.98,3.32.07-.22.88-.38.95-.14,1.75.58.55,2.2.46,3.08.49l-1.9-3.24Z"/>
  <path class="st2" d="M41.49,61.75c-.57-1.11-1.08-2.79-.35-3.9l.49.26c.77.89.89,2.27,1.11,3.45l-1.24.19Z"/>
  <path class="st2" d="M53.29,27.11c2.56-.15,3.1-1.66,4.2-1.46.46.56.43.35.42.99-.7.93-2.84,1.11-4,1.28l-.53.07-.09-.88Z"/>
  <path class="st1" d="M32.93,68.66l.9-.21c0,.79.07,1.75-.3,2.42-.69.53-.4.43-1.26.41-.63-.6-.46-.34-.68-1.24.37-.93.42-.76,1.33-1.39Z"/>
  <path class="st1" d="M61.55,20.81c.82-.36,1.66-.86,2.49-.58l.53.42c-.09.74-.03.51-.67,1.08-.66.11-1.25.21-1.91.28-.1-.78.02-.6-.44-1.19Z"/>
  <path class="st1" d="M71.76,31.68c1.54-.32,3.16-.89,4.08.85l-.19.46c-1.93.52-1.56-1.12-3.41-.85l-.47-.46Z"/>
  <path class="st2" d="M52.93,22.1c.77-.38,1.44-.81,2.29-.63l.49.33c-.36,1.26-1.73,1.01-2.89,1.04l.1-.74Z"/>
  <path class="st3" d="M96.08,70.45c-1.07,1.52-3.26,1.8-5.01,1.97-5.66.57-11.26,1.46-16.86,2.47-15.54,1.94-31.04,4.09-46.52,6.46-1.82.28-10.21,1.98-11.22,1.56-.16-.24-.32-.48-.48-.71-.9-1.25-1.27-1.3-2.77-1.56l-1.87-1.68c.18-3.43-.54-8-1.09-11.51-.17-3.18-1.01-7.64-1.49-10.86l-2.15-15.59c-.94-6.57-1.63-15.44-3.06-21.61,1.25-2.32,1.87-3.21,3.82-4.98,3.08-.02,5.88-.67,8.9-1.04,5.35-.66,10.76-1.66,16.09-2.31,1.76.03,2.77-.24,4.41-.81.4,0,.81-.01,1.21-.03,1.87-.06,9.09-.51,10.26-1.75-1.7-1.56-9.18.98-11.66,1.1-1.42-.08-3.13-.07-4.5.39-7.99.73-15.89,2.26-23.86,3.2-3.31.39-3.98,2.5-5.5,5.11-.03,2.71,6.31,51.91,6.54,52.42.16.19.35.41.56.67-.13,2.26.93,7.07.99,8.9.66.65.87.76,1.71,1.16.98.05,2.45.64,2.7,1.68.13.2.26.41.42.58.12.13.39.41.54.48.46.2,40.6-5.39,44.56-6l9.88-1.53c1.56-.25,2.58-.68,4.21-.66,2.14.28,18.41-2.51,20.93-3.13.9-1.31,3.48-5.21,3.76-6.5-.87.11-2.85,3.27-3.43,4.09Z"/>
  <path class="st5" d="M98.47,61.69c-1.12-6.18-.42-10.01-2.31-17.24-.42-5.54-1.32-13.15-2.56-18.71-.24-1.1.24-1.87-.34-3.89-.44-1.12-1.41-12.5-1.69-14.45-1.24-1.6-3.53-3.96-5.21-4.98-2.71.29-5.44.58-8.15.93-1.22.16-1.46.49-2.81.55-3.54.39-23.88,2.67-26.1,3.67l-.36.46.22.44c7.06.2,15.94-2.18,23-2.89.88-.09,2.47-.15,3.18-.28l.74-.82c1.98.79,7.41-.51,10.35-.45,6.32,3.53,3.84,11.89,5.89,18.23.03,7.18,2.34,16.54,3.06,23.95.5,4.61,1.43,11.89,2.42,16.32.13.86.18,1.87.79,2.47l.29-.19c.3-1.01-.13-2.08-.42-3.1Z"/>
</svg>