<svg xmlns="http://www.w3.org/2000/svg" id="svg5587" version="1.1" viewBox="0 0 179.69 111.23"><defs><style>.st0{fill:#fff}</style></defs><g id="layer1"><g id="g5540"><g id="g5212"><path id="path5214" d="M178.32 74.24 121.19 0H98.44L41.31 74.24h34.28l34.22-44.52 34.22 44.52z" class="st0"/></g><g id="g5216"><path id="path5218" d="m42.37 28.35 19.4-25.2H27.56L1.37 37.12h47.74z" class="st0"/></g><g id="g5220"><path id="path5222" d="M62.91 95.84H77.9v-3.1H62.28c-3.2 0-4.76 1.13-4.76 3.47v11.52c0 2.34 1.56 3.47 4.76 3.47h10.88c3.2 0 4.75-1.13 4.75-3.47v-7.31H67.59v3.1h5.94v3.57c0 .63-.38 1.01-1.01 1.01h-9.61c-.64 0-1.01-.38-1.01-1.01V96.84c0-.64.37-1.01 1.01-1.01" class="st0"/></g><g id="g5224"><path id="path5226" d="m127.84 92.74-8.22 9.15-8.32-9.15h-4.75v18.46h4.38V97.83l8.7 9.36 8.69-9.36v13.37h4.38V92.74z" class="st0"/></g><g id="g5228"><path id="path5230" d="M136.01 96.21v11.52c0 2.34 1.55 3.47 4.75 3.47h15.63v-3.1h-16v-4.58h14.16v-3.1h-14.16v-4.58h16v-3.1h-15.63c-3.2 0-4.75 1.13-4.75 3.47" class="st0"/></g><g id="g5232"><path id="path5234" d="M174.93 100.43h-10.24c-.64 0-1.01-.38-1.01-1.01v-2.56c0-.64.37-1.01 1.01-1.01h14.43v-3.1h-15.07c-3.2 0-4.76 1.13-4.76 3.47v3.84c0 2.35 1.56 3.48 4.76 3.48h10.25c.63 0 1.01.38 1.01 1.01v2.56c0 .63-.38 1.01-1.01 1.01h-14.73v3.1h15.36c3.21 0 4.76-1.13 4.76-3.47v-3.84c0-2.34-1.55-3.47-4.76-3.47" class="st0"/></g><g id="g5236"><path id="path5238" d="m32.1 104.54 4.05-7.64 3.94 7.64zm1.33-11.8-9.78 18.49h4.9l1.93-3.64h11.19l1.87 3.64h5.12l-9.79-18.49h-5.43Z" class="st0"/></g><g id="g5240"><path id="path5242" d="m87.79 104.54 4.05-7.64 3.94 7.64zm1.33-11.8-9.78 18.49h4.9l1.93-3.64h11.19l1.87 3.64h5.1l-9.78-18.49z" class="st0"/></g><g id="g5244"><path id="path5246" d="M16.4 97.23v6.6H4.27zm7.95 6.64H20.8v-8.82c0-2.04-2.5-3.42-6.01-1.15-4.81 3.11-11.37 6.46-13.39 7.84-2.6 1.78-1.31 5.19 1.89 5.19h13.13v4.31h4.38v-4.31h1.89l1.66-3.05Z" class="st0"/></g></g></g></svg>