<svg xmlns="http://www.w3.org/2000/svg" id="_Слой_1" data-name="Слой_1" version="1.1" viewBox="0 0 390 78"><defs><linearGradient id="_Безымянный_градиент_3" x1="44.52" x2="35.31" y1="59.48" y2="67.68" data-name="Безымянный градиент 3" gradientTransform="matrix(1 0 0 -1 0 79)" gradientUnits="userSpaceOnUse"><stop offset="0" stop-color="#451900"/><stop offset="1" stop-color="#190701"/></linearGradient><style>.st0{fill:#270d02}.st1,.st2{fill:#5c2506}.st3{fill:#7c3306}.st2{fill-opacity:.99}.st8{fill:#0a0200}.st9{fill:#a14e0c}.st13{fill:#bf5e0e}.st15{fill:#d57011}</style></defs><path d="M1.88 14.44c.27.99.55 1.58.87 2.52.26.78.21 2.18.49 2.93-.04 2.24-.04 4.57-.17 6.8-.81.62-.89.8-1.2 1.68-.17-4.79-.37-9.14.02-13.93Z" style="fill-opacity:.97;fill:#a82b05"/><path d="M1.86 28.38c.32-.87.39-1.05 1.2-1.68.05 1.6-.37 2.71-.36 3.59-.77.81-.68 2.43-.68 3.47-.27-1.43-.17-3.86-.16-5.38" style="fill:#b63001;fill-opacity:.69"/><path d="M2.71 30.29c.26 1.16.57 2.27-.19 3.33l-.49.13c0-1.04-.09-2.66.68-3.47Z" style="fill:#7c3306;fill-opacity:.55"/><path d="M29.62-.6c1.55-.38 19.11-.08 22.53-.12C77.2-1 102.5-.5 127.53-.79c.82.32 1.55.53 1.9 1.22-.39 1.1-2.13 1.1-3.37 1.11-25.79.1-51.58.03-77.36-.11-3.74-.02-23.72.36-25.97-.13L22.4.29c.69-.63 5.89-.77 7.23-.89ZM361.81-.52c2.07-.34 4.35-.29 6.7-.55 5.15-.57 5.48 4.49 10.16 4.97 1.93.2 6.49 3.22 8.36 4.03 4.92 2.48 2.18 9.82 2.57 13.64.35 4.39-.05 8.93.14 13.29-.4.53-.35.88-.37 1.5-.11-.75-.25-2.26-.98-2.72l-.42.22-.24.97-.35.04.13-1.03c.12-3.24-.39-6.8.07-9.93.47-3.16.95-4.05.05-7.2l-1.16.84c-1.49-2.6-16.98-13.51-20.45-16.07l.64-1.14c-.64-.69-3.58-.7-4.83-.86Z" class="st1"/><path d="M366.64-.92c4.56.49 9.25 6.46 12.71 8.94 2.5 1.8 5.12 4.17 7.51 6.12.54.49.65 1.25.75 1.89l-1.16.87C384.96 14.21 369.47 2.91 366 .27l.64-1.18Z" class="st13"/><path d="M325.93-.62c4.41-.25 12.74-.02 17.45-.1 3.69-.06 15.64-.16 18.43.21 1.25.17 4.19.17 4.83.89L366 1.56c-2.2.27-13.9.23-16.78.22-11.07-.02-22.6.23-33.62-.31l.29-.52c.95-.85 7.87-1.09 10.05-1.57Z" class="st3"/><path d="M269.42-1.03c6.05-.05 12.1-.07 18.15-.04 1.48 0 7.93-.1 9.12.03 1.21.25 3.08.39 3.45 1.41l-.5.4c-4.59 1.23-10.85.26-15.68.25-2.5 0-13.81 1.08-15.16-.14.19-.67.38-1.26.62-1.91" class="st1"/><path d="M1.86 14.14C2.89 12.8 14.8 3.29 16.96 1.56l1.79 1.76C13.77 7.78 8.29 11.66 3.42 16.01c-.09 1.24-.23 2.66-.19 3.89-.28-.75-.23-2.15-.49-2.93-.32-.94-.59-1.53-.87-2.52l-.02-.3Z" style="fill:#a82b05"/><path d="M307.74.34c2.33-.28 15.96-.08 18.49-.03-2.18.48-9.1.72-10.05 1.57l-.29.52-1.18.03C313.18.45 307.15.95 304.14.72c1.21-.1 2.41-.22 3.6-.38" class="st1"/><path d="M22.39-.91 22.72.1c-1.3 1.09-2.62 2.16-3.96 3.22l-1.79-1.76C18.95-.39 19.4-.5 22.4-.91Z" style="fill:#b63001"/><path d="M28.49 55.1c.29-.59.57-1 .36-1.61-1.13-1.06-3.4-.19-3.95-1.11 1.67-1.98 6.59-.59 7.14 1.59.13.53.05 1.84.03 2.43-1.27-.75-2.09-.91-3.58-1.3" class="st0"/><path d="M29.02 57.35c-.47-.5-.85-.64-1.51-.95-.04-.16.77-1.06.99-1.3 1.49.39 2.31.55 3.58 1.3-.26.5-.5 1.05-.93 1.45l-.19-.3c-.9-.42-.72-.29-1.94-.19Z" class="st9"/><path d="m14.4 46.42 1.73.38c.05.84.58 1.45 1.09 2.15l-.28.19c-1.38-.2-1.12 0-1.98-.66-.09-.36-.42-1.82-.56-2.07Z" class="st0"/><path d="M352.04 57.45c.63-1.56 9.73-9.15 11.61-9.02-.43 1.05-1.74 1.76-2.82 2.48-1.66 1.29-7.29 6.39-8.79 6.54" class="st1"/><path d="M359.09 23.55c1.7 1.34 4.3 3.78 6.02 4.73l-.89.85c-1.76-.67-4.42-3.5-5.52-4.82l.4-.77Z" class="st0"/><path d="M366.65 51.26c.86 1.42-1.76 3.1-3.08 4.06-.42.06-.69.13-1.06-.03.06-.3.13-.59.23-.88.53-1.62 2.27-2.37 3.91-3.15M358.69 24.32c-.51-.63-1.38-1.53-1.41-2.24.81.17 1.31.91 1.81 1.48l-.4.77Z" class="st1"/><path d="m190.06 6.98.18-.28c1.12.68 2.16-.85 1.98 1.25-.03.3.08.31.31.58l.82.54.06.14c-8.08.39-16.04.15-24.13.22-2.26.02-5.21.15-7.37-.09l-.29-1.39c4.93-.83 21.63.3 27.58-.35.34-.24.63-.45.86-.61Z" class="st0"/><path d="M324.4 8.72c-2.19.99-12.33.78-14.89.62-3.98-.25-23.57.64-25.82-.61l.27-.33c1.27-.46 37.98-.38 40.78-.05z" class="st1"/><path d="M161.91 9.34c-3.58.2-22.73.29-25.64-.07l-.4-.44.15-.6c1.84-.81 24.2.47 25.61-.28l.29 1.39Z" class="st0"/><path d="M197.31 6.57c1.68-1.03 7.73-.59 10.06-.53-2.16.45-4.92.14-7.26.07-1.1 2.14-2.37 3.29-4.83 4.51l-.9-.59c.08-.14.02-.43 0-.6l-.99-.21-.06-.14-.82-.54c1.7-1.04 2.73-2.37 4.78-1.96Z" class="st3"/><path d="M192.53 8.53c1.7-1.04 2.73-2.37 4.78-1.96-1.16 1.2-1.97 2.32-3.88 2.5h-.08z" class="st8"/><path d="M339.53 6.78c.21.59.4 1.08.66 1.66l.94.39c-6.89 3.47-8.71 7.4-13.55 11.02l-.5-.61c4.38-6.7 7.77-7.33 12.45-12.46" class="st1"/><path d="m194.38 10.02.9.59c-.73.49-1.67 1.25-2.59.81.21-.67.99-1.01 1.7-1.4ZM179.3 67.73l1.54 1.08c-.64.5-.54.29-.68.96-.17-.27-.76-.97-1-1.26l.14-.77Z" class="st0"/><path d="M36.13 8.3c2.39-.15 17.46-.45 18.72.26.19.11.18.37.23.55-1.06.85-13.59.94-15.79.93-1.3 2.01-2.61 3.09-4.51 4.68-2.04 1.69-7.73 6.43-9.94 7.45 3.23-5.14 8.03-6.6 11.65-11.4.6-.8.02-1.51-.35-2.46Z" style="fill:url(#_Безымянный_градиент_3)"/><path d="m154.61 48.41.9-.74.53.03c.14 1.17-1.78 2.88-3.05 3.31l-1.03-.03c.39-.81 1.79-1.79 2.64-2.57ZM189.65 12.64l.53.18c-.02.09-.04.18-.08.27-.75 1.78-7.87 4.5-10.11 5.31l-.37-.09.02-.34c1.2-.88 3.24-1.08 4.62-1.79 1.84-.95 3.73-2.36 5.39-3.54" class="st1"/><path d="M345.5 55.28c2.42 2.99 3.58 4.38 4.15 5.44-1.38-1.1-.65-.43-3.77-3.57-2.45-2.86-4.17-4.95-4.77-5.96.37.03 2.16 1.87 4.39 4.09" class="st15"/><path d="M321.37 25.91c.12.09.24.31.32.44-.54.7-5.74 4.47-6.96 5.43-.26-.24-.17-.23-.18-.64 1.46-1.32 5.12-4.26 6.83-5.22Z" class="st3"/><path d="M334.77 44.22c2.55-.26 3.93.25 4.35 2.35l-1.08.1c-1.59-.47-2.31-1.38-3.28-2.45Z" class="st9"/><path d="m145.58 55.33.4.45c-1.89.92-4.91 2.91-6.49 3.4.62-1.32 4.54-3.08 6.09-3.85" class="st0"/><path d="M149.5 51.76c.42-.06.85-.16 1.21 0-1.08 1.44-3.01 3.11-4.74 4.01l-.4-.45c1.76-1.16 2.87-1.94 3.93-3.57ZM197.65 58.79l.09.22c-2.26 1.26-4.58 2.15-7.02 3.14l-.24-.36c.82-.83 5.69-2.47 7.16-3ZM124.51 57l.53-.12c1.85.75 4.07 2.21 4.33 3.97-1.44-.39-2.37-2.66-3.97-3.27-.49-.19-.56-.22-.89-.58" class="st9"/><path d="m325.52 21.4.22.52c-.46 1.35-1.49 2.43-2.66 3.42-.69-1.14 1.58-3.11 2.44-3.94" class="st1"/><path d="M176.38 18.49c.17.05.43.28.58.4-.21.59-1.77 1.43-2.45 1.86-.34-.12-.46-.35-.71-.62l.17-.55c.81-.73 1.29-.81 2.42-1.09Z" class="st8"/><path d="M180.16 69.77c-1.39.41-10.31.35-12.38.3-4.74-.13-10.45.2-15.13-.03-3.18-.15-19.85.63-21.38-.75l.39-.47c2.39-1.13 35.3.07 40.85-.52 1.04-.11 5.42.05 6.65.22.23.29.83.99 1 1.26Z" class="st15"/><path d="M303.44 67.85c5.74.46 14.11.09 20.05.14 3.64.03 11.58.1 14.73-.27-2 2.61-2.3 2.4-6.09 2.3-7.42-.1-19.06 0-26.89-.05-.16-.12-.7-.4-.82-.48-1.2-.77-5.59 1.98-6.07.02 1.38-1.59 2.89-1.53 5.09-1.65ZM386.41 60.07l1.15.08c-.66 4.06-8.3 8.59-12.11 11.6-1.63 1.5-4.09 3.96-5.89 5.14-1.03-.06-2.69-.04-3.51-.47 1.94-1.06 4.02-3.56 6.21-4.6 1.27-.6 1.3-.1 2.21-.5l.24-.68c1.98-3.38 9.54-7.53 11.7-10.58Z" class="st13"/><path d="M10.84 66.58c.29.1.6.17.77.37 1.25 1.58 5.78 5.06 7.62 6.52-.9.82-1.31 1.13-1.73 2.2-1.68-1.79-6.23-4.75-8.32-6.75l-.72-.84c.8-.83 1.27-1 2.37-1.5Z" class="st3"/><path d="M10.84 66.58c.29.1.6.17.77.37-.88 1.07-1.11 1.26-2.43 1.97l-.72-.84c.8-.83 1.27-1 2.37-1.5Z" class="st0"/><path d="M357.65 5.42c3.45 1.61 16.82 12.97 18.74 15.71l-1.07.28c-.47-1.32-15.58-12.38-17.67-15.99" class="st13"/><path d="M72.99 76.09c2.53-.14 26.67-.14 27.49.22l.04.65c-3.29-.06-26.82.13-27.36-.13l-.18-.74Z" class="st2"/><path d="M22.86 76.41c2.37-.39 20.4-.69 22.01-.15l.27.27c-1.34.94-18.1.74-20.77.58-.83-.05-1.65-.15-2.46-.29l.95-.42Z" class="st1"/><path d="m371.39 57.81.68.58c-1.66 2.07-10 9.87-12.67 10.58.18-1.21 10.19-9.77 11.99-11.16M71.44 68.76l.6.29.06-.03c1.19-.58 8.63-.99 9.64-.16-.45 1.71-7.88 1.19-9.68.87q-.345-.06-.69-.15zM369.56 76.9c-2.28.29-12.79.65-14.22-.4.96-.55 9.39-.44 10.63-.09l.08.02c.82.43 2.48.41 3.51.47" class="st9"/><path d="M13.29 61.32c1.62 1.31 3.45 2.48 3.89 4.3l-.29.43c-1.67.09-4.31-3.02-4.74-4.17z" class="st1"/><path d="M179.4 75.72c1.5.01 5.52-.35 6.03.89l-.62.65c-1.66-.16-5.15.24-5.82-.85z" class="st2"/><path d="m20.52 8.22.25.25c.36 1.61-2.26 3.13-3.69 3.95-.76-1.16 2.4-3.34 3.44-4.2" class="st0"/><path d="M371.39 57.81c1.69-1.63 2.53-2.4 3.84-4.28l.47.9c-.81 1.38-2.62 2.62-3.63 3.97l-.68-.58ZM14.14 14.16l.54.23c.08 1.03-1.7 2.11-2.6 2.73l-.44-.15-.19-.45c.45-.89 1.78-1.7 2.7-2.36Z" class="st3"/><path d="M373.18 25.63c0-1.67.14-3.39-.07-5.05-.15-1.19-.53-2.36-.89-3.52-.63-2.05-1.29-4.08-1.31-6.17-5.88-.06-11.71-.84-17.57-1.27 4.77 3.78 10.85 7.71 13.82 12.39 2.51 3.96 1.96 8.16 2.18 12.43.18 3.61 2.16 7.73-2.24 10.31.7-.19 1.48.19 1.86.71 1.92 2.66 1.41 5.35-.28 7.92-3.1 4.7-10.17 9-13.7 12-.66.56-1.31 1.06-1.94 1.49 4.68-.09 9.32-.15 13.3-2.6 8.13-5.02 7.32-15.11 7.01-22.47-.23-5.39-.17-10.78-.17-16.17" style="fill:#f5b700"/><path d="M389.72 36.43c-.19-4.35.21-8.88-.14-13.26-.39-3.81 2.35-11.14-2.57-13.62-1.87-.81-6.42-3.83-8.36-4.02-4.68-.48-5.01-5.53-10.16-4.96-2.35.26-4.63.2-6.7.55-2.79-.35-14.74-.26-18.43-.2-4.71.08-13.04-.14-17.45.1-2.54-.06-16.16-.25-18.49.02-3.44-.11-6.78-.09-10.22-.08-1.19-.13-7.64-.03-9.12-.03-6.05-.02-12.1 0-18.15.04L178.09.86c-12.63.03-27.16-.27-39.58.13-1.4-.09-2.12-.05-3.51.03-2.5-.08-4.99-.1-7.49-.07-25.03.28-50.33-.2-75.38.07-3.42.04-20.99-.25-22.53.11-1.33.11-6.54.25-7.23.85-3 .39-3.45.5-5.43 2.38C14.78 6.03 2.87 15.2 1.84 16.49l-.2-.61-.25.99c-.46-.84-.71-1.3-1.35-2.09.3 7.46.04 14.11-.03 21.52-.05 7.55-.01 15.11.11 22.66.04 3.65-.31 8.85-.02 12.27 3.38 2.35 7.56 4.22 11.36 6.11 1.43.71 3.97 1.71 5.07 2.55 5.27.49 14.87.15 20.58.17 14.45.12 28.9.12 43.35.01 9.94-.07 19.93.12 29.87.14h64.15l134.62-.16c19.1 0 38.27.14 57.38.15 1.91 0 3.68.04 5.6-.07 2.78-2.11 15.91-11.52 17.05-13.25.68-1.04.66-2.62.68-3.76.08-4.94-.24-9.89-.25-14.84-.01-3.96.31-7.91.15-11.87ZM8.46 68.52c-2.08-1.33-4.55-3.34-6.51-4.86-.23-1.98-.46-6.3.33-8.12.86.55.94 5.19 1.16 6.49 2.49 1.66 4.95 3.34 7.4 5.04-1.11.48-1.57.65-2.37 1.45Zm3.69-5.98c-.72-.8-1.21-1.29-1.04-2.21l.57-.03c.94.38 1.18.97 1.62 1.71l-1.14.54Zm9.76 14.41c-2.31-.03-2.81.12-4.42-1.11.43-1.03.83-1.33 1.73-2.12.89.76 2.6 2.35 3.63 2.83l-.95.4Zm51.26 0-.18-.71c2.53-.14 26.67-.13 27.49.21l.04.62c-3.29-.06-26.82.13-27.36-.12Zm111.64.42c-1.66-.15-5.15.23-5.82-.82l.41-.66c1.5.01 5.52-.34 6.03.85zm116.49-.13-55.88.08c-2.65 0-27.72-.38-28.03-.53.99-.84 9.04-.55 10.97-.56 7.51-.06 15.03-.09 22.54-.07l62.77-.14c3.53-.11 25.18-.05 27.64.55l.15.29c-2.63.98-35 .39-40.16.37Zm79.37-17.75c-1.55 4.21-4.67 7.88-9.49 10.09-3.1 1.42-6.45 1.92-9.98 2.04-3.63.12-7.3-.11-10.86.59-1.05.2-1.84-.21-2.24-.8-1.68.1-3.53.08-5.66.03.97.02 4.39-3.51 5.15-4.14.54-.45 1.86-1.13 2.05-1.77.21-.69-.8-1.16-.49-1.8.83-1.68 2.59-3.07 3.46-4.74-2.73 1.63-8.32 6.75-10.58 9.05-4.38.21-9.26.13-13.68.08-11.72-.14-23.4.17-35.12.17-1.92 0-4.37.12-6.2 0l-.23.37c4.18 1.85 10.65.95 15.19.62-.08.92-1.02 1.66-2.09 2s-2.25.34-3.4.35c-20.57.03-41.14.07-61.7.1-9.93.01-19.86.02-29.79.01-3.8 0-7.6 0-11.4-.01-2.59 0-5.25.41-7.83.09-.62-.08-5.57-1.7-4.78-.46-.17-.27-.78-.97-1.02-1.27l.14-.78c-1.11-1.09-4.31-1.3-5.98-1.27-14.32.27-28.82-.24-43.11.02 1.43-1.48 6.8-5.81 7.24-6.4l-.64-.08c-2.37.48-7.94 6.14-10.5 7.37-1.1.53-2.98 1.75-3.84 2.48-2.85.17-5.64.12-8.5.1-5.01-2.94-5.89-4.95-11.21.08-4.59 0-9.18-.02-13.76-.08-1.2-1.41-1.97-2.11-3.54-3.25-8.86-.29-17.46.06-26.2-.17-1.51.2-5.67.15-7.27.16-4.76.03-9.41-.06-14.19.12-2.45-3.52-8.15-6.28-9.62-8.99l-.19-.31c-.92-.43-.73-.29-1.98-.19 2.17 2.62 8.2 7.57 11.23 10.76 3.1.09 9.07-.52 10.9.69.57-.45 1.05-.97 1.98-.83 2.6.39 17.92.1 19.17.84l-.07.82s-44.03-2.85-49.96-2.82c-6.94-6.05-7.09-2.01-14.21-7.93-.78-.73-.26-10.21-.13-11.13.22-1.59 4.73-.46 6.19-1.37l1.76.39c.21-.78-.23-5.19-.18-6.55-.7-5.36.1-8.89-.05-13.63-.98-1.05-2.22-2.46-3.26-3.43 1.84 4.39 1.86 13.16 1.48 17.82.15 1.67.99 4.21-1.5 4.53-.88.11-.48.24-1.33-.02-.74-1.54-.19-18.79-.19-21.63 4.75-3.41 1.31-8.09 6.01-11.6 2.93-2.19.8-4.22 3.8-6.45l60.38.03c4.77 0 18.71-.25 22.47.24.63.47.47.29.56 1.06-1.85 1.56-44.02-.19-46.63 1.35l-.06.54c1.03.47 9.74.33 11.49.34l22.3.16c7.17.01 13.15-.13 20.31.38 1.64-1.4 3.24-2.8 4.98-4.12 5.11.19 12.32-.02 17.67 0 0 0 42.42.15 42.72.15 6.29.02 12.27-.52 18.47.77.16.53.33 1.06.49 1.58 2.82-2.36 7.36-2.61 11.43-2.58 19.57.14 38.93 1.28 58.57.75 20.55-.55 41.14-1.42 61.69-.4 2.19.11 4.61.26 6.26 1.56-1.22.01-2.42.44-3.24 1.15 4.15-.25 8.4 1.28 10.91 3.93 1.5-1.1 3.87-.11 5.48.88 3.61 2.23 7.22 4.46 10.84 6.69-5.2-3.69-9.81-7.91-13.68-12.52 1.2.63 3.09-.03 3.35-1.16.59.17 1.13.47 1.52.87.52-1.53 2.97-2.2 4.88-1.77.3.07.59.16.88.26 8.43.21 16.75 1.7 25.2 1.52 1.37-.03 2.02.85 1.95 1.7.04.18.05.37.01.57-.6 2.99 1.33 6.18 1.96 9.09.78 3.61.35 7.44.35 11.09 0 4.97.17 9.93.28 14.9.1 4.37-.04 8.89-1.59 13.12m6.89 1.38-1.15-.08c-.1-4.1-.09-15.59.56-19.44.72 3.01 1.18 16.76.6 19.52Zm0-35.37c-.46 3.13.05 6.68-.07 9.91l-.44-.26c-.88-1.89-.92-13.63-.61-16l1.16-.83c.9 3.14.42 4.03-.05 7.18Z" style="fill:#441e15"/></svg>