<?xml version="1.0" encoding="UTF-8"?>
<svg id="Layer_1" xmlns="http://www.w3.org/2000/svg" version="1.1" viewBox="0 0 41.16687 41.166931">
  <!-- Generator: Adobe Illustrator 30.2.1, SVG Export Plug-In . SVG Version: 2.1.1 Build 1)  -->
  <defs>
    <style>
      .st0 {
        fill: #fc0;
      }
    </style>
  </defs>
  <path class="st0" d="M4.188713,31.672384l-.248635.248635c.110485-.059041.220928.022831.331543-.064651-.040396-.05438-.068665-.117434-.082907-.183984Z"/>
  <path class="st0" d="M3.845431,32.015665l-.349799.349799c.017091.006215.035217.008804.053646.007984.17682-.145228.200039-.182603.412724-.06901-.134266-.096373-.174964-.192055-.116571-.288773Z"/>
  <path class="st0" d="M9.494517,4.1887l-.248592-.248592c.058997.110529-.022744.220928.064565.331629.054466-.040483.11752-.068665.184027-.083037Z"/>
  <path class="st0" d="M33.879559,36.396715l3.911486-3.911486-1.678515-1.678515c-.06914.024946-.065644-.038972-.085971-.085971l-10.39737-10.39737c.142423-.152435-.010487-.505687-.010487-.505687l.764507-.400251.672407-.000173,7.342836-7.342836c.011437-.029046.030686-.054854.055156-.073456l.00915.00915,3.327856-3.328892-1.31892-1.31892c.01558.065903-.049589.132453-.125461.198658-.101206-.095941-.07639-.2599.050538-.273581l-3.91153-3.91153-6.151881,6.151881c.024989.069097-.039101.065687-.086101.086101l-5.663803,5.663803-6.353776-6.353776c-.035174.006517-.068751.016271-.101811.028096-.034095.084849.336549.205865.309618.309618-.091366.07065-.183596-.055502-.275394.068924-.455321-.073628-.560498-.58458-.412421-.886646l-.345871-.345871c-.015192.080447-.025593.159211-.032714.23435-.271509.305691-.406336.076951-.619538-.069097.206685-.217216-.237457-.435295-.103105-.653547-.115449-.037159-.229603-.150536-.344706-.068579-.041648-.057444.090935-.114413.034872-.172288.056494-.014026.13897.148292.275135.000043.013379-.021666.004402-.043072-.004488-.065428l-.042727-.042727c-.135819.009106-.499083-.257742-.499429-.499429l-.528949-.528949c-.047906.062752-.057875.131935.112169.242075-.137718.074362-.275653-.046999-.413371-.13802.02952-.095466.096416-.174791.185538-.219719l-.637881-.637881c-.086533.047517-.120973.014631-.13241-.07147l-.172159.172159c.114801.086489.229646-.006603.344361.000043.141301.177036-.321444.277249-.275221.137287-.110658-.05179.010056.179668-.172202.241083-.377118-.319804-.199996-.165987-.551003-.482036.052567-.045662.103796-.091712.06914-.13802.09046-.051617.126842-.018601.137589.069399.049848-.080577.254548-.16029.103105-.241212.144839-.042123.30103-.011696.418766.082735l-.641506-.641506c.01722.042338.034527.081138.050409.111349-.028226.019939-.054682.043288-.077815.069183-.136596.150407-.126066.33806-.369565.378197-.097495-.288859-.522605-.412896-.377808-.653159.061069.079455.200255.089769.240694-.103623-.52541.233314-.932005-.205995-.89463-.688247-.097279-.117995-.011869.186746-.137848.068277-.011566-.01571-.020328-.033534-.025895-.052308l-4.944439,4.944439,11.901784,11.901784-6.354164,6.354164c.006603.035174.016271.068665.028096.101724.084936.034181.205865-.336549.309575-.309575.070693.091409-.055459.183553.06901.275394-.073628.455321-.584623.560455-.886646.412421l-.345914.345914c.08049.015149.159254.025463.234307.032585.305777.271509.077038.406336-.068967.619668-.217216-.206772-.435252.237414-.653677.102976-.037073.115449-.15045.229689-.068579.344792-.057444.041562-.11437-.091064-.172288-.034872-.01394-.056494.148335-.139013.000086-.275264-.021579-.013293-.043072-.00423-.065385.004618l-.04277.04277c.00915.13569-.257655.498997-.499386.499386l-.528992.528992c.062839.047819.131935.057789.242032-.112212.074448.137718-.046913.275653-.137891.413414-.095423-.029563-.174835-.096545-.219806-.185538l-.637838.637838c.047517.086446.014588.12093-.071557.132324l.172288.172288c.086489-.114801-.006646-.229689-.000086-.34449.177165-.141257.277293.3214.13733.275264-.051661.110701.179668-.010142.241126.172159-.319847.377161-.165987.200169-.481993.551046-.045748-.052481-.091755-.103666-.138064-.069097-.051617-.09046-.018515-.126842.069356-.137546-.08049-.049848-.160247-.254591-.241169-.103235-.042079-.14471-.011653-.300986.082735-.418679l-.641506.641506c.042425-.01722.081138-.034527.111305-.050538.020025.028312.043331.054725.06914.077944.150536.136553.338146.126066.378326.369522-.288816.097538-.412896.522691-.653159.377808.079498-.061026.089683-.200169-.103753-.240651.233357.525367-.205865.931962-.68816.89463-.117952.097236.18666.011869.06832.137805-.015796.011653-.033534.020414-.052437.025852l4.944396,4.944396,11.90213-11.90213,2.132369,2.132369c.046395-.48523.315272-.760321.414364-.912239.224078-.345612-.215792-.971927-.215792-.971927,0,0-.253253-1.27041-.037246-1.590688.062105-.092143-.016055-.403099-.155888-.795322l.370515-.370515c.266287.140092.652986,1.17831.652986,1.17831l-.399474.563821.373622.648714c.1514.039878.31074-.031765.381477-.171555.123821-.244665.471807-.213548.471807-.213548l-.396928.604433.195594.390324s-.097926.195637-.244276.146566c-.000043.195464.355452,1.830088.703999,2.030515.557995.321055.006172-.774045.006172-.774045,0,0,.510693.550658.691527.5977.111867-.242377.285752-.091021.285752-.091021,0,0-.662093,1.606743-.526748,1.795259.134525.187955.535336.006387.535336.006387l.400337.764594.000216.672364,2.869514,2.869514c.028873.011523.054725.030556.073456.054984l-.009236.009236,3.328762,3.327985,1.319049-1.319049c-.06573.015666-.132453-.049503-.198658-.125548.095941-.10112.259857-.076175.273624.050582ZM5.765288,8.642644c-.227013-.037461-.07557-.320106-.275135-.206168-.073758-1.361172,1.578043-.467837.275135.206168ZM7.003977,7.679134c-.003971.080792-.040785.100516-.103407.034527.092186-.069917.183855-.074923.275609-.206729.086446.057185.067457.114672.103278.172245-.091841.010358-.183509.124296-.27548-.000043ZM11.271433,6.026556l.000518.000518c-.118858.263525-.291146.281824-.413241.619538-.467837-.126886-.196112-1.03183.412724-.620056ZM9.413422,6.784029c-.068794-.004747-.138452.11601-.206599-.000216.069442-.08049.138323-.08049.206599.000216ZM6.831904,8.608031c-.051661-.101465.179625-.212943.24091-.103494l.000518.000518c-.080318.139358-.160808.052394-.241428.102976ZM9.241393,9.98474c-.399129.097365-.636241-.337067-.928898-.653806.090805-.123606.182689-.036641.27466.068535.07488-.282731-.258432-.361667-.137287-.618848-.068838-.061328-.137546.089381-.205995.000216.043892.179496.002331.160463-.172288.309187-.057832-.081138-.114758-.100516-.172331-.034138-.041432-.154507.203017-.170389.275523-.205952-.106601-.06258-.237803-.06258-.343843-.000561-.036857-.057573.057357-.114844.103105-.171986-.173367.105867-.270474-.051143-.206988-.206988-.115147-.111003-.333657.103019-.344102-.1372.138193-.041518.27535-.001554.413371-.068967.051963.080275-.106558.160592.034052.241298.105565-.114888.073542-.23012-.068535-.344749.137589-.102717.275307.003323.412767-.137934.173885.177251.172288.226495.172202.447552.120196-.264863.47526-.694159.860362-.860362.004661.115147-.080663.229473-.206297.344231.114499-.035088.229128-.021104.343972-.068622.190544.481.497832.90706.894587,1.238991-.095553.21795-.086835.436417-.102458.653677-.239788-.103407-.563648.006733-.826871-.206685-.126281.099351-.252088.192875-.378585.103235.037375.15045.209577.085626.309877.309877ZM12.751636,8.057201c-.002503-.003366-.004359-.005999-.006603-.008934.004143.005524.00833.011178.012041.015925-.001813-.001813-.003496-.004273-.005438-.006992ZM12.779042,8.09367c-.001554-.001554-.0041-.004877-.008675-.011005.004057.005611.006603.008934.009193.011523l-.000518-.000518ZM10.411244,10.741997c-.099351-.112816.113075-.257914.206599-.137718-.046956.071816-.121879.121879-.206599.137718ZM14.334815,10.535225c.12585-.197493.456616-.028312.206685.137718-.084893-.015925-.159815-.065989-.206685-.137718ZM15.882862,13.047345c-.024169-.194731-.059386-.922208-.584062-.585357.681471-.953541,1.330012.327615.584062.585357ZM24.348679,21.925669l-.000388.000388c-.125807.148594-.252304.129389-.378369.309316-.275653-.259857.187092-.480568.378758-.309704ZM24.575736,17.953847l.000518-.000518c.086015.057962.067327.114974.103278.172245-.105695.093956-.246175-.080792-.103796-.171727ZM27.673298,18.229198c-.032585-.05753.006646-.114715-.034225-.172245.046309-.03457.091409.033922.137459.06901l-.103235.103235ZM29.979034,16.4058c-.032455-.05835-.017911-.131935.034484-.172936.08951.057919.016228.115319-.034484.172936ZM32.663269,13.583113c-.241557-.016012-.545694.091668-.687642.275394-.032282-.276041-.211088-.148335-.413371-.275437.213591-.222568.887336-.519627,1.101013.000043ZM31.046298,14.305498c-.181956.196112-.31087.126842-.413026.344663-.350575-.284716.319156-.730024.413026-.344663ZM32.766893,12.241362c-.091927.05015-.183509.076822-.275307-.068924.100602-.12339.276257-.090848.275307.068924ZM29.807264,12.516195c.183553-.182517.367148.020241.550269.137503-.158391.108673-.112125.141473-.171296.378456-.128785-.248592-.060853-.429081-.379233-.515699l.000259-.000259ZM26.537931,13.995664c.064824.046697.026629.092488.068751.137718l.000345.000345c-.053387.081008-.207592-.106946-.069097-.138064ZM22.958591,17.644057c-.006042-.000173-.008632-.004834-.014199-.005481l-.115492-.115492c-.005654-.062364.023176-.136078.094733-.1883.064997.102803.148076.206168.034958.309273ZM22.821132,16.68046c-.155284-.275609-.196845-.551003-.06914-.825792.173928.277681.64306.65031.06914.825792ZM29.084059,10.554603l.000518.000518c-.148335.152479-.256749-.176906-.241169-.241169.123476-.10207.290456.144235.240651.240651ZM25.849037,12.895039l.000604.000086c-.132065.123088-.136769.035951-.206729-.068794.131374-.123778.136769-.036987.206124.068708ZM26.43448,12.034072l.000345.000345c-.085324.058911-.178115.105091-.275566.137805-.066032-.057228-.030686-.11519-.103278-.172245.150148-.143415.320883-.135474.378499.034095ZM23.268037,14.374637c.046568-.034829.091798.033707.138064.069097-.075182.166505-.180488.318422-.310309.44738-.304353-.172116.205477-.344274.172245-.516476ZM25.849728,12.000107c-.162319.174748-.381563-.044496-.206815-.206815.107766.01394.19253.098703.206815.206815ZM26.950352,9.729372c-.004618.068492.116355.137071.000129.205995-.109968-.069053-.110183-.137718-.000647-.206513l.000518.000518ZM26.64095,9.763251c.023047.155802-.288686.278674-.344145.412508-.09702-.068535-.011739-.137244-.137373-.20634.160118-.202413.320667-.298052.481518-.206168ZM21.61628,16.026395c.457392.086576.493128.486395.791827.72286-.076606.134956-.15291.103882-.229344.123692l-.098574-.098574c.005179-.12326.032067-.246477-.153471-.369608-.041562.088.06327.175655.047474.263611l-.519454-.519454c.054854-.037246.110572-.071902.161542-.122527ZM8.094114,28.387427l-.000518.000518c-.001554.001554-.004747.004057-.011049.008632.005783-.004057.008977-.00656.011566-.00915ZM8.064162,28.409783c-.001856.001856-.004273.003582-.006948.005567-.003453.002417-.005999.004273-.008934.006517.005481-.0041.011092-.00833.015882-.012084ZM6.02644,29.895424l.000518-.000518c.263611.118944.28191.291233.619625.413241-.126929.46788-1.031874.196155-.620143-.412724ZM10.672913,26.62553c-.015882.084763-.065946.159686-.137718.206599-.197493-.12585-.028312-.456616.137718-.206599ZM12.461914,25.868187c-.953541-.681643.327702-1.330012.5854-.584019-.194644.024082-.922251.059256-.5854.584019ZM6.784085,31.753521c-.00492.068794.11601.138452-.000173.206642-.08062-.069571-.080577-.138323.000173-.206642ZM7.506901,33.990679c.057142-.086489.114672-.06737.172202-.103149.010401.091798.124253.18338-.000086.275264.080836.0041.100602.040957.03457.103537-.06983-.0921-.075009-.183941-.206685-.275653ZM8.849731,32.99208c-.062407.106601-.062407.237803-.000388.343929-.05753.036814-.114931-.057357-.172072-.103105.105954.173367-.05097.27056-.206901.206901-.111003.115147.102976.333787-.137071.344231-.041691-.138193-.001726-.275523-.069183-.4135.080275-.051963.160592.106644.241298-.034138-.114801-.105479-.230077-.073412-.34462.068751-.102933-.137718.003237-.275307-.137891-.41281.177251-.173799.226323-.172461.447423-.172245-.26482-.120153-.694116-.475303-.860233-.860233.115147-.004661.229473.080577.344145.206211-.035217-.114629-.021148-.229171-.068579-.344015.480957-.190587.906973-.497832,1.238861-.89463.21795.095553.436461.086964.653677.102458-.103451.239831.006733.563648-.206556.827001.099264.126195.192961.252088.103149.378499.150493-.037246.085583-.209534.309877-.309877.097322.399172-.337024.63637-.653806.928984-.123519-.090892-.036512-.182733.068579-.274703-.282817-.07488-.36171.258475-.618848.1372-.061285.068881.089295.137546.000086.206038.179625-.043935.160506-.002374.309316.172331-.081267.057789-.100559.114715-.034181.172288-.154464.041562-.17026-.202974-.206081-.275566ZM10.604291,30.549058c.071816.046956.121879.121879.137632.206599-.112816.099351-.257958-.113204-.137632-.206599ZM8.504464,34.094173l.000518-.000518c.139358.080231.052308.160722.10289.241342-.101379.051661-.2129-.179668-.103407-.240824ZM8.642571,35.401699c-.037461.227013-.320062.075613-.206124.275178-1.361215.073715-.46788-1.578172.206124-.275178ZM16.826995,23.99766s.62502-.333614,1.186683-.678795l.083555.083555c-.679356.30267-1.270237.59524-1.270237.59524ZM21.682614,21.382133l.002935-.001554c.095294.176431.348547.636845.61669,1.075463-.035606.004877-.070996.011264-.106515.020198-.223301-.49658-.430548-.925316-.51311-1.094108ZM26.929982,22.992458l-.000388.000388c-.160549-.126368-.051143-.252347-.240737-.378672.324594-.481345.748668.30267.241126.378283ZM25.346458,25.401861l.103235.103235c-.049805.150623-.254203-.053775-.103235-.103235ZM28.857003,24.644129l-.000388.000388c-.051402.009279-.103019.020155-.068708.068708-.219806-.11096-.22766.224553-.44738.034095.172245.028355.343929-.323213.516476-.103192ZM27.204857,26.021097c.230854-.249153.517253.008243.171813.240781-.081915-.080361-.04182-.160851-.171813-.240781ZM29.717495,25.367377c-.082432.129734-.042468.089769-.172202.172202l-.206642-.206642c.126454-.160635.252002-.078332.378844.03444ZM27.858707,26.81288c.056926-.086964.114327-.067715.171555-.103537.07242.049805-.130899.25416-.171555.103537ZM27.755386,27.397504c-.172159-.104745.067068-.343972.172202-.172202l-.000388.000388c-.082087.130079-.042123.090115-.171813.171813ZM28.236904,26.915986c-.034829-.160592.1208-.321055.068751-.482036-.10289-.098746-.206124-.049028-.309273-.033922.003755-.103537.033146-.20716-.034613-.309963.080231-.051229.160765.036037.240867-.103451.232796.186358.198831.361883.413155.619538-.126368.167109-.252951.202888-.378887.309834ZM27.996209,27.431858c.00423-.154421.20237-.181654.309273-.034786-.102717.065083-.206124.14812-.309273.034786ZM28.891141,26.881502c-.182128-.103062-.061458-.206124-.172072-.30923.171986-.068406.344404.08718.516476-.172245-.103494-.048769-.206729.116614-.310266.034052-.056149-.299821-.070219-.634126-.481561-.756912.149371-.17423.298613-.270301.447639-.172116.116139-.069183-.004618-.137632.000216-.206685.421744.108241.431368.497746.722342.791309-.086619.457436-.486395.4933-.722773.791827ZM27.514691,29.152884c-.093913-.105652.080792-.246175.171727-.10371l.000518.000518c-.058005.085971-.114974.067327-.172245.103192ZM28.959806,27.294485c.275696-.155198.551003-.196759.825965-.06914-.27781.173885-.65031.64306-.825965.06914ZM30.749066,27.569231c.172202-.304439.344361.205304.516606.172202.034915.046568-.03375.091755-.069097.13815-.166462-.075225-.318422-.180488-.447509-.310352ZM27.411154,32.146651c.057401-.032541.114672.006517.172072-.034311.034742.046395-.033922.091582-.068838.137546l-.103235-.103235ZM28.925582,32.76701c-.050236-.092014-.076865-.183466.068924-.275394.123347.100732.090805.276214-.068924.275394ZM31.506841,31.079992l-.000388.000388c-.080879-.05343.107033-.207505.13815-.069097-.046611.06491-.092488.026542-.137762.068708ZM32.745184,30.322951c-.123045-.132108-.036037-.136596.068794-.206556.123821.131331.0369.136769-.068579.205995l-.000216.000561ZM35.3264,33.316761c.101983.123476-.144408.290456-.240737.240737l-.000388.000388c-.152435-.148292.176734-.25649.241126-.241126ZM29.234552,34.452301c.058307-.032412.131763-.017824.172849.034656-.057962.089381-.115276.016184-.172849-.034656ZM33.640202,30.32321c-.174878-.162448.044367-.381693.206815-.206815-.014026.107594-.098833.1924-.206815.206815ZM33.606237,30.907876l-.000388.000388c-.058954-.085367-.105004-.178115-.137675-.275609.057099-.066075.115147-.030556.172029-.103321.143545.150277.135517.320926-.033966.378542ZM31.334812,35.519521c-.196025-.181697-.126799-.310654-.344663-.412853.284673-.350619.729808.319113.344663.412853ZM35.464679,30.770244c.068406-.097063.137071-.011739.206124-.137416.202413.160118.298095.320624.206211.481561-.155931.023003-.278587-.288686-.412335-.344145ZM35.704942,31.423878c.068924-.110011.137762-.11014.206513-.000734l-.000518.000518c-.068449-.004402-.137157.116441-.205995.000216ZM32.608242,34.65972c.248506-.129044.428951-.060896.51544-.379405l.000345.000345c.182603.18338-.020198.367191-.137373.550312-.108716-.158521-.141516-.112255-.378413-.171252ZM32.057153,37.136708c.016141-.241601-.091668-.545694-.27535-.687599.27617-.032412.148292-.211131.275307-.413414.222697.213375.519756.887207.000043,1.101013Z"/>
  <path class="st0" d="M8.862549,3.961989c.096286-.134266.192012-.174921.288773-.116484l-.349842-.349842c-.006215.017091-.008804.035217-.007984.053732.145185.176777.182603.199953.069053.412594Z"/>
</svg>