<?xml version="1.0" encoding="utf-8"?>
<!-- Generator: Adobe Illustrator 27.8.0, SVG Export Plug-In . SVG Version: 6.00 Build 0)  -->
<svg version="1.1" id="Layer_1" xmlns="http://www.w3.org/2000/svg" xmlns:xlink="http://www.w3.org/1999/xlink" x="0px" y="0px"
	 width="132.5973px" height="28.6641px" viewBox="0 0 132.5973 28.6641" style="enable-background:new 0 0 132.5973 28.6641;"
	 xml:space="preserve">
<style type="text/css">
	.st0{fill:#FFFFFF;}
</style>
<g id="PS5_00000147923622082095538430000009757160026501127824_">
	<g>
		<g>
			<g>
				<path class="st0" d="M129.6653,21.2158h-0.5827v-0.2003h1.3658v0.2003h-0.5645v1.7118h-0.2367v-1.7118H129.6653z"/>
			</g>
			<g>
				<path class="st0" d="M131.6503,22.7091L131.6503,22.7091l0.5463-1.6936h0.4007v1.9122h-0.2185v-1.73l0,0l-0.5645,1.73h-0.2914
					l-0.5463-1.73l0,0v1.73h-0.2185v-1.9122h0.4006L131.6503,22.7091z"/>
			</g>
		</g>
		<g>
			<g>
				<path class="st0" d="M81.6248,22.9276c2.5495,0,4.6256-2.0761,4.6256-4.6256v-7.9582c0-1.5479,1.2566-2.7863,2.7863-2.7863
					h8.978c0.0728,0,0.1275-0.0546,0.1275-0.1275V5.8457c0-0.0728-0.0546-0.1275-0.1275-0.1275H87.2155
					c-2.5495,0-4.6256,2.0761-4.6256,4.6256v7.9582c0,1.5479-1.2566,2.7863-2.7863,2.7863h-8.8688
					c-0.0728,0-0.1275,0.0546-0.1275,0.1275v1.5844c0,0.0728,0.0546,0.1275,0.1275,0.1275L81.6248,22.9276z"/>
			</g>
			<g>
				<path class="st0" d="M101.839,12.1831V5.8457c0-0.0728,0.0546-0.1275,0.1275-0.1275h24.4209
					c0.0728,0,0.1275,0.0546,0.1275,0.1275v1.5844c0,0.0728-0.0546,0.1275-0.1275,0.1275h-20.7605
					c-0.0728,0-0.1275,0.0546-0.1275,0.1275v4.1339c0,0.7284,0.601,1.3294,1.3294,1.3294h15.4429
					c2.6952,0,4.8988,2.1853,4.8988,4.8988c0,2.6952-2.1853,4.8988-4.8988,4.8988h-20.3053c-0.0728,0-0.1275-0.0546-0.1275-0.1275
					V21.234c0-0.0728,0.0546-0.1275,0.1275-0.1275h18.4842c1.6936,0,3.0594-1.3658,3.0594-3.0412
					c0-1.6936-1.4022-3.0777-3.0777-3.0777h-15.8071C103.0955,14.9694,101.839,13.7311,101.839,12.1831z"/>
			</g>
			<g>
				<path class="st0" d="M65.5627,13.1301c1.5479,0,2.7863-1.2566,2.7863-2.7863c0-1.5479-1.2566-2.7863-2.7863-2.7863H46.8236
					c-0.0728,0-0.1275-0.0546-0.1275-0.1275V5.8457c0-0.0728,0.0546-0.1275,0.1275-0.1275H67.402
					c2.5495,0,4.6256,2.0761,4.6256,4.6256s-2.076,4.6256-4.6256,4.6256H53.161c-1.5297,0-2.7863,1.2566-2.7863,2.7863v5.0444
					c0,0.0728-0.0546,0.1275-0.1275,0.1275h-3.4237c-0.0728,0-0.1275-0.0546-0.1275-0.1275c0-1.3658,0-5.0444,0-5.0444
					c0-2.5495,2.0761-4.6256,4.6256-4.6256H65.5627z"/>
			</g>
		</g>
	</g>
	<g>
		<g>
			<g>
				<path class="st0" d="M13.8799,0v26.7519l6.0643,1.9122V6.2282c0-1.0562,0.4735-1.7665,1.2201-1.5115
					c0.9834,0.2732,1.1837,1.2566,1.1837,2.2946v8.9598c3.7697,1.8211,6.7381,0,6.7381-4.8077c0-4.917-1.7483-7.1023-6.8655-8.8687
					C20.1991,1.6026,16.4659,0.4735,13.8799,0"/>
			</g>
			<g>
				<path class="st0" d="M21.0914,24.7487l9.7247-3.4601c1.0927-0.4006,1.2748-0.9652,0.3824-1.2566
					c-0.9105-0.2914-2.5131-0.2185-3.624,0.1821l-6.4649,2.2764v-3.6422l0.3642-0.1275c0,0,1.8757-0.6556,4.5163-0.947
					c2.6224-0.2914,5.8639,0.0364,8.3953,1.0016c2.8591,0.9105,3.1687,2.2217,2.4585,3.1505
					c-0.7284,0.9105-2.5131,1.5661-2.5131,1.5661l-13.2212,4.7531v-3.4965H21.0914z"/>
			</g>
			<g>
				<path class="st0" d="M2.7894,24.3845c-2.932-0.8195-3.4237-2.5313-2.0761-3.5329C1.9517,19.941,4.046,19.249,4.046,19.249
					l8.6684-3.0959v3.5147l-6.2464,2.24c-1.1109,0.4006-1.2748,0.947-0.3824,1.2383c0.9105,0.3096,2.5131,0.2185,3.624-0.1821
					l3.0048-1.0744v3.1505c-0.2003,0.0364-0.4006,0.0728-0.601,0.0911C9.1086,25.6229,5.9399,25.4225,2.7894,24.3845z"/>
			</g>
		</g>
		<g>
			<g>
				<path class="st0" d="M34.7679,25.7868c0.8559,0,1.4205,0.6374,1.4205,1.4387s-0.5827,1.4387-1.4205,1.4387
					c-0.8559,0-1.4387-0.6192-1.4387-1.4387C33.3292,26.4241,33.912,25.7868,34.7679,25.7868z M34.7679,28.4456
					c0.7284,0,1.2019-0.5463,1.2019-1.2201c0-0.6738-0.4735-1.2201-1.2019-1.2201s-1.2019,0.5463-1.2019,1.2201
					C33.5478,27.8992,34.0212,28.4456,34.7679,28.4456z M34.2033,26.3877h0.6556c0.3096,0,0.5281,0.0911,0.5281,0.4371
					c0,0.2003-0.0911,0.346-0.3096,0.4006l0,0c0.1093,0.0364,0.1821,0.1093,0.2367,0.2914
					c0.0546,0.1821,0.1093,0.3642,0.1639,0.5099h-0.3096c-0.0364-0.1275-0.0911-0.3278-0.1275-0.4553
					c-0.0546-0.1821-0.1093-0.255-0.346-0.255h-0.2003v0.7102h-0.2914C34.2034,28.0267,34.2034,26.3877,34.2033,26.3877z
					 M34.4947,27.1344h0.255c0.2185,0,0.346-0.0911,0.346-0.2732c0-0.2185-0.1639-0.255-0.3096-0.255h-0.2914V27.1344z"/>
			</g>
		</g>
	</g>
</g>
</svg>
