<?xml version="1.0" encoding="utf-8"?>
<!-- Generator: Adobe Illustrator 27.8.0, SVG Export Plug-In . SVG Version: 6.00 Build 0)  -->
<svg version="1.1" id="Layer_1" xmlns="http://www.w3.org/2000/svg" xmlns:xlink="http://www.w3.org/1999/xlink" x="0px" y="0px"
	 width="84.458px" height="30.2067px" viewBox="0 0 84.458 30.2067" style="enable-background:new 0 0 84.458 30.2067;"
	 xml:space="preserve">
<style type="text/css">
	.st0{fill:#FFFFFF;}
</style>
<g>
	<path class="st0" d="M23.7673,0H2.3925C0.6395,0,0,0.6374,0,2.3647v21.0544c0,0.2711,0.0487,0.7583,0.1369,0.9669
		s0.1703,0.3795,0.3336,0.5317c0.1689,0.1571,0.4608,0.3204,0.6013,0.3844l11.3307,4.7676c0.2085,0.0883,0.4372,0.1369,0.677,0.1369
		c0.2405,0,0.4692-0.0487,0.677-0.1369l11.3314-4.7683c0.1404-0.0639,0.4323-0.2273,0.6013-0.3844
		c0.1633-0.1522,0.2454-0.3225,0.3336-0.5317c0.0883-0.2085,0.1369-0.6958,0.1369-0.9669V2.3647C26.1598,0.6374,25.5203,0,23.7673,0
		z M14.4447,3.7883h1.7892v11.5823h-1.7892V3.7883z M14.5372,18.1398h1.0399v3.5102h-0.9794v-2.0165l-0.9085,1.3742H13.669
		l-0.9036-1.3638v2.006h-0.9641v-3.5102h1.0399l0.8473,1.3589L14.5372,18.1398z M8.6553,3.7883h2.8089
		c1.4548,0,2.1736,0.7111,2.1736,2.1513v3.0779c0,1.4395-0.7187,2.1506-2.1736,2.1506h-1.0197v4.2025H8.6553V3.7883z M3.7785,3.7883
		h3.9794v1.605H5.5677v3.2767h2.1061v1.605H5.5677v3.4915h2.2236v1.605H3.7785V3.7883z M7.1685,21.1823
		c-0.1898,0.1536-0.4129,0.2829-0.6701,0.3865c-0.2572,0.1036-0.5477,0.1557-0.873,0.1557c-0.2773,0-0.5338-0.0452-0.7688-0.1348
		c-0.2356-0.0904-0.4386-0.2155-0.6117-0.376C4.0726,21.053,3.937,20.8618,3.839,20.6394c-0.098-0.2217-0.1474-0.4657-0.1474-0.7292
		v-0.0104c0-0.2572,0.048-0.497,0.1446-0.7173c0.0973-0.2203,0.2294-0.4136,0.3983-0.579c0.1696-0.1654,0.3712-0.2947,0.6061-0.3886
		c0.2349-0.0931,0.4893-0.1404,0.7632-0.1404c0.3149,0,0.586,0.0452,0.8146,0.1348c0.228,0.0904,0.4372,0.2155,0.627,0.376
		l-0.5783,0.6868c-0.1286-0.107-0.26-0.1891-0.3934-0.2454c-0.1335-0.057-0.2885-0.0855-0.4643-0.0855
		c-0.1286,0-0.2475,0.025-0.358,0.0751c-0.1098,0.05-0.2051,0.1189-0.2864,0.2057c-0.0813,0.0869-0.1453,0.1891-0.1925,0.3058
		c-0.0473,0.1168-0.0709,0.2426-0.0709,0.376v0.0104c0,0.1404,0.0236,0.2711,0.0709,0.3906
		c0.0473,0.1203,0.1147,0.2231,0.2002,0.3086c0.0862,0.0855,0.1877,0.1522,0.3045,0.2009c0.1168,0.048,0.2461,0.073,0.3886,0.073
		c0.2301,0,0.4191-0.048,0.5686-0.1453v-0.4261H5.535v-0.7146h1.6335V21.1823z M7.4813,21.6501l1.5132-3.5359h0.9488l1.5125,3.5359
		h-1.0552l-0.2593-0.627h-1.37l-0.2537,0.627H7.4813z M17.3975,25.5349c-0.0049,0.0111-0.0118,0.0209-0.0202,0.0292
		c-0.0083,0.0083-0.0181,0.0153-0.0292,0.0195l-4.1344,1.7398c-0.0445,0.0188-0.0931,0.0292-0.1439,0.0292
		c-0.0507,0-0.0994-0.0104-0.1439-0.0292l-4.1024-1.7398c-0.0111-0.0049-0.0209-0.0118-0.0292-0.0195
		c-0.0083-0.0083-0.0153-0.0181-0.0202-0.0292s-0.007-0.0229-0.007-0.0361c0-0.0125,0.0028-0.025,0.007-0.0361
		c0.0049-0.0111,0.0118-0.0209,0.0202-0.0292c0.0083-0.0083,0.0181-0.0153,0.0292-0.0195c0.0111-0.0049,0.0229-0.007,0.0361-0.007
		h8.4523c0.0125,0,0.025,0.0028,0.0361,0.007c0.0111,0.0049,0.0209,0.0111,0.0292,0.0195s0.0153,0.0181,0.0202,0.0292
		c0.0049,0.0111,0.007,0.0229,0.007,0.0361C17.4051,25.5113,17.4024,25.5238,17.3975,25.5349z M19.1178,21.6501h-2.8826v-3.5102
		h2.8568v0.8279h-1.883v0.5317h1.7051v0.7674h-1.7051v0.5568h1.908v0.8265H19.1178z M17.1792,13.3187V5.8395
		c0-1.4395,0.7194-2.1513,2.1736-2.1513h0.8696c1.4548,0,2.1569,0.6951,2.1569,2.1346v2.3661h-1.7551V5.9222
		c0-0.4636-0.2176-0.6784-0.6687-0.6784h-0.301c-0.4685,0-0.6854,0.2148-0.6854,0.6784v7.3138c0,0.4636,0.2176,0.6784,0.6854,0.6784
		h0.3343c0.4511,0,0.6687-0.2148,0.6687-0.6784v-2.6142h1.7558v2.697c0,1.4395-0.7187,2.1513-2.1736,2.1513h-0.8862
		C17.8986,15.47,17.1792,14.7589,17.1792,13.3187z M22.4807,20.5699c0,0.1807-0.0348,0.3413-0.1043,0.4817
		s-0.1668,0.26-0.2919,0.3587c-0.1251,0.0987-0.2753,0.1738-0.4518,0.2259c-0.1759,0.0521-0.3719,0.0779-0.5887,0.0779
		c-0.3184,0-0.62-0.048-0.9057-0.1453s-0.5387-0.2426-0.7583-0.4365l0.5477-0.6471c0.3552,0.2808,0.7389,0.4212,1.1518,0.4212
		c0.1321,0,0.2329-0.0209,0.3017-0.0626c0.0695-0.0417,0.1043-0.1008,0.1043-0.1779v-0.0104c0-0.0368-0.009-0.0695-0.0257-0.0973
		c-0.0167-0.0285-0.048-0.0556-0.0938-0.0827c-0.0459-0.0271-0.107-0.0528-0.1821-0.0779c-0.0765-0.025-0.1752-0.0507-0.2968-0.0779
		c-0.1898-0.0438-0.3656-0.0911-0.5276-0.1425c-0.162-0.0521-0.3038-0.1189-0.424-0.2009c-0.1203-0.082-0.2148-0.1842-0.2843-0.3058
		s-0.1043-0.2739-0.1043-0.4539v-0.0104c0-0.1633,0.0313-0.3142,0.0938-0.4518c0.0626-0.1376,0.1543-0.2558,0.2739-0.3559
		s0.2648-0.1779,0.4337-0.2336c0.1696-0.0549,0.3608-0.0827,0.5735-0.0827c0.3045,0,0.5762,0.0389,0.8146,0.1182
		c0.2384,0.0785,0.4539,0.1946,0.6471,0.3489l-0.4921,0.6868c-0.162-0.114-0.3288-0.1995-0.4998-0.2586
		c-0.171-0.0584-0.3357-0.0883-0.4942-0.0883c-0.1182,0-0.2078,0.0222-0.2662,0.0653c-0.0591,0.0431-0.089,0.0973-0.089,0.1606
		v0.0104c0,0.0403,0.009,0.0751,0.0278,0.105c0.0188,0.0299,0.0507,0.0577,0.0966,0.0827c0.0459,0.025,0.1084,0.0507,0.1877,0.0751
		c0.0792,0.025,0.18,0.0507,0.3017,0.0779c0.203,0.0438,0.3865,0.0945,0.5505,0.1529c0.164,0.0584,0.3031,0.13,0.4191,0.2127
		c0.1147,0.0834,0.203,0.1842,0.2634,0.3038c0.0612,0.1189,0.0918,0.26,0.0918,0.424L22.4807,20.5699L22.4807,20.5699z"/>
	<path class="st0" d="M11.8486,8.934V6.0216c0-0.4636-0.2176-0.6784-0.6687-0.6784h-0.7354v4.2693h0.7354
		C11.6317,9.6124,11.8486,9.3977,11.8486,8.934z"/>
	<polygon class="st0" points="9.4602,19.268 9.0598,20.2661 9.8564,20.2661 	"/>
	<path class="st0" d="M44.3219,15.4408c-0.2071-0.3608-0.4803-0.6596-0.8174-0.8981c-0.3378-0.2377-0.7681-0.4643-1.2894-0.6791
		l-2.0498-0.8292c-0.2301-0.0924-0.4226-0.1877-0.5755-0.2878c-0.1536-0.0994-0.269-0.2106-0.3455-0.3336
		c-0.0772-0.1223-0.1307-0.2725-0.1613-0.449c-0.0313-0.1766-0.0459-0.3948-0.0459-0.6562c0-0.5373,0.0918-0.9286,0.276-1.1747
		c0.0924-0.123,0.2148-0.2266,0.3684-0.3107c0.1536-0.0841,0.3455-0.1265,0.5755-0.1265c0.2454,0,0.4414,0.0382,0.5874,0.1154
		c0.146,0.0772,0.2648,0.1766,0.3573,0.2996c0.1383,0.1842,0.219,0.4032,0.2419,0.6562c0.0229,0.253,0.0348,0.5262,0.0348,0.8174
		h3.2697c0-0.8292-0.1001-1.566-0.2996-2.2104c-0.1995-0.645-0.522-1.1747-0.9676-1.589c-0.7368-0.6909-1.8114-1.0364-3.2238-1.0364
		c-0.6298,0-1.19,0.0883-1.6814,0.2648C38.0842,7.19,37.6393,7.4472,37.2403,7.785c-0.4914,0.4303-0.8598,0.9523-1.1052,1.566
		c-0.2461,0.6145-0.3684,1.3054-0.3684,2.0728c0,0.645,0.0459,1.19,0.1383,1.6349c0.0918,0.4456,0.2301,0.8216,0.4143,1.1281
		c0.1842,0.3072,0.4261,0.5679,0.7257,0.7827c0.2996,0.2155,0.6562,0.4073,1.0711,0.5755l2.0728,0.8522
		c0.2912,0.123,0.5297,0.2384,0.7139,0.3455c0.1842,0.1077,0.3302,0.2419,0.4372,0.4032c0.107,0.1613,0.18,0.3684,0.219,0.6214
		c0.0382,0.253,0.0577,0.5721,0.0577,0.9558c0,0.6603-0.1077,1.1205-0.3225,1.3818c-0.2155,0.2766-0.5602,0.4143-1.0364,0.4143
		c-0.2614,0-0.472-0.0382-0.6332-0.1154c-0.1613-0.0765-0.2878-0.1689-0.3802-0.2766c-0.1536-0.1689-0.2495-0.376-0.2878-0.6221
		c-0.0382-0.2454-0.0577-0.5373-0.0577-0.8751h-3.2697c0,0.8445,0.0806,1.5626,0.2419,2.1534
		c0.1613,0.5908,0.4414,1.0864,0.8404,1.4854c0.3684,0.3684,0.848,0.6603,1.4395,0.8751c0.5908,0.2148,1.2936,0.3225,2.1068,0.3225
		c0.798,0,1.5007-0.1154,2.1068-0.3455c0.6061-0.2301,1.0941-0.522,1.4625-0.8751c0.4296-0.4143,0.7139-0.9175,0.8522-1.5084
		c0.1383-0.5908,0.2071-1.3012,0.2071-2.1305c0-0.7368-0.0424-1.3589-0.1265-1.8649C44.675,16.2353,44.5291,15.8016,44.3219,15.4408
		z"/>
	<polygon class="st0" points="45.3236,9.8335 48.0872,9.8335 48.0872,23.2821 51.357,23.2821 51.357,9.8335 54.1207,9.8335 
		54.1207,6.8856 45.3236,6.8856 	"/>
	<path class="st0" d="M64.1147,11.0652c-0.0771-0.5602-0.196-1.0628-0.3573-1.5084c-0.1613-0.4449-0.3879-0.8438-0.6791-1.1976
		c-0.3684-0.4608-0.8369-0.8522-1.4048-1.1747c-0.5679-0.3225-1.2977-0.4838-2.1875-0.4838c-0.8904,0-1.6196,0.1613-2.1875,0.4838
		s-1.0364,0.7139-1.4048,1.1747c-0.2919,0.3531-0.5178,0.7521-0.6791,1.1976c-0.1613,0.4456-0.2843,0.9481-0.3684,1.5084
		c-0.0848,0.5609-0.1348,1.1747-0.1494,1.842c-0.0153,0.668-0.0229,1.393-0.0229,2.1763c0,0.7827,0.0076,1.5084,0.0229,2.1763
		s0.0653,1.2818,0.1494,1.842c0.0841,0.5609,0.2071,1.0635,0.3684,1.5084c0.1613,0.4456,0.3879,0.8445,0.6791,1.1976
		c0.3684,0.4608,0.8369,0.8522,1.4048,1.1747c0.5679,0.3225,1.297,0.4838,2.1875,0.4838s1.6196-0.1613,2.1875-0.4838
		c0.5679-0.3225,1.0364-0.7139,1.4048-1.1747c0.2912-0.3531,0.5185-0.7521,0.6791-1.1976c0.1613-0.4449,0.2801-0.9474,0.3573-1.5084
		c0.0765-0.5602,0.1265-1.1747,0.1495-1.842c0.0229-0.668,0.0348-1.393,0.0348-2.1763c0-0.7827-0.0118-1.5084-0.0348-2.1763
		C64.2412,12.2399,64.1912,11.6261,64.1147,11.0652z M61.0174,16.5578c-0.0076,0.4914-0.0271,0.9523-0.0577,1.3818
		c-0.0313,0.4303-0.0772,0.814-0.1383,1.1511c-0.0612,0.3378-0.1383,0.5985-0.2301,0.7827
		c-0.0924,0.1842-0.2231,0.3378-0.3913,0.4608c-0.1689,0.123-0.4066,0.1842-0.7139,0.1842s-0.545-0.0612-0.7139-0.1842
		s-0.2996-0.2766-0.3913-0.4608c-0.0924-0.1842-0.1689-0.4449-0.2301-0.7827c-0.0619-0.3378-0.1077-0.7215-0.1383-1.1511
		c-0.0313-0.4296-0.05-0.8904-0.0577-1.3818c-0.0083-0.4914-0.0118-0.9822-0.0118-1.4736c0-0.4914,0.0035-0.9822,0.0118-1.4736
		c0.0076-0.4914,0.0264-0.9516,0.0577-1.3818c0.0306-0.4296,0.0765-0.8133,0.1383-1.1511c0.0612-0.3378,0.1383-0.5985,0.2301-0.7827
		c0.0918-0.1842,0.2224-0.3378,0.3913-0.4608C58.9411,9.7118,59.1788,9.65,59.4861,9.65c0.3072,0,0.545,0.0619,0.7139,0.1842
		c0.1689,0.123,0.2996,0.2766,0.3913,0.4608c0.0918,0.1842,0.1689,0.4456,0.2301,0.7827c0.0612,0.3378,0.107,0.7215,0.1383,1.1511
		c0.0306,0.4303,0.0494,0.8904,0.0577,1.3818c0.0076,0.4914,0.0118,0.9829,0.0118,1.4736
		C61.0292,15.575,61.025,16.0664,61.0174,16.5578z"/>
	<path class="st0" d="M74.1734,15.3484c0.2454-0.3142,0.4337-0.6562,0.5644-1.0246c0.13-0.3684,0.219-0.7563,0.2648-1.1629
		c0.0459-0.4066,0.0688-0.8327,0.0688-1.2783c0-0.7827-0.0688-1.4854-0.2071-2.1068c-0.1383-0.6214-0.3802-1.1434-0.7257-1.566
		c-0.3455-0.4219-0.8139-0.7486-1.4048-0.9787c-0.5908-0.2301-1.3318-0.3455-2.2222-0.3455h-4.6745v16.3966h3.2697v-6.3789h1.0823
		l2.0033,6.3789h3.408l-2.3953-7.0927C73.6055,15.9434,73.9273,15.6632,74.1734,15.3484z M71.767,12.5965
		c-0.0229,0.2461-0.0772,0.4685-0.1613,0.668c-0.0848,0.1995-0.2148,0.3649-0.3913,0.4949c-0.1766,0.1307-0.4184,0.196-0.7257,0.196
		h-1.3818V9.8335h1.3818c0.3072,0,0.5484,0.0619,0.7257,0.1842c0.1766,0.123,0.3072,0.2843,0.3913,0.4838
		c0.0841,0.1995,0.1383,0.4226,0.1613,0.668c0.0229,0.2461,0.0348,0.4838,0.0348,0.7139
		C71.801,12.1127,71.7899,12.3511,71.767,12.5965z"/>
	<polygon class="st0" points="84.458,9.8335 84.458,6.8856 76.9044,6.8856 76.9044,23.2821 84.458,23.2821 84.458,20.3343 
		80.1748,20.3343 80.1748,16.4195 83.8588,16.4195 83.8588,13.4716 80.1748,13.4716 80.1748,9.8335 	"/>
</g>
</svg>
