<?xml version="1.0" encoding="UTF-8"?>
<svg id="Layer_1" xmlns="http://www.w3.org/2000/svg" version="1.1" viewBox="0 0 67.052734 72.152585">
  <!-- Generator: Adobe Illustrator 30.1.0, SVG Export Plug-In . SVG Version: 2.1.1 Build 136)  -->
  <defs>
    <style>
      .st0 {
        fill: #fc0;
      }
    </style>
  </defs>
  <path class="st0" d="M63.534851,70.11863h3.517883V2.149878h-.778992l.026917.122314c-.332703.12915-1.019348.414612-1.664673.700073.061523.047546.101929.11554.13562.217468-.074097.067993-.400085.278687-.536621.271851-.128906,0-.292419-.12915-.516418.013672-.095215.061157-.075012.1427-.23761.203918-.05481-.033997-.082642-.061218-.143188-.061218-.04718.020386-.088501.047607-.128906.074768v.006836c-.061523.142639-.176941.15625-.360657.231079h-.006653c-.271301.183472-.536743.373779-.835754.570923-.346191.237854-.768433.434998-1.127991.618469-.258789.135986-.401184.319458-.65979.496216-.183716.12915-5.36908,2.861511-5.552795,2.983826-.176941.115479-.237488.251526-.407715.380615-.421204.312683-.945374.693298-1.413635.965149-.217407.122314-.537659.108765-.76178.210754-.12207.061157-.706848.434937-.788513.509766-.047119.088257-.087463.169861-.13562.258179-.101868.061218-.250977-.033875-.352844,0-.095215.081604-.204895.163269-.299133.244812-.23175.135864-.530884.251465-.748291.373779-.230774.149536-.924133.625305-1.148193.740906-.706848.367004-1.326233.829163-2.039734,1.284607-.475098.305786-1.080017.536926-1.569397.863098-.979065.659363-1.971558,1.332275-2.902466,2.08667-.332703.265137-.516418.611755-.890564.883606-.802002.570984-1.665527,1.033142-2.501282,1.570007l-.061523-.047485c-.108704.380676-.203918.761292-.250977,1.141846-.033691.299072-.203918.543823-.230896.856445-.034546.496155-.258606,1.046692-.374023,1.529297-.177002.265015.237488.530151.047058.802002-.074036.210754-.244263.611755-.271179.849609-.048096.407837-.245239.672852-.374146,1.107971-.075012.265015-.047974.679565-.088379.958313-.04718.441772.020203.903931-.061646,1.345764-.128784.720459-.196167,1.434143-.401001,2.202148-.135559.537048-.040344,1.230286-.604797,1.502197.088379.25824.081726.50293.225037.76123-.15686.299011-.462646.428162-.52417.557314-.162598.339844-.135559,1.019531-.210571,1.386536-.080811.462219-.347168.84967-.37323,1.318665.026062.047546.067383.10199.102051.149475-.049072.088379-.088562.176758-.129883.265076-.060547.319519,0,.795227-.08075,1.12146-.245239.999207-.591431,1.848877-.775146,2.861511-.041321.169922.060608.441772.026917.60498-.053772.380554-.32605.638855-.414429,1.00592-.040527.169922-.040527.550598-.122192.706848-.048035.095215-.197144.197144-.217285.271851-.225037.992371-1.231018,5.016174-1.523315,5.988037-.128906.421448-.319336.679749-.441528,1.114685-.088379.299133-.148987.713684-.210571,1.019592-.061523.265015-.230835,1.257385-.394226,2.154602.081726.251465.155762.496216.203796.740845.05481.326294-.061523.686462.006836,1.00592.013367.088379.257629.373779.305786.496216-.048157.163086-.053894.339905-.040405.516541,1.270325.679749,2.691711,1.237,2.874512,2.773132.808716.027222,1.495361.278687,2.359009.149536.686646.740845.740417,1.72644,1.039551,2.032227.815491.815735,2.746643,1.420593,3.704407,1.991516,1.22998.700073,2.059937,1.84198,3.350525,2.399353.170227-.034058.353821-.108765.524048-.135986.203918.210693.413574.421448.618469.63208.835693.496155,2.23584.788391,3.079346,1.359375,1.127991.747742,2.160828,1.515686,3.180298,2.276978.006653-.020386.020203-.040771.034485-.061157.115417-.163086.720337-.788513.882935-.822449.034607,0,.12207.040833.238403.108765.013489-.006775.020203-.01355.02594-.01355.367432.122314,1.734009-.142822,2.434021,0,.646301.122314,1.244507.482605,1.876343.584534.944397.163086,1.916687.081543,2.813904.258179,1.03949.210693,2.310913.448669,3.370728.625427v.516541c-.108704.04071-.230835.122314-.319336.176697Z"/>
  <path class="st0" d="M38.757425,17.184474c.14909-.101927.196163-.251486.346191-.333015.06163-.013676.115398-.027235.170219-.040794.115398-.074808.175972-.210691.299118-.251486.067265-.020369.14909.054354.217297.020397.088516-.040766.088516-.156368.14909-.197133.03463-.020397.136528.013559.17691-.006838.095207-.033956.13559-.088368.230797-.142721.0135.013559.021248.033956.03463.047603.095207-.047603.13559-.156368.237602-.197133.061516-.013559.122089-.020397.190411-.027235.108707-.067883.14909-.183486.258617-.244648.122208-.061162.264488.033956.379887-.054324l.021248-.006838c.006691,0,.006691-.006809.013382-.006809,0,0,.006809-.00675.0135-.013559-.03463-.061191-.054825-.095118-.041321-.169956-.618427-.380618-1.719578-1.162282-2.419594-1.461282-.16259.108677-.373192.258236-.516415.37381-.060692-.027206-.115517-.054412-.177029-.08153-.033691.020368-.060574.040765-.095207.061162v.37381c-.0135.08153-.074074.040765-.074074.122324,0,.040765.0135.28553.027.333015,0,.027235.054825.074838.054825.095206.006691.088397-.06163.15628-.068321.244648,0,.122353.060574.29228.068321.414604,0,.122412-.054825.326295-.095207.43506-.03463.033957-.068321.07472-.102016.108765-.027821.108677.047192.224279.053883.292252-.020191.047516-.040382.095118-.053883.142721-.007629.129162.027.258324.006809.407766.095207.020485.583679-.163118.693325-.237839"/>
  <path class="st0" d="M42.253946,2.788738c.011505-.072021-.025005-.015672-.052006-.084993-.016319-.040794.042377-.062512.039444-.071375-.032635-.07883-.138409-.157601-.165405-.239893-.257679-.153609-.513477-.270533-.712578-.258207-.053883.003346-.089455.037977-.14909.030581-.167286-.021072-.362511-.088397-.526039-.118978-.109646.112111-.112465.212071-.225044.231734-.019253.068029-.041321.031285.052006.084288-.059635.008804-.092388.002113-.106827.016318-.008572.014263-.016319.028585-.023949.04279.088398.034044.089336.061162.17691.09726-.040382.021718-.022072.018372-.074074.015555-.001877.004167-.004814.009509-.007629.014322.261551.133887.861668.526744,1.086712.536898.027821.009568.055763.018372.084522.027235.009624-.019018.020191-.038094.030872-.057816.025005.014381.050011.02794.075954.042144.065388-.025122.16341-.056349.197102-.060516.04813.008218.002934.000822.075954.041557.053883-.017668.049068-.027177.132771-.002759-.017372-.055703.015381-.012913-.060574-.070025.011505,0,.02301,0,.033573-.000646.038506-.04549.006809-.044844.074074-.015613.04332-.08153.060574-.057816-.03651-.112874.055763-.031285.090393-.036685.079826-.086988"/>
  <path class="st0" d="M62.251466,1.265619h-17.90377c-.570297.244706-.77409,1.223414-1.161724,1.678783l.095207.176794c.027.027177.067383.040735.14909.095206-.033691.074721-.060574.15625-.095207.244648-.040382.020368-.088516.033927-.128899.054294-.068207.312677-.142281.638972-.414398.992384l-.203911.360221c-.17691.169927-.414516.312677-.564545.435001-.17691.251456-.352882.50978-.536606.761237-.020191.020426-.278927.156427-.305809.190353-.128899.251456.0135.706825-.006691.95834-.04813.455427-.455837.849634-.544353,1.339047.0135.108765.027939.210662.03463.326177-.101898.285501-.524162.604928-.626057.971958-.142399.530207-.067383,1.148635-.128899,1.672033-.020191.210662-.075012.400986-.13559.59131.346191.176765.849224.448619,1.053017.414692.136646.237809.414516.149442.571236.360133.020191.027235.0135.176765.068321.251574.244293.312648.65881.142721.849224.400927.12878.169956.020191.305927.122089.44181.03463.040765.156719.068.197102.108765.088516.101956.265427.448619.340443.604898.244293-.15628.489529-.30581.720325-.455339.040382-.033956.088516-.149559.142281-.203883.088516-.088397.326118-.176765.428955-.244765.224106-.142692.353001-.38053.583797-.502942.095207-.061162.278809-.061162.380825-.129074.618313-.360251,1.107841-.774913,1.705959-1.175958.19722-.129045.503029-.197045.700134-.312648.04813-.047486.095207-.101897.150028-.1495.033691.006809.067265.027177.101898.034044.291489-.129191.503029-.394207.787708-.557442.225044-.129133,1.196239-.577634,1.393459-.767987.068207-.067971.108707-.292251.278809-.462177.18372.027235.332809-.034044.509724-.040794.102016-.421383.544353-.523339.870354-.740869.46159-.312618.897236-.523339,1.338634-.781663.265427-.15625.482838-.380648.754955-.516531.169281-.095206.434708-.176736.598118-.285501.251102-.183486.394325-.373839.645309-.502972.150028-.074721,5.295025-2.739079,5.417233-2.834285.14909-.183486.292309-.37378.434708-.557266.258617-.163235.632751-.169927.92506-.271883.020191-.244765.210606-.489413.271179-.706942.006809-.088397.0135-.176677.020191-.265015.021248-.068029.081821-.136.088516-.224397-.006691-.074721-.0135-.149442-.026882-.22428.013382-.061162.081707-.163059.088398-.224221.020191-.122324-.048016-.21753-.033573-.326295"/>
  <path class="st0" d="M14.051616,37.045601c-.357815.451996-.389511,1.091522-.762587,1.51226-.077949.093769-.279866.078182-.342436.171951-.124085.233761-.030757.451996-.171159.685753-.186538.312092-.591427.624062-.747208,1.014103-.108706.233875-.047192.451321-.171159.670197-.186655.296391-.623241.514503-.763643.841476-.092271.413929-.189473.823776-.29137,1.228168.375072.538364.752961,1.08345,1.142472,1.625164.529913.424114,1.650315.705505,2.299383,1.017475,1.103027.556709,1.657006,1.381161,2.753342,2.168869.679942.481224,1.879115.827915,2.621511,1.231632,1.19248.576344,2.079153,1.570721,3.250504,2.236225,1.244486.726547,2.49942,1.368191,3.768911,2.097435.078772-.10944.16341-.216766.256739-.316025.353941-.375923.741455-.816265,1.105963-1.167007.137468-.133301.273058-.414661.41346-.628757.160595-.893772.319309-1.697186.462646-2.17976.189472-.638149.596241-1.009964.79628-1.572834.587553-1.602654,1.66276-6.144306,2.084906-7.783001.208725-.815033.215418-1.776043.396202-2.57338.270239-1.18808.603989-2.230061.748148-3.381397.048132-.371109.222225-.641644.306866-1.024284.054823-.363625.426958-.774151.504791-1.148724.063511-.166492-.052828-.413929.010683-.581066-.011621-.159067-.226099-.356876-.191467-.520639.102015-.094561.199099-.18149.302053-.276022.059635-.144041.438463-1.118729.453842-1.311049.025005-.360926.182781-.83399.247231-1.191542.12878-.768661.047075-1.653044.273994-2.371433.088516-.284061-.083584-.408499-.011505-.70615.10577-.414692.134651-.825216.205791-1.089586.109646-.43095.306747-.695967.363567-1.114033.067265-.586527.123966-1.263563.275051-1.851439.207668-.814915.430832-1.510235.585674-2.327265.110584-.59404.304752-1.899717.436584-3.024609-.010567-.023743-.021248-.048278-.031815-.072021.017372-.036744.03463-.074046.052006-.11079.006691-.051653.012444-.103277.018196-.152905-.025005-.050303-.059635-.116953-.062454-.146859.039444-.005488.061516.005488.075954.012884.028877-.275229.052944-.530853.068321-.748294-.016434-.027881-.028877-.057787-.020191-.093856.003757-.014909.019253-.029143.027821-.043465.005753-.102602.010567-.197808.010567-.276579.001995-.43506-.265427-.94754-.164352-1.385212.080769-.412549.371197-.657285.571236-1.098449.263432-.607569.464409-1.443585.715393-2.088017.152962-.382643.487652-.647659.498219-1.006589.011505-.031931.020191-.07883.030758-.12567-.117275-.025181-.227859-.059166-.340443-.039444-.03463-.095206-.068321-.190295-.073135-.289551.063511-.426138.530853-.73541.654938-1.099799.095207-.292251-.11927-.558616.186539-.804731.410641-.318723,1.24836-.56067,1.501225-1.199583-.72514.232439-1.538673.381293-2.126228-.040149-.840534.35893-1.681072.997784-2.443661,1.434194-.23373.062512-.451965.109411-.684753.171277-.23373.15625-.342319.515181-.591427.670844v.436351c-.327879.078184-.404888.296301-.669376.421383-.218233.015613-.451963.046957-.669258.077538-.265427.109411-.48284.374485-.762705.515181-.047075.139992-.155781.280042-.17116.326882-.031696.155664.124084.405829,0,.686516-.140402.296301-.529797.420738-.670317.748265-.154724.249461-.015379.904691,0,1.356656-.373075.078184-1.011578.654644-1.011578.84218-.062571.078184-.186655.078184-.342436.265133-.108706.249373-.108706,1.029011-.342319,1.434047-.420267.73271-1.089645,1.762484-1.603123,2.198806l-.07795.498921v.171276c-.141342.031256-.280806.046928-.421207.078184-.155781.140696-.279865.374485-.420267.514505.016317.467667.109646.545761.250048.84215h.420267c-.094267.498922-.451963.405066-.762587.670874-.078888.171276.061514.326881-.078888.592014-.264486.499508-.808722.935919-1.105022,1.434076-.076893.125113-.17116.889078.093328,1.107283-.124084.920218-.825157,1.169678-1.431025,1.606762-.778906.545086-1.152098,1.652281-1.946381,2.198132.077831.218117.09321.218117.248991.327557-.187477.514505-1.042454.748383-1.260687,1.013428-.218351.125025-.016436.561434-.17116.935919-.389511-.577017-.545292,1.355982-.670317,1.527933-.186655.24946-.793461.561434-1.011696.84215-.279865.342524-.295244.857822-.591427,1.184675-.171276.171276-.545292.296417-.669376.498922-.217295.343227-.124085.717712-.342319,1.107197-.108706.186951-.358754.10944-.514535.249462-.154842.156281-.029818.530178-.076893.59269-.279866.374485-.591427.48325-1.011695.748295v.265133c-.700134.062511-1.058887.296303-1.775339.421413-.076893.638855-.57511.670109-.762587,1.090847.031696.093857.062453.171276.094267.265133-.078888.171951-.250048.062511-.250048.078182"/>
  <path class="st0" d="M28.882204,9.616274c.300997-.430833.353941-.791759.61162-1.30289.081823.04279.163528.086284.245235.129837.300997-.488063.197222-1.090936.489531-1.563972.244295-.216884.489531-.434297.733826-.651181.304752-.620541,1.922316-1.247891,2.249372-1.824996.338444-.59536,1.198235-.567479,1.467533-1.30289.098965-.133946.046135-.03199.123028-.26032-.300995-.189649-.47509-.260965-.611618-.651826-3.613953.008863-11.646942-.473741-15.361031.129837-.423084.940614-.923182,2.192613-1.223238,3.127886-.326001.043553-.652002.087047-.978004.130483-.081823.174094-.163529.347367-.244295.521344.030757.033927.978004,1.693809.978004,1.694514.17116.417274-.219173.388044,0,.781663.102015.183486.814592,1.235623.978121,1.433372.088396.106711.421207.161064.489412.260965.270239.393561.137585.887787.367441,1.303007.306749.5553.537544,1.125566.878923,1.694514.318371.530823.625118,1.603299.733826,2.215035-.040382.260995-.081823.522019-.122206.782338.14909.549226.777025.873406.978004,1.173169.040501.260321.081823.520639.122206.781633.337505.606249.801092,1.10787,1.101149,1.824232.46253-.186186,2.061779-2.357756,2.323448-2.997374.362511-.882944.192289-1.702672.612558-2.476148.203913-.216767.407707-.434297.611618-.651063.276932-.662715.199099-1.451862.611618-1.955508.231733-.284062.764584-.188974.978004-.521314.277048-.430246-.030758-.971958.122206-1.303007.088396-.190999.600115-.32964.733707-.521344"/>
  <path class="st0" d="M10.297352,70.310479c-.052005.050278-.103893.10125-.155781.151558v1.656387h14.253072c.007748-.32618.056818-.065186.144276-.421387-.124084-.072052-.257677-.182838-.314497-.313324-.138407-.006165-.20579.038742-.347132-.060486-.141342-.085609-2.80617-1.461281-2.851366-1.425331-.207787-.031929-.189472-.13723-.348188-.121651.022186-.05233.006809-.029907.034632-.060486-.132654-.092415-.600115-.386017-.799095-.395554-.168343-.110115-.152023-.268478-.452082-.273964.011621-.010216.023127-.020393.034632-.030579-.051888-.074722-.042261-.056351-.173977-.060486.028761-.142044.046137-.176003-.069262-.273911v-.030579c-.023127.010216-.046253.020393-.070202.030579-.075014-.127815-.213537-.2052-.277987-.334366-.097084-.199158-.119272-.371788-.208609-.48671-.0837-.084229-.151085-.042793-.208725-.091064-.063511-.038773.004812-.014908.034632-.061165-.112579-.033279-.14909-.127136-.243357-.152229-.059635-.015671-.027822.032608-.034632.061165h-.069262v-.061165c-.009508-.004723-.174915.060486-.243238.030579-.011505-.030579-.023127-.060486-.03557-.091064-.065388-.04628-.172216-.015022-.242416-.061165-.043201-.027908-.176912-.216209-.209547-.242653-.046253-.039413-.195225-.062599-.243357-.091743-.121149.218117-.376011.371109-.382702.608276-.137585-.027878-.169281-.033279-.207787-.152229-.108706-.012207-.308744-.010216-.417334.061165l-.034632.030579h.034632c-.056818.057785-.237604.044228-.38282.121651-.041323.021721-.05001.1026-.103776.121651-.139463.010185-.278926.020393-.417451.029907-.080767.041443-.114458.194466-.208608.243416-.095206.050278-.267422.086929-.348189.121651-.034631-.019722-.069262-.040115-.103893-.060486-.032635.010857-.05001.080208-.070201.091064-.080767.046837-.233613.039413-.347132.091743-.023126-.010185-.047075-.020393-.069262-.030579-.218234.134537-.445273.278694-.661629.364944h-.416394c-.130776.036743-.314497.076866-.452903.121681-.071258.023155-.108706-.042145-.138524-.030579-.046136.018341-.101897.110764-.174094.121651-.008687.00135-.971312-.249458-1.007821-.273911-.007748-.004021-.0135-.012886-.020192-.018372.131715.23793.250048.483253.2423.566925-.021131.152908-1.017447.921593-1.214551,1.080666"/>
  <path class="st0" d="M3.552541,42.248674c-.169281.013557-.750143.035278-.888667.091068-.077832.046165-.041322.25753-.041322.364944v5.563942h.021131v-.018372c.094267-.093094.180786-.321484.231734-.437672v-.10944c.125024-.202534.222226-.485363.296301-.766079.039327-.146744.030757-.404392.126902-.602112.193347-.392944.357697-.895885.571236-1.349907.006691-.060486.014439-.121651.021131-.182137.04907-.154255.133711-.334396.190412-.492786.014439-.091068.028879-.182812.042379-.27388.185599-.454105.34138-1.10796.338445-1.659882-.232674-.006721-.355819-.093094-.507726-.146069-.133711.006046-.268361.012211-.401955.018372"/>
  <path class="st0" d="M2.614823,36.084113c-.056701-.056465-.112463-.112141-.168225-.168575.162472-.089073.098023-.027233.336567,0-.055762-.112816-.111524-.224957-.168342-.337769.006809-.284149.499156-1.038609,1.096336-1.264881.018313-.337181-.105771-.500271.169281-.843498.237487-.343315,1.756086-1.200375,2.277313-1.265587.014322-.800007.172099-1.103821.252865-1.686972-.055762-.168606-.112463-.337183-.169281-.506435.111641-.409204.792522-1.280497.675129-1.771231-.041322-.17609-.250987-.227743-.336567-.421413-.033692-.075483.154842-.162443.083701-.33783-.048131-.118979-.405829-.816969-.505848-.927759.089336-.501621.380824-.459476.337506-.8435.145216.054354.082762.016348.168342.084259.256739-.322157,1.070275-1.455912,1.096219-1.939808.305927-.407091.746269-.369789.759769-1.097012.02794.028557.055762.056465.084641.084934.207786-.125698.15672-.104656.168342-.422089.394207.069321.487534.112904.759652-.168489h.084641c-.028879-.056465-.056701-.112904-.084641-.169252.355819-.182165.568419-.520668.928111-.674248.551983-.236576,1.030831-.289579,1.349201-.506435.23373-.204557.118332-.365622.252865-.505642.105889-.156368.04144.011534.168342.08423.093328-.275229.353941-.36157.422146-.590664.044257-.146067-.090393-.069908-.169164-.08423v-.169252h.169164c.014439-.022423-.167285-.423437-.083584-.589901.083584-.028585.168225-.056465.252865-.084347.127959-.160418.040383-.420738.168342-.590664.078888-.105303.599058-.427488.675129-.506348.10765-.112785.172099-.4765.252865-.590664-.604928-.29495-1.030009-.914171-1.687763-.927731.076893-.335158.093328-.412549.422146-.50576.03557-.26302.028879-.74894-.169164-1.012635-.02794-.02791-.055879-.055791-.083701-.084347v.084347c-.159655-.136-.122089-.574435-.337623-.927847-.060575-.100577-.284561-.120974-.337506-.252836-.027822-.337154-.055762-.674894-.084641-1.012077-.113402-.19502-.537544-.278692-.675129-.506317-.137468-.229739-.240421-.649126-.336567-.843471.056818-.084347.11258-.168635.168342-.252865-.030757-.079534-.221169-.121619-.252983-.169222-.129837-.196516-.10765-.566951-.252865-.84353.027822-.055762.055762-.112111.084641-.168577-.374132-.527389-.774209-1.077964-1.012635-1.602712v-1.011989c-.102954-.31749-.432829-.531557-.556914-.865893-.064332-.174094.117393-.265191.084641-.337212-.050949-.113461-1.796352-1.457203-1.82617-1.63118-.004813-.021189.41252-1.293498.479786-1.384537.177968-.239306,2.072461.37108,2.147476.028527.030757-.142809-.235608-2.434678-.328819-2.895506h-2.891867v.00135c-.058697.014968-.182664.118274-.250048.125083-.048014.0054-.312501-.034044-.368263-.021072-.091332.020426-.13465.131891-.223165.149559-.03557-.014322-.072079-.028527-.10765-.043553-.075014.032694-.12702.21753-.138524.220875-.018313-.015555-.036509-.031931-.055762-.047486-.015379.018959-.031696.037331-.048131.056349.023126.027235.088515.03874.032753.075484-.086519.057053-.19816.012913-.306749.078125-.022187-.059753.047075-.097847-.032753-.075425-.084641.008863-.091332.095089-.226921.09726-.167403-.017022-.342436-.13465-.592484-.211425-.163411-.049599-.329758.0027-.499978-.03604-.00587.026531-.012561.053003-.019253.079534-.009626-.007513-.019253-.015672-.02794-.023772-.17022.017609-.189473-.023185-.300996-.157718-.09321.102602-.070201.110819-.175033.093093-.001878-.017022-.002817-.033927-.003874-.051653-.210604.238602-.346193.101956-.562549.152259-.146155.15355-.735704.302464-.912616.337858-.009626-.046957.000939-.016376-.032753-.075543-.094149.14005-.17879.044257-.350067.186303.001996.064508-.074897.398257-.092271.452023-.025944.078184-.113519.054294-.124085.088338-.025005.089747.029818.165818-.005752.235843-.09908.197103-.571236.295714-.724082.401016-.028879.072021-.057758.144042-.086636.21618-.084641.076071-.159655.12972-.235608.188886v35.213939c.145216.05444.082762.017021.168342.084347,1.000191-.180817,1.515548-1.476955,2.446476-1.855576"/>
  <path class="st0" d="M42.03518,63.991559c-.998196-.508343-1.589741-1.272308-2.584061-1.897018-.971313-.526039-2.299381-1.017475-3.277386-1.614861-.407824-.349392-.859789-.709644-1.267494-1.059006-.457834-.128487-1.225235.275318-1.65325.01432-.166346-.386784-.315435-.747032-.481783-1.133724-.179848-.16177-.946306-.677036-1.714647-1.168446-.038506.010185-.123146.020367-.151907.027882-.13559.14407-.347248.290901-.571236.392181-.300056.135971-.635685.301758-.936682.420738-.056818.021717-.123146.069321-.191467.1203-.409586.513828-.794283,1.046032-1.166536,1.580906-.227859.330345-.39139.75927-.60387,1.086239-.319309.48727-.641438.899174-.897238,1.390583-.082762.157719-.20579.250813-.306866.408527-.085581.15358-.166346.3643-.263432.518555-.055761.064625-.114458.135971-.17116.200508-.021248.072784.042261.195782,0,.26302-.062571.025856-.120211.048954-.181843.07481-.050011.055-.314379.455368-.352884.538246-.07114.157719-.062571.396996-.150969.546524-.185598.322861-.45302.67762-.674191.9618-.086519.112785-.182665.141373-.264486.263023-.085581.123672-.182665.326881-.272118.453346-.120211.175301-.252865.261673-.34807.439758-.087576.171951-.18466.359573-.286674.54039.017374-.006165.034632-.012329.052944-.0177.2423.033928.368263.099228.700134.10463.027822.216858.38364.847641.526979.946098.141342.114929.209663.063278.350067.070023.09321.248787.406769.452667.525101.4561.047075-.023834.09321-.046928.139345-.070671-.010565.09993-.036509.072693,0,.140694.024067-.023857.047192-.046928.071259-.070023.038387.095116.100958.180138.173038.260345.375072.241272,1.210794.570946,1.56274.743568.207787.063866.414516.127724.622185.191673.001057.000671.002935.001999.003874.00267h22.485159c-2.840801-1.954041-5.562328-4.6633-8.442574-6.126022"/>
  <path class="st0" d="M5.563398,48.450623c-.095206.29504-.289492.610386-.404889.884266-.104832.247437-.09321.467667-.183603.736172-.106828.311974-.299118.686459-.405829.994381-.011622.122997-.024066.245998-.036627.36832-.078771.250137-.244178.54855-.331753.810219-.197103.596066-.248052,1.282612-.626058,1.694485v.073399h-.036509v9.483646c.00857.032604.016318.06395.023009.079533.123146.269859.38282.418037.462647.687222.024066.082233-.056818.129074-.067384.222927-.019253.1576.019253.903984.073136,1.044006-.057758.027115-.100958-.038094-.072197.039413.0135.091743.034631.231766.078888.318047.165407-.085609.310623-.161766.338562-.156281.142281.031258.215417.241272.315436.315315.037448.028587,1.007821.317459,1.015569.315346.073019-.012886.12878-.118858.175973-.139931.029818-.013649.067266.061836.139463.035309.139346-.051651.324006-.097908.455838-.140694h.420151c.218352-.098579.446329-.264374.665503-.420059.024066.011536.047192.023186.07114.034721.114458-.059814.268361-.050301.350067-.104744.019253-.012886.036627-.092415.069262-.105301.03557.023094.070201.046837.105771.070023.080767-.040115.254861-.082909.350067-.140022.094267-.057144.128898-.233116.210604-.280045.140402-.012207.279866-.023773.420268-.035393.054823-.021744.062571-.114838.104832-.140022.147094-.088959.328936-.074043.385637-.139931h-.03557c.011505-.012299.024066-.023857.03557-.035393.109645-.081558.311562-.084908.421207-.07.037566.136642.070201.143364.209664.175415.005752-.273323.262491-.449326.385637-.700779.046136.033253.19816.059811.245235.104626.031696.031258.166346.248108.209664.280716.07114.052971.178907.017021.245235.07.011505.034721.023009.070023.034631.10463.069262.034721.236548-.040764.246174-.034599v.07h.069262c.006691-.032608-.025944-.088371.03557-.07.095206.028557.130776.136642.245235.175415-.030757.052971-.100019.025764-.03557.069908.058579.055763.125963.007484.210604.104713.090393.132538.111524.331696.210604.56076.063392.149559.203795.237839.279866.385345l.070201-.034599v.034599c.116337.112816.098963.15226.070201.315346.131715.005486.123028-.016258.175033.070023-.011622.01162-.024066.023834-.035688.035362.302053.005486.287614.188301.456895.315346.200038.010857.671255.348717.804848.45546-.027822.03595-.012444.009506-.034631.07.158716-.01767.141459.102631.350067.140022.046253-.041443.335627-.190292.385637-.210014.072197-.029228.108706.04895.139463.03463.080767-.03598.102954-.122322.175973-.140022.129837-.031258.565483-.294273.672312-.457397.125025-.088371.257677-.175415.387514-.266479.069262-.083557.115398-.261673.166346-.364273.090393-.174652.223166-.261696.350067-.434975.07795-.107445.134649-.297737.200977-.415367.093328-.188972.253922-.328232.36157-.513832.180786-.301758.328936-.607597.545292-.918896.152964-.21888.224104-.54306.522165-.575081.004812-.129162.046253-.237808.027-.375835.119272-.108765.276932-.114899.326-.162415.130775-.128487.230795-.434296.323067-.586643.114458-.195019.29818-.324856.387632-.529385-.003874-.027233-.015379-.05579-.020191-.082996.033691-.032604.068207-.065212.101896-.097816.080767-.13327.129837-.354851.222109-.488708.277048-.407852.570297-.730717.820345-1.152775.047192-.070026.047192-.207256.089455-.275257.086519-.161064.252983-.231766.353003-.382645.046137-.070026.109528-.240627.17116-.296391.038387-.035305.121149-.055676.144276-.087723.10671-.163765.22023-.340412.333632-.515827.062571-.381996.057758-.792522.13559-1.164337.043318-.205879.200977-.391476.240421-.596035.009626-.051655-.048014-.241302-.058578-.337856-.984812-.356113-2.361013-.329639-3.246748-.838688-2.037712-1.143909-4.283329-2.799652-6.082617-4.167168-.713634-.536343-.900172-1.1371-1.668511-1.639366-.783835-.529533-2.064713-1.127007-2.864866-1.682949-.647189-.434326-1.592558-.522694-2.492729-.636829-.028879.454662-.056701.908684-.08558,1.362701"/>
</svg>