<?xml version="1.0" encoding="UTF-8"?>
<svg id="Layer_1" xmlns="http://www.w3.org/2000/svg" version="1.1" viewBox="0 0 53.657868 67.968759">
  <!-- Generator: Adobe Illustrator 30.1.0, SVG Export Plug-In . SVG Version: 2.1.1 Build 136)  -->
  <defs>
    <style>
      .st0 {
        fill: #f5b700;
      }
    </style>
  </defs>
  <path class="st0" d="M27.319437,14.853764c.149089-.101927.196164-.251486.346193-.333015.061631-.013676.115398-.027235.17022-.040794.115398-.074809.175973-.210692.299118-.251486.067266-.020368.149089.054353.217295.020397.088515-.040765.088515-.156368.149089-.197133.034631-.020397.136528.013559.176912-.006838.095206-.033956.135589-.088368.230795-.142721.0135.013559.021248.033956.034631.047603.095206-.047603.135589-.156368.237604-.197133.061514-.013559.122089-.020397.190412-.027235.108706-.067883.149089-.183486.258617-.244648.122206-.061162.264487.033956.379885-.054324l.021248-.006838c.006691,0,.006691-.006809.013383-.006809,0,0,.006809-.00675.0135-.013559-.034631-.061191-.054823-.095118-.041322-.169956-.618428-.380618-1.719577-1.162282-2.419593-1.461282-.16259.108677-.373193.258236-.516413.37381-.060692-.027206-.115515-.054412-.177029-.08153-.033692.020368-.060575.040765-.095206.061162v.37381c-.0135.08153-.074075.040765-.074075.122324,0,.040765.0135.28553.027.333015,0,.027235.054823.074838.054823.095206.006691.088397-.061631.15628-.068323.244648,0,.122353.060575.29228.068323.414604,0,.122412-.054823.326295-.095206.43506-.034631.033956-.068323.074721-.102015.108765-.027822.108677.047192.22428.053884.292251-.020192.047515-.040383.095118-.053884.142721-.007631.129162.027.258324.006809.407766.095206.020485.583679-.163118.693325-.237839"/>
  <path class="st0" d="M29.269395,3.790491c.011505-.072021-.025005-.015672-.052005-.084993-.016318-.040794.042379-.062512.039444-.071375-.032635-.07883-.138407-.157601-.165407-.239893-.257678-.153609-.513478-.270533-.712577-.258207-.053884.003346-.089454.037977-.149089.030581-.167285-.021072-.362511-.088397-.526039-.118978-.109645.112111-.112463.212071-.225043.231734-.019253.068029-.041322.031285.052005.084288-.059636.008804-.092389.002113-.106828.016318-.00857.014263-.016318.028585-.023948.04279.088397.034044.089336.061162.176912.09726-.040383.021718-.02207.018372-.074075.015555-.001878.004167-.004813.009509-.007631.014322.261552.133887.861667.526744,1.08671.536898.027822.009568.055762.018372.084523.027235.009626-.019018.020192-.038094.030874-.057816.025005.014381.05001.02794.075953.042144.065388-.025122.163411-.056349.197103-.060516.048131.008218.002935.000822.075953.041557.053884-.017668.04907-.027177.132772-.002759-.017374-.055703.015379-.012913-.060575-.070025.011505,0,.023009,0,.033574-.000646.038505-.04549.006809-.044844.074075-.015613.043318-.08153.060575-.057816-.036509-.112874.055762-.031285.090393-.036685.079827-.086988"/>
  <path class="st0" d="M49.892883.000003h-17.90377c-.570297.244706-.774091,1.223414-1.161724,1.678783l.095206.176794c.027.027177.067384.040735.149089.095206-.033692.074721-.060575.15625-.095206.244648-.040383.020368-.088515.033927-.128898.054294-.068206.312677-.142281.638972-.414398.992384l-.203912.360221c-.176912.169927-.414516.312677-.564544.435001-.176912.251456-.352884.50978-.536605.761237-.020192.020426-.278926.156427-.30581.190353-.128898.251456.0135.706825-.006691.95834-.048131.455427-.455838.849634-.544353,1.339047.0135.108765.02794.210662.034631.326177-.101897.285501-.524161.604928-.626058.971958-.142398.530207-.067384,1.148635-.128898,1.672033-.020192.210662-.075014.400986-.135589.59131.346193.176765.849223.448619,1.053018.414692.136646.237809.414516.149442.571236.360133.020192.027235.0135.176765.068323.251574.244295.312648.658811.142721.849223.400927.12878.169956.020192.305927.122089.44181.034631.040765.15672.068.197103.108765.088515.101956.265426.448619.340441.604898.244295-.15628.48953-.30581.720325-.455339.040383-.033956.088515-.149559.142281-.203883.088515-.088397.326119-.176765.428955-.244765.224104-.142692.353002-.38053.583797-.502942.095206-.061162.278809-.061162.380824-.129074.618311-.360251,1.107841-.774913,1.705959-1.175958.197221-.129045.50303-.197045.700134-.312648.048131-.047486.095206-.101897.150029-.1495.033692.006809.067266.027177.101897.034044.291488-.129191.50303-.394207.787709-.557442.225043-.129133,1.196238-.577634,1.393458-.767987.068206-.067971.108706-.292251.278809-.462177.183721.027235.33281-.034044.509722-.040794.102015-.421383.544353-.523339.870354-.740869.46159-.312618.897237-.523339,1.338636-.781663.265426-.15625.482839-.380648.754956-.516531.169281-.095206.434707-.176736.598119-.285501.251104-.183486.394324-.373839.645311-.502972.150029-.074721,5.295025-2.739079,5.417231-2.834285.149089-.183486.292309-.37378.434707-.557266.258617-.163235.63275-.169927.925059-.271883.020192-.244765.210604-.489413.271179-.706942.006809-.088397.0135-.176677.020192-.265015.021248-.068029.081823-.136.088515-.224397-.006691-.074721-.0135-.149442-.026883-.22428.013383-.061162.081706-.163059.088397-.224221.020192-.122324-.048014-.21753-.033574-.326295"/>
  <path class="st0" d="M3.249564,36.562387c-.357815.451994-.389511,1.091523-.762587,1.512261-.077949.093768-.279866.078184-.342436.171952-.124085.233759-.030757.451994-.171159.685753-.186538.31209-.591427.624063-.747208,1.014102-.108706.233877-.047192.451319-.171159.670198-.186655.296389-.623241.514505-.763643.841475-.092271.413929-.189473.823778-.29137,1.228169.375072.538366.752961,1.083452,1.142472,1.625164.529913.424113,1.650315.705504,2.299383,1.017477,1.103027.556708,1.657006,1.381162,2.753342,2.168871.679942.481224,1.879115.827916,2.62151,1.231632,1.192481.576342,2.079153,1.570722,3.250503,2.236225,1.244486.726547,2.499421,1.36819,3.768912,2.097437.078771-.10944.163411-.216767.256739-.316023.353941-.375923.741456-.816265,1.105962-1.167007.137468-.1333.273057-.414662.413459-.628759.160594-.893774.31931-1.697184.462647-2.179759.189473-.63815.596241-1.009964.796279-1.572835.587553-1.602653,1.662759-6.144307,2.084905-7.783.208725-.815032.215417-1.776043.396202-2.573379.270239-1.188079.603989-2.230062.748148-3.381397.048131-.37111.222226-.641642.306866-1.024286.054823-.363626.426959-.77415.504791-1.148723.06351-.166493-.052827-.413929.010683-.581067-.011622-.159068-.226099-.356876-.191468-.520639.102015-.09456.199099-.18149.302053-.276021.059636-.144042.438464-1.118729.453843-1.311048.025005-.360926.182781-.833991.24723-1.191542.12878-.768662.047075-1.653044.273996-2.371433.088515-.284062-.083584-.408499-.011505-.70615.105771-.414692.13465-.825216.20579-1.089586.109645-.430951.306749-.695966.363567-1.114033.067266-.586526.123967-1.263563.275053-1.851439.207669-.814915.430833-1.510235.585675-2.327264.110584-.594039.304753-1.899717.436586-3.024609-.010565-.023743-.021248-.048278-.031814-.072021.017374-.036744.034631-.074046.052005-.11079.006691-.051653.012444-.103277.018196-.152905-.025005-.050303-.059636-.116953-.062453-.146859.039444-.005488.061514.005488.075953.012884.028879-.275229.052944-.530853.068323-.748294-.016435-.027881-.028879-.057787-.020192-.093856.003757-.014909.019253-.029143.027822-.043465.005752-.102602.010565-.197808.010565-.276579.001996-.43506-.265426-.94754-.164351-1.385212.080767-.412549.371198-.657285.571236-1.098449.263431-.607569.464408-1.443585.715395-2.088016.152963-.382643.487652-.647659.498217-1.006589.011505-.031931.020192-.07883.030757-.12567-.117276-.025181-.22786-.059166-.340441-.039444-.034631-.095206-.068323-.190295-.073136-.289551.06351-.426138.530853-.73541.654937-1.099799.095206-.292251-.119272-.558616.186538-.804731.410642-.318723,1.24836-.56067,1.501226-1.199583-.725138.232439-1.538674.381293-2.126227-.040149-.840536.35893-1.681072.997784-2.443659,1.434194-.23373.062512-.451964.109411-.684755.171277-.23373.15625-.342319.515181-.591427.670844v.436351c-.327879.078184-.404889.296301-.669377.421383-.218234.015613-.451964.046957-.669259.077538-.265426.109411-.482839.374485-.762704.515181-.047075.139992-.155781.280042-.171159.326882-.031696.155664.124085.405829,0,.686516-.140402.296301-.529796.420738-.670316.748265-.154724.249461-.015379.904691,0,1.356656-.373076.078184-1.011578.654644-1.011578.84218-.062571.078184-.186655.078184-.342436.265133-.108706.249373-.108706,1.029011-.342319,1.434047-.420268.73271-1.089645,1.762484-1.603123,2.198806l-.077949.498922v.171277c-.141342.031256-.280805.046928-.421207.078184-.155781.140696-.279866.374485-.420268.514505.016318.467666.109645.545761.250048.84215h.420268c-.094267.498922-.451964.405066-.762587.670873-.078888.171277.061514.326882-.078888.592014-.264487.499508-.808722.935918-1.105023,1.434077-.076893.125112-.171159.889078.093328,1.107283-.124085.920217-.825158,1.169678-1.431024,1.606762-.778905.545086-1.152098,1.652281-1.946381,2.198131.077832.218117.09321.218117.248991.327557-.187477.514505-1.042453.748382-1.260687,1.013427-.218352.125024-.016435.561433-.171159.935918-.389511-.577017-.545292,1.355981-.670316,1.527933-.186655.249461-.793461.561433-1.011695.84215-.279866.342524-.295244.857822-.591427,1.184675-.171277.171277-.545292.296418-.669377.498922-.217295.343229-.124085.717713-.342319,1.107195-.108706.186949-.358754.10944-.514535.249461-.154842.15628-.029818.530177-.076893.592689-.279866.374485-.591427.48325-1.011695.748294v.265133c-.700134.062512-1.058888.296301-1.775339.421413-.076893.638854-.57511.67011-.762587,1.090848.031696.093856.062453.171277.094267.265133-.078888.171952-.250048.062512-.250048.078184"/>
  <path class="st0" d="M21.495208,7.602571c.300996-.430833.353941-.791759.611619-1.30289.081823.04279.163529.086284.245235.129837.300996-.488063.197221-1.090936.48953-1.563972.244295-.216884.48953-.434297.733826-.651181.304753-.620541,1.922315-1.247891,2.249373-1.824996.338445-.59536,1.198233-.567479,1.467534-1.30289.098963-.133946.046136-.03199.123028-.26032-.300996-.189649-.475091-.260965-.611619-.651826-3.613953.008863-11.646942-.473741-15.361031.129837-.423085.940614-.923181,2.192613-1.223238,3.127886-.326001.043553-.652002.087047-.978004.130483-.081823.174094-.163529.347367-.244295.521344.030757.033927.978004,1.693809.978004,1.694514.171159.417274-.219173.388044,0,.781663.102015.183486.814592,1.235623.978121,1.433372.088397.106711.421207.161064.489413.260965.270239.393561.137585.887787.367441,1.303007.306749.5553.537544,1.125567.878924,1.694514.318371.530823.625119,1.603299.733826,2.215036-.040383.260995-.081823.522019-.122206.782338.149089.549225.777026.873406.978004,1.17317.040501.26032.081823.520639.122206.781634.337506.606248.801092,1.10787,1.101149,1.824233.46253-.186186,2.061779-2.357756,2.323448-2.997374.362511-.882944.19229-1.702672.612558-2.476148.203912-.216767.407707-.434297.611619-.651063.276931-.662715.199099-1.451862.611619-1.955508.231734-.284062.764583-.188974.978004-.521314.277048-.430246-.030757-.971958.122206-1.303007.088397-.190999.600115-.32964.733708-.521344"/>
  <path class="st0" d="M1.656077,66.160814c-.052005.050274-.103893.101252-.155781.151555v1.65639h14.253073c.007748-.326177.056818-.065183.144276-.421383-.124085-.07205-.257678-.18284-.314497-.313323-.138407-.006163-.20579.03874-.347132-.060487-.141342-.085609-2.806169-1.461282-2.851366-1.425331-.207786-.031931-.189473-.137233-.348189-.121649.022187-.052328.006809-.029906.034631-.060487-.132654-.092418-.600115-.386019-.799096-.395557-.168342-.110115-.152024-.268478-.452082-.273967.011622-.010213.023126-.020397.034631-.030581-.051888-.074721-.042262-.056349-.173977-.060487.028761-.142046.046136-.176002-.069262-.273908v-.030581c-.023126.010213-.046253.020397-.070201.030581-.075014-.127812-.213538-.205203-.277987-.334365-.097084-.199158-.119272-.371785-.208608-.486713-.083701-.08423-.151085-.04279-.208725-.091068-.06351-.038769.004813-.014909.034631-.061162-.11258-.033281-.149089-.127137-.243356-.15223-.059636-.015672-.027822.032606-.034631.061162h-.069262v-.061162c-.009509-.004725-.174916.060487-.243239.030581-.011505-.030581-.023126-.060487-.03557-.091068-.065388-.046282-.172216-.015026-.242417-.061162-.043201-.02791-.176912-.216209-.209547-.242652-.046253-.039415-.195225-.0626-.243356-.091743-.12115.218117-.376011.37111-.382702.608273-.137585-.027881-.169281-.033281-.207786-.15223-.108706-.012209-.308744-.010213-.417333.061162l-.034631.030581h.034631c-.056818.057787-.237604.044228-.38282.121649-.041322.021718-.05001.102602-.103776.121649-.139463.010184-.278926.020397-.417451.029906-.080767.04144-.114458.194462-.208608.243415-.095206.050274-.267422.08693-.348189.121649-.034631-.019722-.069262-.040119-.103893-.060487-.032635.010859-.05001.080209-.070201.091068-.080767.04684-.233613.039415-.347132.091743-.023126-.010184-.047075-.020397-.069262-.030581-.218234.134533-.445273.278692-.661629.364946h-.416394c-.130776.036744-.314497.076863-.452903.121678-.071258.023156-.108706-.042144-.138524-.030581-.046136.018343-.101897.110761-.174094.121649-.008687.00135-.971312-.249461-1.007821-.273908-.007748-.004021-.0135-.012884-.020192-.018372.131715.237927.250048.48325.2423.566922-.021131.152905-1.017448.921596-1.214551,1.080664"/>
  <path class="st0" d="M2.438868,46.58481c-.169281.013559-.750143.035277-.888667.091068-.077832.046165-.041322.257532-.041322.364946v5.563944h.021131v-.018372c.094267-.093093.180786-.321482.231734-.437672v-.10944c.125024-.202533.222226-.485363.296301-.766079.039327-.146742.030757-.404391.126902-.60211.193347-.392945.357697-.895887.571236-1.349906.006691-.060487.014439-.121649.021131-.182136.04907-.154255.133711-.334395.190412-.492788.014439-.091068.028879-.182811.042379-.273879.185599-.454107.34138-1.107958.338445-1.659883-.232674-.006721-.355819-.093093-.507726-.146067-.133711.006046-.268361.012209-.401955.018372"/>
  <path class="st0" d="M4.115115,35.934445c-.056701-.056466-.112463-.11214-.168225-.168577.162472-.089072.098023-.027235.336567,0-.055762-.112815-.111524-.224955-.168342-.33777.006809-.28415.499156-1.038608,1.096336-1.264883.018313-.337183-.105771-.500272.169281-.8435.237487-.343317,1.756086-1.200376,2.277313-1.265588.014322-.800006.172099-1.10382.252865-1.686971-.055762-.168606-.112463-.337183-.169281-.506435.111641-.409204.792522-1.280497.675129-1.77123-.041322-.17609-.250987-.227743-.336567-.421413-.033692-.075484.154842-.162443.083701-.337829-.048131-.118978-.405829-.816969-.505848-.927759.089336-.501622.380824-.459477.337506-.8435.145216.054353.082762.016347.168342.084259.256739-.322157,1.070275-1.455912,1.096219-1.939807.305927-.407091.746269-.369789.759769-1.097011.02794.028556.055762.056466.084641.084934.207786-.125699.15672-.104656.168342-.422088.394207.069321.487534.112903.759652-.168489h.084641c-.028879-.056466-.056701-.112903-.084641-.169252.355819-.182165.568418-.520669.928111-.674248.551983-.236577,1.030831-.28958,1.349201-.506435.23373-.204558.118332-.365621.252865-.505642.105889-.156368.04144.011534.168342.08423.093328-.275229.353941-.361571.422146-.590664.044257-.146067-.090393-.069908-.169164-.08423v-.169252h.169164c.014439-.022422-.167285-.423438-.083584-.589901.083584-.028585.168225-.056466.252865-.084347.127959-.160418.040383-.420738.168342-.590664.078888-.105302.599058-.427488.675129-.506347.10765-.112786.172099-.476499.252865-.590664-.604928-.294951-1.030009-.914171-1.687763-.92773.076893-.335158.093328-.412549.422146-.50576.03557-.26302.028879-.74894-.169164-1.012635-.02794-.02791-.055879-.055791-.083701-.084347v.084347c-.159655-.136-.122089-.574435-.337623-.927847-.060575-.100577-.284561-.120974-.337506-.252836-.027822-.337154-.055762-.674894-.084641-1.012077-.113402-.19502-.537544-.278692-.675129-.506317-.137468-.229739-.240421-.649126-.336567-.843471.056818-.084347.11258-.168635.168342-.252865-.030757-.079534-.221169-.121619-.252983-.169222-.129837-.196516-.10765-.566951-.252865-.84353.027822-.055762.055762-.112111.084641-.168577-.374132-.527389-.774209-1.077964-1.012635-1.602712v-1.011989c-.102954-.31749-.432829-.531557-.556914-.865893-.064332-.174094.117393-.265191.084641-.337212-.050949-.113461-1.796352-1.457203-1.82617-1.63118-.004813-.021189.41252-1.293498.479786-1.384537.177968-.239306,2.072461.37108,2.147476.028527.030757-.142809-.235608-2.434678-.328819-2.895506h-2.891867v.00135c-.058697.014968-.182664.118274-.250048.125083-.048014.0054-.312501-.034044-.368263-.021072-.091332.020426-.13465.131891-.223165.149559-.03557-.014322-.072079-.028527-.10765-.043553-.075014.032694-.12702.21753-.138524.220875-.018313-.015555-.036509-.031931-.055762-.047486-.015379.018959-.031696.037331-.048131.056349.023126.027235.088515.03874.032753.075484-.086519.057053-.19816.012913-.306749.078125-.022187-.059753.047075-.097847-.032753-.075425-.084641.008863-.091332.095089-.226921.09726-.167403-.017022-.342436-.13465-.592484-.211425-.163411-.049599-.329758.0027-.499978-.03604-.00587.026531-.012561.053003-.019253.079534-.009626-.007513-.019253-.015672-.02794-.023772-.17022.017609-.189473-.023185-.300996-.157718-.09321.102602-.070201.110819-.175033.093093-.001878-.017022-.002817-.033927-.003874-.051653-.210604.238602-.346193.101956-.562549.152259-.146155.15355-.735704.302464-.912616.337858-.009626-.046957.000939-.016376-.032753-.075543-.094149.14005-.17879.044257-.350067.186303.001996.064508-.074897.398257-.092271.452023-.025944.078184-.113519.054294-.124085.088338-.025005.089747.029818.165818-.005752.235843-.09908.197103-.571236.295714-.724082.401016-.028879.072021-.057758.144042-.086636.21618-.084641.076071-.159655.12972-.235608.188886v35.21394c.145216.054441.082762.017022.168342.084347,1.000191-.180815,1.515548-1.476954,2.446476-1.855577"/>
  <path class="st0" d="M32.578985,61.84168c-.998195-.508342-1.58974-1.272309-2.584061-1.897017-.971312-.526039-2.299383-1.017477-3.277386-1.614862-.407824-.349392-.859789-.709643-1.267495-1.059005-.457834-.128487-1.225234.275317-1.65325.014322-.166346-.386782-.315436-.747032-.481782-1.133726-.179847-.161768-.946307-.677037-1.714647-1.168445-.038505.010184-.123146.020368-.151907.027881-.135589.144071-.347249.290901-.571236.392182-.300057.135971-.635685.301759-.936681.420738-.056818.021718-.123146.069321-.191468.120299-.409585.51383-.794283,1.046033-1.166537,1.580906-.22786.330345-.391389.759271-.603871,1.08624-.31931.48727-.641437.899174-.897237,1.390582-.082762.157718-.20579.250811-.306866.408529-.08558.15358-.166346.364301-.263431.518556-.055762.064625-.114458.135971-.171159.200508-.021248.072784.042262.195783,0,.26302-.062571.025856-.120211.048953-.181842.074809-.05001.054999-.314379.455369-.352884.538248-.07114.157718-.062571.396995-.150968.546525-.185599.322861-.453021.677623-.67419.961803-.086519.112786-.182664.141371-.264487.26302-.08558.123674-.182664.326882-.272118.453344-.120211.175298-.252865.26167-.348071.439755-.087575.171952-.18466.359576-.286674.540391.017374-.006163.034631-.012326.052944-.017697.2423.033927.368263.099227.700134.104627.027822.216855.383641.847638.526979.946102.141342.114928.209664.063275.350067.070025.09321.248786.406768.452669.5251.456102.047075-.023831.09321-.046928.139346-.070671-.010565.099931-.036509.072696,0,.140696.024066-.02386.047192-.046928.071258-.070025.038388.095118.100958.18014.173038.260349.375072.241273,1.210795.570942,1.56274.743569.207786.063862.414516.127724.622184.191674.001057.000675.002935.001996.003874.002671h22.485161c-2.840801-1.954041-5.562329-4.663302-8.442574-6.126023"/>
  <path class="st0" d="M3.525566,47.009077c-.095206.295039-.289492.610386-.404889.884265-.104832.247436-.09321.467666-.183603.736173-.106828.311973-.299118.686457-.405829.99438-.011622.122999-.024066.245998-.036627.368321-.078771.250136-.244178.54855-.331753.810219-.197103.596064-.248052,1.28261-.626058,1.694484v.0734h-.036509v9.483647c.00857.032606.016318.06395.023009.079534.123146.269858.38282.418038.462647.68722.024066.082234-.056818.129074-.067384.22293-.019253.157601.019253.903987.073136,1.044008-.057758.027118-.100958-.038094-.072197.039415.0135.091743.034631.231764.078888.318048.165407-.085609.310623-.161768.338562-.15628.142281.031256.215417.241273.315436.315318.037448.028585,1.007821.317461,1.015569.315348.073019-.012884.12878-.118861.175973-.139933.029818-.013647.067266.061837.139463.035306.139346-.051653.324006-.097906.455838-.140696h.420151c.218352-.098581.446329-.26437.665503-.420063.024066.011534.047192.023185.07114.034719.114458-.059812.268361-.050303.350067-.104744.019253-.012884.036627-.092418.069262-.105302.03557.023097.070201.04684.105771.070025.080767-.040119.254861-.082909.350067-.140021.094267-.057141.128898-.233114.210604-.280042.140402-.012209.279866-.023772.420268-.035394.054823-.021747.062571-.11484.104832-.140021.147094-.088955.328936-.074046.385637-.139933h-.03557c.011505-.012297.024066-.02386.03557-.035394.109645-.081559.311562-.084905.421207-.069996.037566.136646.070201.143367.209664.175415.005752-.273321.262491-.449323.385637-.700779.046136.033252.19816.059812.245235.104627.031696.031256.166346.248111.209664.280717.07114.052974.178907.017022.245235.069996.011505.034719.023009.070025.034631.104627.069262.034719.236548-.040765.246174-.034602v.069996h.069262c.006691-.032606-.025944-.088368.03557-.069996.095206.028556.130776.136646.245235.175415-.030757.052974-.100019.025768-.03557.069908.058579.055762.125963.007484.210604.104715.090393.132537.111524.331695.210604.560758.063392.149559.203795.237839.279866.385344l.070201-.034602v.034602c.116337.112815.098963.152259.070201.315348.131715.005488.123028-.016259.175033.070025-.011622.011622-.024066.023831-.035688.035365.302053.005488.287614.188299.456895.315348.200038.010859.671255.348717.804848.455457-.027822.035952-.012444.009509-.034631.069996.158716-.017668.141459.102631.350067.140021.046253-.04144.335627-.190295.385637-.210017.072197-.029231.108706.048953.139463.034631.080767-.035981.102954-.122324.175973-.140021.129837-.031256.565484-.294276.672311-.457394.125024-.088368.257678-.175415.387515-.266483.069262-.083555.115398-.26167.166346-.364271.090393-.174652.223165-.261699.350067-.434972.077949-.107444.13465-.297739.200977-.415367.093328-.188974.253922-.328232.361571-.51383.180786-.301759.328936-.607598.545292-.918896.152963-.21888.224104-.543061.522165-.57508.004813-.129162.046253-.237809.027-.375835.119272-.108765.276931-.114899.326001-.162414.130776-.128487.230795-.434297.323066-.586644.114458-.19502.298179-.324857.387633-.529385-.003874-.027235-.015379-.055791-.020192-.082997.033692-.032606.068206-.065212.101897-.097818.080767-.133271.129837-.354851.222108-.488708.277048-.407854.570297-.730715.820344-1.152773.047192-.070025.047192-.207258.089454-.275258.086519-.161064.252983-.231764.353002-.382643.046136-.070025.109528-.240627.171159-.296389.038388-.035306.12115-.055674.144276-.087722.106711-.163764.22023-.340411.333632-.515826.062571-.381998.057758-.792522.135589-1.164336.043318-.205879.200977-.391477.240421-.596035.009626-.051653-.048014-.241302-.058579-.337858-.984812-.356113-2.361014-.32964-3.246747-.838687-2.037713-1.14391-4.283329-2.799654-6.082617-4.167169-.713634-.536341-.900172-1.137101-1.668511-1.639368-.783835-.529532-2.064713-1.127005-2.864866-1.68295-.647189-.434326-1.592558-.522694-2.492729-.636829-.028879.454664-.056701.908683-.08558,1.362701"/>
  <path class="st0" d="M50.139985,67.96875h3.517883V0h-.778992l.026917.122314c-.332703.12915-1.019348.414612-1.664673.700073.061523.047546.101929.11554.13562.217468-.074097.067993-.400085.278687-.536621.271851-.128906,0-.292419-.12915-.516418.013672-.095215.061157-.075012.1427-.23761.203918-.05481-.033997-.082642-.061218-.143188-.061218-.04718.020386-.088501.047607-.128906.074768v.006836c-.061523.142639-.176941.15625-.360657.231079h-.006653c-.271301.183472-.536743.373779-.835754.570923-.346191.237854-.768433.434998-1.127991.618469-.258789.135986-.401184.319458-.65979.496216-.183716.12915-5.36908,2.861511-5.552795,2.983826-.176941.115479-.237488.251526-.407715.380615-.421204.312683-.945374.693298-1.413635.965149-.217407.122314-.537659.108765-.76178.210754-.12207.061157-.706848.434937-.788513.509766-.047119.088257-.087463.169861-.13562.258179-.101868.061157-.250977-.033875-.352844,0-.095215.081604-.204895.163269-.299133.244812-.23175.135864-.530884.251465-.748291.373779-.230774.149536-.924133.625305-1.148193.740906-.706848.366943-1.326233.829163-2.039734,1.284607-.475098.305786-1.080017.536926-1.569397.863098-.979065.659363-1.971558,1.332214-2.902466,2.08667-.332703.265137-.516418.611755-.890564.883606-.802002.570984-1.665527,1.033142-2.501282,1.570007l-.061523-.047485c-.108704.380615-.203918.761292-.250977,1.141846-.033691.299072-.203918.543823-.230896.856445-.034546.496155-.258606,1.046692-.374023,1.529297-.177002.265015.237488.530151.047058.802002-.074036.210754-.244263.611755-.271179.849609-.048096.407837-.245239.672852-.374146,1.107971-.075012.265015-.047974.679565-.088379.958252-.04718.441833.020203.903992-.061646,1.345825-.128784.720459-.196167,1.434143-.401001,2.202148-.135559.537048-.040344,1.230286-.604797,1.502197.088379.25824.081726.50293.225037.76123-.15686.29895-.462646.428162-.52417.557312-.162598.339844-.135559,1.019531-.210571,1.386536-.080811.462219-.347168.84967-.37323,1.318665.026062.047546.067383.101929.102051.149414-.049072.08844-.088562.176819-.129883.265137-.060547.319519,0,.795227-.08075,1.12146-.245239.999207-.591431,1.848877-.775146,2.861511-.041321.169922.060608.441772.026917.60498-.053772.380554-.32605.638855-.414429,1.00592-.040527.169922-.040527.550598-.122192.706848-.048035.095215-.197144.197144-.217285.271851-.225037.992371-1.231018,5.016174-1.523315,5.988037-.128906.421387-.319336.679749-.441528,1.114685-.088379.299133-.148987.713684-.210571,1.019592-.061523.265015-.230835,1.257385-.394226,2.154602.081726.251465.155762.496216.203796.740845.05481.326294-.061523.686462.006836,1.00592.013367.088379.257629.373779.305786.496216-.048157.163086-.053894.339905-.040405.516541,1.270325.679749,2.691711,1.237,2.874512,2.773132.808716.027222,1.495361.278687,2.359009.149536.686646.740845.740417,1.72644,1.039551,2.032227.815491.815674,2.746643,1.420593,3.704407,1.991516,1.22998.700073,2.059937,1.84198,3.350525,2.399353.170227-.034058.353821-.108765.524048-.135986.203918.210693.413574.421387.618469.63208.835693.496155,2.23584.788391,3.079346,1.359375,1.127991.747742,2.160828,1.515686,3.180298,2.276978.006653-.020386.020203-.040771.034485-.061157.115417-.163086.720337-.788513.882935-.822449.034607,0,.12207.040833.238403.108765.013489-.006775.020203-.01355.02594-.01355.367432.122314,1.734009-.142822,2.434021,0,.646301.122314,1.244507.482544,1.876343.584534.944397.163086,1.916687.081543,2.813904.258179,1.03949.210693,2.310913.448669,3.370728.625427v.516541c-.108704.04071-.230835.122314-.319336.176697Z"/>
</svg>