<?xml version="1.0" encoding="UTF-8"?>
<svg id="Layer_1" xmlns="http://www.w3.org/2000/svg" version="1.1" viewBox="0 0 85.15 85.15">
  <!-- Generator: Adobe Illustrator 29.5.1, SVG Export Plug-In . SVG Version: 2.1.0 Build 141)  -->
  <path d="M42.58,0C19.06,0,0,19.06,0,42.58s19.06,42.58,42.58,42.58,42.58-19.06,42.58-42.58S66.09,0,42.58,0ZM66.06,42.87l-.23.25s.39-.43-.51.38c-.4.36-.62.54-.74.63l-.16.09s-.95.51-1.33.71c-.39.2-1.21.76-2.18,1.32l-1,.58s-.03.02-.05.03l-.24.14s-.01,0-.01,0l-1.46.79s1.46-.79-1.77.9c-3.23,1.7-.67.31-.75.6l-.51.29c-.15.03-.3.07-.43.13-.35.16.15.03-.9.64l-.89.51-1.43.3-1.53,1.18s-.63.39-1.1.59c-.47.2-.51.35-.86.59-.35.24-1.1.47-1.65.67-.55.2-1.18.59-1.18.59,0,0,1.29-.55-.23.8-1.35,1.21-2.07,2.11-1.51,1.2l-.52.41s.23-.18.38-.3l.05-.22-.85.85-.8.09-.8,1.1s-.6.18-.84.26c-.16.05-.11.04-.2.16-.35-.11-.56.25-.56.25l-.74.57-1.22.37s-.14.02-.38.05c-.05-.08-.09-.15-.09-.15.03.07.05.11.08.15-.11.01-.24.03-.39.04-.12-.12-.76,1.02-.83,1.12-.16.01-3.61,1.79-3.79,1.8-.9.04-.86-2.27-.6-2.91.31-.78-.08-2.44-.37-2.6l.39-1.67s-.35-.9-.12-1.77c.24-.86,0,0,.16-1.61.16-1.61.18-1.04.18-1.24s.02-.7.02-.7c-.12-.87,0,0,.1-.48.16-.78-.12-1.41-.12-1.41l.06-2.24s.06-.44-.06-.65c-.12-.21.18-.71.18-.71,0,0,.14.14.06-1.47s-.35-1.23-.35-1.23c0,0-.33-1.08-.37-1.24-.04-.16-.08-1.68-.08-1.68l.43-1.87s.77-1.02.88-1.18c.11-.16-.39-1.06-.39-1.06,0,0-.58-2.57-.51-2.98.07-.39-.07-2.13-.08-2.24,0-.08-.41-1.23-.41-2.86,0-2.25-.19-1.97-.24-1.84l-.22-.79-.08-.64s-.21-1.2.11-1.41c.31-.2.27.04.31-.2.02-.14.99.09,1.01-.01l.72-.03s.07.02.2.06c.06.07.14.13.08.05-.02-.03.49.07.47.07-.02-.02-.04-.04-.05-.05-.02-.01-.02-.02,0,0,.03.01.08.04.21.09l.05.11c.26.29.11.25.75.56.84.41,1.1.59,1.96,1.14.86.55.75.43,1.33.69,0,0,0,0,.01,0,.11.06.22.13.33.19.25.18.33.37.76.72.59.47.86.55,1.69,1.06.82.51.98.55,1.26.78.24.2.97.47,1.29.63.04.02.07.04.12.07.2.15,1.1.71,1.1.71,0,0,.9.31,1.53.84.63.52,1.1.93,1.8,1.48.71.55.94.63,1.49.98s1.18.59,1.37.71c.07.04.19.07.33.09.2.3.61.23,1.07.32.27.14.61.37.91.6.27.49.1,1.07,1.21,1.58,1.37.63-.7-.55,2.79,1.45,3.27,1.88,1.93,1.06,1.75.95l1.35.81s.78.24,1.41.67c.63.43.47.27,1.33.71.86.43,1.29.31,1.92.82.63.51.82.55,1.37.76.33.13.38.3.37.41l-.02.19Z"/>
</svg>