<?xml version="1.0" encoding="UTF-8"?>
<svg id="Layer_1" xmlns="http://www.w3.org/2000/svg" version="1.1" viewBox="0 0 67.052734 72.152585">
  <!-- Generator: Adobe Illustrator 30.1.0, SVG Export Plug-In . SVG Version: 2.1.1 Build 136)  -->
  <defs>
    <style>
      .st0 {
        fill: #fc0;
      }
    </style>
  </defs>
  <path class="st0" d="M32.907104,45.772046c-.053833.006714-.142273.095093-.203857.108765-.13562.020325-.543335-.034058-.713562-.054443-.006653-.01355-.020203-.027222-.026855-.040771.244141-.360229.36731-1.101135-.177063-1.216614-.095154.054321-.197083.061157-.346191.047546-.047974-.115601-.136536-.591309-.061462-.740845.068176-.1427.3125-.265015.251892-.584534-.027832-.1427-.143188-.163208-.129822-.373779.10199-.061279.150024-.095215.19043-.244751-.264526-.190308-.162476-.360229-.176941-.727234-.013489-.217529.007629-.448669.05481-.679749-.142395-.407837-.272095-.808777-.401001-1.189392-.020203-.054443-.135559-.115601-.177002-.183594-.067322-.101929-.095215-.37384-.142334-.489319-.088501-.258301-.299072-.421387-.36731-.693298-.033691-.108765.013367-.312622-.026978-.428223-.203796-.706848-.509644-1.284607-.761658-1.984741-.081726-.224243-.073975-.570801-.142273-.78833-.033691-.061218-.075012-.122375-.108704-.183533.013489-.033997.040344-.074768.060547-.108765-.053772-.333008-.271179-.591309-.366394-.917603-.075012-.25824-.108704-.740845-.251892-.971924-.053894-.088379-.278931-.156372-.414551-.360229.081726-.190308-2.160828-5.960938-2.120422-6.151245-.421204-.15625-.401062-.652527-.543457-1.026306-.197083-.536926-.299011-1.033142-.449036-1.536072-.088501-.312683-2.235962-7.218262-2.304199-7.531006-.053833-.190186-.060669-.489319-.135681-.672791-.12207-.299072-.278809-.47583-.347107-.768066-.033691-.163147-.040405-.441833-.108704-.591309-.148987-.176697-.3125-.353455-.461609-.530212-.115417-.333069.020203-.822449-.041321-1.175842-.040405-.217468-.183716-.380676-.224121-.59137-.170227-.720398-.43457-1.406921-.645325-2.147705-.061462-.190369-.17688-.883606-.278809-1.461426-.469299-.360229-.890503-.808716-1.176147-1.400085.041321-.020386.061523-.040771.088501-.061157-.006775,0-.013489,0-.020203-.006836-.285583-.095215-1.652161-.788513-1.930176-.897156-.313416-.122437-6.770142-2.711975-7.055786-2.841125-.326111-.1427-.6521-.387451-1.00592-.47583-.244324-.067932-.570312.067993-.767395.034058-.061646-.040833-.123169-.081543-.177063-.122314-.3125-.115601-.673096-.006836-.952026-.136047,0,0-.006714-.006775-.01355-.006775,0,.142822-.020142.278687.027954.414673l-1.291565.829163c-.22406-.067993-.761658-.061157-1.121338-.244629-.122986-.136047-.218201-.271912-.333618-.414612-.203918-.102051-.332825.027161-.523193.01355-.081726-.054321-.352905-.333008-.441406-.299072l-.048157.047607c-.230774-.013611-.598145.074707-.842407.12915-.360657-.883606-1.189575-.931213-1.991577-1.196228H0v67.968752h11.65387c.033691-.054382.053894-.122314.101929-.176697.074097-.08844,2.242676-2.997437,2.256165-2.997437.068237-.027222.122131-.135986.170227-.176758.088379-.074707,2.942688-1.943848,3.044739-2.018677.020142-.020386.034485-.040771.05481-.061157.067261-.033936.203796-.020386.285583-.067993.122131-.074707.217346-.197021.32605-.2854.095215-.074829.197083-.108765.29895-.183472.095215-.074829.523254-.475891.618469-.543823.224121-.156311.454895-.292297.659729-.455383.060608-.054321.13562-.067993.196167-.122314.095215-.081604.163391-.24469.272095-.319519.075073-.01355.163574-.027222.245239-.047607.053894-.020325.115417-.101929.162476-.1427.081848-.061157.163574-.074707.265442-.135864.061646-.034058.128906-.115601.183716-.156372.088501-.074768.197144-.108765.292297-.176758.149109-.108704.292419-.224304.461731-.333069.12207-.067871.23175-.217407.380798-.163086.033569-.067993.075012-.108765.095215-.183472.081726-.027222.163452.006714.197144-.006836.095154-.033936.203857-.163086.285583-.217529.095215-.067932.217285-.095093.305847-.176697,0-.013611,0-.027161.006653-.04071.020203-.013672.04718-.020447.068359-.027283.067383-.047607.142273-.149536.217285-.190247.22406-.142761.434692-.237976.6521-.38739.041321-.027222.068237-.095215.101929-.115601.081665-.061157.17688-.061157.258728-.115479.033569-.020386.101868-.08844.148926-.102051.021301-.01355.068359-.006714.088562-.01355.217285-.142761.462524-.312683.686584-.434998.102051-.054443.183777-.067993.285645-.12915.006836-.006836.020203-.01355.033691-.020386-.004477,0-.006714-.002277-.006714-.006836.075012-.604919.108643-.346619.604858-.570984.095154-.074707.197205-.149536.292419-.224243.108582-.020386.299011.101929.421204.081543l.449036-.265015c.013489-.006836.033691,0,.053894-.006836.075012-.197144.156799-.380615.238525-.523315.461609-.883606,1.773315-3.466431,1.719421-3.656738,1.502197-1.3797,1.250244-2.705139,2.045593-4.112183,0,0,1.134705-2.392456,2.005066-4.220825-.095154-.040771-.163513-.122314-.278931-.115482Z"/>
  <path class="st0" d="M63.277248,65.313203c-.097202-.017609-.198158-.045486-.308743-.122353l-.136528-.06797c-.067383-.062511-.125023-.14677-.173157-.201183-.098141-.059811-.197102-.120327-.292309-.183487-.009624-.00684-.065388-.09993-.078888-.10944-.095207-.043495-.260612.018345-.354881.014996-.169281-.008862-.324123-.153698-.507725-.176765-.038506.00684-.077011.013557-.11927.017696-.107765-.033279-.234669-.182137-.37413-.212715-.197102-.043583-.424026-.005489-.619251-.018372-.177967-.009537-.324123-.078857-.508781-.099255-.167286-.017021-.075954-.139347-.244293-.162415-.396202-.052326-.767399-.131863-1.150101-.16177-.112579-.00684-.207787-.064625-.321304-.068001-.1856-.005459-.424026.102631-.604809.070702-.102016-.062511-1.93206-.541035-2.036892-.605572-.080769-.023861-.222107-.002789-.311562-.007511-.151909-.01086-.25486-.079533-.417332-.116924-.100018-.023098-.253922-.005402-.357815-.016933-.163528-.009537-4.022717-.65934-4.187183-.679737-.271179-.036716-.534725-.048923-.823162-.108765-.203911-.042114-4.31702-.558643-4.430542-.761265-.093208.036068-.183601.039444-.276932.095207-.113518-.051624-.166348-.162415-.215416-.182812-.131714-.05444-.380825-.032696-.517353-.051743-.174095-.022392-.323185-.113461-.497276-.115486-.017258.011536-.035568.028557-.052826.040089-.033691-.014233-.067383-.028557-.10096-.042789-.11927-.017021-2.386021-.413223-2.509987-.437759-.376129-.073372-.696259-.184162-1.073326-.234463-.065388-.011536-.16341.030582-.225044.020397-.141342-.012882-.242298-.10944-.379887-.134651-.065388-.011536-1.852116-.229652-1.910812-.256859-.03651-.017021-.076893-.069351-.10577-.07616-.373192-.065212-.798275-.129837-1.163601-.219555-.160709-.040794-.259674-.106651-.422264-.144745-.112461-.026531-.268246-.040089-.382702-.057789-.172215-.030582-.292427-.120975-.47028-.150879-.016319-.002701-.03463-.004726-.050949-.007511.025005.036068.043201.071465.049068.102718.013382.084904-.035686.11895-.106827.205204-.40583.381996-1.346382,1.492657-2.163792,2.435383-.999134,1.918762-2.934128,5.661736-3.001394,5.778008-.133711.245323-.442339,1.146606-.759769,2.018669h33.568617l-.401955-1.270401c-.225044-.258209-.27787.083-.322128-.356758.727016-.149559,1.361763-2.105713,1.852234-3.178276"/>
  <path class="st0" d="M27.670803,63.126984c.098022-.113579.196163-.226395.292309-.33783.731831-.848988,1.439594-1.668629,2.013765-2.302082-.004812-.007511-.009626-.015026-.0135-.022511-.238426.035393-.494226.049629-.751081.014996l-.201916.029232-.356758-.1026c-.134649-.038769-.256739-.084347-.363567-.130512l-.357697.21072-.270239.059135c-.076893.017609-.153902.029144-.227978.036629-.011505.185627-.041323.348042-.073019.480579.023008.101254.050011.201183.075953.301083.063511.248112.13559.528828.182781.851013.045197.306484.048014.560757.048952.746269.001057.063156-.002817.123672-.002817.15493.001879.003433.003874.007484.004812.010948"/>
  <path class="st0" d="M26.874525,27.118292c.082645.260996,2.34458,6.190561,2.411844,6.446184.087576.266396.231852.447182.293365.7075.188416.809544.503853,1.528606.784657,2.355175.187593.554596.263548,1.237705.472273,1.803837.285618.767429.578867,1.539555.90205,2.299381.011505-.024418.017258-.047485.029818-.072021.343258.112816.560669.506435.827976.698078.103893.053001.208725.105301.312618.157631.072079.060486.126904.161095.22974.213509.096264.027794.19241.055676.288551.083553.066326.041439.157776.175327.227978.21339.159538.084347.338444.040119.467342.148209-.003876.023067-.007748.04549-.011505.068001.04414.049599.182663.150879.23455.179436.060574.010185.122208.020397.18372.031258l.118332.194344c.008572.005489.162472.014908.212482.03463.303932-.407764.628994-.794548.815533-.920921.964504-.636917-.396202-1.401558.557735-1.538792.142399-.270504.111641-.299732.187595-.532173-.184662-.144157-.386578-.269859-.58955-.39632.010567-.193699-.009624-.417274-.049068-.590664.754955-.633484,1.509914-1.266937,2.262875-1.867786.159657-.288143,1.310814-2.986515,1.567554-3.283581.165405-.41795.061516-1.196913.243355-1.599953.304752-.623945.795223-.492788,1.017448-1.060266.425079-1.085566,1.259747-2.477499,1.413651-2.974394.411579-1.43889-1.198235-2.577341.042263-4.543678.366501-.56481,1.622375-1.566702,2.017639-1.763834.441399-.765316,1.585865-4.434238,2.05415-5.105112.415455-.560083.790527-.833962,1.015568-1.132376-.14909-.012209-.297123-.023097-.454899-.071375-.195225-.063833-.454899-.168489-.655876-.218087-.289494-.071375-.501034-.047603-.790527-.112257-.652943-.15358-1.382893-.396202-2.029144-.594685-.051888-.013559-.1586.038065-.230797.034044-.115398-.004138-.335629-.129162-.447151-.163206-.240421-.071346-.479904,0-.71645-.094443-.10577-.033956-.226921-.180786-.340443-.214742-.641438-.227039-1.24155-.309948-1.900246-.498922-.216473-.061162-.467461-.253511-.671253-.323507-.064449-.004813-.129837-.009509-.195225-.014322-.019253-.032606-.032753-.0734-.052006-.106652-.27787-.138025-.589432-.112903-.884678-.219555-.234669-.080209-.612675-.318136-.867535-.337858-.093208-.007484-.267303.125787-.491409.116278-.101898-.164556-.24324-.243298-.363449-.376598-.345253.230414-.709759-.052328-1.068516-.14953-.507725-.140021-.93668-.334365-1.398273-.494783-.279865-.101956-.575111-.108765-.843353-.226276-.174095-.067325-7.788692-2.175063-7.967602-2.219907-.29043-.072079-.508665-.046899-.76071-.152963-.145216-.063862-.352884-.212071-.501036-.240656-.219292.018372-.437525.043612-.650124.060516-.315435-.096439-.605867-.462177-.905807-.603578-.185598-.087575-.383759-.072666-.567478-.1522-.011505-.004696-.023008-.008159-.033573-.012209.010565.042085.021132.084875.040382.131187.153786.256152.306749.513126.460651.7701-.051065.144042-.036627.186186-.216473.322832-.020191.062512-.05764.091039-.137468.155605-.100958-.04414-.197104-.103952-.295244-.154959.118332.768691.26836,1.62173.385637,2.017345.170219.570179.379885,1.049408.588493,1.615625.152023.407766.242416.885644.33375,1.298869.072197.292926.231733.468341.341379.767341.0837.218205.150028.549195.227978.761266.072079.206671.201916.284737.285618.480549.214478.495458,2.440723,7.753887,2.590754,8.29146.073135.250135-.029818.595478.015379.850309.025005.136.258736.815619.312618.9142.07971.060488.154724.115574.234552.17609.036627.114136-.100019.269066-.097084.383318.058697.114136.116337.239923.174093.354088"/>
  <path class="st0" d="M66.627655.156016h-1.400146c-.016319.025181-.031693.049599-.049072.07478-.142281.088338-.328934.091802-.400078.250048-.025002.116982-.050011.233202-.075012.350067-.041321.072021-.187477.108119-.225044.17474-.008568.083584-.016319.166464-.025002.250165-.117279.353413-.256737.249989,0,.574992.063507.002641.09333.003346.125023.025063.056816-.033281.039444-.053649.075012-.099902v-.025122c.141342.053649.143333.195695.250046.274583.1539.113578.320251.186949.47509.300409.204849.150909.255798.309977.575111.374485.007629-.00675.549049-.249343.549049-.249343.053886-.006868.148148.047486.151085.049599.22023-.027881.20192-.216825.399017-.274642V.330639c-.008568-.076071-.002815-.116865-.04895-.149442-.072197-.050949-.262611-.025181-.376129-.025181"/>
  <path class="st0" d="M56.560825.149672H11.641335c.004813.008804.010683.017668.015496.026531.136528-.019076.274935-.029935.398081.018372.055762.034631.098141.08558.141342.136528-.04907.057112-.065388.131187-.090393.206671.029818.010213.060575.019722.081823.023772.210604.112111.474034.008863.745213.047603.454899.068675,1.092462.074016,1.530104.12432.320249.031344.558675-.054294.822223.035394.284679.087047,6.413431,3.20472,6.664419,3.346766.445272.249461,1.761839.710288,2.563869.987571.067385-.00135.133711.001467.199099.021835.044256.016905.090393.053003.138523.095793.039444.012855.088396.029877.120211.04144.521227.180786.99526.282037,1.532923.431596.387514.107415.79628.297709,1.155972.452669.258617.104715.476969.079534.761648.159068.208609.055116.493286.184894.694263.241302.195225.057112.323185.001996.515474.045549.48859.106652,8.474386,2.202181,8.959105,2.380971.226921.080884.430832.344549.646252.448501.116337.05447.75296.246761.855915.26032.089455-.027118.171158-.053649.260612-.08153.104832.03469.147095.22158.234669.280687.117275.018372.242298.042849.359577.061162.241478.078888.514534.231793.742512.32019.248051.07748.46159.067325.690506.162414.710583.296389,1.420341.448619,2.193493.685195.517471.159655,1.073326.471716,1.61087.621157,1.082836.298414,2.180111.594127,3.297577.787151.39045.070671.739578-.038094,1.17041.063158.370258.088397.735703.203208,1.100208.322861,1.680016-1.759021.301937-1.478304.98951-2.711961.427078-1.423981,2.858173-2.212335,3.279381-2.895447.14909-.399665-.025944-.737406.140404-1.155444.526039-1.191542,1.707016-2.604546,1.507915-3.713209-.195225-.964445-.8241-1.537441-1.109718-2.278956"/>
  <path class="st0" d="M30.973194,54.915646c-.000938.168575-.431772,1.14526-.898176,2.158688.02207.15358-.0837.249462.151907.49892.010565.011536.025005.025768.038506.037975.401016.061924.803909.114254,1.19342.208019.240421.059135.386576.201859.599174.265808.605865.18821,2.873436.544411,3.48893.670784.306747.061836.662567.047604.960747.099903.445274.078182,2.931194.611736,3.361088.644341.137466.010948.24136.069996.384697.094532.136528.014233.310623.007511.451965.029232.062572.020397.130775.040119.194286.060486.058697-.006809,3.987144.47509,4.04866.4846.03651.036743.07114.070671.108707.106739.054825.019722.421207.085609.492348.087605.134651.003464.302994-.076073.436584-.059135.287613.034042,4.332401.695408,4.602638.766079.107765.027882.156837.087605.26836.108765.114456.023098.289494.030582.407707.056351.161533.031933,1.992634.510487,2.147476.524044.218353.01432.471218.023155.691448.068645.305809.061836.567364.131863.873173.174065.354881.048191.432831.165142.782894.151585.160595-.007511.344196-.114929.508663-.085697.154842.022392.250988.125786.419331.190998.229855.086342.549168.246086.793343.326969.145218.049629.25005.167812.383759.165791.011505.003464.028877.006165.047073.008835.006809-.043465.016434-.084904.006809-.126461.03463-.014206.069263-.028439.10577-.031902.1586.016346.283623.182812.420269.222225.110584.029907.204849-.054325.301937.05444.145218.165791.264488.538246.585674.55257.009624.00135.02113-.004108.032635-.006134.072197-.14407.14146-.26302.207787-.344578.017258-.025211.049068-.048279.079826-.071346.085579.144043.100018.155575.258736.188297.045197-.024536.088398-.048279.097084-.053764l.035568.025181c.421207-.497574.910736-.509106,1.439594-.54306.102955-.056438.20591-.112904.303932-.166553v-13.703175c-.015381-.002026-.032635-.002026-.04813-.004814-.152847-.334366-.305809-.668056-.457718-1.001778-.770336-.935329-2.275318-1.877296-3.022526-2.898911-2.290813-3.09528-3.908375-6.09063-6.368351-9.027634-.398083-.526714-1.410713-.880215-1.799286-1.367516-.959808-1.058243-1.055954-2.463852-1.906116-3.586042-.398083-.525364-1.487724-1.433491-1.737656-2.031549-.161652-.373135-.100018-1.037933-.274113-1.285955-.074074-.095205-.131832-.169252-.19722-.253599-.22023.091831-.035568.069321-.359577-.088955-.411697.521227-.250988.812126-.495281,1.188725-.329876.497482-1.268551.954966-1.534916,1.446375-.296185.462208-.652943,1.444378-.901112,1.918089-.233612.150206-1.009701,1.816132-1.243431,2.304108-.286556.573643-.962624.604221-1.289566,1.343098-.089455.185513-.020191.38813-.213539.711639.227978.252834.43858.523338.664562.808105-.35582.676361-1.434898,1.371655-1.594555,1.966366-.098022.346691.213539.849632.129837,1.211235-.077831.26437-1.371269,2.316319-1.546307,2.58952-.754017,1.24519-1.905174,2.075806-2.623505,3.558926-.12796.285412-.854977,1.624489-1.056892,2.110409-.107765.235138-.104832.781662-.231735,1.067104-.467461.97736-.913673,1.53339-1.25024,2.465935-.008686.16177-1.232864,2.110439-1.456968,3.016449"/>
  <path class="st0" d="M24.161566,66.967923c.195225-.35611.316376-1.156151.496222-1.526581.318371-.271179.190413-1.268932.492348-1.52177.05588-.126461.19816-.418037.366503-.742893-.001057-.078857-.003874-.161095-.017374-.254272-.042261-.284092-.140402-.542385-.180786-.826477-.029818-.197807.118332-.341881.027941-.55122-.008686.00816-.018312.017021-.027.025181-.067266.004726-.09321.022423-.143221.018372-.012562.006721-.023127.015583-.034632.022392-.14909.082909-.29043.079533-.427076.147446-.394207.189648-.769278.416012-1.139538.641644-.183722.112228-.35582.28685-.531792.401016-.261553.169926-.508783.301758-.739578.486713-.075953.059811-.155781.078182-.239483.133858-.075014.056465-.160595.142048-.241362.197132-.041323.019047-.085581.04147-.126902.061192-.027.030582-.022186.104626-.057758.128456-.03557-.000675-.069262-.001438-.104832-.002113-.036509.015671-.251926.154373-.289373.186951-.069262.061836-.117393.180817-.192408.235138-.160595.117626-.36932.233204-.539539.324944-.066326.03598-.119154.029259-.185598.071377-.069145.042114-.160595.1203-.231733.16309-.097084.059811-.180786.073372-.266365.140022-.116337.095207-.248169.209373-.380823.290253-.182781.112785-.347132.200508-.522165.32283-.200977.142044-.715511.626648-.885733.798012-.07795.079414-.119272.220116-.216356.282745-.088514.061165-.185598.055-.300997.100578-.156837.064537-.392447.134537-.55398.207932-.096146.043556-2.913937,1.898369-2.979325,1.962318-.008687.004021-.018313.010857-.028879.0177.015379.022392-1.931002,2.630959-2.374397,3.242699h10.059314c.811657-1.974442,2.214743-4.701393,2.516678-5.184647"/>
  <path class="st0" d="M65.182304,45.658833V6.724964c-.56842.322832-1.052078.761941-1.361763,1.50686-.398197-.043553-1.005005-.116278-1.393459-.048249l-.075954-.073371c-.143337-.034748-.60305.474386-.736645.583797-.324123.061866-.523224-.129133-.871292.080238-.189472.258852-.362629.500154-.567478.744919-.598118.377185-1.485729.475091-1.86174.622595-1.179096.430951-4.130482,5.678754-4.6152,6.979033-.074074.199862-1.265499,1.195593-1.374207,1.430702.019253.255625.037449.511835.056702.768105-.117275.554625-1.523296,4.051596-2.177296,5.557779,2.750526,4.867273,1.986881,5.356598,5.53075,10.256479,1.845425,2.539333,4.578575,4.84758,6.438435,7.261127.887611,1.156796,1.922432,2.229359,3.00914,3.263859"/>
</svg>