<?xml version="1.0" encoding="utf-8"?>
<!-- Generator: Adobe Illustrator 27.8.0, SVG Export Plug-In . SVG Version: 6.00 Build 0)  -->
<svg version="1.1" id="Layer_1" xmlns="http://www.w3.org/2000/svg" xmlns:xlink="http://www.w3.org/1999/xlink" x="0px" y="0px"
	 width="116.7322px" height="35.1931px" viewBox="0 0 116.7322 35.1931" style="enable-background:new 0 0 116.7322 35.1931;"
	 xml:space="preserve">
<style type="text/css">
	.st0{fill:#FFFFFF;}
</style>
<g>
	<path class="st0" d="M17.5359,0C8.2922,0,0.7196,7.1275,0,16.1854l9.4314,3.8995c0.7991-0.5466,1.7646-0.8668,2.8032-0.8668
		c0.0931,0,0.1858,0.004,0.2777,0.0084l4.1942-6.0793c0-0.029,0-0.0573,0-0.0859c0-3.6592,2.9766-6.6362,6.6362-6.6362
		c3.6592,0,6.6358,2.977,6.6358,6.6362s-2.9766,6.6366-6.6358,6.6366c-0.0505,0-0.1006,0-0.1508-0.004l-5.9819,4.2682
		c0.004,0.0776,0.006,0.1567,0.006,0.2355c0,2.7471-2.2343,4.981-4.981,4.981c-2.411,0-4.4269-1.7208-4.8836-3.9997L0.6062,22.392
		c2.0884,7.386,8.8741,12.8011,16.9297,12.8011c9.7186,0,17.5967-7.8785,17.5967-17.5959C35.1326,7.8781,27.2541,0,17.5359,0"/>
	<path class="st0" d="M11.0269,26.7l-2.1616-0.893c0.3831,0.7976,1.0458,1.4654,1.9257,1.8322
		c1.9022,0.7924,4.0952-0.1102,4.888-2.014c0.3839-0.9205,0.3862-1.9368,0.0056-2.8597c-0.3799-0.9233-1.0967-1.6432-2.0184-2.0275
		c-0.9145-0.3807-1.8942-0.3668-2.755-0.0418l2.2328,0.9233c1.403,0.5847,2.0665,2.1958,1.4817,3.5987
		C14.0421,26.6216,12.4299,27.2851,11.0269,26.7"/>
	<path class="st0" d="M27.7637,13.0612c0-2.438-1.9833-4.4218-4.4218-4.4218c-2.438,0-4.4218,1.9837-4.4218,4.4218
		c0,2.4384,1.9837,4.4214,4.4218,4.4214C25.7803,17.4826,27.7637,15.4992,27.7637,13.0612 M20.0276,13.0537
		c0-1.8346,1.4873-3.3215,3.3219-3.3215s3.3219,1.4869,3.3219,3.3215s-1.4873,3.3215-3.3219,3.3215S20.0276,14.8878,20.0276,13.0537
		"/>
	<path class="st0" d="M53.9251,12.0397l-1.179,2.0725c-0.9081-0.6345-2.1389-1.0163-3.2133-1.0163
		c-1.228,0-1.9877,0.5084-1.9877,1.4189c0,1.1062,1.3497,1.3636,3.3557,2.0836c2.1564,0.7626,3.3959,1.6588,3.3959,3.6337
		c0,2.7021-2.125,4.2197-5.1791,4.2197c-1.4885,0-3.2841-0.3843-4.6644-1.224l0.86-2.2976
		c1.1213,0.5923,2.4627,0.9435,3.6584,0.9435c1.6118,0,2.378-0.5947,2.378-1.4738c0-1.006-1.1683-1.3083-3.0542-1.9328
		c-2.1492-0.7176-3.6385-1.6592-3.6385-3.845c0-2.4651,1.9742-3.8808,4.8148-3.8808
		C51.4513,10.7413,53.0424,11.3686,53.9251,12.0397"/>
	<path class="st0" d="M60.3656,24.2246v-10.875H56.336v-2.3811h10.8233v2.3811h-4.0176v10.875H60.3656z"/>
	<path class="st0" d="M78.3243,16.3294v2.3811h-5.3128v3.1111h6.164v2.403h-8.9394V10.9685h8.9394v2.374h-6.164v2.987
		L78.3243,16.3294z"/>
	<path class="st0" d="M85.3718,21.6509l-0.8775,2.5741h-2.9102l4.9703-13.2561h2.7944l5.1107,13.2557h-3.0084l-0.8966-2.5741
		h-5.1827L85.3718,21.6509z M87.9359,14.1309l-1.8103,5.3076h3.658L87.9359,14.1309z"/>
	<path class="st0" d="M103.5127,23.8384l-3.5689-7.6768v8.0631h-2.6584V10.9685h2.6524l4.4552,9.5691l4.2969-9.5691h2.6755v13.2561
		h-2.658v-8.1323l-3.6278,7.746H103.5127z"/>
	<path class="st0" d="M116.7322,12.6408c0,1.1393-0.8536,1.8493-1.8334,1.8493c-0.9833,0-1.839-0.71-1.839-1.8493
		c0-1.1389,0.8556-1.8441,1.839-1.8441C115.879,10.7966,116.7322,11.5019,116.7322,12.6408 M113.3682,12.6408
		c0,0.9531,0.6866,1.5518,1.5307,1.5518c0.8409,0,1.5247-0.5987,1.5247-1.5518c0-0.9559-0.6838-1.5454-1.5247-1.5454
		C114.0571,11.0954,113.3682,11.692,113.3682,12.6408 M114.9243,11.6984c0.4754,0,0.6353,0.2514,0.6353,0.5231
		c0,0.249-0.1476,0.4161-0.3274,0.5012l0.426,0.7984h-0.3489l-0.3592-0.7077h-0.3703v0.7077h-0.2904v-1.8226H114.9243z
		 M114.5826,12.5465h0.3238c0.2096,0,0.3334-0.1317,0.3334-0.2971c0-0.1671-0.0887-0.2745-0.3341-0.2745h-0.3234v0.5716H114.5826z"
		/>
</g>
</svg>
