<?xml version="1.0" encoding="UTF-8"?>
<svg id="Layer_1" xmlns="http://www.w3.org/2000/svg" width="166.397" height="21.154" version="1.1" viewBox="0 0 166.397 21.154">
  <!-- Generator: Adobe Illustrator 30.3.0, SVG Export Plug-In . SVG Version: 2.1.3 Build 182)  -->
  <defs>
    <style>
      .st0 {
        fill: #fff;
      }
    </style>
  </defs>
  <path class="st0" d="M10.577,8.483c.012,0,.026.01.035.017,3.163,2.406,8.579,8.358,6.928,10.039-1.86,1.628-4.296,2.615-6.962,2.615s-5.102-.987-6.962-2.615c-1.651-1.681,3.764-7.633,6.927-10.039.008-.007.023-.017.035-.017ZM16.087,1.548c-1.62-.963-3.375-1.548-5.51-1.548s-3.89.585-5.51,1.548c-.019.011-.027.033-.018.052.009.019.03.023.051.018,2.048-.442,5.159,1.326,5.454,1.504.007.004.013.008.022.008s.016-.004.022-.008c.295-.178,3.406-1.946,5.454-1.504.021.005.042.001.051-.018.009-.019.001-.042-.018-.052h0ZM3.173,3.035c-.018.009-.033.022-.047.036C1.196,4.987,0,7.642,0,10.577c0,2.41.806,4.629,2.163,6.408.013.017.037.028.056.017.018-.011.019-.034.012-.054-.806-2.493,3.316-8.536,5.445-11.07.007-.009.014-.019.014-.031,0-.015-.008-.026-.018-.035C4.446,2.602,3.351,2.943,3.173,3.035ZM13.481,5.812c-.01.009-.018.02-.018.035,0,.012.007.022.014.031,2.129,2.534,6.251,8.577,5.445,11.07-.007.02-.006.044.012.054.019.011.043,0,.056-.017,1.357-1.779,2.163-3.998,2.163-6.408,0-2.935-1.196-5.59-3.126-7.506-.014-.014-.029-.027-.047-.036-.178-.092-1.273-.433-4.5,2.777ZM36.809,17.092h-2.164l-3.725-5.127-3.725,5.127h-2.164l4.807-6.617-4.43-6.097h2.164l3.348,4.608,3.348-4.608h2.164l-4.43,6.097,4.807,6.617h0ZM48.043,13.477c0,1.116-.371,2.007-1.101,2.649-.73.641-1.792.966-3.155.966h-5.962v-5.662h-2.833l1.178-1.622h1.654v-5.43h5.712c1.281,0,2.276.307,2.959.913.683.606,1.03,1.414,1.03,2.4,0,1.223-.554,2.15-1.648,2.757.706.273,1.247.675,1.609,1.194.368.529.555,1.147.555,1.836h0ZM39.767,9.808h3.645c.734,0,1.291-.165,1.657-.489.365-.324.55-.818.55-1.468,0-.561-.192-1.006-.572-1.321-.381-.316-.931-.476-1.635-.476h-3.645v3.755ZM46.082,13.441c0-.668-.201-1.175-.599-1.508-.398-.334-1.005-.503-1.804-.503h-3.912v3.987h3.912c.775,0,1.376-.172,1.786-.512.409-.339.616-.831.616-1.463ZM61.103,10.735c0,.983-.143,1.885-.424,2.681-.281.797-.71,1.51-1.272,2.121-.569.611-1.236,1.075-1.983,1.38-.747.305-1.594.46-2.518.46-.936,0-1.789-.155-2.535-.46-.747-.305-1.408-.77-1.965-1.38-.569-.604-1.001-1.315-1.286-2.112-.284-.797-.428-1.702-.428-2.69,0-.983.144-1.886.428-2.686.284-.8.717-1.518,1.286-2.134.557-.605,1.218-1.064,1.965-1.367.747-.302,1.6-.455,2.535-.455.924,0,1.771.153,2.517.455.747.302,1.414.762,1.983,1.367.563.616.991,1.334,1.273,2.134.281.799.424,1.703.424,2.686h0ZM50.705,10.735c0,1.496.388,2.696,1.153,3.566.753.882,1.778,1.329,3.048,1.329s2.296-.447,3.048-1.329h0c.753-.859,1.135-2.059,1.135-3.567s-.382-2.714-1.135-3.584c-.764-.87-1.79-1.311-3.048-1.311s-2.284.441-3.048,1.311c-.765.894-1.153,2.1-1.153,3.584h0ZM67.237,10.475l4.43-6.097h-2.164l-3.348,4.608-3.348-4.608h-2.164l4.43,6.097-4.807,6.617h2.164l3.725-5.127,3.725,5.127h2.164l-4.807-6.617h0ZM88.216,6.124v3.684h6.316v1.622h-6.316v3.915h7.14v1.747h-9.082V4.378h9.082v1.747h-7.14ZM83.748,11.202c-.635-.581-1.689-1.032-3.133-1.34l-1.104-.231c-1.049-.224-1.777-.498-2.165-.816-.385-.292-.58-.73-.58-1.303,0-.561.219-.999.651-1.302.434-.305,1.071-.46,1.894-.46,1.059,0,1.837.193,2.312.575.474.381.745.984.803,1.794v.017h1.925v-.019c-.024-1.246-.461-2.239-1.298-2.952-.836-.712-2.101-1.073-3.76-1.073-1.375,0-2.481.316-3.287.939-.808.624-1.218,1.471-1.218,2.516s.338,1.877,1.003,2.471c.664.593,1.661,1.026,2.964,1.286l1.086.231c1.073.236,1.825.507,2.236.807.408.298.616.727.616,1.276,0,.679-.252,1.204-.749,1.561-.499.358-1.223.54-2.152.54-1.124,0-1.982-.238-2.552-.708-.569-.469-.866-1.183-.883-2.123v-.018h-1.943v.019c.012,1.459.491,2.584,1.422,3.344.931.759,2.25,1.144,3.92,1.144,1.54,0,2.763-.343,3.635-1.019.873-.677,1.316-1.617,1.316-2.792,0-.986-.323-1.781-.959-2.364h0ZM107.039,15.523l-.125-1.976c-.024-.701-.181-1.27-.466-1.692-.277-.41-.716-.709-1.306-.889.65-.217,1.164-.587,1.528-1.101.374-.529.564-1.189.564-1.96,0-1.093-.395-1.963-1.173-2.587-.777-.623-1.856-.939-3.208-.939h-5.556v12.714h1.942v-5.217h3.667c.727,0,1.262.169,1.589.502.328.333.511.913.547,1.724l.053,1.353c.012.736.139,1.285.377,1.631l.006.008h2.001l-.017-.028c-.223-.376-.366-.894-.425-1.541h0ZM99.241,6.053h3.507c.799,0,1.421.172,1.849.512.427.339.643.849.643,1.517,0,.692-.211,1.232-.626,1.606-.416.375-.996.565-1.724.565h-3.649v-4.2ZM108.99,17.092h1.942V4.378h-1.942v12.714ZM121.957,6.124v-1.747h-9.082v12.714h9.082v-1.747h-7.14v-3.915h6.316v-1.622h-6.316v-3.684s7.14,0,7.14,0ZM132.308,11.202c-.635-.581-1.689-1.032-3.133-1.34l-1.104-.231c-1.049-.224-1.777-.498-2.165-.816-.385-.292-.58-.73-.58-1.303,0-.561.219-.999.651-1.302.434-.305,1.071-.46,1.894-.46,1.059,0,1.837.193,2.312.575.474.381.745.984.803,1.794v.017h1.925v-.019c-.024-1.246-.461-2.239-1.298-2.952-.836-.712-2.101-1.073-3.76-1.073-1.375,0-2.481.316-3.287.939-.808.624-1.218,1.471-1.218,2.516s.338,1.877,1.003,2.471c.664.593,1.661,1.026,2.964,1.286l1.086.231c1.073.236,1.825.507,2.236.807.408.298.616.727.616,1.276,0,.679-.252,1.204-.749,1.561-.499.358-1.223.54-2.152.54-1.124,0-1.982-.238-2.552-.708-.569-.469-.866-1.183-.883-2.123v-.018h-1.943v.019c.012,1.459.491,2.584,1.422,3.344.931.759,2.25,1.144,3.92,1.144,1.54,0,2.763-.343,3.635-1.019.873-.677,1.316-1.617,1.316-2.792,0-.986-.323-1.781-.959-2.364h0ZM152.987,2.789h-.971v15.893h.971V2.789ZM144.094,10.475l4.43-6.097h-2.164l-3.348,4.608-3.348-4.608h-2.164l4.43,6.097-4.807,6.617h2.164l3.725-5.127,3.725,5.127h2.164l-4.807-6.617ZM165.439,11.202c-.635-.581-1.689-1.032-3.133-1.34l-1.104-.231c-1.049-.224-1.777-.498-2.165-.816-.385-.292-.58-.73-.58-1.303,0-.561.219-.999.651-1.302.434-.305,1.071-.46,1.894-.46,1.059,0,1.837.193,2.312.575.474.381.745.984.803,1.794v.017h1.925v-.019c-.024-1.246-.461-2.239-1.298-2.952-.836-.712-2.101-1.073-3.76-1.073-1.375,0-2.481.316-3.287.939-.808.624-1.218,1.471-1.218,2.516s.338,1.877,1.003,2.471c.664.593,1.661,1.026,2.964,1.286l1.086.231c1.073.236,1.825.507,2.236.807.408.298.616.727.616,1.276,0,.679-.252,1.204-.749,1.561-.499.358-1.223.54-2.152.54-1.124,0-1.982-.238-2.552-.708-.569-.469-.866-1.183-.883-2.123v-.018h-1.943v.019c.012,1.459.491,2.584,1.422,3.344.931.759,2.25,1.144,3.92,1.144,1.54,0,2.763-.343,3.635-1.019.873-.677,1.316-1.617,1.316-2.792,0-.986-.323-1.781-.959-2.364h0Z"/>
</svg>