<?xml version="1.0" encoding="UTF-8"?>
<svg id="_Слой_1" data-name="Слой_1" xmlns="http://www.w3.org/2000/svg" version="1.1" viewBox="0 0 34 34">
  <!-- Generator: Adobe Illustrator 29.5.1, SVG Export Plug-In . SVG Version: 2.1.0 Build 141)  -->
  <defs>
    <style>
      .st0 {
        fill: transparent;
        stroke: #fff;
      }
    </style>
  </defs>
  <path class="st0" d="M13.53,15.37c.46,0,.84-.38.84-.84v-3.28c0-1.47,1.19-2.66,2.66-2.66,1.47,0,2.66,1.19,2.66,2.66v3.28c0,.46.38.84.84.84s.84-.38.84-.84v-3.28c0-2.39-1.95-4.34-4.34-4.34s-4.34,1.95-4.34,4.34v3.28c0,.46.38.84.84.84Z"/>
  <path class="st0" d="M26.67,13.48h-4.46v1.05c0,.93-.75,1.68-1.68,1.68s-1.68-.75-1.68-1.68v-1.05h-3.64v1.05c0,.93-.75,1.68-1.68,1.68s-1.68-.75-1.68-1.68v-1.05h-4.51c-.23,0-.38.18-.32.41l2.94,11.98c.18.67.89,1.22,1.58,1.22h10.93c.7,0,1.4-.55,1.58-1.22l2.94-11.98c.06-.23-.09-.41-.32-.41Z"/>
</svg>