<?xml version="1.0" encoding="UTF-8"?>
<svg id="_Слой_1" data-name="Слой_1" xmlns="http://www.w3.org/2000/svg" version="1.1" viewBox="0 0 40 40">
  <!-- Generator: Adobe Illustrator 29.5.1, SVG Export Plug-In . SVG Version: 2.1.0 Build 141)  -->
  <path d="M40,7.11c0-.2-.12-.34-.27-.46-.34-.29-.81-.29-1.24-.3-.93-.01-1.85-.02-2.78-.03l-6.18-.08-20.69-.28c-.12-.49-.31-.98-.46-1.46-.44-1.42-.86-2.56-2.23-3.37-.43-.25-.89-.43-1.38-.52-.62-.12-3.31-.11-4.05-.07-.3.11-.5.21-.64.52-.11.23-.12.49-.03.72.08.23.26.41.49.51.29.12.72.09,1.03.09h1.54c.48,0,.95-.03,1.42.08,1.54.36,1.78,1.76,2.21,3.05l.91,2.76,3,9.05.99,2.97c.15.45.34,1.08.5,1.51-.65,1.48-1.11,2.64-.46,4.31.41,1.07,1.24,1.93,2.29,2.39,1.17.51,2.9.37,4.2.37h4.97s7.02,0,7.02,0c1.09,0,2.18,0,3.27,0,.17,0,.44-.02.6-.1.39-.18.49-.47.58-.84-.16-.63-.4-.89-1.09-.92-.57-.02-1.14,0-1.7,0-.93,0-1.86,0-2.79,0h-9.78c-1.04,0-2.12-.02-3.16,0-1.52.02-2.54-.59-2.81-2.17-.04-.86.15-1.25.5-2.03,1.62-.12,3.35-.33,4.97-.5l8.32-.87,4.22-.44c.84-.09,2.13-.18,2.92-.41.94-.27,1.79-.82,2.42-1.56.41-.48.72-1.02.93-1.61.34-.95.77-3.03,1.02-4.1l.87-3.62c.16-.66.32-1.32.47-1.98.04-.2.06-.39.05-.59ZM35.75,17.03c-.09.3-.47.76-.69.99-1.07,1-2.42.95-3.8,1.09l-3.98.41-13.51,1.4c-.18-.58-.37-1.17-.57-1.75-1.28-3.77-2.45-7.59-3.75-11.36.43.06,1.97.04,2.52.04l5.79.08,20.18.31c-.75,2.92-1.35,5.9-2.19,8.79Z"/>
  <path d="M34.56,34.81c-.28-2.29-2.37-3.93-4.66-3.64-2.28.28-3.91,2.36-3.63,4.65.28,2.28,2.35,3.91,4.64,3.64,2.29-.27,3.93-2.36,3.65-4.65ZM30.47,37.63c-1.27.03-2.33-.97-2.37-2.24-.04-1.27.95-2.33,2.22-2.39,1.28-.05,2.37.95,2.41,2.23.04,1.28-.97,2.36-2.25,2.39Z"/>
  <path d="M16.9,34.81c-.28-2.29-2.37-3.92-4.66-3.64-2.29.28-3.91,2.36-3.63,4.65.28,2.29,2.36,3.92,4.65,3.64,2.29-.28,3.92-2.36,3.64-4.65ZM12.83,37.63c-1.27.04-2.33-.95-2.38-2.22-.05-1.27.94-2.34,2.21-2.4,1.28-.06,2.37.94,2.42,2.22.05,1.28-.96,2.36-2.24,2.4Z"/>
</svg>