<svg xmlns="http://www.w3.org/2000/svg" xmlns:xlink="http://www.w3.org/1999/xlink" id="_Слой_1" version="1.1" viewBox="0 0 1131 1090"><defs><linearGradient id="_Безымянный_градиент" x1="740.31" x2="741.04" y1="89.87" y2="86.58" data-name="Безымянный градиент" gradientTransform="translate(-2224.86 689.15)scale(4.04)" gradientUnits="userSpaceOnUse"><stop offset="0" stop-color="#c66e2e"/><stop offset="1" stop-color="#cf934d"/></linearGradient><linearGradient id="_Безымянный_градиент_2" x1="653.46" x2="666.57" y1="18.57" y2="32.21" data-name="Безымянный градиент 2" gradientTransform="translate(-2224.86 689.15)scale(4.04)" gradientUnits="userSpaceOnUse"><stop offset="0" stop-color="#cc8545"/><stop offset="1" stop-color="#d6a563"/></linearGradient><linearGradient id="_Безымянный_градиент_6" x1="626.65" x2="622.54" y1="-62.55" y2="-63.94" data-name="Безымянный градиент 6" gradientTransform="translate(-2224.86 689.15)scale(4.04)" gradientUnits="userSpaceOnUse"><stop offset="0" stop-color="#c78238"/><stop offset="1" stop-color="#cf9d61"/></linearGradient><linearGradient id="_Безымянный_градиент_8" x1="749.24" x2="755.3" y1="-36.23" y2="-10.3" data-name="Безымянный градиент 8" gradientTransform="translate(-2224.86 689.15)scale(4.04)" gradientUnits="userSpaceOnUse"><stop offset="0" stop-color="#c17b25"/><stop offset="1" stop-color="#ca9461"/></linearGradient><linearGradient id="_Безымянный_градиент_9" x1="317.69" x2="318.65" y1="1020.65" y2="1023.76" data-name="Безымянный градиент 9" gradientUnits="userSpaceOnUse"><stop offset="0" stop-color="#c38040"/><stop offset="1" stop-color="#dcaa6f"/></linearGradient><linearGradient xlink:href="#_Безымянный_градиент_9" id="_Безымянный_градиент_91" x1="370.79" x2="376.1" y1="955.65" y2="972.98" data-name="Безымянный градиент 9"/><linearGradient xlink:href="#_Безымянный_градиент_9" id="_Безымянный_градиент_92" x1="329.24" x2="333.06" y1="993.99" y2="1006.43" data-name="Безымянный градиент 9"/><style>.st0{fill:#f0ebda}.st1{fill:#c88747}.st2{fill:#d2a068}.st3{fill:#ce9253}.st4{fill:#eeddc5}.st7{fill:#d8b889}.st8{fill:#e9dbc7}.st9{fill:#d09758}.st11{fill:#af5c22}.st15{fill:#c07f41}.st17{fill:#e4d1aa}.st19{fill:#ca8e4f}</style></defs><path d="M479.99 683.98c3.21.34 4.31.36 6.53 3.17l1.01-.55c.63 3.16-.25 3.79-1.51 7.23-2.64 5.48-3.99 7.19-7.69 11.92-.89-1.57-2.02-2.63-3.24-3.95l-5.08 6.55-.89-2.47 2.89-5.45c-1.21-.51-.68-.29-2.35.04-.5 1.22-1.16 1.28-2.54 2.16l.64-3.45c2.83-1.51 3.23-1.95 5.47-4.25 2.65-2.82 4.87-7.44 6.77-10.95z" class="st1"/><path d="M487.53 686.6c.63 3.16-.25 3.79-1.51 7.23-2.64 5.48-3.99 7.19-7.69 11.92-.89-1.57-2.02-2.63-3.24-3.95 3.83-4.36 7.87-9.96 11.43-14.64l1.01-.55Z" class="st7"/><path d="M672.92 1017.05c17.63 4.87 35.4 10.07 53.2 14.15 42.4 9.72 85.99 16.15 126.11 33.38 4.92 2.37 10.13 4.78 14.97 7.25l3.17 3.16-2.96 2.62c-12.71-5.13-28.42-13.48-41.39-17.32-32.68-9.67-66.52-16.14-99.58-23.54-21.1-4.9-42.02-10.57-62.7-17l9.19-2.69Z" style="fill:url(#_Безымянный_градиент)"/><path d="M381.83 1048.89c9.61-2.12 11.44 1.7 18.51 7.83-8.29 1.05-9.76 1.27-18.04.68-7.13 5.33-11.04 9.14-20.46 6.13 2.26-.8 1.28-.15 2.85-2.25l-.71-2.68c5.46-6.92 12.64-4.78 17.86-9.71z" style="fill:#debb97"/><path d="M338.87 1064.12c.69-.65.73-.56 1.07-1.46 2.3-6.1 8.22-7.79 14.22-10.24 2.73 5.52 3.86 5.04 9.81 6.17l.71 2.68c-1.57 2.1-.59 1.46-2.85 2.25-7.71-.82-15.28-.41-22.97.59h.01Z" class="st2"/><path d="m867.41 1077.6 2.96-2.62 9.33 4.94 5.87 3.08-1.38 2.98-16.79-8.38Z" class="st11"/><path d="M370.37 1017.28c22.67-8.02 41.73-16.6 65.26-24.01 34.41-10.85 59.55-14.72 93.5-20.82 98.01-17.63 189.52-3.45 278.71 40.84 24.46 12.15 66.65 35.84 87.03 54.1l-1.19 4.97-5.67-4 1.15 3.89c-1.09.93-1.55 1.44-2.86 2.05 2.66 1.95 5.44 3.94 8.05 5.94-1.82.54-7.27 2.05-8.77 2.77l-5.87-3.08-9.33-4.94-3.17-3.16c-4.84-2.48-10.04-4.88-14.97-7.25-40.12-17.23-83.71-23.66-126.11-33.38-17.8-4.08-35.57-9.28-53.2-14.15l-9.19 2.69c-16.81-5.32-78.59-24.81-95-25.4-42.78-1.52-116.92 14.59-155.45 33.87-11.31 5.66-20.23 12.28-32.65 16.82l1.19 3.85c-5.21 4.92-12.4 2.79-17.86 9.71-5.95-1.13-7.09-.65-9.81-6.17-6 2.45-11.92 4.14-14.22 10.24-.34.9-.38.81-1.07 1.46-9.37 2.18-19.3 6.66-28.23 10.47l-8.64 4.32c-4.03 1.95-19.87 9.2-22.66 11.58h-26.71c5.4-5.07 8.48-8.26 13.27-13.9-2.08-1.81-2.35-2-5.07-2.38 3.62-4.43 10.64-10.49 11.17-15.92l-2.82-2.12 7.17-9.66 2.14 1.43c.15 1.65.2 1.53 1.3 2.81 4.68-4.06 12.43-15.86 17.79-21.41l.58-.6c3.12-4.63 5-7.11 8.67-11.31l4.62 2.46 4.05-3.61 4.86 3.29c-3.62 4.1-5.44 4.43-3.09 10.04 3.77-2.89 9.2-7.29 13.55-8.84 2.94-1.2 6.55-3.48 9.38-5.13l-22.5 18.84 37.89-24.17.32 2.87 2.48 1.25.06 1.61c-3.55.95-4.28-2-6.6.36l.75 2.23c6.01 2.92 9.91-1.84 17.76-1.34Z" class="st19"/><path d="M611.94 991.3c82.72 4.89 169.36 27.14 241.75 68l.84 2.39-2.3 2.88c-40.12-17.23-83.71-23.66-126.11-33.38-17.8-4.08-35.57-9.28-53.2-14.15-26.41-6.74-39.87-15.66-71.18-21.61l-24.08-5.91c2.75-2.18 30.71 2.16 34.28 1.77Z" class="st4"/><path d="M545.65 976.1c93.8-12.14 181.99 3.08 266.09 46.03 18.78 9.59 62.17 31.46 76.26 46.22l1.15 3.89c-1.09.93-1.55 1.44-2.86 2.05-1.73-1.14-3.76-2.28-5.57-3.34-40.94-39.35-160.77-73.07-217.86-81.73-23.84-3.61-62.59-6.88-87.25-7.87-7.8-1.87-26.45-.22-31.55-3.01l1.58-2.24ZM443.94 996.79c16.71-4.77 36.46-8.22 52-12.98l-1.93 12.48c-73.08 17.14-119.59 39-185.68 71.41-2.17.92-10.53 4.65-12.29 5.11-4 .29-14.77 4.16-18.13 6.39 1.7-3.05 4.74-5.06 7.43-9.94l.42-.77 9.77-6.02c20.21-9.26 37.52-23.03 57.68-31.68" class="st8"/><path d="m340.2 1015.63 6.38 1.93a257 257 0 0 1-17.3 12.59c-8.51 1.17-31.64 22.73-33.76 32.31l-9.77 6.02-.42.77c-2.69 4.87-5.73 6.89-7.43 9.94 3.36-2.23 14.13-6.09 18.13-6.39l-4.7 2.67c4.95 2.81 5.22 2.81 10.66 3.44-4.03 1.95-19.87 9.2-22.66 11.58h-26.71c5.4-5.07 8.48-8.26 13.27-13.9-2.08-1.81-2.35-2-5.07-2.38 3.62-4.43 10.64-10.49 11.17-15.92l-2.82-2.12 7.17-9.66 2.14 1.43c.15 1.65.2 1.53 1.3 2.81 4.68-4.06 12.43-15.86 17.79-21.41l.58-.6c3.12-4.63 5-7.11 8.67-11.31l4.62 2.46 4.05-3.61 4.86 3.29c-3.62 4.1-5.44 4.43-3.09 10.04 3.77-2.89 9.2-7.29 13.55-8.84 2.94-1.2 6.55-3.48 9.38-5.13h.01Z" class="st1"/><path d="M298.17 1028.74c3.12-4.63 5-7.11 8.67-11.31l4.62 2.46 4.05-3.61 4.86 3.29c-3.62 4.1-5.44 4.43-3.09 10.04-7.75 7.6-21.17 21.37-29.1 27.29-3.46-.18-3.14-.77-6.46-3.2-4.72 5.74-11.33 19.91-15.82 22.9-2.08-1.81-2.35-2-5.07-2.38 3.62-4.43 10.64-10.49 11.17-15.92l-2.82-2.12 7.17-9.66 2.14 1.43c.15 1.65.2 1.53 1.3 2.81 4.68-4.06 12.43-15.86 17.79-21.41l.58-.6h.01Z" class="st2"/><path d="M298.17 1028.74c3.12-4.63 5-7.11 8.67-11.31l4.62 2.46c-2.98 3.09-7.48 8.15-10.94 10.32l-2.35-1.46Z" class="st17"/><path d="M263.13 1090.49c2.71-2.48 23.76-12.71 28.21-15.02 4.95 2.81 5.22 2.81 10.66 3.44-4.03 1.95-19.87 9.2-22.66 11.58z" class="st1"/><path d="M261.38 1090.49c3.63-9.24 16.06-17.15 24.38-22l-.42.77c-2.69 4.87-5.73 6.89-7.43 9.94 3.36-2.23 14.13-6.09 18.13-6.39l-4.7 2.67c-4.45 2.31-25.5 12.54-28.21 15.02h-1.76.01Z" class="st17"/><path d="m308.33 1067.7 1.01 1.36c-1.92.98-3.53 1.8-5.37 2.92 5.28 2.83 2.15.64 6.57.88l.1 1.73-8.64 4.32c-5.44-.63-5.71-.63-10.66-3.44l4.7-2.67c1.76-.46 10.12-4.18 12.29-5.11Z" class="st1"/><path d="M880.72 1070.95c1.81 1.06 3.84 2.2 5.57 3.34 2.66 1.95 5.44 3.94 8.05 5.94-1.82.54-7.27 2.05-8.77 2.77l-5.87-3.08c1.24-1.99 2.44-3.36 2.35-5.6l-1.56-1.37.23-2.01Z" class="st3"/><path d="M528.46 980.59c5.27-1.59 11.77-3.1 17.19-4.5l-1.58 2.24c5.1 2.79 23.75 1.14 31.55 3.01-11.6.42-36.14.08-47.16-.75M853.69 1059.3c4.83 2.66 10.4 5.33 14.25 9.18.15 2.41.42 1.34-.73 3.35-4.84-2.48-10.04-4.88-14.97-7.25l2.3-2.88-.84-2.39h-.01Z" class="st17"/><path d="m725.41 760.11 41.38-9.39c-61.63-8.3 89.21-1.64 151.97 17.07 2.61 11.27-39.42 17.88-60.97 30.1-2.35 1.33 4.38 9.82 2.67 11.97-13.2 16.58-41.37 10.63-71.04 24.92-6.93 3.34-25.92 11.78-33.34 13.41-50.52 11.08-92.35 22.06-116 28.66-14.22 13.02-37.66-5.39-49.47 6.08-1.33-1.04-18.3-2.2-18.91-3.76 1.06-2.91-17.91-6.24-16.37-8.84 1.58-2.74-.99-13.4 1.15-15.79 35.32-39.35 37.6-36.29 81.65-66.02 9.07-6.12 53.98-21.21 62.98-27.22z" class="st8"/><path d="M460.81 264.03c2.87-6.44 13.88-27.95 11.55-34.8-4.64-1.62-14.55 3.64-19.45 5.74l.74-2.22c-1.12-1.54-1.74-2.09-3.31-3.17-.53-5.5 5.25-7.16 9.89-8.61 1.09-1.67 2.56-7.56 3.18-9.77.31-3.74.87-9.56 2.58-12.85 1.34-2.58 2.56-3.66 1.11-6.33-3.8 2.84-5.49 11.62-11.03 14.2-2.52 5.12-6.83 8.32-11.13 11.91 7.12-18.94 10.66-38.87 6.49-59.1-6.01-5.92.42-21.14-8.72-25.78-.89 2.19 8.97 45 1.95 56.59.58-11.12.38-22.27-.59-33.36-.42-5.26-1.38-18.85-5.23-22.13 1.94-1.36 1.98-1.42 2.97-3.63.03-3.12-2.1-5.28-4.01-7.78-3.8 6.98-13.45 19.44-18.64 25.88-15.04 18.7-18.56 34.36-24.41 57.16-3.87-5.39-10.79-16.24-16.03-19.11l-1.62 1.57 1.04 4.57-3.07-1.79c-9.11 12.68-11.69 53.96-10.53 70.61 1.58 8.3 12.71 27.66 18.05 33.11l2.26.15c1.87 10.82 7.85 32.9 1.09 41.26-3.95 4.88-5.84 2.6-6.73 10.22-1.98 5.08-3.85 10.65-7.96 14.39-2.3 2.18-14.46 7.1-16.77 7.02 1.36 5.48 3.34 21.35 6.36 25.22-2.17 2.13-4.78 3.92-5.64 6.35.48 11.34 1.2 20.08-1.36 31.2 3.49 2.25 3 2.62 7.4 1.54 1.4 5.78 5.41 3.96 10.79 4.96 7.46 1.78 8.88 1.78 16.42 1.83 16.05-2.59 18.15-7.82 30.29-17.96.67-1.65 5.49-8.68 6.79-11.06 5.67-10.34 11.5-21.56 14.72-32.96 1.33 1.22 2.48 2.23 3.87 3.38 1.71-1.89 2.26-3.85 3.21-6.23-4.51-3.85-8.61-4.06-11.51-7.12l.51-1.55 5.54-2.57-1.49-.84c-.82-3.55-.02-3.98 1.11-7.98 1.9-3.51 7.27-9.41 9.98-13.2 1.26-3.28 1.75-3.97 3.66-6.78l.27-.83c-3.27-9.68 6-13.18 2.78-18.61l-1.8.4c-1.24 4.27-1.95 6.32-3.76 10.38l-1.77.55c.65-3.3 6.44-19.1 7.85-23.2-15.61 1.91-22.05 3.04-36.86 8.12 6.06-7.44 25.11-7.09 34.6-11.22-6.76.35-28.31 4.45-30.69 3.71.57-2.78 12.74-3.21 17.65-8.2.5-2.83.67-1.68-.74-4.32-5.57 3.17-12.21 8.22-18.62 7.3 20.97-11.56 25.31-8.54 36.77-34.26M437.78 122.91s.01.02.02.03v-.02h-.03Z" class="st19"/><path d="M421.81 311.02c14.81-5.08 21.25-6.21 36.86-8.12-1.41 4.1-7.2 19.9-7.85 23.2-24.78 52.22-38.16 33.37-75.86 58.91 11.49-16.55 6.7-20.98 11.97-38.01 4.73-15.27 20.92-28.81 34.88-35.98" class="st4"/><path d="M438.85 134.34c3.85 3.28 4.81 16.87 5.23 22.13.97 11.09 1.17 22.24.59 33.36-2.66 9.06-17.43 51-27.44 51.96-2.77-2.83-1.8-4.96-3.34-9.91-2.43-1.81-1.6-1.76-4.1-1.77-2.35 3.74.44 8.64-1.73 11.89l-1.44-.83c-3.24-4.7-4.42-16.42-4.32-22.4.63-36.87 12.06-58.95 36.56-84.44ZM361.22 432.28c11.11-26.26 28.77-52.55 59.34-56.16 6.21-.73 14.48-2.84 19.67.97-3.22 11.4-9.05 22.62-14.72 32.96-1.3 2.38-6.12 9.41-6.79 11.06-12.14 10.14-14.24 15.37-30.29 17.96-7.54-.05-8.96-.05-16.42-1.83-5.38-1-9.39.82-10.79-4.96" class="st8"/><path d="M364.52 261.82c-1.16-16.65 1.42-57.93 10.53-70.61l3.07 1.79c3.08 4.7 11.53 17.31 13.35 22.01 6.95 18.02 11.94 46.1 7.91 65.32-1.22 5.8-3.16 10.87-5.54 16.1-1.11-7.48-.89-13.59-6.68-18.36l-1.87.11c-3.1 4.54-2.49 6.5-1.56 11.47.34 1.82.71 3.63 1.09 5.44l-2.26-.15c-5.34-5.45-16.47-24.81-18.05-33.11Z" class="st4"/><path d="M452.9 234.96c4.9-2.1 14.81-7.36 19.45-5.74 2.33 6.85-8.68 28.36-11.55 34.8-11.46 25.72-15.8 22.7-36.77 34.26-7.67 2.69-17.46 8.75-24.7 13.01l-.88-1.01c3-6.27 5.65-18.89 8.21-25.86 8.95-24.37 24.04-38.17 46.25-49.47h-.01ZM371.23 360.95c-.61 19.44-1.93 16.06-10.41 32.24-3.02-3.87-5-19.74-6.36-25.22 2.31.08 14.47-4.84 16.77-7.02" class="st8"/><path d="M345.42 742.06a619 619 0 0 0 25.89-78.57c2.15-8.7 6.11-32.8 8.43-39.09l1.58-.65c4.32 4 4.29 12.4 4.48 18.28 2.45 76.5-19.1 150.4-52.21 218.71-12 24.75-19.49 41.62-34.76 65.64-1.93 3.62-3.83 8.7-5.41 12.59 6.57-5.02 13.53-12.93 19.78-18.74 8.83-8.19 18.65-16.5 26.46-25.55 22.32-25.84 38.93-56.79 58.4-84.43 2.46.2 2.58.11 4.97-.68 2.39-2.96 3.14-4.21 6.5-6.03-13.31 22.48-29.42 45.86-44.3 67.29-4.38 6.31-12.91 19.54-17.46 25.05-3.48 2.91-9.58 7.62-12.12 11.05-19.73 16.33-43.77 42.63-61.67 61.48-12.88 13.55-24.96 33.85-37.9 48.63l-4.67-2.48c-9.02 9.92-19.46 19.76-28.01 29.58l-7.25 7.73c-15.93 14.64-20.05 20.34-31.74 38.62h-35.22l6.58-9.68-3.25-3.07 6.15-9.29c1.37-.71 5.8-5.88 7.16-7.37l.62-1.37c-1.15-4.32 3.43-14.58 6.44-17.2l2.25.41c6.22-1.71 31.57-41.65 39.79-50.98 5.38-4.39 17.75-20.91 21.39-26.94-2.3-5.48 6.05-14.65 9.37-19.5 6.47-8.47 14.12-23.13 21.36-30.46l2.71 2.8a1227 1227 0 0 0 95.66-175.8z" class="st19"/><path d="M145.82 1061.08c7.45-6.03 12.29-10.88 19.06-17.74l.23 2.92c2.21 1.03 2.89.86 5.41.87l1.78 1.17c-.73 2.35-4.65 5.89-6.5 7.06-5.77 6.83-11.46 13.71-17.09 20.65-1.27 1.5-3.84 4.73-5.2 5.86l-7.4 8.62h-6.92l6.58-9.68-3.25-3.07 6.15-9.29c1.37-.71 5.8-5.88 7.16-7.37z" class="st17"/><path d="M145.75 1068.67c2.14 3.63 2.99 3.73 2.95 7.34-1.27 1.5-3.84 4.73-5.2 5.86l-7.4 8.62h-6.92l6.58-9.68c1.3-1.85 2.8-3.67 4.2-5.44l5.78-6.7Z" class="st1"/><path d="M145.75 1068.67c3.49-4.42 12.76-14.73 18.24-15.73l1.81 2.42c-5.77 6.83-11.46 13.71-17.09 20.65.04-3.61-.81-3.71-2.95-7.34z" class="st3"/><path d="m373.5 722.48.07-.55-1.26-.86c-7.38 10.18-19.19 50.14-23.79 63.82-25.45 75.67-70.45 141.21-114.16 207.22-5.7 8.61-17.92 27.13-24.83 33.97-3.6 4.51-7.14 9.07-10.6 13.69 1.56 1.7 3.66 3.04 4.47 4.38 8.55-9.82 18.99-19.66 28.01-29.58 22.83-25.34 47.07-63.44 63.36-93.15 35.58-64.53 63.56-123.51 78.29-196.24l-2.18-1.28.64-1.33z" class="st8"/><path d="M198.92 1039.77c-17.1 19.3-27.27 29.6-43.89 50.72s9.37.01 9.37.01c11.69-18.28 15.81-23.98 31.74-38.62l7.25-7.73c-.82-1.34-2.91-2.68-4.47-4.38" class="st8"/><path d="M170.43 1061.11c-.63 6.84-10.98 12.8-9.85 17.59 3.17-1 40.74-46.51 47.19-53.05l1.75.42a537 537 0 0 0-10.6 13.69c-17.1 19.31-27.27 29.6-43.89 50.72h-6.32c5.19-8.51 14.87-22.88 21.72-29.39z" class="st3"/><path d="M340.16 768.41h.01zM244.55 937.96c-14.39 22.68-37.24 46.19-52.93 68.4-8.77 11.25-18.22 25.24-26.74 36.98-6.77 6.86-11.61 11.71-19.06 17.74-1.36 1.49-5.79 6.66-7.16 7.37l-6.15 9.29 3.25 3.07-6.58 9.68h19.53c5.19-8.52 14.88-22.88 21.72-29.39 13.69-17.5 31.58-34.23 45.38-51.85 12.65-16.16 23.18-34.21 34.5-51.14 21.6-32.3 41.72-65.97 59.6-100.48 7.95-15.35 13.09-32.87 19.44-48.79 5.18-12.99 10.57-25.39 15.61-38.52l-4.79-1.91c-25.95 57.44-61.73 116.15-95.62 169.55M349.7 744.02c8.36-18.36 12.55-27 14.18-29.75 5.59-12.73 10.22-23.58 11.17-26.99zM363.88 714.27c-9.54 21.72-21.91 48.94-23.71 54.13l4.8 1.91c2.41-5.8 7.81-17.28 7.59-23.55-.02-.57 15.96-40.31 11.32-32.49" class="st8"/><path d="M225.68 945.5c-3.32 4.84-11.68 14.01-9.37 19.5-3.64 6.03-16.01 22.54-21.39 26.94-8.22 9.33-33.57 49.27-39.79 50.98l-2.25-.41c-3.02 2.62-7.59 12.88-6.44 17.2l-.62 1.37c-1.35 1.49-5.78 6.66-7.16 7.37l-6.15 9.29 3.25 3.07-6.58 9.68H95.44c19.18-29.58 37.55-57.76 54.73-88.63 30.94-56.81 57.94-115.7 80.78-176.22 4.68-8.45 12.64-32.56 16.78-42.95 8.24-28.96 22.57-62.64 30.76-92.72-.93-10.95 6.03-10.14-.71-19.24 6.29-20.59 12.86-47.41 20.4-67.09.1 1.31-.75 10.17-1.05 11.7l-.12.58.31.42c2.68-6.09 3.41-10.08 9.21-13.81 1.92-2.66 3.72-6.66 5.21-9.69 1.59-5.68 4.94-20.99 8.91-24.23 2.86-5.02 3.24-.81 3.77-8.3 11.63-45.17 35.94-52.07 77.34-58.28v-.02c2.08.08 4.81.27 6.84.21-17.75 47.69-28.67 63.04-79.59 72.9-4.8 10.17-7.11 21.63-10.67 32.23-6.92 20.6-12.07 42.71-18.9 63.12-13.43 40.14-24.68 81.95-38.94 121.68-10.22 28.47-21.39 57.94-32.11 86.27 4.8 3.49-41.9 107.54-38.39 108.79" class="st19"/><path d="M311.73 592.83c2.14 1.91 2.61 2.2 3.07 4.98-18.96 58.6-36.09 118.14-55.33 176.68-2.37 7.21-4.86 15.24-7.63 22.27-22.2 66.99-52.2 137.24-81.22 201.86-3.88 8.65-18.99 30.91-20.69 37.45-7.3 12.56-27.33 43.34-32.67 54.42H95.44c19.18-29.58 37.55-57.76 54.73-88.63 30.94-56.81 57.94-115.7 80.78-176.22 4.68-8.45 12.64-32.56 16.78-42.95 8.24-28.96 22.57-62.64 30.76-92.72-.93-10.95 6.03-10.14-.71-19.24 6.29-20.59 12.86-47.41 20.4-67.09.1 1.31-.75 10.17-1.05 11.7l-.12.58.31.42c2.68-6.09 3.41-10.08 9.21-13.81 1.92-2.66 3.72-6.66 5.21-9.69h-.01Z" class="st8"/><path d="M298.17 603.63c.1 1.31-.75 10.17-1.05 11.7l-.12.58.31.42c2.68-6.09 3.41-10.08 9.21-13.81-12.24 26.16-17.09 59.93-28.04 87.44-.93-10.95 6.03-10.14-.71-19.24 6.29-20.59 12.86-47.41 20.4-67.09" class="st9"/><path d="M324.41 560.3c11.63-45.17 35.94-52.07 77.34-58.28-9.74 34.16-30.26 65.53-69.7 64.48-3.25-.94-4.32-1.09-6.92-3.42l-.72-2.77Z" class="st4"/><path d="M325.13 563.07c2.96-2.98 9.92-10.94 13.12-12.14l1.94.83c.47 6.47-7.45 10.04-8.14 14.74-3.25-.94-4.32-1.09-6.92-3.42Z" class="st9"/><path d="M149.93 1036.08c.34 11.02-22.35 33.9-22.55 44.07l1.2.78c3.83-5.04 4.21-11.37 9.5-12.78l.58.3-6.15 9.29 3.25 3.07-6.58 9.68h-11.93c5.34-11.07 25.37-41.86 32.67-54.42h.01Z" class="st15"/><path d="M123.8 1090.49c2.84-4.29 5.74-8.54 8.71-12.75l3.25 3.07-6.58 9.68z" class="st2"/><path d="M346.6 972.85c23.27-14.7 46.27-31.47 70.24-45.72 3.16 1.83 2.28.72 3.35 4.12-12.04 8.09-24.16 16.27-36.27 24.23-8.08 5.31-28.46 17.04-34.78 23.54l.4 1.63-3.02 2.9c.26 1.9.41 2 1.24 3.66-10.89 9.79-21.05 19.53-32.24 29.06l-4.05 3.61-4.62-2.46c-3.67 4.2-5.55 6.68-8.67 11.31l-.58.6c-5.36 5.56-13.11 17.35-17.79 21.41-1.1-1.27-1.15-1.16-1.3-2.81l-2.14-1.43c6.42-9.69 12.11-20.52 19.16-31.09-3.39-1.38-4.59-2.29-7.59-4.32 9.85-13.53 18.64-24.97 27.17-39.41.95-.98 7.51-10.68 8.72-12.42.48-1.62.15-2.95 0-4.74.35-.2 1.86-.5 2.35-.61.84 1.6.85 1.45 2.49 2.27 3.07-.93 5.48-4.66 7.65-7.35l4.38 2.54c18.23-19.07 25.76-40.43 42.48-59.54 2.91-2.18 7.53-6.56 10.39-9.1-2.56 1.15-3.03 1.89-5.45 1.48.14-2.76 6.56-11.33 8.82-17.07l-.93-1.69c.14-3.21 2.56-6.22 4.38-9.11 6.63-8.57 17.12-18.27 24.58-26.94 47.19-54.76 91.24-99.44 152.67-137.94l2.52 2.52c1.49-.25 2.96-.47 4.43-.83 1.24-.47 6.54-3.57 8-4.46 13.49-8.15 23.35-10.51 38.91-12.29-6.53 5.08-14.04 9.4-20.81 14.58 1.16 3.82.75 4.53-2.03 7.8l2.16 1.55-.02.02c1.96-1.13 3.51-3.98 4.54-6l.21-.4 2.26 2.31c3.34.84 9.43-6.2 12.82-8.78 5.29-4.03 26.55-17.1 32-14.43-9.86 4.32-24.46 9.81-32.17 16.86-15.92 14.56-31.22 30.95-46.33 46.34-19.45 19.58-39.3 38.77-59.52 57.55-32.63 30.87-66.83 55.16-98.57 87.67a835 835 0 0 0-33.37 36.01c-14.44 16.79-27.03 33.04-43.65 47.87" class="st19"/><path d="M393.55 882.74c-2.56 1.15-3.03 1.89-5.45 1.48.14-2.76 6.56-11.33 8.82-17.07l-.93-1.69c.14-3.21 2.56-6.22 4.38-9.11 6.63-8.57 17.12-18.27 24.58-26.94 47.19-54.76 91.24-99.44 152.67-137.94l2.52 2.52c1.49-.25 2.96-.47 4.43-.83 1.24-.46 6.54-3.56 8-4.45 13.49-8.15 23.35-10.51 38.91-12.29-6.53 5.08-14.04 9.4-20.81 14.58 1.16 3.82.75 4.53-2.03 7.8-2.25 1.26-4.63 2.65-6.91 3.82l-2.96 2.49c-9 6.01-17.58 12.31-26.65 18.43-44.06 29.73-80.96 69.18-116.27 108.53-2.14 2.39-4.23 5.42-5.8 8.15l-.81.58c-3.45 2.53-3.98 3.2-6.31 6.74l-1.59.67-2.54-3.21 4.74-8.05c-3.92-2.58-2.76-2.67-6.76-2.45-1.47 1.35-2.95 2.52-3.9 4.26-.27 6.13-2.75 12.13-6.37 17.06" class="st8"/><path d="m577.62 691.48 2.52 2.52c1.49-.25 2.96-.47 4.43-.83-15.32 10.25-28.99 18.8-43.89 30.07-51.6 39.04-91.67 89.36-136 135.89-2.4 2.52-5.61 5.45-7.76 8.03l-.93-1.69c.14-3.21 2.56-6.22 4.38-9.11 6.63-8.57 17.12-18.27 24.58-26.94 47.19-54.76 91.24-99.44 152.67-137.94" class="st9"/><path d="M443.52 836.95c19.01-24.1 45.04-50.06 67.2-71.47 25.71-24.82 57.8-46.25 87.17-66.49l3.82 3.61-2.96 2.49c-9 6.01-17.58 12.31-26.65 18.43-44.06 29.73-80.96 69.18-116.27 108.53-2.14 2.39-4.23 5.42-5.8 8.15l-.81.58c-3.45 2.53-3.98 3.2-6.31 6.74l-1.59.67-2.54-3.21 4.74-8.05z" class="st1"/><path d="M597.9 699c4.33-3.01 8.25-5.33 12.77-8 1.16 3.82.75 4.53-2.03 7.8-2.25 1.26-4.63 2.65-6.91 3.82l-3.82-3.61h-.01Z" class="st1"/><path d="m598.76 705.1 2.02 1.87c-1.78 5.16-15.63 12.26-14.13 17.19-28.43 30.57-56.73 57.4-87.57 85.65-14.22 13.02-38.68 29.14-50.49 40.61-1.33-1.04-1.43-1.72-2.04-3.28 1.06-2.91 1.95-4.32 3.49-6.92 1.58-2.74 3.66-5.76 5.8-8.15 35.32-39.35 72.22-78.8 116.27-108.53 9.07-6.12 17.65-12.42 26.65-18.43Z" class="st8"/><path d="M323.81 959.27c2.84 1.85 3.52 2.17 5.13 5.25-10.23 18.58-22.51 32.66-33.43 50.89-3.39-1.38-4.59-2.29-7.59-4.32 9.85-13.53 18.64-24.97 27.17-39.41.95-.98 7.51-10.68 8.72-12.42ZM349.13 979.01l.4 1.63-3.02 2.9c.26 1.9.41 2 1.24 3.66-10.89 9.79-21.05 19.53-32.24 29.06l-4.05 3.61-4.62-2.46c15.41-20.6 21.13-23.26 42.29-38.41Z" class="st0"/><path d="M326.17 953.93c.84 1.6.85 1.45 2.49 2.27 3.07-.93 5.48-4.66 7.65-7.35l4.38 2.54c-3.59 3.99-8.53 9.12-11.75 13.15-1.61-3.09-2.29-3.4-5.13-5.25.48-1.62.15-2.95 0-4.74.35-.2 1.86-.5 2.35-.61h.01Z" class="st4"/><path d="m608.64 698.8 2.16 1.55c-3.1 3.08-21.62 22.17-24.15 23.81-1.51-4.93 12.35-12.02 14.13-17.19l-2.02-1.87 2.96-2.49c2.28-1.17 4.66-2.56 6.91-3.82h.01Z" class="st17"/><path d="M571.34 648.46c2.86.34 3.88 1.09 6.32 2.46-26.86 36.24-44.9 52.44-92.49 59.07l-.96.13c-9.6 13.57-19.63 30.03-28.65 44.3-20.24 32.04-42.29 66.04-59.76 99.57 1.16.61 3.45 1.91 4.55 2.37-1.82 2.89-4.24 5.89-4.38 9.11l.93 1.69c-2.26 5.74-8.68 14.31-8.82 17.07 2.42.42 2.9-.33 5.45-1.48-2.86 2.54-7.48 6.92-10.39 9.1-16.72 19.1-24.25 40.47-42.48 59.54l-4.38-2.54c-2.17 2.69-4.58 6.42-7.65 7.35-1.64-.82-1.65-.67-2.49-2.27-.49.11-2 .41-2.35.61.15 1.79.48 3.12 0 4.74-1.21 1.74-7.77 11.44-8.72 12.42-8.53 14.44-17.32 25.88-27.17 39.41 3 2.04 4.2 2.94 7.59 4.32-7.05 10.57-12.74 21.39-19.16 31.09l-7.17 9.66 2.82 2.12c-.53 5.43-7.54 11.49-11.17 15.92 2.72.38 3 .57 5.07 2.38-4.79 5.64-7.87 8.82-13.27 13.9h-88.23c11.69-18.28 15.81-23.98 31.74-38.62l7.25-7.73c8.55-9.82 18.99-19.67 28.01-29.58l4.67 2.48c12.94-14.78 25.02-35.08 37.9-48.63 17.9-18.84 41.93-45.15 61.67-61.48 2.54-3.44 8.64-8.15 12.12-11.05 4.55-5.52 13.08-18.74 17.46-25.05 14.88-21.43 30.99-44.82 44.3-67.29 5.13-6.53 15.86-24.81 20.86-32.78l39.62-62.41 5.08-6.55c1.22 1.33 2.35 2.39 3.24 3.95 3.7-4.73 5.05-6.44 7.69-11.92 1.2.95 3.86 2.94 4.75 3.97l-.57 1.8.98.66c35.1-6.44 63.65-17.24 80.16-51.8h.03Z" class="st0"/><path d="M326.14 953.93c8.17-14.92 17.1-28.72 26.13-43.11 30.41-46.58 55.77-96.66 86.91-142.94 13.54-20.13 26.31-41.5 39.12-62.13 3.7-4.73 5.05-6.44 7.69-11.92 1.2.95 3.86 2.94 4.75 3.97l-.57 1.8.98.66c35.1-6.44 63.65-17.24 80.16-51.8h.03c2.86.34 3.88 1.09 6.32 2.46-26.86 36.24-44.9 52.44-92.49 59.07l-.96.13c-9.6 13.57-19.63 30.03-28.65 44.3-20.24 32.04-42.29 66.04-59.76 99.57 1.16.61 3.45 1.91 4.55 2.37-1.82 2.89-4.24 5.89-4.38 9.11l.93 1.69c-2.26 5.74-8.68 14.31-8.82 17.07 2.42.42 2.9-.33 5.45-1.48-2.86 2.54-7.48 6.92-10.39 9.1-16.72 19.1-24.25 40.47-42.48 59.54l-4.38-2.54" style="fill:url(#_Безымянный_градиент_2)"/><path d="M395.99 865.46c.14-3.22 2.56-6.22 4.38-9.11-1.1-.46-3.39-1.76-4.55-2.37-4.86 7.73-17.42 25.76-20.85 32.36-11.66 20.85-27.85 42.4-38.66 62.49l4.38 2.54c18.23-19.07 25.76-40.44 42.47-59.53 2.91-2.18 7.53-6.56 10.39-9.1-2.55 1.15-3.03 1.9-5.45 1.48.14-2.76 6.56-11.33 8.82-17.07zm-18.81 19.5c2.04-1.34 2.73-2.09 4.59-4.65-1.86 2.55-2.55 3.3-4.59 4.65" class="st4"/><path d="m231.4 1014.56 4.67 2.48c-4.51 5.31-8.92 10.62-13.77 15.63 1.44 1.24 1.89 1.95 3.6 2.48l.48.71c.14 3.78.03 4.85-.56 8.57 1.62-.8 5.37-1.65 7.28-2.14-.07.8-4.99 17.79-4.84 17.56l1.56.49c-7.69 10.3-16.39 19.94-23.85 30.14H164.4c11.69-18.28 15.81-23.98 31.74-38.62l7.25-7.73c8.55-9.82 18.99-19.67 28.01-29.58Z" class="st1"/><path d="M225.83 1044.44c1.62-.8 5.37-1.65 7.28-2.14-.07.8-4.99 17.79-4.84 17.56l1.56.49c-7.69 10.3-16.39 19.94-23.85 30.14h-11.03c9.88-16.05 17.76-32.11 30.89-46.06Z" class="st8"/><path d="M226.38 1035.87c.14 3.78.03 4.85-.56 8.57-13.12 13.95-21.01 30-30.89 46.06h-10.59c11.86-6.49 15.69-25.69 22.1-36.16 3.92-6.41 13.55-14.29 19.94-18.47" class="st19"/><path d="M199.09 1055.98c7.4-5.74 15.17-16.74 23.22-23.32 1.44 1.24 1.89 1.95 3.6 2.48l.48.71c-6.39 4.18-16.01 12.06-19.94 18.47-6.41 10.47-10.23 29.67-22.1 36.16h-5.37c2.37-4.83 8.99-14.85 9.49-19.09l-2.14-2.43c.67-2.97 10.03-11.06 12.77-12.99h-.01Z" class="st19"/><path d="m186.32 1068.98 2.14 2.43c-.5 4.23-7.11 14.25-9.49 19.09h-8.18c4.95-7.18 10.01-14.81 15.52-21.51Z" class="st17"/><path d="M335.64 906.93c.76 6.65-10.39 20.72-14.4 27.24-23.52 38.17-61.06 72.66-95.33 100.98-1.71-.53-2.16-1.24-3.6-2.48 4.85-5.01 9.25-10.32 13.77-15.63 12.94-14.78 25.02-35.08 37.9-48.63 17.9-18.84 41.93-45.15 61.67-61.48z" class="st8"/><path d="M335.64 906.93c2.54-3.44 8.64-8.15 12.12-11.05-.12 2.99-.38 5.8.1 8.74-7.59 9.2-18.03 30.58-25.98 41.54-14.46 19.92-30.17 35.46-45.76 53.75-1.63 1-6.02 3.35-6.72 4.77.41 5.04-6.28 11.05-9.66 14.62-7.53 9.41-23.61 35.37-29.91 41.03l-1.56-.49c-.15.23 4.77-16.76 4.84-17.56-1.91.49-5.65 1.34-7.28 2.14.59-3.72.7-4.79.56-8.57l-.48-.71c34.28-28.32 71.82-62.81 95.33-100.98 4.02-6.52 15.16-20.59 14.4-27.24Z" class="st19"/><path d="M269.4 1004.69c.41 5.04-6.28 11.05-9.66 14.62-7.53 9.41-23.61 35.37-29.91 41.03l-1.56-.49c-.15.23 4.77-16.76 4.84-17.56 12.73-11.27 20.76-24.58 36.29-37.6M243.12 1076.59c16.03-21.02 29.23-43.42 44.8-65.49 3 2.04 4.2 2.94 7.59 4.32-7.05 10.57-12.74 21.39-19.16 31.09l-7.17 9.66 2.82 2.12c-.53 5.43-7.54 11.49-11.17 15.92 2.72.38 3 .57 5.07 2.38-4.79 5.64-7.87 8.82-13.27 13.9h-15.02l10.29-10.03c-3.32-.95-2.33-.65-4.78-3.88Z" class="st8"/><path d="m269.18 1056.17 2.82 2.12c-.53 5.43-7.54 11.49-11.17 15.92 2.72.38 3 .57 5.07 2.38-4.79 5.64-7.87 8.82-13.27 13.9h-15.02l10.29-10.03c7.31-7.4 14.52-16.29 21.29-24.29Z" class="st1"/><path d="M260.83 1074.22c2.72.38 3 .57 5.07 2.38-4.79 5.64-7.87 8.82-13.27 13.9h-6.45c5.56-5.71 9.58-10.13 14.65-16.28" class="st17"/><path d="m259.74 1019.32 4.18 3.29c-7.4 10.78-14.1 22.38-21.94 32.75-8.62 11.4-20.62 23.4-28.52 35.13h-7.48c7.46-10.2 16.16-19.85 23.85-30.14 6.29-5.66 22.37-31.62 29.91-41.03" class="st9"/><path d="M238.86 1071.43c.4 5.17-2.97 4.94-2.95 9.99 1.63-1.79 3.3-3.54 5.01-5.24l1.43.12.77.29c2.45 3.23 1.46 2.92 4.78 3.88l-10.29 10.03h-12.59c1.51-3.4 11.19-15.76 13.84-19.06Z" class="st15"/><path d="m242.35 1076.3.77.29c2.45 3.23 1.46 2.92 4.78 3.88l-10.29 10.03h-5.11c3.48-4.55 7.23-9.12 9.85-14.19Z" class="st17"/><path d="M269.4 1004.69c.71-1.43 5.09-3.77 6.72-4.77-1.68 8.37-7.39 15.6-12.21 22.69l-4.18-3.29c3.39-3.58 10.08-9.58 9.66-14.62Z" class="st9"/><path d="M323.81 954.54c-4.11 2.61-8.96 6.39-11.35 10.72s0 0 0 .01c-22.8 29.53-43.16 61.85-64.21 92.62-1.99 2.9-8.41 10.95-9.4 13.55.4 5.18-2.96 4.95-2.95 9.99 1.62-1.79 3.3-3.54 5.01-5.24l1.43.12.77.29c16.03-21.02 29.22-43.43 44.8-65.49 9.85-13.53 18.64-24.97 27.17-39.41 0-.02-.02-.05-.03-.07 0 .02.02.05.03.07.95-.98 7.51-10.68 8.72-12.42.48-1.62.15-2.95 0-4.74Z" class="st2"/><path d="M306.75 568.72c-26.38-22.57-35.07-38.25-32.52-74.53.54-7.73 2.72-22.23.3-29.65-7.46-22.91-20.75-49.38-35.84-68.21-4.82-6.01-11.46-11.19-16.46-17.22.26-2.78.7-2.5 2.73-4.91 1.9 2.35 3.46 4.66 6.57 5.33 7.3 10.09 16.37 19.35 23.18 29.63 9.59 14.48 16.87 31.08 25.16 46.33 1 1.85 1.9 1.81 3.66 2.23l9.31 4.31c.05-2.01-.99-10.76-1.24-13.59-1.22-14.13.19-29.37 5.78-42.55.86-3.16 1.03-3.76 2.72-6.55 3.86-1.52 4.58-.61 9.35.15.44-1.84.53-2.06 1.32-3.8 2.38 1.85 1.47 1.72 3.9 1.59l1.69-2.38c1.35 14.73 9.36 22.54 18.33 34.09 5.03 8.46 5.92 9.28 9.53 19.03 4.03-6.09 7.26-10.36 9.59-17.3 3.5 2.25 3.01 2.62 7.4 1.54 1.4 5.78 5.41 3.96 10.79 4.96 7.46 1.78 8.87 1.79 16.42 1.83 16.04-2.6 18.15-7.82 30.29-17.96-.35 2.34-.48 2.41-1.93 4.35l.72 1.64c-1.76 1.91-7.44 7.46-7.69 9.69 2.4 1.26 4.03.27 7.3-.36-2.19 4.33-7.88 3.49-10.59 5.61 3.54-.11 7.25-.74 9.88 1.45 8.09 12.27-14.61 38.96-24.08 46.33-1.18 3.51-.88 4.2.04 7.61l1.28.85c1.53-.62 2.72-.96 3.98-2.05 22-1.47 90.51-27.56 104.18-20.99 1.26 3.02 1.22 1.76.27 4.75-4.52 3.24-17.88 1.14-26.25 2.75-23.29 4.48-45.12 11.08-67.23 19.46-2.03.06-4.76-.13-6.85-.21-41.4 6.21-65.71 13.11-77.34 58.28-.53 7.49-.91 3.28-3.77 8.3-3.98 3.24-7.33 18.55-8.91 24.23-1.49 3.03-3.29 7.03-5.21 9.69-5.8 3.74-6.53 7.72-9.21 13.81l-.31-.42.12-.58c.3-1.53 1.15-10.39 1.05-11.7.3-5.44 6.94-28.1 8.58-34.9v.04Z" class="st1"/><path d="m283.52 457.73 9.31 4.48c3.29 1.5 4.45 2.76 7.95.53 2.39 7.64 6.6 12.84 11.35 18.98v.65c-.74 3.49-.24 4.12-2.49 5.96l-2.45-.34c3.62 6.09 5.01 8.38 7.45 15.24 2.07 5.47 4.62 19.23 6.09 22.1 1.08 15.44.24 20.23-4.38 35.29l-8.12-6.53-.62-.56c-7.46-6.86-11.06-14.55-17.58-20.52-2.26-.15-4.6-1.81-6.69-3.01-5.72-24.28-2.66-41.46.77-65.75-2.52-2.79-2.5-1.87-2.47-4.7l1.87-1.82Z" class="st8"/><path d="M284.11 464c-2.52-2.69-2.5-1.79-2.47-4.52l1.87-1.75 9.31 4.31c3.29 1.44 4.45 2.66 7.95.5 2.39 7.35 6.6 12.35 11.35 18.25l14.01 10.83c-.74 3.36-5 5.98-7.25 7.75" class="st1"/><path d="M297.38 405.9c4.21.83 3.91-1.46 7.39-.83 17.68 7.16 35.21 46.38 33 65.37-.49 4.2-1.49 10.22-1.3 14.25-1.72.14-2.78.39-4.44.06-2.53-1.89-4.71-2-7.85-2.57-5.09-1.13-6.78-1.26-12.02-1.39-4.76-5.9-8.96-10.9-11.35-18.25-3.51 2.15-4.66.93-7.95-.5.05-2.01-.99-10.76-1.24-13.59-1.22-14.13.19-29.37 5.78-42.55z" class="st4"/><path d="M297.38 405.9c4.21.83 3.91-1.46 7.39-.83-10.36 14.71-9.37 40.86-3.98 57.47-3.51 2.15-4.66.93-7.95-.5.05-2.01-.99-10.76-1.24-13.59-1.22-14.13.19-29.37 5.78-42.55" style="fill:url(#_Безымянный_градиент_6)"/><path d="M372.01 437.24c7.46 1.78 8.87 1.79 16.42 1.83-7.4 1.08-20.88 14.39-28.04 14.49-.45-6.75 4.74-9.22 9.33-11.48.9-1.9 1.67-3.51 2.29-4.84M416.41 443.5c-2.64-2.19-6.34-1.56-9.88-1.45-24.7 5.67-38.49 10.56-52.69 33.3-4.07 6.52-7.53 13.39-10.35 20.54-.67 1.83-1.35 4.01-2.29 5.67.37 4.48.87 8.74.43 13.24 4.43-2.59 10.34-6.28 14.76-8.59 6.71-1.44 7.75-2.11 12.9-6.45-.43-2.35 9.7-4.76 23.05-9.93 9.47-7.37 32.16-34.06 24.08-46.33Z" class="st8"/><path d="M615.87 491.96c1.48-1.86 4.92-20.97 5.17-24.24l1.01-.67c1.17 8.79-3.43 20.87-2.12 26.7l.88 1.92c-.77 3.79-4.65 19.62-3.93 21.85l1.24-.09c.67-.13 2.19-.05 2.94-.04l1.51 1.98c3.45-1.16 10.17-10.67 12.56-13.89l3.37-.23c6.68 12.25 42.48.42 52.41-4.88l-3.85 4.31.24 1.34c3.78-.46 5.59-1.18 9.17-2.4-2.29 2.46-4.75 5.01-6.9 7.57a912 912 0 0 0-7 14.85c16.62-4.23 31.03-9.09 48.26-8.17-11.82 4.85-21.1 7.84-33.46 11.08-3.88 1.01-16.22 4.12-19.43 5.45l.93-2.94-1.08-1.03-6.04 1.15c-13.17 11.9-29.31 27.26-43 38.34.98 4.55-.04 12.65-4.24 15.4.41 1.85.91 2.5-.54 4.17-8.02 9.28-20.21 16.1-29.21 24.89l4.23 3.88c-.88 1.7-3.38 5.99-3.38 7.61-6.85 14-15.22 12.75-17.53 23.62-.28 1.35.05.33-.42 1.43-2.45-1.37-3.47-2.12-6.32-2.46-16.51 34.56-45.06 45.36-80.16 51.8l-.98-.66.57-1.8c-.9-1.03-3.55-3.02-4.75-3.97 1.26-3.44 2.14-4.06 1.51-7.23l-1.01.55c-2.22-2.82-3.32-2.84-6.53-3.17l.09-1.13c3.5-3 6.22-7.33 9.96-9.28 12.24-14.17 17.84-22.62 25.67-39.71l.09-3.16 1.21-1.46c2.75-1.01 6.98-1.25 8.34-2.22 10.63-14.97 19.99-25.89 22.52-44.41 2.63 3.7 1.43 3.14 5.21 4.36l1.62-.37c4.53-5.36 5.43-6.77 8.72-12.92 4.54-1.79 5-1.45 8.28-5.34 13.96-19.84 9.84-31.92 14.04-52.75l.2-.95 2.72.82c2.23 6.35.59 11.56 1.17 17.31-.25 3.37-.84 6.37.39 9.41l1.42.38c7.08-3.07 17.71-27.44 20.05-35.43 1.35-4.61 2.14-11.03 4.18-15.19z" class="st19"/><path d="M586.73 628.43c.85-1.14 2.71-2.73 3.84-3.76 3.31-.5 1.96-.76 5.04 1.19-6.85 14-15.22 12.75-17.53 23.62-.28 1.35.05.33-.42 1.43-2.45-1.37-3.47-2.12-6.32-2.46-16.51 34.56-45.06 45.36-80.16 51.8l-.98-.66.57-1.8c-.9-1.03-3.55-3.02-4.75-3.97 1.26-3.44 2.14-4.06 1.51-7.23l-1.01.55c-2.22-2.82-3.32-2.84-6.53-3.17l.09-1.13c3.5-3 6.22-7.33 9.96-9.28 12.24-14.17 17.84-22.62 25.67-39.71 4.11-.25 6.04-1.55 9.29-4.51h1.6c1.67 3.72 1.52 4.74 1.53 8.77-1.45 2.21-1.47 1.48-1.09 3.45-5.3 4.44-8.53 6.87-12.76 12.42 3.31.1 8.33-2.8 11.48-4.33 8.12-3.97 15.22-5.71 24.09-7.38 13.98-.53 28.26-1.71 36.9-13.83h-.02Z" class="st4"/><path d="M515.71 633.85c4.11-.25 6.04-1.55 9.29-4.51h1.6c1.67 3.72 1.52 4.74 1.53 8.77-1.45 2.21-1.47 1.48-1.09 3.45-5.3 4.44-8.53 6.87-12.76 12.42l-1.74 1.83c.26 4.01.61 3.29 3.32 7.08-6.58 5.12-10.22 9.16-15.42 15.74-5.31.78-10.8 2.36-12.9 7.98l-1.01.55c-2.22-2.82-3.32-2.84-6.53-3.17l.09-1.13c3.5-3 6.22-7.33 9.96-9.28 12.24-14.17 17.84-22.62 25.67-39.71v-.02Z" class="st1"/><path d="M487.53 686.6c2.09-5.62 7.58-7.19 12.9-7.98-1.39 2.9-8.13 17.68-9.65 19.17-.9-1.03-3.55-3.02-4.75-3.97 1.26-3.44 2.14-4.06 1.51-7.23h-.01Z" class="st9"/><path d="m575.99 573.57.26-.45c25.09-42.07 60.1-46.34 102.47-57.17-2.24 7.43-1.52 10.57-6.97 15.61-13.17 11.9-29.31 27.26-43 38.34-2.52 1.4-6.14 3.19-8.21 5.03-14.13 1-29.42-1.64-44.56-1.37h.01Z" class="st0"/><path d="M586.73 628.43c-.58-.59-1.15-1.18-1.71-1.79-2.84-3.06-2.91-3.42-2.76-6.84 2.33-2.56 8.88-4.21 12.51-5.43l4.23 3.88c-.88 1.7-3.38 5.99-3.38 7.61-3.08-1.95-1.73-1.69-5.04-1.19-1.13 1.03-2.99 2.62-3.84 3.76Z" class="st7"/><path d="m624.52 585.32-3.24-1.27c-21.62 2.35-46.78 7.2-65.2 18.95-6.83 2.9-26.7 20.88-24.65 28.11l2.29 1.75c.09 4.98-2.14 6.5-6.69 8.7-5.3 4.44-8.53 6.87-12.76 12.42 3.31.1 8.33-2.8 11.48-4.33 8.12-3.97 15.22-5.71 24.09-7.38 13.98-.53 28.26-1.71 36.9-13.83.85-1.14 2.71-2.73 3.84-3.76 3.31-.5 1.96-.76 5.04 1.19 0-1.62 2.5-5.9 3.38-7.61l-4.23-3.88c9.01-8.79 21.2-15.61 29.21-24.89 1.45-1.67.95-2.31.54-4.17" class="st17"/><path d="M620.55 574.94c2.08-1.85 5.69-3.63 8.21-5.03.98 4.55-.04 12.65-4.24 15.4l-3.24-1.27c-1.99-1.13-6.66-.86-9.19-.9 1-.59 4.32-1 5.68-1.23 1.38-2.36 1.6-1.87 1.44-4.12l-4.24-.13 5.59-2.72z" class="st15"/><path d="M975.82 542.11c21.28-11.72 43.18-28.37 59.49-46.2 2.8-3.06 8.62-9.28 12.62-10.03.27 9.18-46.54 52.57-55.45 59.84-66.2 53.99-147.18 87.98-229.95 106.96-37.29 8.34-60.87 7.04-99.9 20.38-5.45-2.67-26.71 10.39-32 14.43-3.38 2.58-9.48 9.62-12.82 8.78l-2.26-2.31-.21.4c-1.04 2.02-2.58 4.87-4.54 6l-2.16-1.55c2.78-3.27 3.19-3.97 2.03-7.8 6.78-5.18 14.28-9.5 20.81-14.58-15.56 1.78-25.42 4.14-38.91 12.29-1.47.89-6.76 3.99-8 4.46-1.47.36-2.93.58-4.43.83l-2.52-2.52c15.07-10.7 74.3-45.15 90.64-48.86 27.09-19.16 140.79-39.48 177.07-49.77 53.52-15.17 80.74-23.63 130.48-50.74Z" style="fill:url(#_Безымянный_градиент_8)"/><path d="M975.82 542.11c-1.37 10.04-3.21 6.25-4.48 9.48-1 6.67-12.83 12.69-18.8 16.41l-8.49 4.74c-1.92.99-8.72 4.67-10.35 5.25l-10.19 4.43c-25.08 9.95-55.56 21.48-81.59 27.6-9.54.47-25.18 5.64-35.33 7.58-31.42 6.02-62.43 12.74-92.83 22.87-8.87 2.96-18.88 5.31-27.42 9.02l-5.34 1.62-11.41 4.15c-1.96-1.12-3.04-2.87-4.45-4.69l-5.01 1.72c5.26-8.8 34.27-14.58 47.25-22.88-10.38 2.21-32.76 13.15-39.13 13.19 27.09-19.16 140.79-39.48 177.07-49.77 53.52-15.17 80.74-23.63 130.48-50.74z" class="st9"/><path d="M915.69 576.2c3.03.11 5.38-.18 7.58 1.93.49 1.89.78 2.39.25 4.29-25.08 9.95-55.56 21.48-81.59 27.6-9.54.47-25.18 5.64-35.33 7.58-31.42 6.02-62.43 12.74-92.83 22.87-8.87 2.96-18.88 5.31-27.42 9.02l-5.34 1.62-11.41 4.15c-1.96-1.12-3.04-2.87-4.45-4.69l13.22-5.78c22.2-8.41 44.18-16.07 67.22-21.83 57.56-14.37 114.63-25 170.1-46.76" class="st8"/><path d="M971.34 551.59c-1 6.67-12.83 12.69-18.8 16.41l-2.35-5.23c5.17-1.87 16.33-8.38 21.14-11.18Z" class="st17"/><path d="m915.69 576.2 13.93-5.53c2.06 2.37 4.37 3.96 4.09 7.31l-10.19 4.43c.53-1.91.24-2.41-.25-4.29-2.19-2.11-4.54-1.81-7.58-1.93Z" class="st8"/><path d="M929.62 570.68c2.64-1.14 5.69-2.14 8.42-3.12 2.4 1.68 4.36 2.77 6.02 5.18-1.92.99-8.72 4.67-10.35 5.25.28-3.35-2.03-4.94-4.09-7.31" class="st4"/><path d="m950.2 562.77 2.35 5.23-8.49 4.74c-1.66-2.41-3.61-3.5-6.02-5.18 3.05-.92 8.98-3.52 12.16-4.79" class="st17"/><path d="M700.5 648.04c.14-.53.32-1.09.56-1.7 1.38-3.51 7.28-5.53 10.21-7.18 12.68-7.13 29.1-9.88 43.1-13.07 25.37-5.77 51.13-8.98 76.61-14 4.13-.81 10.73-2.8 14.79-.79 6.8 3.37 5.35 12.2 1.33 8.85-3.91-3.26 2.18-5.88 4.36-5.51-17.29 11.03-45.35 12.78-64.93 17-26.57 5.72-53.76 10.05-79.86 17.73 4.43 4.09-8.68 8.15-6.18-1.34Z" class="st9"/><path d="M631.36 667.73c7.39-5.4 14.53-9.21 22.9-12.77 1.69 1.78 2.82 3.28 5.01 4.36-9.44 3.92-18 6.14-27.92 8.41Z" class="st4"/><path d="M848.39 616.78c-7.03.52-13.99 2.95-20.83 4.69-36.33 9.25-75.07 14.35-110.47 26.99 5.03 2.57 9.79 1.86 15.57 1.75 29.51-1.01 89.93-19.55 117.63-31.63z" class="st17"/><path d="m660.14 652.3 5.01-1.72c1.41 1.81 2.49 3.56 4.45 4.69l-10.32 4.06c-2.19-1.08-3.32-2.58-5.01-4.36l5.87-2.66Z" class="st8"/><path d="m98.77 406.16 2.48-4.56c2.04 4.64-4.11 30.29 1.65 37.9 1.87 13.71 9.77 40.86 19.84 50.19l1.25-.38c1.07-5.95 1.28-5.56 5.22-9.15l1.5 9.57c1.59 1.75 3.05 3.6 5 4.88.52-2.46 1.06-4.92 1.63-7.37 2.69-9.85 5.39-16.32 9.94-25.34l4.04-7.44c1.37-4.31 2.92-8.43 4.49-12.67 2.47 3.86 3.05 8.23 3.96 12.72 1.72 26.27 3.7 33.01.81 60.99 2.14-.08 4.4-.43 6.27.48l.48-.36c3.8-3.34 2.76-3.37 7.15-4.22 2.08 1.25 3.03 1.69 3.55 4.71 1.62 9.47-1.21 46.05-4.67 53.39l-1 .25-.85 6.82c-3.18 8.32-22 31.37-28.21 41.64-2.82 6.2-3.68 8.15-5.2 14.94l-.82.1-2.77-1.22-1.55-4.83c-.51 2.12-.52 3.18-.65 5.37-1.1-5.67-3.17-10.98-2.14-16.22-7.12-1.72-6.03-3.76-13.36-2.65-11.12-10-14.78-13.76-20.16-27.88-2.55-8.13-11.23-44.22-8.94-50.96 3.08-.69 5.42 1.03 8.43 2.53.37-3.02.58-3.51-.11-6.4l-2.13-1.09c-5.16-13-8.83-29.42-11.62-43.79-1.82-9.37-5.82-27.12-4.92-37.16.85-1.26 1.56-2.32 2.13-3.17l2.34-.99 1.44 1.03c.25 1.77.57 2.89.05 4.61 3.68 2.73 5.25 4.07 8.5 7.3l4.28-2.5c.97 1.2 2.16 2.28 3.28 3.36l1.1-.54c-2.3-15.41-5.4-36.5-1.68-51.92z" class="st15"/><path d="M83.3 450.45c3.68 2.73 5.25 4.07 8.5 7.3 2.24 2.19 4.4 4.44 6.49 6.77 26.29 29.51 31.7 55.65 29.55 94.32-7.74-8.68-18.11-14.55-24.78-23.43-8.35-11.11-21.74-74.69-19.76-84.95Z" class="st8"/><path d="M167.31 515.62c3.8-3.34 2.76-3.37 7.15-4.22 2.08 1.25 3.03 1.69 3.55 4.71 1.62 9.47-1.21 46.05-4.67 53.39l-1 .25-.85 6.82c-3.18 8.32-22 31.37-28.21 41.64-1.22-1.64-3.19-3.68-4.61-5.23 5.21-5.58 9.42-11.66 13.91-17.84-8.32-2.06-9.72-7.41-17.27-5.51-1.07-24.93 17.13-52.51 33.93-69.33-1.12-1.39-1.61-2.71-2.4-4.34l.48-.36v.02Z" class="st4"/><path d="M167.31 515.62c3.8-3.34 2.76-3.37 7.15-4.22 2.08 1.25 3.03 1.69 3.55 4.71 1.62 9.47-1.21 46.05-4.67 53.39l-1 .25-.85 6.82c-3.18 8.32-22 31.37-28.21 41.64-1.22-1.64-3.19-3.68-4.61-5.23 5.21-5.58 9.42-11.66 13.91-17.84 5.37-5.81 13.7-21.01 16.91-28.54.25-1.58.46-3.16.65-4.75.86-7.2 3.58-35.88-.9-41.55-1.12-1.39-1.61-2.71-2.4-4.34l.48-.36v.02Z" class="st1"/><path d="M155.8 441.79c2.47 3.86 3.05 8.23 3.96 12.72 1.72 26.27 3.7 33.01.81 60.99-1.55 9.33-17.85 29.26-24.59 43.07-.59-20.22-5.08-45.36-.28-63.96.52-2.46 1.06-4.92 1.63-7.37 2.69-9.85 5.39-16.32 9.94-25.34l4.04-7.44c1.37-4.31 2.92-8.43 4.49-12.67" class="st8"/><path d="M96.62 585.85c-2.55-8.13-11.23-44.22-8.94-50.96 3.08-.69 5.42 1.03 8.43 2.53 24.81 26.38 35.4 37.87 34.08 77.47l-.06 1.49c-7.12-1.72-6.03-3.76-13.36-2.65-11.12-10-14.78-13.76-20.16-27.88z" class="st4"/><path d="M135.3 589.64c7.55-1.9 8.95 3.45 17.27 5.51-4.49 6.17-8.7 12.25-13.91 17.84-3.7-8.45-3.39-14.34-3.36-23.35" class="st8"/><path d="M82.21 583.44c2.4 2.69 3.84 4.5 6.81 6.58l1.39-.34.41-3.01 5.79-.82c5.37 14.11 9.03 17.88 20.16 27.88 7.33-1.11 6.25.93 13.36 2.65-1.04 5.24 1.04 10.55 2.14 16.22.13-2.19.14-3.25.65-5.37l1.55 4.83 2.77 1.22.82-.1c3.37 8.29 18.93 6.22 27.07 5.34 1.66-2.69 3.37-6.03 4.9-8.85 3.8 5.75 2.15 6.21-1.54 12.1-2.88 5.48-4.4 6.41-1.71 12.2-12.49 12.51-34.9 44.81-37.82 61.52 1.18 4.06 2.2 7.2 3.68 11.15 1.03 10.36.93 20.81-.29 31.15-.3 2.7-1.63 9.5-1.7 11.42l2.01 5.04c-.95 1.53-1.75 2.53-2.11 4.3l-.47-1.89-1.2-2.64-1.69-.18c-1.13 1.51-2.18 2.78-3.04 4.46l-.58.13c1.01 11.26-20.8 98.83-25.76 112.78-.54-2-.87-4.28-2.32-5.64l-3.04 3.25-2.04 7.06c-5.12 4.08-2.88 7.95-6.61 13.5.22-3.98.16-5.3 1.52-9.08l-1.11-2.71.91-4.85c.57-3.15.4-6.38.38-9.6 4.92-5.29 8.99-18.43 10.12-25.65 2.13-6.58 4.04-15.81 5.66-22.74 4.3-23.83 9.05-37.45 11.81-63.86-12.1-7.47-13.39-12.01-18.9-25.05l5.91-.63c-5.93-13.68-20.31-85.8-12.64-97.23 1.16-3 .88-4.07-.29-6.68-5.79-12.48-5.31-43.81-4.98-57.83z" class="st15"/><path d="M100.12 745.17c-5.93-13.68-20.31-85.8-12.64-97.23 43.16 56 37.72 51.5 25.64 118.57-4.92-7.16-9.25-13.47-13-21.34" class="st8"/><path d="M87.64 592.77a161.3 161.3 0 0 1 31.8 38.13c2.17 4.4 4.26 8.62 6.23 13.13 2.43 9.69 2.57 15.75 2.32 25.75-.58 1.26-2.73 15.18-3.11 17.5l-.38-.55c-8.24-11.85-17.48-21.41-26.01-32.51-10.76-14.02-11.12-43.66-10.86-61.44Z" class="st4"/><path d="M123.59 778.41c1.01 11.26-20.8 98.83-25.76 112.78-.54-2-.87-4.28-2.32-5.64l-3.04 3.25c5.81-25.51 15.26-50.95 20.21-76.74 1.85-9.64 2.93-19.49 5.73-28.92.78-2.62 2.91-3.55 5.18-4.73" class="st0"/><path d="M116.78 613.72c7.33-1.11 6.25.93 13.36 2.65-1.04 5.24 1.04 10.55 2.14 16.22.13-2.19.14-3.25.65-5.37l1.55 4.83 2.77 1.22c-2.43 15.21-.56 28.93-1.88 37.91-5.08-6.6 1.52-26.07-3.01-32.3l-1.03.3c-4.21 10.09 0 33.74-1.99 38.42l-1.42-.23c.45-2.93.71-4.61.08-7.6.24-10 .11-16.06-2.32-25.75-1.97-4.5-4.06-8.73-6.23-13.13l3.9-4.18c-2.52-4.54-4.37-8.32-6.56-12.99z" class="st19"/><path d="M116.78 613.72c7.33-1.11 6.25.93 13.36 2.65-1.04 5.24 1.04 10.55 2.14 16.22l-2.11 5.1c-2.32-2.75-4.95-7.72-6.83-10.97-2.52-4.54-4.37-8.32-6.56-12.99Z" class="st4"/><path d="M320.35 1019.56c-2.49 2.81-4.12 3.85-4.13 6.05.02-2.19 1.66-3.23 4.14-6.04h-.01Z" style="fill:url(#_Безымянный_градиент_9)"/><path d="m363.93 982.93 36.44-37.89-53.87 38.51v.02l17.42-.63Z" style="fill:url(#_Безымянный_градиент_91)"/><path d="M347.74 987.22v-.01c-10.89 9.79-21.05 19.53-32.23 29.05h.01c11.18-9.52 21.34-19.25 32.23-29.04Z" style="fill:url(#_Безымянный_градиент_92)"/><path d="M347.75 987.21c12.21-10.55 16.51-13.75 31.82-19.73-8.39 7.19-23.88 18.47-30.38 25.8 2.13 2.54.99 1.86 4.3 2.52 3.31.53 4.17 1.09 7.03 2.58-7.24 5.53-13.91 12.54-20.32 17.24-2.82 1.66-6.43 3.93-9.38 5.13-4.34 1.55-9.77 5.95-13.55 8.84-2.35-5.61-.53-5.94 3.09-10.04l-4.86-3.29c11.19-9.53 21.35-19.27 32.24-29.06h.01Z" class="st9"/><path d="M560.58 860.12c-11.52 4.18-22.18 8-32.97 13.76-35.27 9.62-141.68 67.06-200.03 139.57h-.01c-2.76 2.16-4.68 3.65-7.21 6.11-3.62 4.1-5.44 4.43-3.09 10.04 3.78-2.89 9.21-7.29 13.55-8.84L391.78 977c3.71-4.87 25.68-18.54 37.99-33.67 1.44-1.77 109.05-66.35 109.48-68.25 8.74-4.34 19.04-8.59 26.95-11.62 3.01-1.82 2.77-1.03 3.75-3.64-2.92-1.15-6.11-.22-9.37.3" class="st0"/><path d="M584.2 488.1c-.49-9.86 2.43-41.36 9.8-46.99l1.32.78c.3 9.5-10.6 31.94-3.97 38.55 4.74-1.61 13.85-18.06 18.45-23.1 6.01-6.6 13.46-5.21 16.39-8.73 7.54-9.02 14.75-19.32 22.44-28.6 5.59-6.75 14.09-12.21 19.3-18 9.51-10.56 19.47-25.02 27.94-36.45 5.69-7.67 17.98-38.41 23.85-40.35l1.12 1.51c.22 9.25-20.46 41.93-26.72 50.45-3.63 4.93-15.18 18.76-17.08 23.42 1.5 2.63 1.87 3.43 2.82 6.31-1.14.11-7.09.33-7.4.4-18.95 12.26-42.48 38.94-47.44 61.65-1.47 6.76-2.37 19.29-5.07 24.81-1.32-5.83 3.28-17.91 2.12-26.7l-1.01.67c-.26 3.26-3.7 22.38-5.17 24.24-2.04 4.16-2.84 10.58-4.18 15.19-2.34 7.99-12.96 32.36-20.05 35.43l-1.42-.38c-1.23-3.05-.64-6.04-.39-9.41-.58-5.75 1.06-10.96-1.17-17.31l-2.72-.82-.2.95c-4.2 20.84-.08 32.91-14.04 52.75-3.29 3.89-3.74 3.55-8.28 5.34-3.28 6.14-4.19 7.55-8.72 12.92l-1.62.37c-3.79-1.22-2.58-.66-5.21-4.36.4-5.3.46-46.31-.71-49.25 2.13-3.59 3.13-4.43.23-7.3 5.21-1.41 12.31-14.95 16.24-20.43 6.41-11.87 8.27-12.22 20.58-17.53z" class="st9"/><path d="M569.56 506.83c3.38-4.51 10.91-13.2 16.09-15.21l1.85.85c1.96 5.69-.47 16.05-1.56 22.18l-.2.95c-4.2 20.84-.08 32.91-14.04 52.75-3.29 3.89-3.74 3.55-8.28 5.34-3.28 6.14-4.19 7.55-8.72 12.92-2.94-5.01-1.64-19.61-1.52-25.68.42-22.46 3.54-35.55 16.38-54.08z" class="st4"/><path d="M563.42 573.68c-.2-3.32.83-12.69 2.48-15.56 3.92 1.05 3.08 6.85 5.8 10.22-3.29 3.89-3.74 3.55-8.28 5.34" class="st2"/><path d="M589.83 532.78c.52-1.49.7-10.06.65-11.89-.84-29.46 7.89-45.61 30.21-65.22-1.97 10.62-4.6 25.58-4.83 36.29-2.04 4.16-2.84 10.58-4.18 15.19-2.34 7.99-12.96 32.36-20.05 35.43l-1.42-.38c-1.23-3.05-.64-6.04-.39-9.41ZM672.44 407.29c.31-.08 6.26-.29 7.4-.4 1.26 6.98-.09 18.14 1.57 22.09l-1.28 1.64c1.86.71 3.34 1.2 5.24 1.78-2.93 4.67-13.54 20.68-14.2 24.86l.52.6c1.06-.32 18.22-12.71 23.69-15.32-4.28 7.92-6.25 9.92-12.21 16.56 6.22-1.58 8.63-2.29 14.66-4.89l-2.12 3.8c.53 1.83.6 2.36 1.68 4-23.38 8.07-45.57 21.62-58.88 43.23l-3.37.23c-2.4 3.22-9.11 12.73-12.56 13.89l-1.51-1.98c-.76 0-2.27-.09-2.94.04l-1.24.09c-.72-2.23 3.16-18.06 3.93-21.85l-.88-1.92c2.71-5.52 3.6-18.05 5.07-24.81 4.96-22.7 28.49-49.39 47.44-61.65Z" class="st8"/><path d="m671.17 457.26.52.6c1.06-.32 18.22-12.71 23.69-15.32-4.28 7.92-6.25 9.92-12.21 16.56 6.22-1.58 8.63-2.29 14.66-4.89l-2.12 3.8c.53 1.83.6 2.36 1.68 4-23.38 8.07-45.57 21.62-58.88 43.23l-3.37.23c-.38-7.16 4.15-4.79 2.71-10.83 2.66-3.03 4.87-5.93 7.31-9.12 8.6-9.51 15.93-25.99 20.74-37.67 2.3 1.67 3 2.08 4.69 4.34l.58 5.08Z" class="st1"/><path d="M672.44 407.29c.31-.08 6.26-.29 7.4-.4 1.26 6.98-.09 18.14 1.57 22.09l-1.28 1.64c1.86.71 3.34 1.2 5.24 1.78-2.93 4.67-13.54 20.68-14.2 24.86l-.58-5.08c-1.7-2.26-2.39-2.67-4.69-4.34 3.35-9.94 12.3-31.66 6.54-40.55" class="st3"/><path d="M637.85 494.64c1.44 6.05-3.08 3.67-2.71 10.83-2.4 3.22-9.11 12.73-12.56 13.89l-1.51-1.98c-.76 0-2.27-.09-2.94.04 6.97-7.04 8.74-12.93 19.73-22.78Z" class="st15"/><path d="M364.52 261.82c1.57 8.3 12.71 27.66 18.05 33.11l2.26.15c1.87 10.82 7.85 32.9 1.09 41.26-3.95 4.88-5.84 2.61-6.73 10.22-1.98 5.08-3.85 10.65-7.96 14.39-2.3 2.19-14.46 7.1-16.77 7.02l-.25-4.37c-3.7-7.27-9.88-16.19-14.29-23.57-4.68-23.18 3.64-45.38 3.09-65.14.64-4.03.82-9.47 3.32-12.12 3.67.97 3.38 1.61 6.5 4.6 2.09-3.59.84-2.45 4.85-4.19 1.85-.64 4.83-1.04 6.84-1.38z" class="st8"/><path d="M364.52 261.82c1.57 8.3 12.71 27.66 18.05 33.11l2.26.15c1.87 10.82 13.48 34.39 6.72 42.75-3.95 4.88-11.47 1.12-12.36 8.73-2.05-33.98-2.41-53.88-26.36-79.18 2.09-3.59.84-2.45 4.85-4.19 1.85-.64 4.83-1.04 6.84-1.38Z" class="st3"/><path d="M108.97 372.48c3.35.64 4.24 2.04 6.51 4.49 10.97 23.83 27.63 46.52 27.58 74.46l3.49-2.16c2.56 2.04 3.12 2.39 4.75 5.19l-4.04 7.44c-4.54 9.01-7.24 15.49-9.94 25.34-.57 2.45-1.12 4.91-1.63 7.37-1.95-1.28-3.41-3.13-5-4.88l-1.5-9.57c-3.94 3.59-4.15 3.2-5.22 9.15l-1.25.38c-10.06-9.33-17.96-36.48-19.84-50.19-2.62-23.76 4.94-39.6 1.65-63.19l1.56-2.21 2.58-.18.29-1.44Z" class="st4"/><path d="M108.97 372.48c3.35.64 4.24 2.04 6.51 4.49 10.97 23.83 27.63 46.52 27.58 74.46l3.49-2.16c2.56 2.04 3.12 2.39 4.75 5.19l-4.04 7.44c-4.54 9.01-7.24 15.49-9.94 25.34-.57 2.45-1.12 4.91-1.63 7.37-1.95-1.28-3.41-3.13-5-4.88l-1.5-9.57.39-3.53 4.56.83c1.33-6.38 2-10.57 2.7-17.04.44-24.93-4.6-39.57-16.82-61.43-4.72-8.44-8.74-15.73-11.35-25.06l.29-1.44h.01Z" class="st1"/><path d="m136.85 460.41 1.99.34c2.5 7.36-5.18 12.04-1.51 26.49-.57 2.45-1.12 4.91-1.63 7.37-1.95-1.28-3.41-3.13-5-4.88l-1.5-9.57.39-3.53 4.56.83c1.33-6.38 2-10.57 2.7-17.04Z" class="st19"/><path d="m129.59 476.62 4.56.83c-.78 3.55-1.85 9.24-3.46 12.27l-1.5-9.57.39-3.53z" class="st17"/><path d="M146.56 449.26c2.56 2.04 3.12 2.39 4.75 5.19l-4.04 7.44c-3.08-1.56-3.48-1.77-5.02-4.84-.28-2.72-.42-3.23.81-5.63l3.49-2.16ZM122.74 489.69c1.01-6.43-4.64-20.17 3.45-21.96 2.42 2.1 2.66 5.53 3.41 8.89l-.39 3.53c-3.94 3.59-4.15 3.2-5.22 9.15l-1.25.38Z" class="st3"/><path d="m320.31 334.22.01.01v-.01zM360.82 393.2c-3.02-3.87-5-19.74-6.36-25.22l-.25-4.37c-3.7-7.26-9.88-16.19-14.29-23.57-2.41.82-3.72 1.01-5.38 2.87l-.71.02c-6-2.67-8.47-4.55-13.51-8.7-1.62 3.11-1.41 4.58-1.43 7.99l-5.43 1-.21 1.08c2.29 1.16 3.19 1.73 4.79 3.75.5 5.59-1.03 17.37-1.47 23.52-.63 8.8-.6 14.48-.2 23.36 1.35 14.73 9.36 22.54 18.32 34.08 5.03 8.46 5.93 9.28 9.53 19.03v.02c4.02-6.09 7.26-10.36 9.59-17.3 2.56-11.12 1.84-19.86 1.36-31.2.86-2.43 3.47-4.22 5.64-6.35Z" class="st4"/><path d="M334.54 342.9c1.66-1.86 2.97-2.05 5.38-2.87 4.41 7.38 10.59 16.31 14.29 23.57l-1.5 3.78c-2.48.92-3.12.76-5.82.75-3.31-7.2-7.13-11.73-12.44-17.3-.08-2.41.06-5.46.1-7.92h-.01Z" class="st19"/><path d="m354.21 363.61.25 4.37c1.36 5.48 3.34 21.35 6.36 25.22-2.17 2.13-4.78 3.92-5.64 6.35l-.57-.1c-.79-9.52-4.29-22.41-7.72-31.32 2.7.02 3.35.18 5.82-.75l1.5-3.78Z" class="st3"/><path d="M320.31 334.22c5.05 4.16 7.52 6.04 13.52 8.71l.71-.02c-.04 2.47-.19 5.51-.1 7.92-6.16-3.67-10.33-7.8-16.41-2.78-1.6-2.02-2.5-2.59-4.79-3.75l.21-1.08 5.43-1c.02-3.42-.19-4.89 1.43-8" class="st19"/><path d="m92.47 888.8 3.04-3.25c1.45 1.36 1.78 3.64 2.32 5.64-11.63 45.44-53.62 162.02-79.94 199.31H0v-1.79c27.83-36.94 71.56-145.76 84.23-191.14l1.11 2.71c-1.36 3.78-1.3 5.11-1.52 9.08 3.72-5.55 1.48-9.41 6.61-13.5z" class="st0"/><path d="m84.23 897.56 1.11 2.71c-1.36 3.78-1.3 5.11-1.52 9.08 3.72-5.55 1.48-9.41 6.61-13.5-2.97 13.35-6.9 26.47-11.76 39.25-4.1 11.11-8.62 21.43-13.28 32.27-16.75 39.01-33.91 77.9-54.69 114.97-1.72 3.07-3.01 5.38-5.24 8.14H0v-1.79c27.83-36.94 71.56-145.76 84.23-191.14Z" class="st1"/><path d="M685.37 432.4c5.17-9.03 13.27-20.77 21.66-27.02 11.58-8.63 35.02-22.86 49.04-24.68v2.73l-2.36 5.25c-10.18 20.33-15.65 31.98-32.13 48.37l2.35 1.11c-.9 4.06-3.37 3.14-4.89 8.02-2.34 2.8-3.24 3.64-6.02 5.99-5 2.9-4.75 3.63-7.9 8.28l-7.73 1.58c-1.08-1.64-1.15-2.18-1.68-4l2.12-3.8c-6.03 2.61-8.44 3.31-14.66 4.89 5.95-6.64 7.92-8.64 12.21-16.56-5.48 2.61-22.63 14.99-23.69 15.32l-.52-.6c.66-4.18 11.27-20.19 14.2-24.86z" class="st4"/><path d="m721.58 437.05 2.35 1.11c-.9 4.06-3.37 3.14-4.89 8.02-2.34 2.8-3.24 3.64-6.02 5.99-5 2.9-4.75 3.63-7.9 8.28l-7.73 1.58c-1.08-1.64-1.15-2.18-1.68-4l2.12-3.8c7.42-3.33 17.21-11.78 23.74-17.17h.01Z" class="st15"/><path d="M132.35 757.77c-.3 2.7-1.63 9.5-1.7 11.42 3.53-2.8 7.23-8.22 10.23-11.56 16.77-18.69 17.55-29.13 24.17-51.57 3.74-11.14 16.01-46.5 8.37-55.62-3.43.12-3.31.94-6.64 3.51-12.49 12.51-34.9 44.81-37.82 61.52-4.91 12.78-5.22 35.24-9.2 49.08h-.01c-.57 3.15-1.44 5.99-.12 8.89 3.5 1.91-4.83 6.94-2.07 4.45-1.22-1.88 8.04-10.67 7.35-12.81.13-11.51 1.4-28.75 7.73-38.46M705.12 460.44c6.15-.54 28.7-4.52 31.22-4.51-2.15 8.93-29.88 31.52-37.36 37.92-2.04 1.75-6.53 4.66-8.07 6.52-9.93 5.3-45.73 17.13-52.41 4.88 13.32-21.61 35.5-35.16 58.88-43.23l7.73-1.58zM648.11 785.37c2.79-2.04 8.55-2.4 12.25-2.92-9.92 8.61-35.85 34.83-38.95 47.74l.64 1.79-2.4 1.26c.15 2.83.5 1.82-1.09 3.86-6.36 2.29-10.65 4.59-15.79-.53-14.27 5.4-32.45 11.83-46.29 17.97-4.4 1.6-12.71 5.77-17.23 7.9 7.08-8.58 16.83-14.47 24.36-21.89 25.18-24.82 49.29-45.4 84.49-55.16v-.02ZM547.16 533.36c1.16 2.94 1.11 43.95.71 49.25-2.53 18.51-11.89 29.44-22.52 44.41-1.36.97-5.59 1.21-8.34 2.22l-1.21 1.46c.38-3.51-5.08-46.29-6.28-48.9 2.66-4.14 3.97-1.07 5.87-7.95l3.08.55c.97-1.25 2.74-4.79 3.59-6.31 7.08-12.72 15.81-23.61 25.11-34.73z" class="st8"/><path d="m518.46 574.4-3.08-.55c-1.9 6.87-3.21 3.8-5.87 7.94 1.2 2.61 6.66 45.39 6.28 48.9l1.21-1.46c2.75-1.01 6.98-1.25 8.34-2.22-7.02-10.18-8.81-39.4-6.88-52.61" class="st1"/><path d="m127.01 746.41-2.85 31.87c.86-1.68 1.91-2.96 3.04-4.46l1.69.18 1.2 2.64.47 1.89c-16.31 83.98-36.96 160.94-70.64 239.72-8.58 20.08-21.74 54.68-33.84 72.24h-8.19c26.32-37.29 68.31-153.87 79.94-199.31 4.96-13.95 26.77-101.52 25.76-112.78z" class="st15"/><path d="M509.51 581.79c1.2 2.61 6.66 45.39 6.28 48.9l-.09 3.16c-7.83 17.09-13.43 25.55-25.67 39.71-3.34-4.71-8.95-22.89-10.16-28.87 6.91-28.96 12.17-38.45 29.64-62.91Z" class="st8"/><path d="M225.57 823.58c.05 3.33.13 4.51-.66 7.87l.78.8 3.77-7.58c1.2.49.86.09 1.47.97a1408.4 1408.4 0 0 1-80.78 176.22c-17.18 30.87-35.55 59.06-54.73 88.63h-6.85c4.04-7.05 11.95-17.2 16.64-24.9 11.84-19.44 24.84-39.46 35.91-59.31 22.87-41.3 43.61-83.74 62.15-127.15 7.88-18.49 14.53-37.13 22.28-55.55z" class="st1"/><path d="M467.75 699.18c-8.88-28.05-3.19-27.67 3.74-52.02 8.22-28.85 18.02-49.89 35.36-74.68 3.03-1.48 2.71-.78 6.92.37l1.6.99c-1.89 6.88-3.21 3.81-5.87 7.95-17.47 24.45-22.73 33.95-29.64 62.91 1.21 5.98 6.82 24.16 10.16 28.87-3.74 1.95-6.45 6.28-9.96 9.28l-.09 1.13c-1.89 3.51-4.11 8.13-6.77 10.95-2.25 2.3-2.65 2.74-5.47 4.25z" class="st9"/><path d="M477.23 651.33c.91-1.47 2.01-4.87 2.65-6.64 1.21 5.98 6.82 24.16 10.16 28.87-3.74 1.95-6.45 6.28-9.96 9.28l-.09 1.13c-1.89 3.51-4.11 8.13-6.77 10.95-8.49-13.23-1.47-30.78 4-43.59Z" class="st0"/><path d="M477.23 651.33c.91-1.47 2.01-4.87 2.65-6.64 1.21 5.98 6.82 24.16 10.16 28.87-3.74 1.95-6.45 6.28-9.96 9.28.92-4.96-1.11-22.71-1.11-28.96-.68-.99-1.26-1.85-1.74-2.55" class="st2"/><path d="M420.06 427.55c-1.81 1.88-5.31 4.87-5.58 7.18-1.39.11 29.1-11.39 29.98-11.91 26.29-15.15 53.07-25.61 81.69-35.54 4.36-1.51 14.03-6.3 17.84-6.13l1.05 1.9c-2.12 4.5-6.4 6.23-11 7.78-32.18 10.83-64.1 23.15-93.79 39.75-4.78 2.67-14.31 5.88-18.13 8.72 3.26 6.02 4.16 6.85 2.13 13.33-4.24 13.53-10.4 26.64-21.3 36.11-2.09 1.82-5.81 3.52-6.69 6l1.36 1.51c-1.25 1.09-2.44 1.43-3.98 2.05l-1.28-.85c-.92-3.42-1.21-4.1-.04-7.61 9.47-7.37 32.16-34.06 24.08-46.33-2.64-2.19-6.34-1.56-9.88-1.45 2.72-2.12 8.41-1.28 10.59-5.61-3.27.63-4.9 1.62-7.3.36.24-2.24 5.92-7.79 7.69-9.69l2.55.44h.01Z" class="st9"/><path d="m138.07 633.17-.82.1h.01c-2.43 15.21-.56 28.93-1.88 37.91.33 3.46-.57 13.19-.76 17.35 9.17-20.04 17.94-31.99 30.52-50.02-8.14.88-23.7 2.95-27.07-5.34" class="st8"/><path d="M171.49 576.58c-3.18 8.32-22 31.37-28.21 41.64-2.82 6.2-3.68 8.14-5.2 14.94 3.38 8.29 18.94 6.22 27.07 5.34 1.66-2.68 3.37-6.02 4.9-8.85 1.73-17.49 4.24-34.1 5.05-51.77l-3.6-1.3Z" class="st8"/><path d="M488.68 213.85c1.64 1.45.71.94 2.97 1.41 2.11-1.8 2.9-2.4 5.32-3.79l.59-.33c-3.77 4.5-11.67 13.83-14.2 18.83-14.38 28.44-14.59 42.15-37.47 66.76 13.68.17 23.38-.24 16.37 17.32-2.39 5.98-4.74 13.18-6.86 19.33-3.27-9.68 6-13.17 2.78-18.61l-1.8.4c-1.24 4.28-1.95 6.32-3.76 10.38l-1.77.55c.65-3.3 6.43-19.1 7.85-23.2-15.61 1.9-22.06 3.03-36.86 8.12 6.06-7.44 25.11-7.1 34.6-11.22-6.76.35-28.3 4.45-30.69 3.71.57-2.78 12.74-3.21 17.65-8.2.5-2.83.67-1.68-.74-4.32-5.57 3.17-12.21 8.22-18.62 7.3 20.96-11.57 25.3-8.55 36.77-34.26 2.87-6.44 13.88-27.95 11.55-34.8-4.63-1.62-14.54 3.64-19.45 5.74l.74-2.22c-1.13-1.53-1.74-2.08-3.31-3.17-.54-5.5 5.24-7.16 9.89-8.61l-.88 2.74 1.04 1c3.78-.33 5.28-.94 8.85-2.12l4.78 1.44c6.57.48 10.01-5.68 14.67-10.17h-.01ZM713.02 452.15c28.82 6.77 89.67-53.39 106.5-47.65.44 2.86.52 1.74-1.1 4.69-6.54 4.56-15.06 5.99-21.48 9.38-13.18 6.97-28.01 16.87-40.26 25.39-8.08 5.62-19.13 20.19-26.57 28.02-11.26 11.86-21.22 20.86-33.62 31.64-3.57 1.22-5.39 1.93-9.17 2.4l-.24-1.34 3.85-4.31c1.53-1.86 6.02-4.77 8.07-6.52 7.48-6.39 35.21-28.98 37.36-37.92-2.52 0-25.07 3.97-31.22 4.51 3.15-4.66 2.9-5.38 7.9-8.28h-.02Z" class="st9"/><path d="M277.77 670.72c6.74 9.1-.22 8.3.71 19.24-8.18 30.08-22.51 63.76-30.76 92.72-4.13 10.4-12.1 34.51-16.78 42.95-.61-.87-.27-.47-1.47-.97l-3.77 7.58-.78-.8c.79-3.36.7-4.54.66-7.87 2.18-9 15.25-40.19 19.15-51.88 11.21-33.62 22.02-67.3 33.05-100.98ZM98.77 406.16c1.53-23.67-.98-42.76-6.63-65.72-1.4-5.69-7.15-23.84-3.8-27.34l2.02.64c12.63 12.69 20.46 46.73 25.13 63.23-2.28-2.45-3.17-3.85-6.51-4.49l-.29 1.44-2.58.18-1.56 2.21c3.29 23.58-4.27 39.43-1.65 63.19-5.76-7.61.39-33.26-1.65-37.9z" class="st19"/><path d="M101.49 350.31c4.61 7.82 4.78 13.79 7.48 22.16l-.29 1.44-2.58.18-1.56 2.21c-1.19-3.84-2.73-21.47-3.06-26Z" class="st4"/><path d="M168.49 641.75c1.23.9 1.94 1.18 3.29 1.85 5.23-2.73 1.49-6.74 8.11-8.69l3.34 1.89c-3.36 7.39-1.2 24.39-2.05 34.77-1.14 13.86-9.44 26.75-11.2 35.64-1.83 9.83-3.83 22.92-8.85 31.32-6.73 11.26-18.74 26.78-28.45 35.7l-2.01-5.04c3.52-2.79 7.23-8.22 10.23-11.56 16.77-18.69 17.55-29.13 24.17-51.57 3.74-11.14 16.01-46.51 8.37-55.62-3.43.12-3.31.95-6.64 3.51-2.69-5.79-1.17-6.72 1.71-12.2z" class="st1"/><path d="M256.13 259.06c3.24-2.11 1.68-1.76 5.97-1 11.37 14.01 21.21 30.02 33.06 43.89 4.29 5.02 7.59 12.83 11.81 18.11 2.96 3.85 9.77 10.5 13.33 14.15-1.62 3.11-1.41 4.58-1.43 8l-5.43 1-7.45-12.78c-2.21-1.52-3.24-2.71-5.07-4.6h-2.1l-1.75 2.34c-2.25-3.05-12.93-23.29-15.26-27.63-8.37-15.59-15.6-26.99-25.69-41.49h.01Z" class="st19"/><path d="M530.19 298.03c3.98-1.05 3.03-3.77 8.68-2.37-14.37 19.4-45.83 29.45-64.54 44.94-1.64 1.36-5.22 4.01-7.04 5.12l-.47-2.04-2.89-1.53c.06-2.47-.04-1.83-1.35-4.33 2.94-4.07 27.78-21.06 33.3-22.17 9.29-5.79 18.62-12.97 28.33-18.28 2.48-1.36 3.68-.34 5.99.66Z" class="st2"/><path d="M495.88 315.66c9.29-5.79 18.62-12.97 28.33-18.28 2.48-1.36 3.68-.34 5.99.66-7.46 5.83-22.65 17.95-32.37 19.34-.55-.45-1.56-1.2-1.95-1.72" class="st4"/><path d="M368.05 186.75c2.41-23.9 5.73-51.67.02-75.21-1.96-8.07-10.21-20.49-8.19-24.89 3.12-.07 3.62-.15 6.14 1.61 1.93 4.12 2.31 7.54 4.06 11.8 1.3 3.17 5.84 1.32 6.46 5.64 3.38 23.67 1.25 48.46-.36 72.22-.27 4-.79 7.41 2.5 8.92l-1.62 1.57 1.04 4.57-3.07-1.79c-2.53-.3-3.21-.4-5.61-1.25l-1.39-3.2h.02Z" class="st9"/><path d="M467.11 702.62c1.39-.88 2.05-.94 2.54-2.16 1.68-.32 1.15-.55 2.35-.04l-2.89 5.45.89 2.47-39.62 62.41c-5 7.97-15.74 26.25-20.86 32.78-3.36 1.83-4.1 3.08-6.5 6.03-2.39.8-2.51.88-4.97.68a3082 3082 0 0 1 50.46-79.88c3.36-5.19 15.53-24.62 18.6-27.75Z" class="st3"/><path d="M495.87 315.64c-5.51 1.11-30.36 18.11-33.3 22.17-4.89 2.18-5.85 2.56-11.12 3.16 1.26-3.27 1.75-3.97 3.66-6.78v.02c4.95.57 61.26-39.4 72.72-43.83 8.25-3.18 44.52-28.91 49.31-29.53l.85 1.4c-1.76 14.1-39.1 20.04-39.12 33.4-5.65-1.4-4.7 1.32-8.68 2.37-2.31-1-3.5-2.02-5.99-.66M297.48 173.19c1.75-4.21.6-3.08 4.05-4.84a304.7 304.7 0 0 1 30.1 52.97c6.7 15.03 9.75 33.2 25.15 40.78l.91 1.09c-4.01 1.74-2.76.59-4.85 4.19-3.12-3-2.83-3.63-6.5-4.6-2.51 2.64-2.68 8.08-3.32 12.12-2.53-5.57.69-8.98-2.11-15.4-1.52 1.81-1.49 9.89-1.66 12.78-.75-2.33-.88-7.36-1.05-10.05 2.23-17.19-30.61-72.64-40.7-89.03h-.02Z" class="st9"/><path d="m677.8 530.42-6.04 1.15c-13.17 11.91-29.32 27.27-43 38.35.98 4.54-.04 12.65-4.24 15.4.41 1.86.91 2.5-.54 4.17-8.01 9.28-20.2 16.1-29.21 24.89l-4.02 10.26c-.06 0-.12.02-.18.03-1.13 1.03-2.99 2.62-3.84 3.76h.01c-8.64 12.12-22.92 13.3-36.9 13.83-8.87 1.67-15.97 3.41-24.09 7.38-3.15 1.53-8.17 4.43-11.48 4.33l-1.74 1.83c.26 4.01.61 3.29 3.32 7.08 18.17-11.39 34.5-14.89 55.49-14.43 2.85.34 3.87 1.09 6.32 2.46.47-1.1.14-.08.42-1.43 2.16-10.18 9.64-9.73 16.21-21.13 15.13-13.81 42.61-39.36 45.25-47.62l-.85-1.39c-2.41-.33-3.55-.29-5.59-1.51.49-3.92 8.59-9.8 11.96-12.64 3.48-4.39 4.5-5.71 8.85-9.14 8.28-9.33 13.97-14.29 24.04-21.66l.93-2.94z" class="st1"/><path d="M469.22 222.59c1.41-26.48 19.04-64.43 30.33-88.18 2.46-5.16 7.59-17.82 11.33-21.47l1.14.62c1.75 13.95-14.38 38.09-19.49 51.66-4.71 12.52-18.18 46.92-18.53 58.81z" class="st2"/><path d="m752.91 366.12 2.6 2.01.09 2.45c-1.13 4.24-1.96 4.76 1.51 8.25l-1.04 1.86c-14.02 1.82-37.46 16.05-49.04 24.68-8.39 6.25-16.49 17.99-21.66 27.02-1.9-.58-3.38-1.07-5.24-1.78l1.28-1.64c9.75-16.46 20.14-28.52 36.82-38.45 15-8.93 23.28-11.03 34.68-24.41Z" class="st9"/><path d="M87.19 641.27c1.17 2.61 1.45 3.68.29 6.68-7.67 11.43 6.71 83.54 12.64 97.23l-5.91.63c-7.58-19.59-14.93-63.18-13.87-84.61.46-9.25.16-13.76 6.86-19.93z" class="st1"/><path d="M151.4 435.92c-1.82-13.21-10.24-85.3-2.21-93.44l2.43.04c2.72 3.45-.37 17.62.54 22.34 2.43 12.59 1.42 61.16 4.97 70.13l-5.72.94Z" class="st9"/><path d="m297.08 328.18 1.75-2.34h2.1c1.84 1.89 2.87 3.08 5.07 4.6l7.45 12.78-.21 1.08c2.29 1.17 3.19 1.73 4.79 3.75.51 5.59-1.03 17.36-1.47 23.52-.62 8.8-.6 14.48-.2 23.36l-1.69 2.38c-2.43.12-1.52.26-3.9-1.59-.79 1.73-.88 1.96-1.32 3.8-1.97-19.38-.13-28.94 1.92-48.46-4.75-8.2-9.46-13.38-14.3-22.86v-.02Z" class="st19"/><path d="m368.05 186.75 1.39 3.2c2.4.85 3.07.95 5.61 1.25-9.11 12.68-11.69 53.97-10.53 70.61-2.01.34-4.99.74-6.84 1.38l-.91-1.09c1.19-8.67-.9-22.23.95-31.97 2.84-15.02 7.78-28.16 10.33-43.38" class="st2"/><path d="M158.97 436.77c3.27 3.28 4.39 7.25 5.2 11.77 3.82 13.2 5.33 28.93 4.4 42.64-.29 4.35-2 21.48-1.26 24.44l-.48.36c-1.87-.92-4.12-.57-6.27-.48 2.88-27.97.91-34.72-.81-60.99-.91-4.49-1.49-8.86-3.96-12.72 1.3-1.25 2.28-3.38 3.17-5.02z" class="st19"/><path d="M158.97 436.77c3.27 3.28 4.39 7.25 5.2 11.77l-1.18 1.82-.93-3.51-1.81.2.17.81c.61 3.05.71 3.71-.67 6.65-.91-4.49-1.49-8.86-3.96-12.72 1.3-1.25 2.28-3.38 3.17-5.02Z" class="st3"/><path d="M338.18 262.22c.17 2.69.3 7.73 1.05 10.05.16-2.89.14-10.97 1.66-12.78 2.8 6.41-.42 9.83 2.11 15.4.56 19.76-7.76 41.96-3.09 65.14-2.41.82-3.72 1.01-5.38 2.87l-.71.02c.43-2.68-2.08-20.82-1.66-27.47 1.17-18.17 4.14-35.26 6.01-53.22h.01ZM790.85 341.52c1.26 1.35 2.58 2.38 2.84 4.12-10.45 14.5-22.87 25.07-31.89 39.25-1.99-.46-3.77-.9-5.73-1.47v-2.73l1.05-1.86c-3.48-3.49-2.65-4.01-1.51-8.25 6.91-3.22 11.91-19.07 22.17-13.86 3.26-2.53 10.34-11.73 13.09-15.2z" class="st19"/><path d="M755.6 370.58c6.91-3.22 11.91-19.07 22.17-13.86-4.96 5.11-16.91 16.87-20.65 22.11-3.48-3.49-2.65-4.01-1.51-8.25Z" class="st17"/><path d="M80.79 522.98c4.05 2.8 8.52 6.86 13.1 6.95l2.13 1.09c.69 2.88.48 3.38.11 6.4-3.01-1.5-5.36-3.22-8.43-2.53-2.29 6.74 6.39 42.84 8.94 50.96l-5.79.82c-6.18-12.3-10.7-49.51-10.04-63.69zM175.08 577.88c2.07.38 4.93 1.12 6.9.78-.83 2.12-6.02 47.39-5.73 50.74 4.74 3.42 7.29 0 9.42 3.18-.79 1.57-1.34 2.84-2.46 4.22l-3.34-1.89c-6.61 1.95-2.88 5.96-8.11 8.69-1.35-.67-2.06-.94-3.29-1.85 3.7-5.89 5.35-6.35 1.54-12.1 1.73-17.49 4.24-34.1 5.05-51.77z" class="st19"/><path d="M645.06 565.19c3.48-4.39 4.5-5.7 8.85-9.14 8.38 3.91 27.21-3.52 35.98.92l.79 1.85c-3.9 9.03-36.77 6.73-45.61 6.37ZM752.91 366.12c4.83-8.53 30.9-26.85 39.2-32.98-1.82 5.58.57 4.15-1.26 8.38-2.74 3.47-9.83 12.66-13.09 15.2-10.25-5.2-15.25 10.65-22.17 13.86l-.09-2.45-2.6-2.01z" class="st2"/><path d="M488.68 213.85c5.76-7.81 40.09-44.85 48.09-41.9l-.14 1.87c-1.61 3.23-3.36 4.18-6.25 6.19-12.31 8.58-21.53 21.51-32.82 31.13l-.59.33c-2.42 1.39-3.21 2-5.32 3.79-2.26-.47-1.33.03-2.97-1.41" class="st19"/><path d="M447.31 374.24c.91 8.98-19.62 46.51-27.25 53.31l-2.55-.44-.72-1.64c1.45-1.94 1.58-2.02 1.93-4.35.67-1.65 5.49-8.68 6.79-11.06 5.67-10.34 11.5-21.56 14.72-32.96 1.32 1.22 2.48 2.23 3.87 3.38 1.72-1.88 2.26-3.84 3.21-6.23Z" class="st2"/><path d="M462.58 337.83c1.31 2.49 1.42 1.85 1.35 4.33l2.89 1.53.47 2.04-6.21 4.89c-4.33 3.21-14.33 10.92-19.24 12.4l-1.49-.84c-.82-3.54-.02-3.98 1.11-7.98 1.91-3.51 7.27-9.42 9.98-13.2 5.27-.6 6.24-.98 11.12-3.16h.02Z" class="st4"/><path d="M457.2 346.43c2.71 1.2 21.07-11.45 22.79-8.6-4.33 3.21-33.24 23.7-38.15 25.18l-1.49-.84c-.82-3.54-.02-3.98 1.11-7.98 5.52-1.09 10.83-4.82 15.73-7.76Z" class="st9"/><path d="M753.71 388.67c3.66 4.45.35 2.92 1.98 7.41-8.49 17.91-20.78 37.78-36.64 50.08 1.52-4.87 3.99-3.96 4.89-8.02l-2.35-1.11c16.47-16.4 21.95-28.04 32.13-48.37h-.01Z" class="st1"/><path d="M547.38 526.05c2.9 2.87 1.91 3.72-.23 7.3-9.3 11.12-18.03 22.01-25.11 34.73-.85 1.53-2.62 5.06-3.59 6.31l-3.08-.55-1.6-.99c4.65-2.33 18.38-39.1 33.6-46.8z" class="st2"/><path d="m894.34 1080.23 12.33 10.26h-15.64c-2.24-1.52-4.58-3.02-6.85-4.51l1.38-2.98c1.5-.72 6.95-2.23 8.77-2.77Z" class="st15"/><path d="M371.05 989.52c2.96.98 4.2 1.2 6.52 3.41a582 582 0 0 0-21.98 17.38l-9.01 7.26-6.38-1.93c6.42-4.7 13.08-11.71 20.32-17.24 4.04-2.98 6.85-5.53 10.53-8.87Z" class="st1"/><path d="M63.47 401.51c4.75 8.6 7.62 15.94 10.73 25.2l-.74 1.37c1.27 3.47 2.93 5.09.13 8.16-5.62-10.09-9.69-21.98-15.96-31.29 1.43-1 4.22-2.5 5.83-3.44z" class="st3"/><path d="M792.11 333.15c3.81-3.38 8.46-8.18 13.13-9.7l1.66.43c.84 4.62-9.5 18.6-13.22 21.77-.26-1.73-1.59-2.77-2.84-4.12 1.83-4.22-.56-2.79 1.26-8.38z" class="st9"/><path d="M680.44 809.86c1.04-9.96 29.36-30.43 37.55-35.95-6.2 8.28-31.18 27.73-31.51 35.14-2.01.33-4.02.59-6.04.81" class="st2"/><path d="m787.01 747.69 4.22 3.11c-10.99 8.39-20.62 16.25-33.07 22.45 11.79-15.41 15.87-13.85 28.85-25.56" class="st1"/><path d="M894.86 1067.38c8.91 7.33 17.7 14.67 25.61 23.11h-7.55c-6.5-6.89-12.11-11.86-19.25-18.14z" class="st11"/><path d="M74.2 426.72c7.18 14.74 10.19 16.91 21.88 28.54l-4.28 2.5c-3.25-3.23-4.82-4.56-8.5-7.3.52-1.72.2-2.84-.05-4.61l-1.44-1.03-2.34.99c-.65-1.65-4.69-7.71-5.88-9.57 2.8-3.07 1.15-4.69-.13-8.16l.74-1.37Z" class="st19"/><path d="M94.94 841.53c-.44-5.96-14.01-64.81-16.47-72.84-1.69-3.28-4.85-10.57-8.03-11.61l-1.7 22.85c-1.52 13.65-.94 35.13-6.79 45.9 4.91 1.05 4.72.16 10.23-1.73l2.66-2.47v.02l-2.66 2.47c-5.51 1.88-5.32 2.78-10.23 1.73-2.78 3.63 5.75 23.06 5.82 28.04.6 4.9-3.07 9.19-.57 12.32 1.02 7.75 5.56 89.85 5.42 34.77.56-7.06-1.71-12.47-.48-17.46l1.14-.45c1.88 2.45 1.86 3.1 2.28 6.2-.26-15.7-10.04-80.85 1.55-93.02.1-3.36 3.39 0 2.26 33.99.79 2.98.85 6.09-.26 8.95 2.72 4.03 10.11 15.38 11.32 20.08-.29 8.06-7.18 25.13-5.01 31.05 4.92-5.29 8.99-18.44 10.12-25.65 2.13-6.58 4.04-15.81 5.66-22.74z" class="st15"/><path d="M443.32 128.78c4.8-14.72 33.99-87.96 10.85-97.59l-1.54.66c-3.09 16.28-4.56 22.29-10.3 37.76l-6 14.16-4.06 10.92v.06c-1.2 12.2-3.72 33.58-1.59 45.06 1.25-1.12 2.58-5.73 3.83-11.54.03-.12.07-.3.11-.51.25-1.17.49-2.37.73-3.61 2.1-10.53 7.24-36.95 8.11-39.51l4.45-11.92c2.89-7.28 5.22-12.72 8.7-19.72-3.26 27.46-8.96 44.26-18.84 69.9 1.91 2.51 4.06 4.68 4.03 7.81-.99 2.21-1.03 2.27-2.97 3.63 3.84 3.28 4.81 16.87 5.23 22.13.97 11.09 1.17 22.24.59 33.36 7.02-11.59-2.84-54.4-1.95-56.59 9.14 4.64 2.71 19.86 8.72 25.78-.04-5.48-1.36-18.13-3.64-23.26-.27-.6-4.55-6.75-4.47-6.98Z" class="st2"/><path d="M57.63 404.95c-2.43-3.4-9.59-13.57-5.85-17.46 5.32.94 9.09 9.54 11.68 14.03-1.61.94-4.4 2.44-5.83 3.44Z" class="st1"/><path d="m151.4 435.92 5.72-.94 1.85 1.78c-.89 1.64-1.87 3.77-3.17 5.02-1.57 4.23-3.12 8.36-4.49 12.67-1.63-2.8-2.19-3.15-4.75-5.19 1.34-6.14 2.02-7.69 4.84-13.34" class="st19"/><path d="M456.06 206.21c3.58-6.57 9.12-18 15.17-22.22l.99.89c-.99 9.98-6.48 17.88-8.82 26.31.32-3.74.87-9.55 2.58-12.85 1.34-2.59 2.56-3.67 1.11-6.33-3.8 2.83-5.49 11.62-11.03 14.2M842.97 774.4c5.07-1.11 17-4.75 21.3-1.82-3.09 4.03-13.33 5.62-18.46 6.32 1.85-2.3 2.89-2.53 5.67-3.4-2.84-.33-5.68-.69-8.51-1.11ZM256.13 259.06c-2.72-3.46-6.9-7.52-5.93-11.99l2.28.19c4.22 2.23 6.83 6.82 9.62 10.81-4.3-.77-2.74-1.12-5.97 1Z" class="st9"/><path d="m172.34 569.76 1-.25c4.79 1.21 5.06.47 8 3.5.31 2.05.58 3.57.64 5.65-1.98.34-4.83-.39-6.9-.78l-3.6-1.3.85-6.82Z" class="st15"/><path d="M297.48 173.19c-2.86-4.19-5.1-6.45-3.73-11.72l1.62-.86c4.02 2.26 3.5 3.08 6.16 7.74-3.44 1.76-2.29.62-4.05 4.84" class="st19"/><path d="M756.07 383.42c1.96.57 3.74 1.01 5.73 1.47-1.85 3.51-4.03 7.93-6.11 11.19-1.63-4.49 1.68-2.96-1.98-7.41l2.35-5.25z" class="st1"/><path d="m415.93 927.13.02-.02v.02ZM710.42 755.13h.01zM842.98 774.4c-49.2 9.13-107.31 22.74-156.49 34.65v-.02c-2.01.33-4.02.6-6.04.81-5.54 4.48-47.21 17.31-58.39 22.12h-.01l-.64-1.77c3.1-12.91 29.03-39.13 38.95-47.74-3.7.52-9.46.88-12.25 2.92h-.01c-.88 3.84-14.18 17.41-17.71 21.56-6.16 7.24-15.01 22.05-22.43 26.8a40.6 40.6 0 0 1-5.18 2.83c-14.27 5.4-32.45 11.82-46.29 17.97l-.39.47-.49-.49c-4.4 1.6-12.71 5.78-17.23 7.9 7.08-8.58 16.83-14.47 24.36-21.89 25.18-24.82 49.29-45.39 84.49-55.16 2.79-2.04 8.55-2.39 12.25-2.92 11.98-9.36 32.78-16.33 47.43-20.03.62-1.47.87-2.47 1.02-3.24-.15.77-.39 1.77-1.02 3.25 7.53-.67 15.02-1.77 22.43-3.3 9.38-1.95 50.29-12.49 56.79-11.43l4.22 3.11 1.45-1.98c2.98-1.46 8.47-3.19 7.58-6.97-2.85-1.45-5.96-.62-9.17-.17-8.83.65-17.6 1.88-26.27 3.68-10.24 2.03-45.88 12.34-53.51 9.77-1.24 1.02-1.77 1.66-2.06 2.3.28-.64.82-1.28 2.06-2.31-6.31-2.38-46.32 18.67-54.59 21.49-16.04 5.47-32.95 10.63-47.29 19.93-19.09 11.4-30.35 22.32-46.3 37.16-5.35 4.98-12.99 10.76-18.67 15.89-3.72 3.36-15.25 15.99-18.34 17.78-7.97 4.62-19.67 10.18-28.26 14.59-22.32 11.47-44.88 22.22-66.16 35.63-2.07 1.31-13.63 8.29-14.87 9.52 3.15 1.82 2.27.72 3.34 4.12 2.53-1.1 5.58-2.99 7.99-4.45 25.05-15.15 50.55-28.83 76.38-42.58l21.68-9.6c11.27-6.19 22.35-10.13 34.36-14.5-.17-.45-.65-1-1.04-1.46.22-.07.45-.15.67-.22.4.5 1.04 1.17 1.24 1.7 3.26-.52 6.45-1.46 9.37-.3-.98 2.61-.74 1.81-3.75 3.64l2.87 1.16c6.53-4.73 14.34-6.27 21.84-8.76 18.58-6.18 34.46-10.24 53.96-5.18 6.53 1.69 17.73 3.27 24.54 3.6 3.51-.02 4.56.08 8.03-1.06l.58-1.31c-8.63-7.03-45.08-5.29-54.42-14.78l-5.02-.04v-.01l5.01.04c5.32-1.09 13.34-4.47 18.61-6.53 15.48-6.04 26.21-10.31 42.71-12.22 7.83 4.04 72.12 13.43 80.65 15.52-6.33-3.97-70.25-14.27-76.66-18.38 14.56-4.67 40.4-10.32 55.57-13.81q31.065-7.425 62.25-14.4c12.53-2.68 27-5.18 39.1-8.39 1.85-2.3 2.89-2.54 5.67-3.4-2.84-.33-5.68-.7-8.51-1.11Zm-51.42-25.85c-1.1-1.23-1.39-1.88-1.43-2.91.04 1.03.33 1.68 1.43 2.91M554.74 856.64l-1.04 1.26-10.02 5.73-2.27.78c1.22-1.97 8.88-5.59 13.33-7.77m64.81-20.78c.39-.55.2-.69.1-2.62h.01c.1 1.94.3 2.06-.11 2.62M831.98 752.81h-.17c-.36.57-.39.66.17 0" class="st3"/><path d="M927.88 763.96c-7.37-5.09-65.38-10.95-94.39-13.74 1.92-3.01 4.57-7.46 4.56-9.62-4.98-2.84-53.37 11.02-56.43 15.04 4.25 3.44 32.68.8 40.6.96h.01c2.66-4.15 5.19-3.99 9.58-3.8.01-.02.03-.04.04-.06 4.07 1.42 7.23 3.07 6.21 4.66 13.65 3.01 65.07 5.37 77.79 9.53-17.5 7.34-68.56 30.66-72.1 35.31-4.37.37-8.12.78-9.73.88s-.38 2.24-.38 2.24c2.95 2.85 8.39 2.39 12.36 2.33 1.56-.03 3.12-.07 4.68-.11l8.41-2.84c-.35.76-.8 1.81-1.59 3.33-13.08 9.2-44.78 12.79-61.81 15.78.97-.01 1.85-.05 2.67-.05-.57.01-1.16.03-1.79.04-2.36.43-7.51.95-8.93 2.27 3.27 2 5.17 2.4 6.75 5.38-4.46 6.59-13.56 3.24-19.11.43-1.47 3.84-2.47 8.52-7.05 9.96-15.47 4.85-33.01 6.07-49.15 7.08-4.46.27-15.08-.69-17.43.24s-.19.65-.19.65c-.8 2.64-1.01 3.12-2.5 5.41.64 2.91.56 3.22 2.54 5.25-6.39 1.22-16.66 3.51-22.81 4.19-15.39 3.11-25.5 8.04-42.53 10.82-28.57 4.67-51.65-2.15-77.5-1.37 4.46-3.47 6.51-5.53 10.41-9.54l-2.87-1.16c3.01-1.82 2.77-1.03 3.75-3.64-2.92-1.15-21.13 15.34-24.39 15.86-12.01 4.37-18.29 6.48-29.56 12.67l-9.78-6c-25.83 13.75-53.01 29.31-78.06 44.46-2.41 1.46-5.46 3.35-7.99 4.45-12.04 8.09-24.17 16.28-36.27 24.23-8.09 5.31-28.46 17.04-34.78 23.54v.02c6.33-6.5 26.69-18.23 34.78-23.54 12.1-7.95 24.23-16.14 36.27-24.23 2.53-1.11 5.58-3 7.99-4.46 25.05-15.15 50.55-28.83 76.38-42.58l3.31 1.58c.05 2.65.12 1.74-1.49 4.33l1.63 1.11c-6.49 4.96-18.91 11.78-26.26 16.53-17.73 11.46-34.64 23.68-51.96 35.56-23.25 15.97-40.45 23.37-58.71 46.18 2.95.98 4.19 1.2 6.51 3.41 11.22-4.06 33.83-20.85 43.68-28.46 7.9-6.09 15.68-15.72 24.02-22.06 29.1-22.1 59.42-41.64 93.04-56.16 13.93-5.68 76.5-1.53 94.45-3.82 15.61-1.99 24.91-6.12 39.74-10 7.85-2.05 19.4-3.62 27.99-5.42l-1.55-.18 1.55.18c13.91-3.2 15.94-7.63 27.07-11.47 9.01-3.11 25.88-3.65 36.7-6.54 8.75-2.33 29.62-12.71 36.22-13.11 2.97.1 3.35.09 6.08-1.09.02-1.41.08-2.58.04-3.67 8.92-10.35 62.88-7.54 58.41-28.37-.19-.14-.44-.25-.72-.36l-1.24-.63c-.18.06-.34.12-.5.17-1.9-.33-4.55-.41-7.48-.36 18.8-10.45 52.91-22.44 70.23-32.67 1.27-.62 2.1-1.28 3.13-3.04l-.55-1.9ZM796.58 823.85h-.01z" class="st3"/></svg>