<?xml version="1.0" encoding="UTF-8"?>
<svg id="_Слой_1" data-name="Слой_1" xmlns="http://www.w3.org/2000/svg" version="1.1" viewBox="0 0 30 30">
  <!-- Generator: Adobe Illustrator 29.5.1, SVG Export Plug-In . SVG Version: 2.1.0 Build 141)  -->
  <defs>
    <style>
      .st0, .st1 {
        fill: #de070a;
        stroke: #fff;
        stroke-miterlimit: 10;
        stroke-width: .5px;
      }

      .st1 {
        isolation: isolate;
        opacity: .85;
      }
    </style>
  </defs>
  <rect class="st0" x="13" y="13" width="4" height="4" transform="translate(-6.21 15) rotate(-45)"/>
  <rect class="st0" x="13" y="6" width="4" height="4" transform="translate(-1.26 12.95) rotate(-45)"/>
  <rect class="st0" x="13" y="20" width="4" height="4" transform="translate(-11.16 17.05) rotate(-45)"/>
  <rect class="st0" x="2" y="13" width="4" height="4" transform="translate(-9.44 7.22) rotate(-45)"/>
  <rect class="st0" x="24" y="13" width="4" height="4" transform="translate(-2.99 22.78) rotate(-45)"/>
  <rect class="st1" x="8.5" y="10" width="2.8" height="2.8" transform="translate(-5.16 10.34) rotate(-45)"/>
  <rect class="st1" x="18.7" y="10" width="2.8" height="2.8" transform="translate(-2.17 17.55) rotate(-45)"/>
  <rect class="st1" x="8.5" y="17.2" width="2.8" height="2.8" transform="translate(-10.25 12.45) rotate(-45)"/>
  <rect class="st1" x="18.7" y="17.2" width="2.8" height="2.8" transform="translate(-7.27 19.66) rotate(-45)"/>
</svg>