<svg xmlns="http://www.w3.org/2000/svg" width="460" height="382" viewBox="0 0 460 382"><path fill="#fff" d="M0 0h460v382H0z"/><path fill="#d51316" d="M228.408 125.122c3.938-.043 8.167.07 12.127.114q-.033 10.404.044 20.808c6.643.036 13.263-.2 19.926-.102.042 7.071.242 14.496.092 21.522l20.413.012q.016 10.476.208 20.951l20.141.054a488 488 0 0 0 .084 17.022c-6.701-.166-13.727-.045-20.431.024.151 6.164.023 12.672-.009 18.861-5.093-.409-15.047-.065-20.479-.026.002 6.773-.193 14.727.127 21.407l-20.076.071c-.095 6.708-.02 13.586-.023 20.307l-6.793.015-11.008.051.026-20.244c-6.564-.307-13.636-.08-20.253.022q-.101-10.754.005-21.507a768 768 0 0 0-21.785-.07l.003-18.938-19.976.023q-.023-8.505.19-17.008l19.719-.042c-.141-1.814.002-5.138.014-7.109l.069-13.853q10.822.142 21.643-.125c-.289-5.944.046-15.252.139-21.362 6.624.072 13.626-.344 20.187-.071l-.004-20.717z"/><path fill="#fff" d="M232.606 167.503c2.414-.047 5.731-.012 8.07-.199l-.092 4.649-.049 2.499c-.077.554-.169 1.097-.201 1.654.811 1.493.412 8.766.566 11.15 3.372.046 7.161.013 10.498.178 2.761 2.731 5.881 5.903 8.927 8.248-6.669 6.905-6.906 8.888-16.139 9.048l-3.12.045c-.051 3.66-.328 7.314-.57 10.966-.635.609-1.37 1.279-1.972 1.907.748.271.941.207 1.718.041.275 2.04.096 4.239.249 6.306-2.376 0-5.301.143-7.573-.389-1.606.815-1.737.911-3.178-.104l-.996.375c-1.977.243-4.002.309-5.994.407-.007-1.857-.029-4.751.357-6.509l.799-.619c-2.625-3.114-2.079-8.433-2.156-12.594-3.613-.057-7.329-.036-10.95-.053-2.261-2.406-6.39-6.674-8.921-8.613 3.143-2.897 6.115-5.687 9.013-8.832 3.376.291 7.638.234 11.088.275-.01-2.374-.337-10.219.878-11.912l-.095-1.2c-.265-1.779-.212-4.907-.229-6.79l8.423.021.991.016z"/><path fill="#f5c5c8" d="M232.918 223.606c.66-1.106 4.579-5.204 5.606-5.958.748.271.941.207 1.718.041.275 2.04.096 4.239.249 6.306-2.376 0-5.301.143-7.573-.389M222.534 167.437l8.423.021c-1.214.861-1.052 1.452-2.063 2.354-.576-.125-1.002-.351-1.439.063-1.546 1.468-3.085 2.96-4.692 4.352-.265-1.779-.212-4.907-.229-6.79"/><path fill="#fff" d="M232.606 167.503c2.414-.047 5.731-.012 8.07-.199l-.092 4.649c-1.77-.534-2.041-.84-3.939-.839-1.11-.953-3.483-2.489-4.039-3.611"/><path fill="#f5c5c8" d="M223.107 217.775c.366.284 5.296 5.605 5.637 6.102-1.977.243-4.002.309-5.994.407-.007-1.857-.029-4.751.357-6.509"/><path fill="#ea9b9c" d="m231.948 167.474.658.029c.556 1.122 2.929 2.658 4.039 3.611 1.898-.001 2.169.305 3.939.839l-.049 2.499c-.077.554-.169 1.097-.201 1.654-2.223-1.486-5.435-5.085-7.318-7.088-.555-.589-.187-.674-1.068-1.544"/><path fill="#f5c5c8" d="M236.645 171.114c1.898-.001 2.169.305 3.939.839l-.049 2.499c-1.31-1.019-2.636-2.234-3.89-3.338"/><path fill="#ea9b9c" d="M223.906 217.156c1.192 1.133 4.932 5.038 5.834 6.346l-.996.375c-.341-.497-5.271-5.818-5.637-6.102zM222.763 174.227c1.607-1.392 3.146-2.884 4.692-4.352.437-.414.863-.188 1.439-.063-1.025 1.05-4.87 4.992-6.036 5.615z"/><path fill="#d51316" d="M231.203 32.667c1.283.127 20.622 20.347 23.465 22.797-1.077.952-2.324 2.221-3.309 3.27-6.344 6.754-13.426 13.168-19.642 20.017-.871-.33-20.49-20.856-23.442-23.283 2.677-2.276 6.187-5.985 8.723-8.556q7.036-7.188 14.205-14.245M231.444 311.932c2.208 1.79 4.696 4.602 6.819 6.596 5.418 5.089 11.051 11.398 16.571 16.243-7.638 7.804-15.462 15.306-23.11 23.072-.326-.154-21.327-20.885-23.545-22.999 3.46-2.558 6.95-6.492 10.002-9.59zM393.714 146.199l11.855 11.898c2.913 2.971 6.041 6.424 9.056 9.224-4.646 4.391-9.382 9.82-14.086 14.274-2.08 1.968-4.188 4.433-6.464 6.137-2.916-.487-17.818-17.302-21.08-20.16 6.483-6.854 13.961-14.806 20.719-21.373M67.338 146.437c1.066.307 18.612 18.753 20.802 21.043-5.76 6.137-11.895 11.904-17.732 17.966-.82.85-1.68 1.643-2.6 2.384-2.352-1.218-17.664-17.462-20.69-20.534 6.465-6.759 14.072-14.071 20.22-20.859M391.171 203.763l4.496-.053c6.521 5.852 12.288 12.865 18.567 18.758a1648 1648 0 0 1-19.501 19.359l-.836.758h-.465c-5.578-4.816-15.567-15.968-20.434-20.22 6.029-5.919 11.993-12.525 18.173-18.602M421.067 174.649c.278.073 19.036 18.932 20.99 20.723-6.701 6.824-13.762 13.14-20.373 20.159-.147.063-.368.029-.557.025-4.106-3.689-8.04-7.92-11.906-11.862-2.742-2.795-5.5-5.384-8.169-8.273 2.241-3.071 6.053-6.707 8.818-9.474zM365.556 174.676c1.543.582 18.812 18.66 20.307 20.687-3.329 4.428-7.141 7.833-11.102 11.642-2.984 2.871-5.839 6.03-8.949 8.756-1.767-2.199-4.766-5.011-6.806-7.025-4.599-4.543-9.362-8.859-13.767-13.606.968-.781 1.983-1.8 2.857-2.691 5.761-5.866 12.138-11.494 17.46-17.763M40.35 174.707l11.368 11.726c2.808 2.849 6.12 5.75 8.297 9.058-.41.6-1.25 1.647-2.059 2.446-5.887 5.817-11.592 11.913-17.556 17.643l-.471.016c-6.728-7.093-13.587-13.433-20.421-20.376 2.208-1.723 5.211-5 7.3-7.09q6.723-6.76 13.542-13.423M95.581 174.656c6.881 6.153 13.659 14.541 20.372 20.596-6.683 6.905-13.631 13.466-20.282 20.443-6.491-6.437-14.445-13.836-20.39-20.57 6.315-7.102 14.292-13.624 20.3-20.469M67.09 203.833q.291-.015.582-.019c.7-.005 1.375.054 1.932.499 6.27 5.014 12.708 12.507 18.351 18.194-5.834 6.243-13.86 14.201-20.039 20.038l-.432.176c-1.442-1.263-3.358-3.478-4.875-4.931-5.246-5.023-10.218-10.377-15.413-15.449 6.27-5.631 11.635-12.592 18.072-18.059.382-.324 1.332-.407 1.823-.449M372.702 293.136a580 580 0 0 1 15.267-.033c-.007 4.263-.131 8.501-.125 12.791 3.69.054 7.803-.074 11.528-.121.063 3.418.328 12.87-.139 15.877-.546.452-.504.294-1.421.307q-5.873.027-11.742.263-.174-5.048.01-10.097c-4.947-.126-10.168-.044-15.121.022-.116-3.48-.431-15.622-.028-18.645.69-.46.795-.306 1.771-.364M387.268 67.561l12.135-.059.061 14.793c-3.717.107-7.305.032-11.017-.036a709 709 0 0 0-.004 14.724l-5.292.026q-6.14.008-12.279.08c-.23-6.445-.143-13.388-.085-19.84 5.41-.028 11.179.028 16.549-.23-.132-2.948-.057-6.466-.068-9.458M62.733 68.026c2.398.412 10.913.207 13.71.19l.15 9.02 12.958.126q.186 9.818.124 19.637c-5.695.213-11.878.078-17.613.049q-.255-7.224-.08-14.45c-2.921-.08-5.9-.096-8.825-.14.013-4.9.024-9.538-.424-14.432M72.687 293.212c5.096.217 11.775-.021 17.078.003-.145 6.155.15 12.65-.16 18.754q-6.421-.024-12.842.105l.05 6.345.104 3.247c-4.661-.03-8.999-.03-13.655.145l-.014-16.206c3.093-.103 6.404-.076 9.515-.107-.093-4.172-.178-8.109-.076-12.286M19.513 25.51l21.96.017c-.043 2.9.5 19.2-.284 20.459-5.874-.195-15.951-.382-21.687-.07q-.24-10.202.01-20.405M19.502 343.407c7.001.245 14.92.063 22.005.112l-.03 20.17c-7.201.165-14.763.038-21.99.024-.408-5.813-.15-14.366.015-20.306M420.128 25.535l21.633-.09c-.086 6.757.011 13.61-.043 20.39l-21.508.133a336 336 0 0 1-.082-20.433M420.112 343.552c6.938.116 14.608-.081 21.624-.102l-.001 20.239q-10.782.13-21.566.046a647 647 0 0 1-.057-20.183M117.758 247.991l20.967-.14-.011 12.93c-.001 1.559-.094 5.447.14 6.78l.331.33-.563.545c-6.899-.097-14 .094-20.969.03l-.226-.646c.543-.949.296-17.189.331-19.829M323.092 247.824l20.944.077c-.006 3.002-.187 18.071.269 20.124-.01.543.083.78-.164 1.162-.116-.635.015-.362-.406-.848q-10.236.097-20.473-.016l-.286-.596c.423-.941.245-17.752.116-19.903M117.747 122.438c6.556-.244 14.301-.084 20.997-.134l.119.191c-.204 1.028-.153 5.57-.153 6.82l.024 13.321-21.004.067zM323.385 122.571c4.373-.31 16.306-.434 20.633-.145l.155.137c-.276 1.694-.165 5.181-.164 7.072l.011 12.883c-5.462.46-15.064.176-20.803.186a846 846 0 0 1 .019-19.9zM317.168 271.345l.069.127c-.208.839-.147 4.926-.148 5.988q-.042 6.892.057 13.785-10.366.067-20.731.015c-.199-6.592-.006-13.347-.082-19.995a800 800 0 0 1 20.835.08M145.555 270.803c.334.398.189.397.803.412 6.493.156 13.143-.054 19.628.065.016 6.473-.112 13.537.085 19.96q-10.205.087-20.409.055c-.052-2.549.068-19.225-.207-20.034zM296.332 98.984l20.678.023.004 13.093c.004 1.664-.079 5.059.059 6.616-6.964.135-13.83.035-20.781.076q-.08-9.903.04-19.808M145.221 98.984q10.389-.013 20.778.1l.051 19.695q-10.308.06-20.615-.052l-.108-.263c.257-5.467-.026-13.861-.106-19.48M91.758 271.292c6.376-.079 13.408-.189 19.744.043l.029 19.683q-9.877-.004-19.756.108c-.172-1.227-.083-5.204-.077-6.638zM349.533 271.311a902 902 0 0 1 18.896-.059c.023 6.537-.061 13.444.102 19.951-6.384.047-12.979-.148-19.299-.004a290 290 0 0 1-.106-12.71c.014-1.659.16-5.646.02-7.006zM91.728 98.966l19.499.016c.15 6.481-.056 12.972.088 19.459l-.1.193c-1.897-.099-5.157.068-7.152.089q-6.146.033-12.291-.004a872 872 0 0 1-.044-19.753M42.694 48.018c6.48.213 13.051-.161 19.663.185q.093 9.554.073 19.107c-6.203-.13-13.518-.402-19.7-.135-.246-6.144-.133-13.003-.036-19.157M42.732 322.485c6.187.185 13.818.058 20.01-.071-.362 6.03-.226 12.926-.228 19.033q-9.923.072-19.844.002c-.212-5.575-.056-13.371.062-18.964M349.316 98.954l19.099.033c-.016 6.137-.247 13.795-.028 19.793-4.718-.006-14.28-.314-18.632.038l-.206-.356c-.543-3.351-.279-15.435-.233-19.508M399.215 48.107c5.549-.054 13.797-.36 19.199.036-.128 5.941.311 13.27-.03 18.978-6.149.175-12.863.029-19.108.107-.081-5.804-.352-13.442-.061-19.121M399.501 322.503c6.183.236 12.675.081 18.887.026-.19 5.853.016 12.815.036 18.755q-9.466.192-18.936.255z"/><path fill="#d51316" d="M138.699 118.448c1.831-.118 4.868-.318 6.628.016l.108.263c-.015 1.259-.051 2.58-.035 3.832-1.904.001-4.709.072-6.537-.064l-.119-.191c-.101-1.072-.049-2.733-.045-3.856M111.315 118.441c1.927-.022 4.288.015 6.179-.117l.045 4.205-6.182.042-.142-3.937zM317.073 118.716c1.927-.069 4.088-.197 5.998-.185.045.747.167 3.474.314 4.04l-.149.233c-.907-.157-5.259-.097-6.367-.097.119-1.35.158-2.637.204-3.991M316.977 267.566q3.001.01 5.999.161l.286.596c.005.985.046 2.301-.013 3.252l-6.012-.103-.069-.127c-.125-1.079-.145-2.654-.191-3.779M139.185 267.891c1.776-.147 6.619-1.156 6.464 1.45-.027.465-.053.994-.094 1.462l-.1.458c-2.286-.016-4.715.609-6.385-.314-.614-.997-.411-1.204-.448-2.511zM349.549 118.462l.206.356c.094 1.323.15 2.237.106 3.561-1.938.097-3.743.179-5.688.184l-.155-.137-.017-3.977q2.774-.023 5.548.013M111.5 267.539c1.718.009 4.34-.108 5.927.281l.226.646c-.022 1.016-.053 2.001-.008 3.018-2.027-.092-4.121-.231-6.143-.149zM344.305 268.025c1.647-.195 3.558-.7 4.856.147.691.931.463 1.951.372 3.139l-.387.172c-1.7.084-3.411.509-4.809-.238-.463-.846-.275-.982-.196-2.058.247-.382.154-.619.164-1.162"/></svg>