<svg width="24" height="24" viewBox="0 0 64 64" fill="none" xmlns="http://www.w3.org/2000/svg" aria-hidden="true">
    <path
      d="M22.5 45.5H41.5
         C43.3 45.5 44.8 44.1 45 42.3
         L46.1 28.6
         C51.1 28.1 55 23.9 55 18.8
         C55 13.4 50.6 9 45.2 9
         C41.9 9 38.9 10.7 37.2 13.3
         C36.1 8.6 31.9 5 27 5
         C22.1 5 17.9 8.6 16.8 13.3
         C15.1 10.7 12.1 9 8.8 9
         C3.4 9 -1 13.4 -1 18.8
         C-1 23.9 2.9 28.1 7.9 28.6
         L9 42.3
         C9.2 44.1 10.7 45.5 12.5 45.5H22.5Z"
      transform="translate(5 7)"
      stroke="#fff"
      stroke-width="5"
      stroke-linecap="round"
      stroke-linejoin="round"
    />
</svg>