<?xml version="1.0"?><svg xmlns="http://www.w3.org/2000/svg" viewBox="0 0 128 128"><path d="m117.29 110.43c-1.32-1.98-40.73-55.49-40.73-55.49s34.35-37.43 36.55-39.96 1.65-4.18.55-4.07-7.71-.33-9.69-.33-1.98.66-6.17 5.17c-4.18 4.51-27.19 30.94-27.19 30.94s-17.61-24.66-21.36-29.83c-3.74-5.17-6.17-5.72-7.38-5.72s-23.67-.22-27.63-.33-4.57 3.9-2.31 6.61c1.65 1.98 39.19 51.3 39.19 51.3s-36.44 40.62-38.42 42.72c-1.98 2.09-4.4 4.18-2.2 4.95s10.46 1.54 12.11.66 35.45-39.52 35.45-39.52 21.36 27.63 24 32.37c2.64 4.73 4.4 5.06 5.28 5.28s26.09 0 28.95-.44 2.31-2.31.99-4.29zm-26.97-2.64-67.16-89.73c.77-.11 17.83.66 17.83.66l63.63 89.17-14.31-.11z" fill="#1d1d1b"/></svg>