<?xml version="1.0" encoding="UTF-8" standalone="no"?>
<!-- Created with Inkscape (http://www.inkscape.org/) -->

<svg
   xmlns:dc="http://purl.org/dc/elements/1.1/"
   xmlns:cc="http://creativecommons.org/ns#"
   xmlns:rdf="http://www.w3.org/1999/02/22-rdf-syntax-ns#"
   xmlns:svg="http://www.w3.org/2000/svg"
   xmlns="http://www.w3.org/2000/svg"
   xmlns:sodipodi="http://sodipodi.sourceforge.net/DTD/sodipodi-0.dtd"
   xmlns:inkscape="http://www.inkscape.org/namespaces/inkscape"
   width="141.11111mm"
   height="141.11111mm"
   viewBox="0 0 500.00001 500.00001"
   id="svg9730"
   version="1.1"
   inkscape:version="0.92.1 r15371"
   sodipodi:docname="Emblem_of_the_Ukrainian_Armed_Forces.svg">
  <defs
     id="defs9732" />
  <sodipodi:namedview
     id="base"
     pagecolor="#ffffff"
     bordercolor="#666666"
     borderopacity="1.0"
     inkscape:pageopacity="0.0"
     inkscape:pageshadow="2"
     inkscape:zoom="1.1718749"
     inkscape:cx="266.66669"
     inkscape:cy="266.66666"
     inkscape:document-units="px"
     inkscape:current-layer="layer1"
     showgrid="false"
     fit-margin-top="0"
     fit-margin-left="0"
     fit-margin-right="0"
     fit-margin-bottom="0"
     inkscape:window-width="1600"
     inkscape:window-height="838"
     inkscape:window-x="-8"
     inkscape:window-y="-8"
     inkscape:window-maximized="1" />
  <metadata
     id="metadata9735">
    <rdf:RDF>
      <cc:Work
         rdf:about="">
        <dc:format>image/svg+xml</dc:format>
        <dc:type
           rdf:resource="http://purl.org/dc/dcmitype/StillImage" />
        <dc:title />
      </cc:Work>
    </rdf:RDF>
  </metadata>
  <g
     inkscape:label="Layer 1"
     inkscape:groupmode="layer"
     id="layer1"
     transform="translate(-125.00003,-282.3622)">
    <g
       id="g4517"
       transform="matrix(1.4109503,0,0,1.4109503,1058.2726,-320.56443)">
      <path
         sodipodi:nodetypes="ccccccccccccc"
         inkscape:connector-curvature="0"
         id="path4504"
         d="m -546.13909,427.81954 37.46289,152.27344 -152.27344,-37.46289 0,123.75 152.27539,-37.46484 -37.46484,152.27539 123.75,0 -37.4668,-152.27735 152.27735,37.4668 0,-123.75 -152.2754,37.46484 37.46485,-152.27539 z"
         style="color:#000000;font-style:normal;font-variant:normal;font-weight:normal;font-stretch:normal;font-size:medium;line-height:normal;font-family:sans-serif;text-indent:0;text-align:start;text-decoration:none;text-decoration-line:none;text-decoration-style:solid;text-decoration-color:#000000;letter-spacing:normal;word-spacing:normal;text-transform:none;direction:ltr;block-progression:tb;writing-mode:lr-tb;baseline-shift:baseline;text-anchor:start;white-space:normal;clip-rule:nonzero;display:inline;overflow:visible;visibility:visible;opacity:1;isolation:auto;mix-blend-mode:normal;color-interpolation:sRGB;color-interpolation-filters:linearRGB;solid-color:#000000;solid-opacity:1;fill:#ffdf00;fill-opacity:1;fill-rule:nonzero;stroke:#806600;stroke-width:1;stroke-linecap:butt;stroke-linejoin:miter;stroke-miterlimit:4;stroke-dasharray:none;stroke-dashoffset:0;stroke-opacity:1;color-rendering:auto;image-rendering:auto;shape-rendering:auto;text-rendering:auto;enable-background:accumulate" />
      <path
         sodipodi:nodetypes="ccccccccccccc"
         inkscape:connector-curvature="0"
         id="rect3687"
         d="m -499.4549,589.31433 -38.07208,-154.74467 106.52581,0 -38.07213,154.74467 154.74464,-38.07214 0,106.5258 -154.74464,-38.07207 38.07213,154.7446 -106.52581,-3e-5 38.07208,-154.74457 -154.74462,38.07207 0,-106.5258 z"
         style="opacity:1;fill:#d50663;stroke:#806600" />
      <path
         inkscape:connector-curvature="0"
         id="path4508"
         d="m -413.63909,604.50509 a 70.625,70.625 0 0 1 -70.625,70.625 70.625,70.625 0 0 1 -70.625,-70.625 70.625,70.625 0 0 1 70.625,-70.625 70.625,70.625 0 0 1 70.625,70.625 z"
         style="opacity:1;fill:#ffdf00;stroke:#806600;stroke-width:1;stroke-miterlimit:4;stroke-dasharray:none" />
      <path
         inkscape:connector-curvature="0"
         style="opacity:1;fill:#001788;stroke:#806600;stroke-width:1;stroke-miterlimit:4;stroke-dasharray:none"
         d="m -420.92573,604.50509 a 63.338378,63.338378 0 0 1 -63.33836,63.33836 63.338378,63.338378 0 0 1 -63.33836,-63.33836 63.338378,63.338378 0 0 1 63.33836,-63.33836 63.338378,63.338378 0 0 1 63.33836,63.33836 z"
         id="path4511" />
      <path
         inkscape:connector-curvature="0"
         d="m -484.26409,551.27179 c -2.48077,2.81517 -3.99251,6.50012 -3.99251,10.54479 0.14701,8.88086 1.23623,17.74358 1.33082,26.62181 0.19692,8.27433 -2.28486,16.04581 -5.30256,23.62683 -1.00545,2.09501 -2.09319,4.14552 -3.18147,6.19796 l -3.20231,-0.64475 c -2.8815,-0.57623 -4.75574,-3.37833 -4.17963,-6.2602 0.50402,-2.52184 2.72321,-4.27293 5.19856,-4.28449 l 1.16445,0.12478 -2.59932,-21.71346 c -0.84952,-9.66914 -5.83705,-18.15044 -13.18351,-23.66848 -1.26248,-0.94822 -2.6001,-1.81516 -3.9925,-2.579 l 0,77.12009 17.79984,0 c 1.33097,7.22637 5.30725,13.52184 10.89621,17.84508 1.3294,0.9164 2.44299,2.12511 3.24393,3.53564 0.80093,-1.41053 1.91445,-2.61924 3.24385,-3.53564 5.58903,-4.32324 9.56533,-10.61871 10.89621,-17.84508 l 17.79992,0 0,-77.12009 c -1.3924,0.76384 -2.73003,1.63078 -3.99251,2.579 -7.34652,5.51804 -12.33399,13.99934 -13.18358,23.66848 l -2.59931,21.71346 1.16452,-0.12478 c 2.47536,0.0122 4.69446,1.76265 5.19857,4.28449 0.57611,2.88187 -1.29821,5.68397 -4.17964,6.2602 l -3.20232,0.64475 c -1.08835,-2.05244 -2.176,-4.10295 -3.18154,-6.19796 -3.01762,-7.58102 -5.49948,-15.3525 -5.30255,-23.62683 0.0947,-8.87823 1.18388,-17.74095 1.33088,-26.62181 0,-4.04467 -1.51174,-7.72962 -3.9925,-10.54479 z m -26.61666,19.07211 c 3.44491,4.04386 5.75688,9.08298 6.44623,14.62119 l 2.14177,17.90738 c -2.72721,1.35802 -4.79477,3.84935 -5.57282,6.86339 l -3.01518,0 0,-39.39196 z m 53.23324,0 0,39.39196 -3.0151,0 c -0.77812,-3.01404 -2.84562,-5.50537 -5.5729,-6.86339 l 2.14185,-17.90738 c 0.68935,-5.53821 3.00132,-10.57733 6.44615,-14.62119 z m -26.61658,36.00177 c 1.42994,4.67797 3.39728,9.11997 5.84317,13.24857 -2.32639,0.70689 -4.35117,2.08184 -5.84317,3.93085 -1.492,-1.84901 -3.51678,-3.22386 -5.84316,-3.93085 2.44589,-4.1286 4.41314,-8.5706 5.84316,-13.24857 z m -26.61666,8.71464 3.01518,0 c 0.95068,3.6744 3.81886,6.57776 7.46509,7.59126 l 2.55771,0.58241 c -0.68488,2.48312 -1.06047,5.09953 -1.06047,7.79935 l -11.97751,0 0,-15.97302 z m 50.21814,0 3.0151,0 0,15.97302 -11.97744,0 c 0,-2.69982 -0.37566,-5.31623 -1.06054,-7.79935 l 2.55771,-0.58241 c 3.64632,-1.0135 6.51449,-3.91686 7.46517,-7.59126 z m -31.98159,9.40074 c 3.22927,0.45652 5.71842,3.21706 5.71842,6.57228 l -6.65414,0 c 0,-2.28232 0.33798,-4.48184 0.93572,-6.57228 z m 16.76023,0 c 0.59766,2.09044 0.9357,4.28996 0.9357,6.57228 l -6.6542,0 c 0,-3.35522 2.48914,-6.11576 5.7185,-6.57228 z m -17.09296,11.89662 6.05115,0 0,11.21032 c -2.93668,-3.0707 -5.0699,-6.92633 -6.05115,-11.21032 z m 11.37446,0 6.05114,0 c -0.98117,4.28399 -3.11447,8.13962 -6.05114,11.21032 l 0,-11.21032 z"
         id="path7306-8"
         style="display:inline;opacity:1;fill:#ffdf00;fill-opacity:1" />
    </g>
  </g>
</svg>
