<svg version="1.1" id="Layer_1" xmlns="http://www.w3.org/2000/svg" x="0" y="0" viewBox="0 0 148 142" xml:space="preserve"><style>.st2{fill:#e7ac17}.st4{fill:#753214}.st5{fill:#4f2314}.st6{opacity:.5;enable-background:new}.st6,.st8,.st9{fill:#512516}.st9{opacity:.35;enable-background:new}.st13{fill:#ffffc4}</style><g id="chest"><linearGradient id="SVGID_1_" gradientUnits="userSpaceOnUse" x1="75.68" y1="26.16" x2="73.82" y2="130.77" gradientTransform="matrix(1 0 0 -1 0 143.33)"><stop offset="0" stop-color="#efa420"/><stop offset="1" stop-color="#753214"/></linearGradient><path d="M17.6 103.3L92 126.5l33.3-16.9 11-51.6S99.8 75.7 97.1 76.3C94.5 77 13 58 13 58l4.6 45.3z" fill="url(#SVGID_1_)"/><linearGradient id="SVGID_2_" gradientUnits="userSpaceOnUse" x1="141.83" y1="-8.48" x2="106.08" y2="69.38" gradientTransform="matrix(1 0 0 -1 0 143.33)"><stop offset="0" stop-color="#d3891c"/><stop offset="1" stop-color="#753214"/></linearGradient><path d="M92.5 126.2l32.8-16.6 11-51.6S99.8 75.7 97.1 76.3c-.4.1-2.7-.3-6.3-1 .1 15.2 1.1 37.2 1.7 50.9z" fill="url(#SVGID_2_)"/><path class="st2" d="M91.7 110.4L21.3 91.5l1.8 2.6c27.4 7.1 55.2 14.2 69 19.3.3-.2.6-.3.9-.4.1-1 .1-2.1.2-3.1l-1.5.5z"/><path d="M131.2 93.2l-38 16.6-.2 3.1c22.2-11.4 33.6-16.3 38.2-16.2v-3.5z" fill="#bc7b26"/><path class="st4" d="M91.7 108.8c-15.3-1.7-43.1-9.7-70.4-18.9l3.1 3.4L92 111.7l.4-.2c-.1-.9-.2-1.9-.4-2.9 0 .1-.1.1-.3.2z"/><path class="st5" d="M131.2 91.5c-10.1 6.2-21.7 12.1-39.1 17.1.1.9.3 1.9.4 2.9l38.7-17.3v-2.7z"/><path class="st4" d="M21.3 72.8l1.2 2.4 67.9 19c0-.9-.1-1.7-.1-2.5-14.5-1.3-41.7-10.1-69-18.9z"/><path class="st5" d="M131.2 77.2v-2.7c-14.2 8-27.4 14-39.5 17.3-.4 0-.9-.1-1.4-.1 0 .9 0 1.7.1 2.5l1.7.5 39.1-17.5z"/><path class="st6" d="M110.6 95.9c7.7-3.6 6.5-6.6 19.4-11.3.4-.2.4-.8-.1-.9-9.9-.5-21.7 20.1-33.2 10.4-.6-.6 4.1 6.5 13.9 1.8z"/><path class="st6" d="M130.1 90.1c-4.1-2.8-8.7-.3-11.8 2.6-8.1 7.5-18.4 6.7-17.3 6.8 2.1 0 8.1.6 13.4-1.8 4.2-1.9 9.4-8.1 14.2-4.9 1.6 1.1 3.1-1.5 1.5-2.7zm-34.4 29.4c5.5-4.5 11-8.7 17.6-11.6 14.5-6.6 3.8 5.2-3.3 5.4-1.2 0 .9-.8 1.3-1.1.6-.4.3-1.6-.6-1.3-4.3 1.3-5.2 5.6.5 3.9 3.9-1.1 12-5.4 11.4-8.7-1.9-9.9-31 16.7-26.9 13.4z"/><path d="M130.1 70.4c-8.7.3-17.2 12.2-31 12.6 8.3 1.6 16.5-3.9 23-7.2 2.8-1.4 5.8-2.1 8.6-3.5.9-.4.4-1.9-.6-1.9z" opacity=".75" fill="#512516"/><path class="st6" d="M65.7 97.5c1.8 0 5.6.8 6.7 2.2.2.2.1.4.4.6 1.3.8 3.1-.1.6-1.6-10.3-6.1-16.1-1.7-2.9 3.6 11.4 4.6 18.2-4-1.3-9.3-17.6-4.8-37-.4-52.9-11.1 15.4 13.2 38.9 6.5 57.2 14 14.4 5.9-.9 10.5-7.8 1.6z"/><path class="st8" d="M38.5 102.7c.4 3.5 8 6.9 9.5 6.3 1.8-.8-.1-3.5-1.1-2.7-.5.5.1.9.1 1.4-3.1-.1-10.7-7-4-5.2 7.1 1.9 13.3 8.7 10 9.6-.7.2-13.5-2.2-30.7-15.4-.2-.2-.5.2-.2.4 17.4 13.4 30.7 17.5 32.8 16 6-4.2-17.2-18.1-16.4-10.4zm50 17.1c-22.2-3.9-24.8-15.1-39.2-17.9 7.5 2.7 13.4 8.5 19.9 12.8 5.1 3.5 12.8 7.9 19.3 6.8.8-.2.8-1.6 0-1.7zM-86.3-87.3"/><path class="st9" d="M13 58l4.6 44.7c.2.3.4.5.6.7l12.9 4.1c-.2-.5-.3-.9-.4-1.3-1-5.4-1.3-11.5-.1-16.9.5-2.1 1.3-5.6 3.8-6.3 9.5-2.7 8.8 16.1 24.4 12.6 6-1.4 9.7-11.6 14.3-10.9 6.9.9 10 21.9 5.1 37.5l14 4.4 11.8-6c-.5-14.8 1.3-39.8 22.3-45.4 2-20.6-28.1 1-29 1.2C94.4 77 13 58 13 58z"/><linearGradient id="SVGID_3_" gradientUnits="userSpaceOnUse" x1="72.07" y1="39.35" x2="60.88" y2="65.21" gradientTransform="matrix(1 0 0 -1 0 143.33)"><stop offset="0" stop-color="#fdec5d"/><stop offset="1" stop-color="#8c5002"/></linearGradient><path d="M11.1 55.1l10.3 41.7-3.2 5.2s2.9 9.4 4.3 11.4l8.3-5.9-3.2-1c-1.6-10.4-5.8-39.3-4.1-41 2.1-2.1 16.4 3.7 16.4 3.7l11.3 27.1s8.2 1.1 10.8-6.4c2.4-6.7 2.9-15.2 9.4-13.8C77.9 77.3 94 87.2 94 87.2s3.5-2.7 8.2-6c.6-9.9.6-20 .8-30-36.7-1.3-91.9 3.9-91.9 3.9z" fill="url(#SVGID_3_)"/><linearGradient id="SVGID_4_" gradientUnits="userSpaceOnUse" x1="137.62" y1="23.37" x2="128.17" y2="47.99" gradientTransform="matrix(1 0 0 -1 0 143.33)"><stop offset="0" stop-color="#fdec5d"/><stop offset="1" stop-color="#8c5002"/></linearGradient><path d="M132.9 99.9c3.1-11.6 4.3-30.5 1.9-41-1.1-4.9-14.4-7-31.8-7.7-.2 10-.1 20-.8 30 8.2-5.8 19.8-13.4 22.6-11.8 3.1 1.7.5 40.2.5 40.2l-3 1.5s8.6 4.4 9.9 4.4c0 0 4.1-9.7 2.9-14.1-.2-.6-1.2-1.1-2.2-1.5z" fill="url(#SVGID_4_)"/><linearGradient id="SVGID_5_" gradientUnits="userSpaceOnUse" x1="74.45" y1="84.41" x2="75.2" y2="25.97" gradientTransform="matrix(1 0 0 -1 0 143.33)"><stop offset="0" stop-color="#fffda6"/><stop offset=".24" stop-color="#fdec5d"/><stop offset=".47" stop-color="#febd25"/><stop offset="1" stop-color="#8c5002"/></linearGradient><path d="M141.1 98.9c-.3-.5-1.8-1.3-3.6-2.2 1.8-17.3 4.5-46.4 2.7-49-1.1-1.5-81.4-18.4-83.9-18.4S9.5 46.6 8.1 49.7C7 52.4 9.6 76 12.9 95.6c0 0-4.1 1.5-4.3 2.4-.3.9.8 9.3 1.7 10.3.9 1.1 12.2 5.1 12.2 5.1s-2.8-10.1-2.5-11.6c.2-1.2 2.5-2.9 2.5-2.9S17.8 66.6 19 65.4c1.2-1.2 16.4.6 16.7 4.7.6 6.4 4.1 22.9 14.3 25.8 10.9 3.1 9.5-20.3 15.6-20.3s13.2 2.3 14.3 4.8c1.5 3.3 2.5 10.7 4 37.3-.6.2-4.8 1.6-5.1 2.5-.4.9.3 11.7.8 12.8.5 1.1 11.2 5.5 13.6 5.5 2.4 0 10.9-5.2 11.3-6.1.4-1 1.2-11.2.8-12.2-.4-.9-5.1-2.5-5.1-2.5 1-12.4 2.8-34.1 3.9-36.5 1.4-3.3 22.9-14.4 25-12.3 1.6 1.6 1.1 18.4.8 26.7-.1 2.8-.2 4.6-.2 4.6s3.9.7 4.4 2.2c.5 1.5-1.8 12.5-1.9 13 1.6-.2 6.4-2.5 6.9-3.3.9-1.1 3-11.8 2-13.2z" fill="url(#SVGID_5_)"/><path class="st13" d="M35 68.7c-3.3-3.3-16-5.4-17.1-4.4-1.2 1.2 4.4 33.4 4.6 34.5-.1-1-4.6-32.2-3.4-33.3 1-1.1 12.8.1 15.9 3.2zM81.1 80c-1.1-2.4-10.5-5.5-16.6-5.5-4.7 0-4.6 15.6-9.6 20.8 5.8-4 5.8-19.7 10.7-19.7 6.1 0 13.2 2.3 14.3 4.8 1.5 3.3 2.4 10.5 3.9 36.1-1.4-25.6-1.2-33.2-2.7-36.5z"/><linearGradient id="SVGID_6_" gradientUnits="userSpaceOnUse" x1="108.01" y1="74.42" x2="126.66" y2="22.45" gradientTransform="matrix(1 0 0 -1 0 143.33)"><stop offset="0" stop-color="#8c5002"/><stop offset=".6" stop-color="#febd25"/><stop offset="1" stop-color="#8c5002"/></linearGradient><path d="M104.5 132.4c.4-1 1.2-11.2.8-12.2-.4-.9-5.1-2.5-5.1-2.5 1-12.4 2.8-34.1 3.9-36.5 1.4-3.3 22.9-14.4 25-12.3 1.6 1.6 1.1 18.4.8 26.7-.1 2.8-.2 4.6-.2 4.6s3.9.7 4.4 2.2c.5 1.5-1.8 12.5-1.9 13 1.6-.2 6.4-2.5 6.9-3.3.9-1.2 2.9-11.9 2-13.2-.3-.5-1.8-1.3-3.6-2.2 1.8-17.3 4.5-46.4 2.7-49-.3-.4-5.1-1.6-12.5-3.4-14.2 1.5-29.9 8.8-32.7 28.4 0 0-1.8 46.4-1.8 47.4 0 1.1 1.6 2.4 1.8 3.7.3 1.3-1.8 14.6-1.8 14.6 2.4.1 10.9-5.1 11.3-6z" fill="url(#SVGID_6_)"/><path class="st13" d="M46.4 78.1c1.3 1.6-2.6 8.4-1.8 9.5.7 1.1 7.6 4.4 9.3 2.7 1.7-1.7-4.2-9.5-2.4-10.9 6-4.4 2.4-8.5-4.3-8.5-2.1.1-4.3 2.9-.8 7.2z"/><path d="M100.3 117.7c.5-5.8 1.1-13.7 1.8-20.7-4.5-8.5-5.4-22.6-5.5-30.7-.7 2-1.2 4.1-1.6 6.5 0 0-1.8 46.4-1.8 47.4s1.6 2.4 1.8 3.7c.3 1.3-1.8 14.6-1.8 14.6 2.4 0 10.9-5.2 11.3-6.1.4-1 1.2-11.2.8-12.2-.3-.9-5-2.5-5-2.5z" opacity=".45" fill="#512516"/><path d="M45.8 78.1c1.3 1.6-2.3 8-1.6 9.2.7 1.1 8 3.6 9.1 2.4 1.1-1.1-3.4-8.6-1.8-10.3 4.1-4 2.4-6.8-2-8.1-5.1-1.5-7.1 2.5-3.7 6.8z" fill="#4e342e"/><linearGradient id="SVGID_7_" gradientUnits="userSpaceOnUse" x1="55.5" y1="20.17" x2="45.72" y2="71.73" gradientTransform="matrix(1 0 0 -1 0 143.33)"><stop offset="0" stop-color="#fffda6"/><stop offset=".24" stop-color="#fdec5d"/><stop offset=".47" stop-color="#febd25"/><stop offset="1" stop-color="#8c5002"/></linearGradient><path d="M46.9 85.7c-.7-1.1 2.9-7.5 1.6-9.2-1.7-2.2-2.1-4.3-1.3-5.6-3.3.2-4.2 3.5-1.4 7.1 1.3 1.6-2.3 8-1.6 9.2.7 1.1 8 3.6 9.1 2.4.2-.2.2-.7.1-1.4-2.6-.4-6-1.7-6.5-2.5z" fill="url(#SVGID_7_)"/><linearGradient id="SVGID_8_" gradientUnits="userSpaceOnUse" x1="18.97" y1="54.27" x2="6.2" y2="19.12" gradientTransform="matrix(1 0 0 -1 0 143.33)"><stop offset="0" stop-color="#fffda6"/><stop offset=".24" stop-color="#fdec5d"/><stop offset=".47" stop-color="#febd25"/><stop offset="1" stop-color="#8c5002"/></linearGradient><path d="M8.7 98c1.7 1.7 11.3 3.7 11.3 3.7.2-1.2 2.5-2.9 2.5-2.9L13 95.6S8.9 97.1 8.7 98z" fill="url(#SVGID_8_)"/><path class="st13" d="M20 101.7s-9.6-2-11.3-3.7c1.7 1.7 11.4 5.3 11.4 5.3.2-1.2 2.4-4.5 2.4-4.5s-2.3 1.7-2.5 2.9z"/><linearGradient id="SVGID_9_" gradientUnits="userSpaceOnUse" x1="85.18" y1="32.5" x2="107.9" y2="1.5" gradientTransform="matrix(1 0 0 -1 0 143.33)"><stop offset="0" stop-color="#fffda6"/><stop offset=".24" stop-color="#fdec5d"/><stop offset=".47" stop-color="#febd25"/><stop offset="1" stop-color="#8c5002"/></linearGradient><path d="M105.2 120c-.9-.9-4.9-2.3-4.9-2.3-2.8 2.1-7.1 2.5-7.1 2.5s-5.8.3-9.3-2.5c-.6.2-4.8 1.6-5.1 2.5 0 0 13 5.5 16.2 4.7 3.2-.7 10.3-4.7 10.3-4.7s0-.1-.1-.2z" fill="url(#SVGID_9_)"/><path class="st13" d="M95 123.9c-3.2.7-16.2-3.7-16.2-3.7s13 6.7 16.2 6c3.2-.8 10.3-6 10.3-6s-7.1 3-10.3 3.7zm-.5-39c-5.1 27-13.3.8-13.3.8.8 4.8 1.5 12.9 2.4 27.9 4.8-13.3 9.7 2.4 9.7 2.4.5-8.2.7-17.4 1.2-31.1zM18.8 66.7c-.3 2.2-.7 3.4-.7 3.4.3 10.4-7.9 2.3-9.5-5.8.9 8.6 2.3 19.7 4 29.9 2.1-12.2 7.8-1.6 9.3 1.5-.8-7-3.1-24.1-3.1-29zm35.6 26.6c-.2.7-2 .9-4 .4-2.1-.5-3.6-1.5-3.4-2.3.2-.7 2-.9 4-.4 2 .6 3.5 1.6 3.4 2.3zm83.1 3.5c1.3-12.4 3.1-30.8 3.3-41.2.1-4.1-4.6 41.8-4.6 41.8 1.8.9 3.9 1.8 4.2 2.3.9 1.3-.5 11.4-1.4 12.6.9-1.2 2.9-11.9 2-13.3-.2-.5-1.7-1.4-3.5-2.2zM-86.3-87.3"/><path d="M141.1 98.9c-.3-.5-1.8-1.3-3.6-2.2l-7.9 3.4s3.9.7 4.4 2.2l7.3-2.4c0-.4-.1-.8-.2-1z" opacity=".4" fill="#ffffc4"/><path class="st13" d="M47.4 61.1c-.3 1 44.6 11 46.1 12.9 1.6 1.9-.6 20.7 0 20.7s1.8-19.5 2.4-20.7c.4-.9 4.8-3.2 4.6-3.6-.2-.3-3.5 1.3-5.3 1.8-4.3 1-47.6-12.1-47.8-11.1zM13.2 46.6c-2.8 1.4-4.7 2.6-5 3.2-.6 1.4 30.5 9.7 30.5 9.1 0-.5-28.7-8.5-28.8-9.4-.1-.6 1.4-1.7 3.3-2.9z"/><linearGradient id="SVGID_10_" gradientUnits="userSpaceOnUse" x1="80.58" y1="148.21" x2="13.5" y2="8.08" gradientTransform="matrix(1 0 0 -1 0 143.33)"><stop offset="0" stop-color="#efa420"/><stop offset="1" stop-color="#753214"/></linearGradient><path d="M106.1 15.3L48.3 4.2s-22.6 13-26.9 24c-4.3 11-4.4 21-4.4 21l72.4 18.2s2.4-38 16.7-52.1z" fill="url(#SVGID_10_)"/><path class="st2" d="M89.3 45L18.8 28.5l1.8 2.5 68.6 16.8.1-2.8z"/><g opacity=".75"><path class="st6" d="M36.1 44.7c-1.2-1-1.7-1.9.4-2 2.3-.1 20.2 1.5 28.2 8.5-3.8 1.5-14-2.6-14.8-4.4 1.2-.3 1.4-1.4.4-1.5-3.5-.6-3.6 5.4 11.6 7.4 21 2.8-24.4-17.4-28.9-10.3-3 4.7 26.5 15.1 57.8 15.5.5-.1-44.8-5.1-54.7-13.2z"/><path class="st6" d="M15.3 37.5c-.8-.2-1.1 1-.3 1.2 6.7 1.5 13.4.7 20.2.9 28.8 1.1 64.2 21 61.2 19.1C55.5 32.8 26 39.8 15.3 37.5z"/><path class="st8" d="M53.1 60.4c-7.8-7.8-24.3-18.8-37.3-19.7-.6 0-.7.9-.1 1 16.4 2.2 38.5 19.8 37.4 18.7z"/><path class="st6" d="M97 38.3c.5.3 1.1-.4.6-.8-9.1-9.5-37.5-5.4-54.4-9.4C35 26.2 24 20 25.1 20.7 54.6 41.1 76.2 25.1 97 38.3z"/><path class="st6" d="M96.4 33.8c-23-14.3-48.5-3.6-64.2-19.3-1.3-1.3-3.2.7-2 2C43.3 32 61 20.9 96.4 33.8zm-18.7-18c6 2.2 11.6 8.2 19.1 7.5.8-.1.8-1.3 0-1.2-9.7.6-13.3-8.7-26.4-8.8-17.7-.2-29.1-3.5-29.1-3.5l-3.6.6c23 6 32.1 2.5 40 5.4z"/><path class="st6" d="M58.3 11.1c34.6.8 25.8 5.2 43.8 7.4.3 0-23.2-7.5-27.8-8.2-11.7-1.6-11.2 1-28.9-2.7-1.4-.2-2.9 3.2 12.9 3.5z"/></g><path class="st4" d="M89.3 45L18.8 26.8 22 30l67.2 16 .1-1z"/><path class="st2" d="M100.3 27.4L29.8 10.9l1.8 2.5c20.7 4.2 44 10.1 68.6 16.8l.1-2.8z"/><path class="st4" d="M100.3 26.8c-7.3-3.7-42.1-9.2-70.5-16.6l3.2 2.2 67.2 16 .1-1.6z"/><linearGradient id="SVGID_11_" gradientUnits="userSpaceOnUse" x1="62.99" y1="65.16" x2="81.22" y2="126.41" gradientTransform="matrix(1 0 0 -1 0 143.33)"><stop offset="0" stop-color="#fffda6"/><stop offset=".24" stop-color="#fdec5d"/><stop offset=".47" stop-color="#febd25"/><stop offset="1" stop-color="#8c5002"/></linearGradient><path d="M123.7 16.6c-.7-.3-10.9-3.6-15.8-3.6-5.8 0-18 10.5-23.3 46.1-.9 6.4-63.7-10.9-65.2-14.2C17.1 39.6 31.6.5 64.6 7.3c0 0-8.4-5.2-23.7-4.8-27.3.7-39.6 48-36.8 50.8 3.8 3.8 88.2 24.8 92.5 24.8 3.3 0 29.6-14.8 41.9-23.6l-14.8-37.9z" fill="url(#SVGID_11_)"/><path class="st13" d="M96.6 78.1c.7 0 2.6-.7 5.2-2-.6-11.4-2.9-23-3.4-22.7-1.2.7-3.7 20.8-3.7 22.4 0 1.6-55.3-11.6-55.8-11.6C64 70.9 94 78.1 96.6 78.1z"/><path class="st4" d="M64.6 7.3C44.3-1 19.7 15 16.2 45.6c-.3 2.7 60.3 19.6 67.7 14.3-6.8 3.8-63-11.9-64.4-15C17.1 39.6 31.6.5 64.6 7.3z"/><path class="st13" d="M44.4 6.6c-10.9 3.4-20.7 13-25.5 27.1.4-2.2.7-4.9.7-4.9 3.1-6.5-1.7-9.3-9.9 1.4C14.9 18.7 23.3 6.7 35 3.4c-9.6 7-1.9 6 9.4 3.2zM111 21.5c-12.5 11.6-15.9 3.8-13.2-.4.6-.9.3-1 .6-1.7-4.8 6-9.8 16.9-13 34.9 8.1-15 10.1-14.5 12.5 2.2 0 0 15.8-37.5 13.1-35z"/><linearGradient id="SVGID_12_" gradientUnits="userSpaceOnUse" x1="100.68" y1="110.81" x2="163.91" y2="26.15" gradientTransform="matrix(1 0 0 -1 0 143.33)"><stop offset="0" stop-color="#8c5002"/><stop offset=".6" stop-color="#febd25"/><stop offset="1" stop-color="#8c5002"/></linearGradient><path d="M120.7 16.4c-20.2 3.2-24.6 41.4-24.2 61.7 4.3 0 47.5-19.3 48.8-23.9.7-2.1-11.4-39.9-24.6-37.8z" fill="url(#SVGID_12_)"/><linearGradient id="SVGID_13_" gradientUnits="userSpaceOnUse" x1="136.44" y1="51.91" x2="108.52" y2="117.94" gradientTransform="matrix(1 0 0 -1 0 143.33)"><stop offset="0" stop-color="#d3891c"/><stop offset="1" stop-color="#753214"/></linearGradient><path d="M102.6 61.3c.5 3.3 33.7-12.3 34-16.2.4-3.9-7.2-24.8-17.6-21.3-8.6 2.8-17.1 33.1-16.4 37.5z" fill="url(#SVGID_13_)"/><path class="st5" d="M131.9 33.7l-25.7 11.2c.1-.4.3-.8.4-1.2.2-.7.5-1.3.8-2 8.7-2.4 16.7-4.9 21.9-8.1.3.5 2-1.1 2.3-.7.1.3.2.6.3.8z"/><path class="st9" d="M120.7 51.5c-22.3 2.9-2.7-26.6-2.7-26.6l-.5-.4c-8 5.6-15.6 32.7-14.9 36.8.3 2.1 13.3-3.2 23.1-8.4-.7-1.2-2.3-1.7-5-1.4z"/><path d="M89.7 28.7c1.2-6.2-7.8-13-20-15.3s-23.1.8-24.2 7c-1.2 6.2 7.8 13.1 20 15.4 12.2 2.2 23-.9 24.2-7.1z" fill="#bcaaa4"/><path class="st9" d="M96.6 78.1c4.3 0 47.5-19.3 48.8-23.9.2-.7-1.1-5.7-3.4-11.8-3.6 14.3-30 29.5-37.9 24.9-7.9-4.6.6-32.8 3.4-41.4-9 13.4-11.3 37.5-10.9 52.2z"/><path class="st13" d="M92.1 58.7c.2 1.7 1.5 2.2 2.3.3 3.7-8.5-3.2-8.1-2.3-.3zM13.4 33.4c.5-1.8.4-3.5-.4-3.7-.7-.2-1.8 1.1-2.3 2.9-.6 1.8-.4 3.5.4 3.7.8.3 1.8-1.1 2.3-2.9zm4.4-5.5c.3-1.1.1-2.1-.4-2.2s-1.2.6-1.5 1.6c-.3 1.1-.1 2.1.4 2.2.5.2 1.2-.5 1.5-1.6zM112 13.5C91.6 11.7 85.2 56.3 84.6 59c5.3-35.5 17.5-46 23.3-46 1.1 0 2.6.2 4.1.5z"/></g></svg>