<?xml version="1.0" encoding="utf-8"?>
<!-- Generator: Adobe Illustrator 19.2.1, SVG Export Plug-In . SVG Version: 6.00 Build 0)  -->
<svg version="1.1" id="chest-open" xmlns="http://www.w3.org/2000/svg" xmlns:xlink="http://www.w3.org/1999/xlink" x="0px" y="0px"
	 viewBox="0 0 150 180.8" style="enable-background:new 0 0 150 180.8;" xml:space="preserve">
<style type="text/css">
	.st0{fill:url(#SVGID_1_);}
	.st1{fill:url(#SVGID_2_);}
	.st2{fill:url(#SVGID_3_);}
	.st3{fill:#BC7B26;}
	.st4{fill:#753214;}
	.st5{fill:#4F2314;}
	.st6{opacity:0.45;}
	.st7{fill:#512516;}
	.st8{fill:url(#SVGID_4_);}
	.st9{fill:#FFFFC4;}
	.st10{fill:url(#SVGID_5_);}
	.st11{fill:url(#SVGID_6_);}
	.st12{fill:url(#SVGID_7_);}
	.st13{fill:url(#SVGID_8_);}
	.st14{fill:#E9B225;}
	.st15{opacity:0.5;fill:#512516;enable-background:new    ;}
	.st16{opacity:0.6;fill:#512516;enable-background:new    ;}
	.st17{opacity:0.35;fill:#512516;enable-background:new    ;}
	.st18{fill:url(#SVGID_9_);}
	.st19{fill:url(#SVGID_10_);}
	.st20{fill:url(#SVGID_11_);}
	.st21{fill:url(#SVGID_12_);}
	.st22{fill:#4E342E;}
	.st23{fill:url(#SVGID_13_);}
	.st24{fill:url(#SVGID_14_);}
	.st25{fill:url(#SVGID_15_);}
	.st26{fill:url(#SVGID_16_);}
	.st27{fill:url(#SVGID_17_);}
	.st28{fill:url(#SVGID_18_);}
	.st29{opacity:0.3;}
	.st30{opacity:0.42;fill:#512516;enable-background:new    ;}
	.st31{opacity:0.4;fill:#FFFFC4;enable-background:new    ;}
</style>
<linearGradient id="SVGID_1_" gradientUnits="userSpaceOnUse" x1="122.7442" y1="172.7736" x2="147.6342" y2="205.0336" gradientTransform="matrix(1 0 0 1 0 -114.21)">
	<stop  offset="0" style="stop-color:#8C5002"/>
	<stop  offset="0.6" style="stop-color:#FEBD25"/>
	<stop  offset="1" style="stop-color:#8C5002"/>
</linearGradient>
<path class="st0" d="M135.1,37.3c0,0,20,22.9,12.1,41.2c-7,16.2-30.5,9.6-30.5,9.6S135.1,37.3,135.1,37.3z"/>
<linearGradient id="SVGID_2_" gradientUnits="userSpaceOnUse" x1="145.2031" y1="210.7841" x2="127.0731" y2="170.5241" gradientTransform="matrix(1 0 0 1 0 -114.21)">
	<stop  offset="0" style="stop-color:#D3891C"/>
	<stop  offset="1" style="stop-color:#753214"/>
</linearGradient>
<path class="st1" d="M126.3,83.6c0.5,1.7,14.9-2.1,17.1-8.8c2.1-6.7-4.3-22.4-5.6-22.4S125.2,79.9,126.3,83.6z"/>
<linearGradient id="SVGID_3_" gradientUnits="userSpaceOnUse" x1="134.8302" y1="196.4304" x2="135.5802" y2="175.9904" gradientTransform="matrix(1 0 0 1 0 -114.21)">
	<stop  offset="0" style="stop-color:#FDEC5D"/>
	<stop  offset="1" style="stop-color:#8C5002"/>
</linearGradient>
<path class="st2" d="M137.7,52.4c-0.1,0-0.4,0.3-0.7,0.9c2.3,4.4,5.9,15.2,4.2,20.5c-1.7,5.2-10.8,8.6-15,9.1c0,0.3,0,0.5,0.1,0.7
	c0.5,1.7,14.9-2.1,17.1-8.8C145.5,68.1,139,52.4,137.7,52.4z"/>
<path class="st3" d="M140.4,62.6c-2.5,6.3-4.3,12.6-5.6,17.4c-0.1,0-0.1,0.1-0.2,0.1c-0.2,0.1-0.3,0.2-0.5,0.2l5.6-20.2L140,61
	C140.1,61.5,140.3,62,140.4,62.6z"/>
<path class="st4" d="M135.7,55.7c-1,2.5-1.8,5.8-2.2,9.7c-0.4,4.4-1.6,9.2-4.7,9.4c-0.2,0-0.4-0.1-0.6-0.3c0.3-1,0.7-2,1-3.1
	c2.1-0.9,2.8-5.2,3.4-8.9C133.8,59.9,134.9,57.5,135.7,55.7z"/>
<path class="st4" d="M138,55.5c-2.4,6.2-3,16.1-5,22.4c-0.4,1.4-0.9,2.5-1.4,3.5c-0.4,0.1-0.8,0.3-1.3,0.4v-0.1
	c5.1-13.3,3.2-15.4,5.9-24.1c0.4-1.3,0.8-2.4,1.2-3.3C137.7,54.7,137.9,55.1,138,55.5z M139.7,76.2c-0.3,0.3-0.6,0.7-1,1
	c0.3-1.5,0.5-3,0.7-3.7c1.5-8.6-1.8-1.8-1.8,2.1c0,0.7,0.3-0.6,0.3-0.8c0.1-0.4,0.5-0.2,0.5,0.2c-0.3,2.5-1.8,3.2-1.3-0.1
	c0.3-2.2,1.6-7,2.7-6.8C141.3,68.5,140.7,72.3,139.7,76.2L139.7,76.2z"/>
<path class="st5" d="M140,60.9c-1.9,6.2-3.7,12.5-5.4,19.1c-0.2,0.1-0.3,0.2-0.5,0.2c-0.2,0.1-0.5,0.2-0.8,0.4
	c0.5-1.6,1.1-3.4,1.6-5.2c1.5-5,2.9-10.6,4.3-16.7c0.1,0.4,0.3,0.8,0.4,1.3C139.8,60.4,139.9,60.6,140,60.9z"/>
<g class="st6">
	<path class="st7" d="M116.7,88.1c0,0,2.1,0.6,5.2,1c2.9-12.6,9.8-40.1,15.2-39.3c4.6,0.7,12,12.4,11.3,25.1
		c4.2-17.5-13.3-37.6-13.3-37.6S116.7,88.1,116.7,88.1z"/>
</g>
<linearGradient id="SVGID_4_" gradientUnits="userSpaceOnUse" x1="76.701" y1="208.3402" x2="103.661" y2="126.5202" gradientTransform="matrix(1 0 0 1 0 -114.21)">
	<stop  offset="0" style="stop-color:#FFFDA6"/>
	<stop  offset="0.24" style="stop-color:#FDEC5D"/>
	<stop  offset="0.47" style="stop-color:#FEBD25"/>
	<stop  offset="1" style="stop-color:#8C5002"/>
</linearGradient>
<path class="st8" d="M116.7,88.1c1.7-1,19.9-49.4,18.4-50.8c-1.5-1.5-70.8-13-72.6-11.2c-1.9,1.9-19.4,44.8-18.8,46
	C44.2,73.3,115,89.1,116.7,88.1z"/>
<path class="st9" d="M111.1,82.6c1.3-0.7,14.7-39.7,13.6-40.8c-1.1-1.1-57-10.3-58.4-8.9c-1.4,1.4-15,34.5-14.5,35.5
	C52.2,69.3,109.8,83.4,111.1,82.6z"/>
<linearGradient id="SVGID_5_" gradientUnits="userSpaceOnUse" x1="84.1777" y1="152.2761" x2="99.5077" y2="215.8361" gradientTransform="matrix(1 0 0 1 0 -114.21)">
	<stop  offset="0" style="stop-color:#FEBD25"/>
	<stop  offset="1" style="stop-color:#8C5002"/>
</linearGradient>
<path class="st10" d="M110.5,81c1.3-0.7,15.4-38.1,14.2-39.3c-1.1-1.1-57-10.3-58.4-8.9c-1.4,1.4-15,34.5-14.5,35.5
	C52.2,69.3,109.2,81.8,110.5,81z"/>
<linearGradient id="SVGID_6_" gradientUnits="userSpaceOnUse" x1="65.0824" y1="148.0898" x2="65.4124" y2="183.1598" gradientTransform="matrix(1 0 0 1 0 -114.21)">
	<stop  offset="0" style="stop-color:#FEBD25"/>
	<stop  offset="1" style="stop-color:#8C5002"/>
</linearGradient>
<path class="st11" d="M52,68.4c0,0,21.1,3.2,25.8-11.5c4.7-14.7-11.5-24-11.5-24C65,34.2,53.9,61.1,52,67.2V68.4z"/>
<linearGradient id="SVGID_7_" gradientUnits="userSpaceOnUse" x1="60.2661" y1="262.8702" x2="58.6461" y2="171.3402" gradientTransform="matrix(1 0 0 1 0 -114.21)">
	<stop  offset="0" style="stop-color:#EFA420"/>
	<stop  offset="1" style="stop-color:#753214"/>
</linearGradient>
<path class="st12" d="M9.5,136.5l65.1,20.3l29.1-14.8l9.6-45.1c0,0-32,15.5-34.3,16c-2.3,0.6-73.6-16-73.6-16S9.5,136.5,9.5,136.5z"
	/>
<linearGradient id="SVGID_8_" gradientUnits="userSpaceOnUse" x1="118.1783" y1="293.1708" x2="86.8883" y2="225.0508" gradientTransform="matrix(1 0 0 1 0 -114.21)">
	<stop  offset="0" style="stop-color:#D3891C"/>
	<stop  offset="1" style="stop-color:#753214"/>
</linearGradient>
<path class="st13" d="M75,156.5l28.7-14.6l9.6-45.1c0,0-32,15.5-34.3,16c-0.3,0.1-2.4-0.2-5.5-0.8C73.6,125.3,74.4,144.6,75,156.5z"
	/>
<path class="st14" d="M74.4,142.8l-61.6-16.6l1.5,2.2c24,6.2,48.3,12.4,60.3,16.9c0.3-0.1,0.5-0.3,0.8-0.4c0-0.9,0.1-1.8,0.2-2.7
	C75.6,142.2,74.4,142.8,74.4,142.8z"/>
<path class="st3" d="M108.9,127.6l-33.3,14.6c0,0.9-0.1,1.8-0.2,2.7c19.4-10,29.4-14.2,33.5-14.2
	C108.9,130.7,108.9,127.6,108.9,127.6z"/>
<path class="st4" d="M74.4,141.3c-13.4-1.5-37.7-8.5-61.6-16.6l2.7,2.9l59.2,16.2l0.4-0.1l-0.3-2.5
	C74.6,141.2,74.5,141.3,74.4,141.3z"/>
<path class="st5" d="M108.9,126.2c-8.8,5.4-19,10.6-34.2,15l0.3,2.5l33.9-15.1V126.2z"/>
<path class="st3" d="M108.9,112.7L76.2,127v2.5c10.9-5.8,21.9-10.6,32.7-14.5C108.9,115,108.9,112.7,108.9,112.7z"/>
<path class="st14" d="M76.2,127.1l-1.8,0.8l-61.7-16.6l1.5,2.2c22.6,6.2,45.2,11.7,60.3,16.9c0.5-0.3,1-0.5,1.5-0.8
	C76.2,128.8,76.2,127.9,76.2,127.1z"/>
<path class="st4" d="M12.7,109.8l1,2.1l59.4,16.6v-2.2C60.4,125.2,36.6,117.5,12.7,109.8z"/>
<path class="st5" d="M108.9,113.6v-2.4c-12.4,7-24,12.3-34.5,15.1c-0.4,0-0.8,0-1.3-0.1v2.2l1.5,0.4
	C74.6,128.8,108.9,113.6,108.9,113.6z"/>
<path class="st15" d="M90.9,130c6.7-3.2,5.7-5.7,17-9.9c0.4-0.1,0.3-0.7-0.1-0.7c-8.7-0.5-19,17.5-29,9
	C78.1,128,82.3,134.1,90.9,130z"/>
<path class="st15" d="M107.9,125c-3.6-2.4-7.6-0.2-10.3,2.3c-7.1,6.5-16.1,5.9-15.2,5.9c1.9,0,7.1,0.5,11.7-1.6
	c3.6-1.6,8.3-7.1,12.5-4.3C108,128.3,109.3,126,107.9,125z M77.8,150.7c4.8-3.9,9.6-7.6,15.4-10.2c12.7-5.8,3.3,4.6-2.9,4.7
	c-1,0,0.8-0.7,1.2-1c0.5-0.4,0.2-1.4-0.5-1.2c-3.8,1.1-4.6,4.9,0.5,3.4c3.4-1,10.5-4.7,10-7.6C99.7,130.3,74.2,153.6,77.8,150.7z"/>
<path class="st16" d="M108,107.7c-7.6,0.3-15.1,10.6-27.1,11c7.3,1.4,14.4-3.4,20.1-6.3c2.4-1.2,5.1-1.9,7.5-3.1
	C109.2,109,108.8,107.7,108,107.7z"/>
<path class="st15" d="M51.5,131.4c1.5,0,4.9,0.7,5.9,1.9c0.1,0.2,0.1,0.4,0.4,0.6c1.1,0.7,2.7-0.1,0.5-1.4c-9-5.3-14.1-1.4-2.5,3.2
	c9.9,4,15.9-3.5-1.1-8.2c-15.4-4.2-32.4-0.3-46.3-9.7c13.5,11.6,34,5.7,50.1,12.3C71,135.2,57.7,139.2,51.5,131.4z"/>
<path class="st15" d="M41.8,120.9c-9,1.9-19.2-0.6-27.1-4.9c-2.3-1.2-4.6-3.5-7.1-4.2c-0.6-0.1-1.1,0.5-0.8,1c1.3,2.4,4.8,4,7.2,5.2
	C30.5,126.5,43.4,120.6,41.8,120.9z"/>
<path class="st16" d="M30.3,109.3c-8,2.5-14.7-4.6-18.9-11.8c1.8,4.1,4.5,7.8,8.1,10.6C27.9,114.7,33,108.4,30.3,109.3z M68.7,119.5
	c-0.9-0.1-15.2,1.9-20.7-10.8C54.2,126.3,74.1,120.4,68.7,119.5z"/>
<path class="st15" d="M27.8,136c0.3,3,7,6.1,8.3,5.5c1.6-0.7-0.1-3.1-0.9-2.4c-0.5,0.4,0.1,0.7,0.1,1.2c-2.7-0.1-9.4-6.1-3.5-4.6
	c6.2,1.6,11.6,7.6,8.8,8.4c-0.6,0.2-11.8-1.9-26.8-13.5c-0.2-0.1-0.4,0.2-0.2,0.3c15.2,11.7,26.8,15.3,28.7,14
	C47.4,141.4,27,129.3,27.8,136z M71.5,151c-19.4-3.4-21.7-13.2-34.3-15.7c6.5,2.3,11.7,7.4,17.4,11.2c4.5,3,11.2,7,16.9,5.9
	C72.3,152.3,72.3,151.1,71.5,151z"/>
<path class="st15" d="M59.5,143.1c-0.7,2.1,7.7,5,10.2,5.5c-2.5-1-5.1-2.2-7.3-3.7C63.9,143.8,60,141.6,59.5,143.1z"/>
<path class="st17" d="M5.4,96.9l4,39.1c0.2,0.2,0.3,0.4,0.5,0.6l11.3,3.5c-0.1-0.4-0.3-0.8-0.3-1.1c-0.9-4.7-1.1-10.1-0.1-14.8
	c0.4-1.8,1.2-4.9,3.3-5.5c8.4-2.4,7.7,14.1,21.3,11c5.3-1.2,8.5-10.1,12.5-9.6c6,0.8,8.7,19.1,4.5,32.8l12.2,3.8l10.3-5.2
	c-0.4-13,1.2-34.8,19.5-39.7c1.7-18-24.6,0.9-25.4,1.1C76.7,113.5,5.4,96.9,5.4,96.9z"/>
<linearGradient id="SVGID_9_" gradientUnits="userSpaceOnUse" x1="57.2432" y1="251.2767" x2="47.4532" y2="228.6467" gradientTransform="matrix(1 0 0 1 0 -114.21)">
	<stop  offset="0" style="stop-color:#FDEC5D"/>
	<stop  offset="1" style="stop-color:#8C5002"/>
</linearGradient>
<path class="st18" d="M3.8,94.3l9,36.5l-2.8,4.5c0,0,2.6,8.3,3.8,10l7.3-5.2c0,0-1.8-0.6-2.8-0.9c-1.4-9.1-5.1-34.4-3.5-35.8
	c1.8-1.8,14.4,3.3,14.4,3.3l9.9,23.7c0,0,7.2,0.9,9.5-5.6c2.1-5.9,2.5-13.3,8.3-12.1c5.5,1.2,19.6,9.8,19.6,9.8s3.1-2.4,7.2-5.3
	c0.5-8.7,0.5-17.5,0.7-26.3C52.1,89.7,3.8,94.3,3.8,94.3z"/>
<linearGradient id="SVGID_10_" gradientUnits="userSpaceOnUse" x1="114.4703" y1="265.3037" x2="106.2003" y2="243.7637" gradientTransform="matrix(1 0 0 1 0 -114.21)">
	<stop  offset="0" style="stop-color:#FDEC5D"/>
	<stop  offset="1" style="stop-color:#8C5002"/>
</linearGradient>
<path class="st19" d="M110.3,133.6c2.7-10.1,3.7-26.7,1.6-35.9c-1-4.3-12.6-6.1-27.8-6.7c-0.1,8.7-0.1,17.5-0.6,26.2
	c7.2-5,17.3-11.7,19.8-10.3c2.7,1.5,0.4,35.1,0.4,35.1l-2.6,1.3c0,0,7.5,3.8,8.6,3.8c0,0,3.6-8.5,2.5-12.3
	C112.1,134.3,111.3,133.9,110.3,133.6z"/>
<linearGradient id="SVGID_11_" gradientUnits="userSpaceOnUse" x1="59.2819" y1="211.8993" x2="59.9319" y2="263.0293" gradientTransform="matrix(1 0 0 1 0 -114.21)">
	<stop  offset="0" style="stop-color:#FFFDA6"/>
	<stop  offset="0.24" style="stop-color:#FDEC5D"/>
	<stop  offset="0.47" style="stop-color:#FEBD25"/>
	<stop  offset="1" style="stop-color:#8C5002"/>
</linearGradient>
<path class="st20" d="M117.6,132.7c-0.3-0.4-1.5-1.1-3.1-1.9c1.5-15.1,4-40.6,2.3-42.8c-0.9-1.4-71.2-16.2-73.4-16.2
	c-2.1,0-40.9,15.1-42.1,17.9c-1,2.3,1.3,23,4.2,40.1c0,0-3.5,1.3-3.8,2.1c-0.2,0.7,0.7,8.1,1.5,9c0.7,0.9,10.6,4.4,10.6,4.4
	s-2.4-8.9-2.2-10.2c0.2-1.1,2.2-2.6,2.2-2.6s-4.1-28.1-3-29.2c1-1,14.4,0.5,14.6,4.1c0.4,5.6,3.5,20,12.5,22.6
	c9.5,2.7,8.3-17.7,13.7-17.7s11.5,2,12.5,4.2c1.3,2.9,2.2,9.4,3.5,32.7c-0.5,0.2-4.2,1.4-4.5,2.2c-0.3,0.8,0.2,10.2,0.7,11.2
	c0.5,1,9.8,4.8,11.9,4.8s9.5-4.5,9.9-5.4c0.3-0.8,1.1-9.8,0.7-10.6c-0.3-0.8-4.4-2.2-4.4-2.2c0.8-10.8,2.5-29.8,3.4-31.9
	c1.3-2.9,20-12.6,21.9-10.8c1.4,1.4,1,16.1,0.7,23.3c-0.1,2.4-0.2,4-0.2,4s3.4,0.6,3.8,1.9c0.4,1.3-1.5,11-1.6,11.4
	c1.4-0.2,5.6-2.2,6.1-2.8C116.6,143.3,118.4,133.9,117.6,132.7z"/>
<path class="st9" d="M65,116.1c-0.9-2.1-9.2-4.8-14.6-4.8c-4.2,0-4.1,13.6-8.4,18.2c5.1-3.5,5.1-17.2,9.4-17.2
	c5.3,0,11.5,2,12.5,4.2c1.3,2.9,2.1,9.2,3.4,31.6C66.2,125.6,66.3,119,65,116.1z"/>
<linearGradient id="SVGID_12_" gradientUnits="userSpaceOnUse" x1="88.6479" y1="220.6092" x2="104.9679" y2="266.0792" gradientTransform="matrix(1 0 0 1 0 -114.21)">
	<stop  offset="0" style="stop-color:#8C5002"/>
	<stop  offset="0.6" style="stop-color:#FEBD25"/>
	<stop  offset="1" style="stop-color:#8C5002"/>
</linearGradient>
<path class="st21" d="M85.5,162c0.3-0.8,1.1-9.8,0.7-10.6c-0.3-0.8-4.4-2.2-4.4-2.2c0.8-10.8,2.5-29.8,3.4-31.9
	c1.3-2.9,20-12.6,21.9-10.8c1.4,1.4,1,16.1,0.7,23.3c-0.1,2.4-0.2,4-0.2,4s3.4,0.6,3.8,1.9c0.4,1.3-1.5,11-1.6,11.4
	c1.4-0.2,5.6-2.2,6.1-2.8c0.7-1,2.5-10.4,1.7-11.6c-0.3-0.4-1.5-1.1-3.1-1.9c1.5-15.1,4-40.6,2.3-42.8c-0.2-0.3-4.5-1.4-10.9-2.9
	c-12.4,1.3-26.2,7.7-28.6,24.8c0,0-1.6,40.6-1.6,41.5c0,0.9,1.4,2.1,1.6,3.2s-1.6,12.7-1.6,12.7C77.7,167.3,85.2,162.8,85.5,162z"/>
<path class="st9" d="M47.9,116.9c-5.3,1.6-11.2,0.7-15.8-2.3c-2.3-1.5-4.2-3.5-6.5-5.1c0.4,3.2,1.5,7.7,3.4,11.8
	c3.6-1.7,8.2-1.5,11.6,0.6c1.7,1.1,3,2.5,4.2,4.2C46.1,123.3,46.9,119.7,47.9,116.9z"/>
<g class="st6">
	<path class="st7" d="M81.8,149.1c0.4-5.1,1-12,1.5-18.1c-3.9-7.5-4.7-19.8-4.8-26.9c-0.6,1.7-1.1,3.6-1.4,5.7
		c0,0-1.6,40.6-1.6,41.5c0,0.9,1.4,2.1,1.6,3.2s-1.6,12.7-1.6,12.7c2.1,0,9.5-4.5,9.9-5.4c0.3-0.8,1.1-9.8,0.7-10.6
		C85.9,150.5,81.8,149.1,81.8,149.1z"/>
</g>
<path class="st22" d="M34.2,114.4c1.1,1.4-2,7-1.4,8s7,3.1,7.9,2.1s-3-7.5-1.6-9c3.5-3.5,2.1-6-1.8-7.1
	C33,107.2,31.2,110.7,34.2,114.4z"/>
<linearGradient id="SVGID_13_" gradientUnits="userSpaceOnUse" x1="42.6356" y1="268.097" x2="34.0856" y2="222.987" gradientTransform="matrix(1 0 0 1 0 -114.21)">
	<stop  offset="0" style="stop-color:#FFFDA6"/>
	<stop  offset="0.24" style="stop-color:#FDEC5D"/>
	<stop  offset="0.47" style="stop-color:#FEBD25"/>
	<stop  offset="1" style="stop-color:#8C5002"/>
</linearGradient>
<path class="st23" d="M35.1,121.1c-0.6-1,2.5-6.6,1.4-8c-1.5-1.9-1.8-3.7-1.1-4.9c-2.9,0.1-3.7,3.1-1.2,6.2c1.1,1.4-2,7-1.4,8
	s7,3.1,7.9,2.1c0.2-0.2,0.2-0.6,0-1.2C38.5,123,35.6,121.8,35.1,121.1z"/>
<linearGradient id="SVGID_14_" gradientUnits="userSpaceOnUse" x1="53.9832" y1="206.184" x2="127.5232" y2="165.714" gradientTransform="matrix(1 0 0 1 0 -114.21)">
	<stop  offset="0" style="stop-color:#FFFDA6"/>
	<stop  offset="0.24" style="stop-color:#FDEC5D"/>
	<stop  offset="0.47" style="stop-color:#FEBD25"/>
	<stop  offset="1" style="stop-color:#8C5002"/>
</linearGradient>
<path class="st24" d="M1.2,89.7c0.3,2,74.7,20.2,76,20.2s39.6-19.8,39.6-21.9c-0.9-1.4-71.2-16.2-73.4-16.2
	C41.2,71.8,2.5,86.9,1.2,89.7z"/>
<linearGradient id="SVGID_15_" gradientUnits="userSpaceOnUse" x1="58.1344" y1="217.6489" x2="59.3644" y2="167.8989" gradientTransform="matrix(1 0 0 1 0 -114.21)">
	<stop  offset="0" style="stop-color:#FFFDA6"/>
	<stop  offset="0.24" style="stop-color:#FDEC5D"/>
	<stop  offset="0.47" style="stop-color:#FEBD25"/>
	<stop  offset="1" style="stop-color:#8C5002"/>
</linearGradient>
<path class="st25" d="M11.1,89c-0.5,1.6,63.9,15.5,65.4,15.1c1.4-0.3,29.4-14.5,29.4-15.7c0-1.2-57.9-13.3-60.5-13.3
	C42.8,75.2,11.9,86.7,11.1,89z"/>
<linearGradient id="SVGID_16_" gradientUnits="userSpaceOnUse" x1="11.14" y1="200.61" x2="45.39" y2="200.61" gradientTransform="matrix(1 0 0 1 0 -114.21)">
	<stop  offset="0" style="stop-color:#FDEC5D"/>
	<stop  offset="1" style="stop-color:#8C5002"/>
</linearGradient>
<path class="st26" d="M11.1,89c-0.3,0.8,17.2,5,34.3,8.7V75.1C42.8,75.2,11.9,86.7,11.1,89z"/>
<linearGradient id="SVGID_17_" gradientUnits="userSpaceOnUse" x1="10.6131" y1="238.243" x2="-0.5469" y2="269.003" gradientTransform="matrix(1 0 0 1 0 -114.21)">
	<stop  offset="0" style="stop-color:#FFFDA6"/>
	<stop  offset="0.24" style="stop-color:#FDEC5D"/>
	<stop  offset="0.47" style="stop-color:#FEBD25"/>
	<stop  offset="1" style="stop-color:#8C5002"/>
</linearGradient>
<path class="st27" d="M1.6,131.9c1.5,1.5,9.9,3.2,9.9,3.2c0.2-1.1,2.2-2.6,2.2-2.6l-8.4-2.8C5.4,129.8,1.9,131.1,1.6,131.9z"/>
<path class="st9" d="M11.5,135.1c0,0-8.4-1.8-9.9-3.2c1.5,1.5,10,4.6,10,4.6c0.2-1.1,2.1-3.9,2.1-3.9S11.7,134,11.5,135.1z"/>
<linearGradient id="SVGID_18_" gradientUnits="userSpaceOnUse" x1="68.6184" y1="257.3112" x2="88.4984" y2="284.4412" gradientTransform="matrix(1 0 0 1 0 -114.21)">
	<stop  offset="0" style="stop-color:#FFFDA6"/>
	<stop  offset="0.24" style="stop-color:#FDEC5D"/>
	<stop  offset="0.47" style="stop-color:#FEBD25"/>
	<stop  offset="1" style="stop-color:#8C5002"/>
</linearGradient>
<path class="st28" d="M86.1,151.1c-0.8-0.8-4.3-2-4.3-2c-2.5,1.8-6.2,2.2-6.2,2.2s-5,0.3-8.1-2.2c-0.5,0.2-4.2,1.4-4.5,2.2
	c0,0,11.4,4.8,14.2,4.1c2.8-0.6,9-4.1,9-4.1S86.2,151.2,86.1,151.1z"/>
<path class="st9" d="M77.2,154.6c-2.8,0.6-14.2-3.2-14.2-3.2s11.4,5.9,14.2,5.2s9-5.3,9-5.3S80,153.9,77.2,154.6z"/>
<g class="st29">
	<path class="st9" d="M76.8,120.4c-4.4,23.6-11.6,0.7-11.6,0.7c0.7,4.2,1.3,11.3,2.1,24.4c4.2-11.6,8.5,2.1,8.5,2.1
		C76.2,140.4,76.3,132.4,76.8,120.4z M10.6,104.5c-0.3,1.9-0.6,2.9-0.6,2.9c0.2,9.1-6.9,2-8.3-5.1c0.7,7.5,2,17.2,3.5,26.1
		c1.8-10.6,6.8-1.4,8.2,1.3C12.5,123.7,10.5,108.8,10.6,104.5z"/>
</g>
<path class="st9" d="M41.6,127.8c-0.1,0.6-1.7,0.8-3.5,0.4c-1.8-0.4-3.1-1.3-2.9-2c0.1-0.6,1.7-0.8,3.5-0.4
	C40.5,126.3,41.8,127.1,41.6,127.8z"/>
<path class="st30" d="M107.8,127.9c0,0.6,0,1.3-0.1,1.9c-0.1,2.4-0.2,4-0.2,4s3.4,0.6,3.8,1.9c0.4,1.3-1.5,11-1.6,11.4
	c1.4-0.2,5.6-2.2,6.1-2.8c0.7-1,2.5-10.4,1.7-11.6c-0.3-0.4-1.5-1.1-3.1-1.9c0.3-3.5,0.8-7.6,1.1-11.7
	C112.8,122.6,110.2,125.5,107.8,127.9z"/>
<path class="st31" d="M116.6,132.7c-0.3-0.4-1.5-1.1-3.1-1.9l-6.9,3c0,0,3.4,0.6,3.8,1.9l6.4-2.1
	C116.7,133.2,116.7,132.9,116.6,132.7z"/>
<path class="st9" d="M35.5,99.6c-0.2,0.9,39,9.7,40.4,11.3c1.4,1.6-0.6,18.1,0,18.1s1.5-17,2.1-18.1c0.4-0.8,4.2-2.8,4-3.1
	c-0.1-0.3-3.1,1.1-4.6,1.5C73.6,110.1,35.7,98.7,35.5,99.6z"/>
</svg>
